<?xml version="1.0" encoding="UTF-8" ?>
<!DOCTYPE svg PUBLIC "-//W3C//DTD SVG 1.1//EN" "http://www.w3.org/Graphics/SVG/1.1/DTD/svg11.dtd">
<svg width="180pt" height="180pt" viewBox="0 0 180 180" version="1.1" xmlns="http://www.w3.org/2000/svg">
<g id="#fefefeff">
</g>
<g id="#3e3e3eff">
<path fill="#3e3e3e" opacity="1.00" d=" M 68.84 34.80 C 76.86 27.45 81.26 13.82 91.13 9.94 C 81.41 30.53 70.22 50.52 59.08 70.35 C 46.29 83.41 33.23 96.22 20.30 109.14 C 19.53 110.09 18.95 109.88 18.58 108.49 C 33.37 82.64 49.36 57.44 68.84 34.80 M 46.49 69.34 C 40.49 77.96 34.54 86.74 29.84 96.11 C 38.37 89.56 44.64 80.61 52.21 73.04 C 50.84 71.40 49.04 67.99 46.49 69.34 Z" />
</g>
<g id="#afafafff">
<path fill="#afafaf" opacity="1.00" d=" M 91.13 9.94 C 111.12 32.32 130.43 55.34 150.76 77.41 C 149.37 78.93 152.91 85.40 150.06 86.00 C 153.91 75.29 138.90 81.15 133.74 83.79 C 129.93 92.20 142.49 83.40 145.98 82.92 C 145.91 102.59 141.10 122.07 141.27 141.67 C 143.27 148.92 144.35 144.01 144.65 138.65 C 145.15 142.13 145.28 150.80 143.40 152.59 C 121.12 130.90 97.98 110.02 75.76 88.24 C 71.33 81.42 61.08 78.44 59.08 70.35 C 70.22 50.52 81.41 30.53 91.13 9.94 M 89.75 17.92 C 84.25 30.69 76.30 42.08 70.91 54.86 C 76.09 54.36 82.28 54.87 79.46 61.36 C 76.49 69.85 65.58 64.76 62.95 69.83 C 72.55 70.47 82.07 71.95 91.65 72.73 C 95.14 63.19 99.20 53.78 102.04 44.05 C 100.45 38.27 97.68 32.91 95.70 27.26 C 95.86 25.78 96.02 24.30 96.19 22.82 C 113.38 40.46 128.76 61.80 147.05 77.15 C 129.88 56.23 111.50 33.52 91.98 15.78 C 91.81 13.70 89.47 16.90 89.75 17.92 M 103.59 56.62 C 96.45 61.17 89.55 76.22 100.71 80.14 C 98.49 72.54 107.45 74.91 110.97 71.95 C 112.64 70.73 120.11 67.99 117.32 72.31 C 111.83 75.30 105.78 77.86 101.74 83.01 C 107.97 88.96 120.74 72.18 125.24 78.85 C 119.11 81.96 112.91 84.97 106.81 88.16 C 114.08 94.49 120.31 102.51 127.77 108.11 C 127.31 98.82 135.71 82.89 131.16 77.09 C 123.51 66.33 112.87 57.74 104.68 47.27 C 98.44 47.74 110.19 54.73 103.59 56.62 M 68.24 75.18 C 66.06 78.64 75.53 81.52 76.93 85.12 C 80.30 82.68 85.78 81.17 87.02 77.18 C 80.75 76.63 74.52 75.34 68.24 75.18 M 89.88 76.97 C 93.19 82.52 96.72 87.34 98.21 93.00 C 95.93 94.84 89.45 85.60 93.30 91.68 C 97.56 94.07 93.97 96.65 91.81 99.00 C 97.15 105.36 103.68 110.73 109.63 116.42 C 114.38 117.04 118.94 113.28 123.85 113.08 C 127.32 121.34 131.26 129.43 134.08 137.99 C 134.28 140.41 140.54 147.31 138.83 141.14 C 134.62 131.00 131.80 119.18 125.14 110.84 C 114.39 98.98 103.26 85.11 89.88 76.97 Z" />
</g>
<g id="#383838ff">
<path fill="#383838" opacity="1.00" d=" M 89.75 17.92 C 89.47 16.90 91.81 13.70 91.98 15.78 C 92.96 19.69 94.24 23.51 95.70 27.26 C 97.68 32.91 100.45 38.27 102.04 44.05 C 99.20 53.78 95.14 63.19 91.65 72.73 C 82.07 71.95 72.55 70.47 62.95 69.83 C 65.58 64.76 76.49 69.85 79.46 61.36 C 85.51 55.71 91.98 50.47 97.80 44.61 C 96.73 35.31 92.18 26.89 89.75 17.92 Z" />
</g>
<g id="#7c7c7cff">
<path fill="#7c7c7c" opacity="1.00" d=" M 91.98 15.78 C 111.50 33.52 129.88 56.23 147.05 77.15 C 128.76 61.80 113.38 40.46 96.19 22.82 C 96.02 24.30 95.86 25.78 95.70 27.26 C 94.24 23.51 92.96 19.69 91.98 15.78 Z" />
</g>
<g id="#878787ff">
<path fill="#878787" opacity="1.00" d=" M 70.91 54.86 C 76.30 42.08 84.25 30.69 89.75 17.92 C 92.18 26.89 96.73 35.31 97.80 44.61 C 91.98 50.47 85.51 55.71 79.46 61.36 C 82.28 54.87 76.09 54.36 70.91 54.86 Z" />
<path fill="#878787" opacity="1.00" d=" M 89.88 76.97 C 103.26 85.11 114.39 98.98 125.14 110.84 C 115.60 107.30 110.74 97.88 103.49 91.47 C 101.69 89.88 99.78 92.18 98.21 93.00 C 96.72 87.34 93.19 82.52 89.88 76.97 Z" />
</g>
<g id="#949494ff">
<path fill="#949494" opacity="1.00" d=" M 103.59 56.62 C 110.19 54.73 98.44 47.74 104.68 47.27 C 112.87 57.74 123.51 66.33 131.16 77.09 C 129.18 77.64 127.20 78.22 125.24 78.85 C 120.74 72.18 107.97 88.96 101.74 83.01 C 105.78 77.86 111.83 75.30 117.32 72.31 C 120.11 67.99 112.64 70.73 110.97 71.95 C 107.45 74.91 98.49 72.54 100.71 80.14 C 89.55 76.22 96.45 61.17 103.59 56.62 Z" />
</g>
<g id="#888888ff">
<path fill="#888888" opacity="1.00" d=" M 46.49 69.34 C 49.04 67.99 50.84 71.40 52.21 73.04 C 44.64 80.61 38.37 89.56 29.84 96.11 C 34.54 86.74 40.49 77.96 46.49 69.34 Z" />
</g>
<g id="#898989ff">
<path fill="#898989" opacity="1.00" d=" M 20.30 109.14 C 33.23 96.22 46.29 83.41 59.08 70.35 C 61.08 78.44 71.33 81.42 75.76 88.24 C 97.98 110.02 121.12 130.90 143.40 152.59 C 135.88 155.61 124.65 153.57 115.73 153.68 C 121.34 151.19 148.62 157.49 135.24 147.80 C 124.69 138.00 114.37 127.92 103.51 118.47 C 100.94 116.11 94.95 108.44 94.21 115.18 C 91.59 122.33 92.78 112.94 93.87 110.10 C 92.27 107.95 87.95 101.23 87.24 107.03 C 82.60 100.45 76.85 94.57 70.43 89.70 C 70.24 83.40 61.78 80.25 57.95 75.89 C 45.77 82.53 35.25 97.81 23.73 107.75 C 16.10 113.70 30.42 116.42 34.42 118.74 C 45.07 126.39 55.79 134.71 63.74 145.15 C 66.93 146.63 70.29 148.39 73.90 148.25 C 73.41 150.46 73.07 152.71 72.84 154.97 C 55.97 141.98 39.70 128.22 22.95 115.07 C 20.92 114.73 16.09 108.31 18.58 108.49 C 18.95 109.88 19.53 110.09 20.30 109.14 Z" />
</g>
<g id="#bebebeff">
<path fill="#bebebe" opacity="1.00" d=" M 23.73 107.75 C 35.25 97.81 45.77 82.53 57.95 75.89 C 67.56 81.30 61.78 94.23 52.67 95.63 C 43.30 99.71 31.36 100.31 24.86 109.07 C 40.59 104.26 57.12 99.75 70.43 89.70 C 76.85 94.57 82.60 100.45 87.24 107.03 C 84.66 111.51 84.45 116.19 89.76 118.43 C 91.26 123.58 86.19 120.73 83.95 119.17 C 79.86 128.57 76.98 138.48 73.90 148.25 C 70.29 148.39 66.93 146.63 63.74 145.15 C 55.79 134.71 45.07 126.39 34.42 118.74 C 30.42 116.42 16.10 113.70 23.73 107.75 Z" />
</g>
<g id="#5c5c5cff">
<path fill="#5c5c5c" opacity="1.00" d=" M 68.24 75.18 C 74.52 75.34 80.75 76.63 87.02 77.18 C 85.78 81.17 80.30 82.68 76.93 85.12 C 75.53 81.52 66.06 78.64 68.24 75.18 Z" />
</g>
<g id="#4b4b4bff">
<path fill="#4b4b4b" opacity="1.00" d=" M 57.95 75.89 C 61.78 80.25 70.24 83.40 70.43 89.70 C 57.12 99.75 40.59 104.26 24.86 109.07 C 31.36 100.31 43.30 99.71 52.67 95.63 C 61.78 94.23 67.56 81.30 57.95 75.89 Z" />
<path fill="#4b4b4b" opacity="1.00" d=" M 87.24 107.03 C 87.95 101.23 92.27 107.95 93.87 110.10 C 92.78 112.94 91.59 122.33 94.21 115.18 C 94.95 108.44 100.94 116.11 103.51 118.47 C 85.60 119.26 83.51 138.96 76.03 151.15 C 95.75 149.80 115.58 149.82 135.24 147.80 C 148.62 157.49 121.34 151.19 115.73 153.68 C 101.44 154.36 87.15 155.56 72.84 154.97 C 73.07 152.71 73.41 150.46 73.90 148.25 C 76.98 138.48 79.86 128.57 83.95 119.17 C 86.19 120.73 91.26 123.58 89.76 118.43 C 84.45 116.19 84.66 111.51 87.24 107.03 Z" />
</g>
<g id="#424242ff">
<path fill="#424242" opacity="1.00" d=" M 125.24 78.85 C 127.20 78.22 129.18 77.64 131.16 77.09 C 135.71 82.89 127.31 98.82 127.77 108.11 C 120.31 102.51 114.08 94.49 106.81 88.16 C 112.91 84.97 119.11 81.96 125.24 78.85 Z" />
</g>
<g id="#4d4d4dff">
<path fill="#4d4d4d" opacity="1.00" d=" M 133.74 83.79 C 138.90 81.15 153.91 75.29 150.06 86.00 C 147.97 103.52 147.26 121.19 144.65 138.65 C 144.35 144.01 143.27 148.92 141.27 141.67 C 141.10 122.07 145.91 102.59 145.98 82.92 C 142.49 83.40 129.93 92.20 133.74 83.79 Z" />
</g>
<g id="#545454ff">
<path fill="#545454" opacity="1.00" d=" M 93.30 91.68 C 89.45 85.60 95.93 94.84 98.21 93.00 C 99.78 92.18 101.69 89.88 103.49 91.47 C 110.74 97.88 115.60 107.30 125.14 110.84 C 131.80 119.18 134.62 131.00 138.83 141.14 C 140.54 147.31 134.28 140.41 134.08 137.99 C 131.26 129.43 127.32 121.34 123.85 113.08 C 118.94 113.28 114.38 117.04 109.63 116.42 C 103.68 110.73 97.15 105.36 91.81 99.00 C 93.97 96.65 97.56 94.07 93.30 91.68 Z" />
</g>
<g id="#a7a7a7ff">
<path fill="#a7a7a7" opacity="1.00" d=" M 76.03 151.15 C 83.51 138.96 85.60 119.26 103.51 118.47 C 114.37 127.92 124.69 138.00 135.24 147.80 C 115.58 149.82 95.75 149.80 76.03 151.15 Z" />
</g>
</svg>
