<?xml version="1.0" encoding="UTF-8" ?>
<!DOCTYPE svg PUBLIC "-//W3C//DTD SVG 1.1//EN" "http://www.w3.org/Graphics/SVG/1.1/DTD/svg11.dtd">
<svg width="180pt" height="180pt" viewBox="0 0 180 180" version="1.1" xmlns="http://www.w3.org/2000/svg">
<g id="#fefefeff">
</g>
<g id="#505050ff">
<path fill="#505050" opacity="1.00" d=" M 83.98 17.99 C 85.47 14.37 90.62 8.78 92.95 14.93 C 107.97 38.36 129.42 58.33 145.84 81.30 C 128.27 65.78 115.70 45.15 98.87 28.82 C 99.65 34.69 107.61 40.31 103.31 46.06 C 102.66 44.86 101.98 43.67 101.31 42.48 C 100.22 39.89 98.97 33.16 96.57 38.46 C 94.75 44.27 91.88 36.10 88.37 35.62 C 93.65 31.35 90.16 25.26 88.92 19.93 C 90.04 18.04 90.95 16.00 91.12 13.78 C 78.04 29.82 67.50 47.93 54.61 64.20 C 53.67 65.14 52.75 66.11 51.86 67.10 C 63.38 81.58 76.99 94.53 90.21 107.55 C 89.88 112.10 94.18 116.13 97.72 119.16 C 85.71 123.07 80.97 139.15 73.98 150.03 C 89.68 149.49 105.31 151.37 121.01 151.05 C 125.81 150.80 131.53 151.43 134.30 155.93 C 128.20 156.08 122.10 155.92 116.00 156.02 C 101.05 155.23 83.47 156.49 70.16 153.15 C 70.47 151.57 70.75 149.98 71.00 148.39 C 74.76 137.79 80.05 127.78 83.68 117.15 C 76.50 109.45 68.30 102.70 61.60 94.55 C 71.73 101.56 79.36 111.50 88.20 119.96 C 92.77 120.06 87.74 115.19 86.10 113.80 C 89.73 103.33 75.17 99.04 71.28 90.78 C 68.24 86.47 64.28 92.53 61.60 94.55 C 49.25 97.86 37.45 102.95 25.10 106.21 C 25.34 105.51 25.82 104.12 26.06 103.42 C 37.51 94.59 57.11 97.86 64.08 83.94 C 59.83 78.95 55.15 74.32 50.17 70.06 C 40.63 81.29 31.65 93.13 22.85 104.92 C 22.17 105.75 21.47 106.58 20.77 107.40 C 20.28 107.27 19.31 107.02 18.82 106.90 C 39.03 76.27 62.31 47.65 83.98 17.99 Z" />
</g>
<g id="#c1c1c1ff">
<path fill="#c1c1c1" opacity="1.00" d=" M 54.61 64.20 C 67.50 47.93 78.04 29.82 91.12 13.78 C 90.95 16.00 90.04 18.04 88.92 19.93 C 79.80 31.97 71.71 44.71 63.02 57.05 C 60.57 59.40 59.30 66.95 54.61 64.20 Z" />
</g>
<g id="#acacacff">
<path fill="#acacac" opacity="1.00" d=" M 92.95 14.93 C 112.35 37.76 133.39 60.47 150.07 84.91 C 145.06 85.06 133.20 83.83 133.81 91.89 C 137.83 90.57 141.61 88.51 145.79 87.73 C 143.40 107.20 136.73 126.40 136.87 146.03 C 137.78 150.83 139.16 145.95 139.76 143.71 C 138.69 146.85 141.20 155.88 137.25 156.73 C 123.44 138.69 105.98 123.73 90.21 107.55 C 76.99 94.53 63.38 81.58 51.86 67.10 C 63.05 66.81 74.15 68.42 85.30 68.84 C 97.40 70.82 96.45 52.99 103.31 46.06 C 107.61 40.31 99.65 34.69 98.87 28.82 C 115.70 45.15 128.27 65.78 145.84 81.30 C 129.42 58.33 107.97 38.36 92.95 14.93 M 103.10 61.03 C 99.56 63.54 89.72 70.42 97.63 73.42 C 101.09 74.86 98.28 80.33 103.14 80.76 C 109.03 80.36 104.14 87.87 109.71 88.73 C 115.40 95.50 121.15 102.33 127.88 108.11 C 130.62 98.76 132.91 89.16 135.36 79.69 C 128.84 70.89 114.97 56.48 106.07 45.88 C 103.25 50.06 96.83 57.40 103.10 61.03 M 67.05 71.97 C 71.51 75.01 64.19 79.19 69.17 81.84 C 74.61 90.32 81.66 75.90 86.95 74.18 C 80.58 72.15 73.61 73.25 67.05 71.97 M 89.95 72.88 C 94.61 80.15 89.29 82.05 82.92 78.95 C 85.25 85.39 92.62 88.82 95.91 94.83 C 93.97 98.47 89.42 94.72 87.14 97.26 C 86.54 99.66 88.78 103.62 91.01 103.66 C 95.35 108.48 99.69 113.97 104.66 117.70 C 107.62 121.09 112.41 128.85 116.91 124.03 C 114.36 133.54 125.67 138.75 130.95 145.07 C 131.28 147.07 136.12 149.90 134.81 146.15 C 132.23 134.92 130.58 123.24 126.69 112.45 C 116.38 98.08 103.13 84.48 89.95 72.88 Z" />
<path fill="#acacac" opacity="1.00" d=" M 61.60 94.55 C 64.28 92.53 68.24 86.47 71.28 90.78 C 75.17 99.04 89.73 103.33 86.10 113.80 C 87.74 115.19 92.77 120.06 88.20 119.96 C 79.36 111.50 71.73 101.56 61.60 94.55 Z" />
</g>
<g id="#757575ff">
<path fill="#757575" opacity="1.00" d=" M 63.02 57.05 C 71.71 44.71 79.80 31.97 88.92 19.93 C 90.16 25.26 93.65 31.35 88.37 35.62 C 91.88 36.10 94.75 44.27 96.57 38.46 C 98.97 33.16 100.22 39.89 101.31 42.48 C 93.13 50.87 84.11 58.41 75.98 66.81 C 79.05 67.63 82.19 68.20 85.30 68.84 C 74.15 68.42 63.05 66.81 51.86 67.10 C 52.75 66.11 53.67 65.14 54.61 64.20 C 59.30 66.95 60.57 59.40 63.02 57.05 Z" />
</g>
<g id="#212121ff">
<path fill="#212121" opacity="1.00" d=" M 75.98 66.81 C 84.11 58.41 93.13 50.87 101.31 42.48 C 101.98 43.67 102.66 44.86 103.31 46.06 C 96.45 52.99 97.40 70.82 85.30 68.84 C 82.19 68.20 79.05 67.63 75.98 66.81 Z" />
</g>
<g id="#898989ff">
<path fill="#898989" opacity="1.00" d=" M 103.10 61.03 C 96.83 57.40 103.25 50.06 106.07 45.88 C 114.97 56.48 128.84 70.89 135.36 79.69 C 125.98 78.45 118.19 85.52 109.71 88.73 C 104.14 87.87 109.03 80.36 103.14 80.76 C 98.28 80.33 101.09 74.86 97.63 73.42 C 89.72 70.42 99.56 63.54 103.10 61.03 Z" />
</g>
<g id="#9c9c9cff">
<path fill="#9c9c9c" opacity="1.00" d=" M 50.17 70.06 C 55.15 74.32 59.83 78.95 64.08 83.94 C 57.11 97.86 37.51 94.59 26.06 103.42 C 24.99 103.93 23.92 104.41 22.85 104.92 C 31.65 93.13 40.63 81.29 50.17 70.06 Z" />
</g>
<g id="#474747ff">
<path fill="#474747" opacity="1.00" d=" M 67.05 71.97 C 73.61 73.25 80.58 72.15 86.95 74.18 C 81.66 75.90 74.61 90.32 69.17 81.84 C 64.19 79.19 71.51 75.01 67.05 71.97 Z" />
</g>
<g id="#828282ff">
<path fill="#828282" opacity="1.00" d=" M 89.95 72.88 C 103.13 84.48 116.38 98.08 126.69 112.45 C 119.26 108.42 113.97 101.66 108.79 95.19 C 102.53 86.16 95.65 98.95 91.01 103.66 C 88.78 103.62 86.54 99.66 87.14 97.26 C 89.42 94.72 93.97 98.47 95.91 94.83 C 92.62 88.82 85.25 85.39 82.92 78.95 C 89.29 82.05 94.61 80.15 89.95 72.88 Z" />
</g>
<g id="#323232ff">
<path fill="#323232" opacity="1.00" d=" M 109.71 88.73 C 118.19 85.52 125.98 78.45 135.36 79.69 C 132.91 89.16 130.62 98.76 127.88 108.11 C 121.15 102.33 115.40 95.50 109.71 88.73 Z" />
</g>
<g id="#464646ff">
<path fill="#464646" opacity="1.00" d=" M 133.81 91.89 C 133.20 83.83 145.06 85.06 150.07 84.91 C 146.70 104.52 143.56 124.18 139.76 143.71 C 139.16 145.95 137.78 150.83 136.87 146.03 C 136.73 126.40 143.40 107.20 145.79 87.73 C 141.61 88.51 137.83 90.57 133.81 91.89 Z" />
</g>
<g id="#434343ff">
<path fill="#434343" opacity="1.00" d=" M 91.01 103.66 C 95.65 98.95 102.53 86.16 108.79 95.19 C 113.97 101.66 119.26 108.42 126.69 112.45 C 130.58 123.24 132.23 134.92 134.81 146.15 C 136.12 149.90 131.28 147.07 130.95 145.07 C 128.93 134.42 127.84 123.52 124.69 113.13 C 117.87 113.89 111.44 116.63 104.66 117.70 C 99.69 113.97 95.35 108.48 91.01 103.66 Z" />
</g>
<g id="#b8b8b8ff">
<path fill="#b8b8b8" opacity="1.00" d=" M 25.10 106.21 C 37.45 102.95 49.25 97.86 61.60 94.55 C 68.30 102.70 76.50 109.45 83.68 117.15 C 80.05 127.78 74.76 137.79 71.00 148.39 C 53.69 135.35 40.92 116.13 20.77 107.40 C 21.47 106.58 22.17 105.75 22.85 104.92 C 23.92 104.41 24.99 103.93 26.06 103.42 C 25.82 104.12 25.34 105.51 25.10 106.21 Z" />
</g>
<g id="#8d8d8dff">
<path fill="#8d8d8d" opacity="1.00" d=" M 18.82 106.90 C 19.31 107.02 20.28 107.27 20.77 107.40 C 40.92 116.13 53.69 135.35 71.00 148.39 C 70.75 149.98 70.47 151.57 70.16 153.15 C 52.53 138.74 35.56 122.54 18.82 106.90 Z" />
</g>
<g id="#949494ff">
<path fill="#949494" opacity="1.00" d=" M 90.21 107.55 C 105.98 123.73 123.44 138.69 137.25 156.73 C 130.65 156.40 121.01 158.52 116.00 156.02 C 122.10 155.92 128.20 156.08 134.30 155.93 C 131.53 151.43 125.81 150.80 121.01 151.05 C 105.31 151.37 89.68 149.49 73.98 150.03 C 80.97 139.15 85.71 123.07 97.72 119.16 C 94.18 116.13 89.88 112.10 90.21 107.55 Z" />
</g>
<g id="#8c8c8cff">
<path fill="#8c8c8c" opacity="1.00" d=" M 104.66 117.70 C 111.44 116.63 117.87 113.89 124.69 113.13 C 127.84 123.52 128.93 134.42 130.95 145.07 C 125.67 138.75 114.36 133.54 116.91 124.03 C 112.41 128.85 107.62 121.09 104.66 117.70 Z" />
</g>
</svg>
