<?xml version="1.0" encoding="UTF-8" ?>
<!DOCTYPE svg PUBLIC "-//W3C//DTD SVG 1.1//EN" "http://www.w3.org/Graphics/SVG/1.1/DTD/svg11.dtd">
<svg width="180pt" height="180pt" viewBox="0 0 180 180" version="1.1" xmlns="http://www.w3.org/2000/svg">
<g id="#ffffffff">
</g>
<g id="#323232ff">
<path fill="#323232" opacity="1.00" d=" M 81.34 22.34 C 84.19 19.30 87.03 16.18 90.55 13.87 C 92.06 15.89 93.59 17.91 94.91 20.06 C 97.97 25.24 101.02 30.48 104.94 35.07 C 112.61 44.10 120.00 53.37 127.13 62.83 C 131.39 68.56 136.33 73.80 140.01 79.95 C 134.39 75.17 130.52 68.82 125.80 63.23 C 119.77 55.99 114.08 48.47 107.87 41.38 C 102.08 48.65 98.07 57.12 92.49 64.51 C 91.19 66.63 88.59 66.15 86.50 66.07 L 85.70 66.02 C 91.41 64.63 93.82 58.90 96.57 54.35 C 97.93 52.39 97.98 49.99 97.62 47.72 C 99.45 45.89 101.31 44.03 102.67 41.81 C 102.27 40.20 101.19 38.91 100.37 37.50 C 97.05 40.63 94.28 44.29 92.08 48.28 C 93.01 48.92 93.95 49.56 94.88 50.21 C 92.47 52.36 89.95 54.37 87.51 56.48 C 87.53 54.91 87.56 53.35 87.59 51.78 C 80.22 56.41 71.36 58.49 64.89 64.51 C 58.45 63.83 51.99 63.12 45.51 63.26 C 46.84 65.19 48.18 67.13 49.67 68.94 C 61.13 81.67 72.28 94.70 84.06 107.13 C 83.54 107.37 82.49 107.84 81.96 108.07 C 76.37 101.77 71.04 95.17 64.87 89.43 C 64.56 89.62 63.94 90.00 63.62 90.18 C 62.88 90.66 62.13 91.12 61.37 91.57 C 60.32 92.09 59.24 92.56 58.15 92.99 C 59.63 91.54 61.00 89.99 62.24 88.33 C 62.21 86.83 62.05 85.25 61.10 84.02 C 57.81 79.41 53.57 75.58 49.36 71.83 C 44.92 76.83 40.85 82.19 35.63 86.44 C 38.67 80.28 44.02 75.82 47.96 70.30 C 46.62 69.16 45.28 68.02 43.94 66.88 C 42.26 69.62 40.61 72.38 39.06 75.21 C 37.97 75.69 36.87 76.16 35.77 76.63 C 35.88 76.25 36.11 75.48 36.23 75.09 C 39.14 68.26 42.93 61.55 48.43 56.44 C 59.56 45.23 70.27 33.61 81.34 22.34 M 85.98 20.99 C 76.70 31.04 67.36 41.03 58.06 51.06 C 54.80 54.44 51.48 57.79 48.80 61.66 C 50.67 61.62 52.54 61.57 54.42 61.51 C 57.51 55.80 62.09 51.14 66.06 46.07 C 69.27 42.03 72.80 38.27 76.32 34.50 C 76.24 36.34 75.97 38.23 74.73 39.67 C 70.97 44.59 67.22 49.51 63.89 54.74 C 67.28 53.34 70.76 52.09 74.36 51.31 C 77.79 50.45 81.68 49.98 84.18 47.19 C 87.48 44.03 90.20 39.32 88.26 34.70 C 86.72 31.22 85.37 27.56 86.57 23.73 C 88.56 21.77 90.07 19.38 91.08 16.79 C 89.24 18.01 87.48 19.36 85.98 20.99 Z" />
</g>
<g id="#d7d7d7ff">
<path fill="#d7d7d7" opacity="1.00" d=" M 85.98 20.99 C 87.48 19.36 89.24 18.01 91.08 16.79 C 90.07 19.38 88.56 21.77 86.57 23.73 C 83.13 27.30 79.60 30.78 76.32 34.50 C 72.80 38.27 69.27 42.03 66.06 46.07 C 62.09 51.14 57.51 55.80 54.42 61.51 C 52.54 61.57 50.67 61.62 48.80 61.66 C 51.48 57.79 54.80 54.44 58.06 51.06 C 67.36 41.03 76.70 31.04 85.98 20.99 Z" />
</g>
<g id="#b7b7b7ff">
<path fill="#b7b7b7" opacity="1.00" d=" M 94.91 20.06 C 102.11 27.94 108.24 36.74 114.99 45.00 C 123.61 55.73 131.80 66.80 140.61 77.39 C 143.06 80.16 145.27 83.15 147.25 86.28 C 146.65 86.43 145.44 86.74 144.84 86.89 C 146.27 88.03 147.70 89.18 149.13 90.32 C 148.74 91.59 148.32 92.85 147.91 94.12 C 148.09 93.24 148.44 91.49 148.62 90.62 C 146.57 90.18 144.53 89.43 142.40 89.56 C 139.92 90.04 137.66 91.23 135.36 92.22 C 135.20 93.35 135.04 94.48 134.88 95.61 C 138.00 94.59 141.13 93.64 144.29 92.76 C 140.48 109.64 135.78 126.33 130.99 142.96 L 129.94 142.96 C 128.91 133.97 128.45 124.94 127.78 115.92 C 127.61 111.03 123.93 107.50 120.92 104.06 C 110.66 92.62 101.54 80.19 91.04 68.96 C 90.84 69.27 90.44 69.90 90.24 70.21 C 88.38 72.82 85.83 74.80 83.22 76.61 C 84.72 74.44 86.32 72.32 87.92 70.22 C 86.47 70.15 85.02 70.08 83.57 69.99 C 81.00 69.82 78.43 69.66 75.86 69.52 C 69.61 69.34 63.43 68.28 57.21 67.81 C 54.64 67.68 52.10 68.10 49.67 68.94 C 48.18 67.13 46.84 65.19 45.51 63.26 C 51.99 63.12 58.45 63.83 64.89 64.51 C 72.07 65.27 79.28 65.74 86.50 66.07 C 88.59 66.15 91.19 66.63 92.49 64.51 C 98.07 57.12 102.08 48.65 107.87 41.38 C 114.08 48.47 119.77 55.99 125.80 63.23 C 130.52 68.82 134.39 75.17 140.01 79.95 C 136.33 73.80 131.39 68.56 127.13 62.83 C 120.00 53.37 112.61 44.10 104.94 35.07 C 101.02 30.48 97.97 25.24 94.91 20.06 M 106.86 44.88 C 107.07 45.24 107.49 45.96 107.70 46.32 C 102.64 53.20 97.94 60.41 93.89 67.93 C 99.52 75.45 105.89 82.37 111.79 89.68 C 114.27 92.62 116.76 95.55 119.02 98.67 C 119.51 99.10 120.50 99.96 120.99 100.39 C 123.13 103.36 125.56 106.11 128.15 108.70 C 131.65 99.64 134.50 90.35 137.38 81.08 C 129.82 72.73 123.45 63.41 116.19 54.82 C 113.23 51.38 111.07 47.02 106.86 44.88 Z" />
</g>
<g id="#4c4c4cff">
<path fill="#4c4c4c" opacity="1.00" d=" M 76.32 34.50 C 79.60 30.78 83.13 27.30 86.57 23.73 C 85.37 27.56 86.72 31.22 88.26 34.70 C 90.20 39.32 87.48 44.03 84.18 47.19 C 81.68 49.98 77.79 50.45 74.36 51.31 C 70.76 52.09 67.28 53.34 63.89 54.74 C 67.22 49.51 70.97 44.59 74.73 39.67 C 75.97 38.23 76.24 36.34 76.32 34.50 Z" />
</g>
<g id="#575757ff">
<path fill="#575757" opacity="1.00" d=" M 92.08 48.28 C 94.28 44.29 97.05 40.63 100.37 37.50 C 101.19 38.91 102.27 40.20 102.67 41.81 C 101.31 44.03 99.45 45.89 97.62 47.72 C 96.71 48.56 95.80 49.39 94.88 50.21 C 93.95 49.56 93.01 48.92 92.08 48.28 Z" />
</g>
<g id="#303030ff">
<path fill="#303030" opacity="1.00" d=" M 106.86 44.88 C 111.07 47.02 113.23 51.38 116.19 54.82 C 123.45 63.41 129.82 72.73 137.38 81.08 C 134.50 90.35 131.65 99.64 128.15 108.70 C 125.56 106.11 123.13 103.36 120.99 100.39 C 123.28 100.05 125.68 99.79 127.76 98.70 C 129.15 97.56 129.73 95.74 130.63 94.24 C 126.46 94.78 122.48 96.29 119.02 98.67 C 116.76 95.55 114.27 92.62 111.79 89.68 C 118.84 85.70 126.42 82.85 133.86 79.72 C 125.98 67.95 115.71 57.98 107.70 46.32 C 107.49 45.96 107.07 45.24 106.86 44.88 Z" />
</g>
<g id="#868686ff">
<path fill="#868686" opacity="1.00" d=" M 93.89 67.93 C 97.94 60.41 102.64 53.20 107.70 46.32 C 115.71 57.98 125.98 67.95 133.86 79.72 C 126.42 82.85 118.84 85.70 111.79 89.68 C 105.89 82.37 99.52 75.45 93.89 67.93 Z" />
</g>
<g id="#0f0f0fff">
<path fill="#0f0f0f" opacity="1.00" d=" M 94.88 50.21 C 95.80 49.39 96.71 48.56 97.62 47.72 C 97.98 49.99 97.93 52.39 96.57 54.35 C 93.82 58.90 91.41 64.63 85.70 66.02 C 83.76 65.86 82.00 64.90 80.05 64.74 C 82.29 61.78 84.73 58.95 87.51 56.48 C 89.95 54.37 92.47 52.36 94.88 50.21 Z" />
</g>
<g id="#525252ff">
<path fill="#525252" opacity="1.00" d=" M 64.89 64.51 C 71.36 58.49 80.22 56.41 87.59 51.78 C 87.56 53.35 87.53 54.91 87.51 56.48 C 84.73 58.95 82.29 61.78 80.05 64.74 C 82.00 64.90 83.76 65.86 85.70 66.02 L 86.50 66.07 C 79.28 65.74 72.07 65.27 64.89 64.51 Z" />
</g>
<g id="#d3d3d3ff">
<path fill="#d3d3d3" opacity="1.00" d=" M 39.06 75.21 C 40.61 72.38 42.26 69.62 43.94 66.88 C 45.28 68.02 46.62 69.16 47.96 70.30 C 44.02 75.82 38.67 80.28 35.63 86.44 C 33.46 90.35 31.72 94.52 29.03 98.13 C 28.00 99.60 26.96 101.05 25.96 102.53 C 25.41 103.35 24.86 104.16 24.32 104.98 C 23.95 104.63 23.21 103.94 22.84 103.59 C 27.87 93.91 33.98 84.85 39.06 75.21 Z" />
</g>
<g id="#a4a4a4ff">
<path fill="#a4a4a4" opacity="1.00" d=" M 49.67 68.94 C 52.10 68.10 54.64 67.68 57.21 67.81 C 55.86 67.92 54.51 68.05 53.16 68.19 C 57.97 74.29 63.32 79.95 68.88 85.36 C 70.62 84.15 72.36 82.93 74.07 81.68 C 77.24 85.88 80.93 89.64 84.16 93.78 C 86.69 96.97 84.99 101.33 86.24 104.93 C 87.08 106.50 88.38 107.76 89.62 109.01 C 90.86 110.21 92.13 111.37 93.40 112.54 C 96.65 107.59 99.16 102.22 101.89 96.98 C 101.20 99.26 100.51 101.55 99.61 103.76 C 98.95 105.22 98.22 106.64 97.51 108.07 C 96.43 110.78 93.55 114.60 96.93 116.77 C 97.70 117.50 98.49 118.20 99.26 118.93 C 102.62 122.52 105.26 126.76 108.97 130.03 C 115.92 135.90 119.93 144.36 126.90 150.22 C 127.87 151.17 128.84 152.12 129.81 153.08 C 129.89 149.70 130.01 146.33 129.94 142.96 L 130.99 142.96 C 131.57 145.68 132.13 148.39 132.69 151.11 C 134.02 146.33 135.46 141.58 136.89 136.83 C 136.21 144.85 133.33 152.42 131.59 160.23 C 124.81 151.79 117.17 144.10 110.06 135.95 C 101.40 126.35 93.06 116.43 84.06 107.13 C 72.28 94.70 61.13 81.67 49.67 68.94 Z" />
</g>
<g id="#424242ff">
<path fill="#424242" opacity="1.00" d=" M 53.16 68.19 C 54.51 68.05 55.86 67.92 57.21 67.81 C 63.43 68.28 69.61 69.34 75.86 69.52 C 74.15 71.62 72.47 73.75 70.84 75.91 C 72.72 76.11 74.64 76.75 76.52 76.35 C 79.18 75.15 81.21 72.94 83.18 70.86 C 81.80 75.64 77.99 78.93 74.07 81.68 C 72.36 82.93 70.62 84.15 68.88 85.36 C 63.32 79.95 57.97 74.29 53.16 68.19 Z" />
</g>
<g id="#565656ff">
<path fill="#565656" opacity="1.00" d=" M 90.24 70.21 C 90.44 69.90 90.84 69.27 91.04 68.96 C 101.54 80.19 110.66 92.62 120.92 104.06 C 123.93 107.50 127.61 111.03 127.78 115.92 C 128.45 124.94 128.91 133.97 129.94 142.96 C 130.01 146.33 129.89 149.70 129.81 153.08 C 128.84 152.12 127.87 151.17 126.90 150.22 C 126.49 137.59 125.68 124.94 124.23 112.38 C 116.14 115.42 107.49 116.36 99.26 118.93 C 98.49 118.20 97.70 117.50 96.93 116.77 C 105.17 114.40 113.73 113.30 121.83 110.41 C 119.77 107.60 117.71 104.80 115.54 102.08 C 115.11 101.56 114.25 100.52 113.82 99.99 C 111.40 97.17 108.71 94.60 106.13 91.93 C 103.51 83.01 94.80 78.01 90.24 70.21 Z" />
</g>
<g id="#252525ff">
<path fill="#252525" opacity="1.00" d=" M 75.86 69.52 C 78.43 69.66 81.00 69.82 83.57 69.99 L 83.18 70.86 C 81.21 72.94 79.18 75.15 76.52 76.35 C 74.64 76.75 72.72 76.11 70.84 75.91 C 72.47 73.75 74.15 71.62 75.86 69.52 Z" />
</g>
<g id="#8f8f8fff">
<path fill="#8f8f8f" opacity="1.00" d=" M 83.57 69.99 C 85.02 70.08 86.47 70.15 87.92 70.22 C 86.32 72.32 84.72 74.44 83.22 76.61 C 85.83 74.80 88.38 72.82 90.24 70.21 C 94.80 78.01 103.51 83.01 106.13 91.93 C 104.11 93.01 102.10 94.11 100.07 95.20 C 94.25 89.26 89.67 82.12 83.10 76.93 C 87.79 83.69 93.97 89.25 98.64 96.04 C 95.62 100.36 92.55 104.64 89.62 109.01 C 88.38 107.76 87.08 106.50 86.24 104.93 C 84.99 101.33 86.69 96.97 84.16 93.78 C 80.93 89.64 77.24 85.88 74.07 81.68 C 77.99 78.93 81.80 75.64 83.18 70.86 L 83.57 69.99 Z" />
</g>
<g id="#646464ff">
<path fill="#646464" opacity="1.00" d=" M 49.36 71.83 C 53.57 75.58 57.81 79.41 61.10 84.02 C 62.05 85.25 62.21 86.83 62.24 88.33 C 50.95 90.87 40.36 95.76 29.03 98.13 C 31.72 94.52 33.46 90.35 35.63 86.44 C 40.85 82.19 44.92 76.83 49.36 71.83 Z" />
</g>
<g id="#585858ff">
<path fill="#585858" opacity="1.00" d=" M 25.33 93.34 C 29.01 87.29 31.86 80.70 36.23 75.09 C 36.11 75.48 35.88 76.25 35.77 76.63 C 36.87 76.16 37.97 75.69 39.06 75.21 C 33.98 84.85 27.87 93.91 22.84 103.59 C 23.21 103.94 23.95 104.63 24.32 104.98 C 39.49 119.08 52.78 135.05 67.94 149.16 C 68.16 148.67 68.62 147.71 68.84 147.22 C 68.22 148.67 67.63 150.14 67.04 151.61 C 54.35 138.41 41.32 125.56 28.45 112.54 C 25.71 109.67 22.48 107.18 20.29 103.82 C 20.86 99.92 23.57 96.77 25.33 93.34 Z" />
</g>
<g id="#343434ff">
<path fill="#343434" opacity="1.00" d=" M 83.10 76.93 C 89.67 82.12 94.25 89.26 100.07 95.20 C 102.10 94.11 104.11 93.01 106.13 91.93 C 108.71 94.60 111.40 97.17 113.82 99.99 C 109.06 101.19 104.36 102.57 99.61 103.76 C 100.51 101.55 101.20 99.26 101.89 96.98 C 99.16 102.22 96.65 107.59 93.40 112.54 C 92.13 111.37 90.86 110.21 89.62 109.01 C 92.55 104.64 95.62 100.36 98.64 96.04 C 93.97 89.25 87.79 83.69 83.10 76.93 Z" />
</g>
<g id="#242424ff">
<path fill="#242424" opacity="1.00" d=" M 29.03 98.13 C 40.36 95.76 50.95 90.87 62.24 88.33 C 61.00 89.99 59.63 91.54 58.15 92.99 C 48.61 95.89 39.20 99.31 29.58 101.95 C 28.38 102.18 27.17 102.36 25.96 102.53 C 26.96 101.05 28.00 99.60 29.03 98.13 Z" />
</g>
<g id="#9f9f9fff">
<path fill="#9f9f9f" opacity="1.00" d=" M 63.62 90.18 C 63.94 90.00 64.56 89.62 64.87 89.43 C 71.04 95.17 76.37 101.77 81.96 108.07 C 84.97 111.58 87.94 115.18 90.12 119.29 C 84.89 116.09 81.91 110.59 77.78 106.26 C 72.92 101.03 68.02 95.82 63.62 90.18 Z" />
<path fill="#9f9f9f" opacity="1.00" d=" M 24.32 104.98 C 24.86 104.16 25.41 103.35 25.96 102.53 C 27.17 102.36 28.38 102.18 29.58 101.95 C 30.21 105.04 30.98 108.33 33.51 110.48 C 38.39 115.11 43.20 119.83 48.16 124.38 C 51.33 122.65 54.49 120.89 57.72 119.27 C 56.68 122.79 54.39 125.67 51.38 127.72 C 54.09 131.20 57.11 134.43 60.40 137.37 C 62.03 135.18 64.30 133.00 64.03 130.01 C 63.86 125.71 60.07 122.87 58.55 119.09 C 58.54 117.65 60.39 117.11 61.44 116.52 C 67.07 114.42 73.19 113.60 78.40 110.42 C 80.54 112.66 82.54 115.04 84.56 117.39 C 83.82 118.10 83.08 118.81 82.34 119.53 C 77.08 123.11 71.77 126.72 67.30 131.29 C 65.16 133.61 63.13 136.50 63.16 139.78 C 63.84 142.91 66.89 144.63 69.14 146.58 L 68.84 147.22 C 68.62 147.71 68.16 148.67 67.94 149.16 C 52.78 135.05 39.49 119.08 24.32 104.98 M 66.77 118.83 C 65.36 119.39 63.77 119.87 62.89 121.21 C 63.15 123.74 65.84 128.43 68.64 125.70 C 72.85 122.14 77.25 118.77 81.08 114.80 C 76.22 115.80 71.45 117.20 66.77 118.83 Z" />
</g>
<g id="#2c2c2cff">
<path fill="#2c2c2c" opacity="1.00" d=" M 142.40 89.56 C 144.53 89.43 146.57 90.18 148.62 90.62 C 148.44 91.49 148.09 93.24 147.91 94.12 C 144.03 108.30 140.62 122.60 136.89 136.83 C 135.46 141.58 134.02 146.33 132.69 151.11 C 132.13 148.39 131.57 145.68 130.99 142.96 C 135.78 126.33 140.48 109.64 144.29 92.76 C 141.13 93.64 138.00 94.59 134.88 95.61 C 135.04 94.48 135.20 93.35 135.36 92.22 C 137.66 91.23 139.92 90.04 142.40 89.56 Z" />
</g>
<g id="#767676ff">
<path fill="#767676" opacity="1.00" d=" M 61.37 91.57 C 62.13 91.12 62.88 90.66 63.62 90.18 C 68.02 95.82 72.92 101.03 77.78 106.26 C 81.91 110.59 84.89 116.09 90.12 119.29 C 87.94 115.18 84.97 111.58 81.96 108.07 C 82.49 107.84 83.54 107.37 84.06 107.13 C 93.06 116.43 101.40 126.35 110.06 135.95 C 117.17 144.10 124.81 151.79 131.59 160.23 C 127.62 160.91 123.61 160.30 119.81 159.10 C 122.29 159.12 124.77 159.00 127.26 158.90 C 125.74 157.31 124.24 155.69 122.71 154.11 C 119.74 150.47 116.81 146.80 113.54 143.43 C 108.40 138.17 104.01 132.15 98.06 127.74 C 97.37 132.13 97.27 136.58 97.69 141.01 C 95.65 136.56 92.97 132.42 91.27 127.83 C 90.34 125.41 91.78 122.99 92.41 120.70 C 91.28 121.22 90.14 121.73 89.00 122.25 C 87.50 120.65 86.01 119.04 84.56 117.39 C 82.54 115.04 80.54 112.66 78.40 110.42 C 72.50 104.34 66.72 98.14 61.37 91.57 Z" />
</g>
<g id="#b4b4b4ff">
<path fill="#b4b4b4" opacity="1.00" d=" M 58.15 92.99 C 59.24 92.56 60.32 92.09 61.37 91.57 C 66.72 98.14 72.50 104.34 78.40 110.42 C 73.19 113.60 67.07 114.42 61.44 116.52 C 60.39 117.11 58.54 117.65 58.55 119.09 C 60.07 122.87 63.86 125.71 64.03 130.01 C 64.30 133.00 62.03 135.18 60.40 137.37 C 57.11 134.43 54.09 131.20 51.38 127.72 C 54.39 125.67 56.68 122.79 57.72 119.27 C 54.49 120.89 51.33 122.65 48.16 124.38 C 43.20 119.83 38.39 115.11 33.51 110.48 C 30.98 108.33 30.21 105.04 29.58 101.95 C 39.20 99.31 48.61 95.89 58.15 92.99 Z" />
</g>
<g id="#0b0b0bff">
<path fill="#0b0b0b" opacity="1.00" d=" M 119.02 98.67 C 122.48 96.29 126.46 94.78 130.63 94.24 C 129.73 95.74 129.15 97.56 127.76 98.70 C 125.68 99.79 123.28 100.05 120.99 100.39 C 120.50 99.96 119.51 99.10 119.02 98.67 Z" />
</g>
<g id="#0c0c0cff">
<path fill="#0c0c0c" opacity="1.00" d=" M 99.61 103.76 C 104.36 102.57 109.06 101.19 113.82 99.99 C 114.25 100.52 115.11 101.56 115.54 102.08 C 110.23 104.96 104.61 107.17 99.06 109.52 C 98.67 109.16 97.90 108.43 97.51 108.07 C 98.22 106.64 98.95 105.22 99.61 103.76 Z" />
</g>
<g id="#2e2e2eff">
<path fill="#2e2e2e" opacity="1.00" d=" M 115.54 102.08 C 117.71 104.80 119.77 107.60 121.83 110.41 C 113.73 113.30 105.17 114.40 96.93 116.77 C 93.55 114.60 96.43 110.78 97.51 108.07 C 97.90 108.43 98.67 109.16 99.06 109.52 C 104.61 107.17 110.23 104.96 115.54 102.08 Z" />
</g>
<g id="#888888ff">
<path fill="#888888" opacity="1.00" d=" M 99.26 118.93 C 107.49 116.36 116.14 115.42 124.23 112.38 C 125.68 124.94 126.49 137.59 126.90 150.22 C 119.93 144.36 115.92 135.90 108.97 130.03 C 105.26 126.76 102.62 122.52 99.26 118.93 Z" />
</g>
<g id="#b6b6b6ff">
<path fill="#b6b6b6" opacity="1.00" d=" M 66.77 118.83 C 71.45 117.20 76.22 115.80 81.08 114.80 C 77.25 118.77 72.85 122.14 68.64 125.70 C 65.84 128.43 63.15 123.74 62.89 121.21 C 63.77 119.87 65.36 119.39 66.77 118.83 Z" />
<path fill="#b6b6b6" opacity="1.00" d=" M 67.30 131.29 C 71.77 126.72 77.08 123.11 82.34 119.53 C 78.51 128.82 73.45 137.52 69.14 146.58 C 66.89 144.63 63.84 142.91 63.16 139.78 C 63.13 136.50 65.16 133.61 67.30 131.29 Z" />
</g>
<g id="#353535ff">
<path fill="#353535" opacity="1.00" d=" M 82.34 119.53 C 83.08 118.81 83.82 118.10 84.56 117.39 C 86.01 119.04 87.50 120.65 89.00 122.25 C 83.56 131.24 76.65 139.28 71.67 148.56 C 88.71 150.14 105.62 153.01 122.71 154.11 C 124.24 155.69 125.74 157.31 127.26 158.90 C 124.77 159.00 122.29 159.12 119.81 159.10 C 107.93 157.81 96.12 155.83 84.24 154.55 C 78.48 153.77 72.56 153.58 67.04 151.61 C 67.63 150.14 68.22 148.67 68.84 147.22 L 69.14 146.58 C 73.45 137.52 78.51 128.82 82.34 119.53 Z" />
</g>
<g id="#8a8a8aff">
<path fill="#8a8a8a" opacity="1.00" d=" M 89.00 122.25 C 90.14 121.73 91.28 121.22 92.41 120.70 C 91.78 122.99 90.34 125.41 91.27 127.83 C 92.97 132.42 95.65 136.56 97.69 141.01 C 97.27 136.58 97.37 132.13 98.06 127.74 C 104.01 132.15 108.40 138.17 113.54 143.43 C 116.81 146.80 119.74 150.47 122.71 154.11 C 105.62 153.01 88.71 150.14 71.67 148.56 C 76.65 139.28 83.56 131.24 89.00 122.25 Z" />
</g>
</svg>
