<?xml version="1.0" encoding="UTF-8" ?>
<!DOCTYPE svg PUBLIC "-//W3C//DTD SVG 1.1//EN" "http://www.w3.org/Graphics/SVG/1.1/DTD/svg11.dtd">
<svg width="180pt" height="180pt" viewBox="0 0 180 180" version="1.1" xmlns="http://www.w3.org/2000/svg">
<g id="#ffffffff">
</g>
<g id="#404040ff">
<path fill="#404040" opacity="1.00" d=" M 79.84 24.84 C 83.18 22.28 86.17 19.16 90.00 17.31 C 93.22 18.83 94.98 22.26 97.14 24.94 C 93.46 26.05 87.73 24.58 85.94 28.97 C 82.50 35.68 81.52 43.36 78.04 50.03 C 74.56 54.73 69.06 57.35 64.89 61.37 C 56.51 61.11 48.17 60.08 39.79 60.15 C 44.26 66.67 49.79 72.36 54.73 78.51 C 77.41 106.46 100.72 133.89 123.25 161.96 C 122.12 162.50 120.99 163.05 119.86 163.59 C 119.08 163.18 118.31 162.77 117.53 162.35 C 119.93 159.18 115.32 157.17 113.07 155.99 C 113.66 156.00 114.83 156.03 115.42 156.05 C 108.86 145.73 100.09 137.09 92.41 127.63 C 90.99 125.77 89.06 124.40 86.99 123.34 C 85.87 121.82 84.79 120.27 83.77 118.67 C 82.19 116.15 80.54 113.66 78.63 111.38 C 72.16 104.34 66.74 96.35 59.66 89.88 C 55.43 86.34 52.03 81.99 49.13 77.33 C 49.20 76.94 49.33 76.15 49.40 75.75 C 42.97 81.84 36.96 88.37 30.27 94.20 C 30.07 93.52 29.68 92.16 29.48 91.48 C 35.50 85.83 41.82 80.47 47.22 74.21 C 44.53 70.83 41.69 67.56 38.67 64.47 C 35.02 72.38 32.34 80.70 28.61 88.58 C 26.86 92.37 25.29 96.23 23.88 100.15 C 24.49 100.85 25.10 101.54 25.72 102.23 C 39.46 117.01 52.17 132.71 65.79 147.60 C 66.01 147.19 66.47 146.37 66.69 145.97 L 67.13 145.20 C 66.34 146.66 65.59 148.14 64.84 149.62 C 53.26 136.38 41.46 123.33 29.83 110.14 C 27.24 107.07 24.00 104.42 22.25 100.74 C 22.01 98.31 23.08 96.01 23.87 93.77 C 28.02 83.49 31.94 73.11 35.75 62.70 C 36.66 59.92 38.55 57.61 40.87 55.86 C 53.91 45.59 66.86 35.20 79.84 24.84 M 78.79 28.78 C 71.06 35.05 63.42 41.42 55.77 47.78 C 51.70 51.19 47.30 54.27 43.80 58.31 C 45.13 58.23 46.46 58.07 47.77 57.84 C 52.17 58.50 57.04 60.18 61.30 58.20 C 61.15 58.75 60.85 59.85 60.70 60.41 C 62.55 59.89 64.07 58.77 64.96 57.05 C 71.27 46.95 78.90 37.68 84.81 27.33 C 84.37 27.52 83.49 27.89 83.05 28.08 C 85.92 25.74 89.00 23.41 90.56 19.93 C 86.16 22.21 82.61 25.70 78.79 28.78 Z" />
</g>
<g id="#dfdfdfff">
<path fill="#dfdfdf" opacity="1.00" d=" M 78.79 28.78 C 82.61 25.70 86.16 22.21 90.56 19.93 C 89.00 23.41 85.92 25.74 83.05 28.08 C 80.82 29.78 78.82 31.75 76.85 33.74 C 66.75 41.28 57.61 49.99 47.77 57.84 C 46.46 58.07 45.13 58.23 43.80 58.31 C 47.30 54.27 51.70 51.19 55.77 47.78 C 63.42 41.42 71.06 35.05 78.79 28.78 Z" />
<path fill="#dfdfdf" opacity="1.00" d=" M 28.61 88.58 C 32.34 80.70 35.02 72.38 38.67 64.47 C 41.69 67.56 44.53 70.83 47.22 74.21 C 41.82 80.47 35.50 85.83 29.48 91.48 C 29.26 90.75 28.83 89.30 28.61 88.58 Z" />
</g>
<g id="#303030ff">
<path fill="#303030" opacity="1.00" d=" M 85.94 28.97 C 87.73 24.58 93.46 26.05 97.14 24.94 C 101.70 29.76 106.08 34.76 110.18 39.99 C 105.43 45.95 100.40 51.69 95.71 57.71 C 93.83 59.75 92.11 62.86 88.96 62.81 C 80.92 62.90 72.93 61.59 64.89 61.37 C 69.06 57.35 74.56 54.73 78.04 50.03 C 81.52 43.36 82.50 35.68 85.94 28.97 M 90.93 29.82 C 90.85 34.09 92.91 37.82 96.11 40.53 C 97.01 39.10 98.34 37.80 98.64 36.09 C 97.77 32.51 94.75 29.68 90.93 29.82 Z" />
<path fill="#303030" opacity="1.00" d=" M 118.23 104.14 C 119.60 106.15 120.78 108.27 121.99 110.38 C 115.97 111.60 110.22 113.83 105.00 117.06 L 104.17 117.23 C 101.96 116.65 99.78 115.94 97.57 115.37 C 101.06 114.78 104.80 114.67 107.98 113.01 C 111.03 109.65 114.08 106.20 118.23 104.14 Z" />
<path fill="#303030" opacity="1.00" d=" M 123.82 112.65 C 124.41 112.53 125.58 112.30 126.17 112.18 C 126.53 112.65 127.24 113.60 127.59 114.08 C 126.21 123.99 125.88 134.01 124.91 143.96 C 124.53 148.07 124.38 152.20 124.63 156.32 C 123.77 156.09 122.92 155.84 122.08 155.58 C 122.22 147.05 122.15 138.51 122.94 130.00 C 123.47 124.23 123.81 118.44 123.82 112.65 Z" />
</g>
<g id="#161616ff">
<path fill="#161616" opacity="1.00" d=" M 76.85 33.74 C 78.82 31.75 80.82 29.78 83.05 28.08 C 83.49 27.89 84.37 27.52 84.81 27.33 C 78.90 37.68 71.27 46.95 64.96 57.05 C 64.07 58.77 62.55 59.89 60.70 60.41 C 60.85 59.85 61.15 58.75 61.30 58.20 C 66.04 49.77 72.31 42.30 76.85 33.74 Z" />
</g>
<g id="#4b4b4bff">
<path fill="#4b4b4b" opacity="1.00" d=" M 90.93 29.82 C 94.75 29.68 97.77 32.51 98.64 36.09 C 98.34 37.80 97.01 39.10 96.11 40.53 C 92.91 37.82 90.85 34.09 90.93 29.82 Z" />
</g>
<g id="#898989ff">
<path fill="#898989" opacity="1.00" d=" M 47.77 57.84 C 57.61 49.99 66.75 41.28 76.85 33.74 C 72.31 42.30 66.04 49.77 61.30 58.20 C 57.04 60.18 52.17 58.50 47.77 57.84 Z" />
</g>
<g id="#b7b7b7ff">
<path fill="#b7b7b7" opacity="1.00" d=" M 110.18 39.99 C 118.38 51.05 126.69 62.03 134.84 73.14 C 140.59 80.09 143.81 88.64 148.04 96.52 L 147.31 96.22 C 145.03 95.34 142.57 94.07 140.06 94.87 C 137.46 95.31 135.89 97.56 134.38 99.49 C 137.24 99.13 140.07 98.64 142.91 98.13 C 138.67 110.92 133.83 123.50 129.03 136.09 C 127.04 141.24 126.52 146.79 126.43 152.26 C 127.60 150.14 128.75 147.99 129.76 145.78 C 129.09 150.81 127.51 155.68 125.05 160.11 C 124.90 158.85 124.74 157.58 124.63 156.32 C 124.38 152.20 124.53 148.07 124.91 143.96 C 125.88 134.01 126.21 123.99 127.59 114.08 C 127.19 110.09 124.30 107.11 121.90 104.14 C 111.32 91.35 101.88 77.64 91.03 65.07 C 90.71 65.66 90.06 66.84 89.74 67.43 C 87.75 70.43 85.27 73.09 82.37 75.22 C 80.48 76.00 78.51 76.56 76.58 77.24 C 80.68 74.33 84.11 70.63 87.38 66.84 C 77.85 65.58 68.13 66.97 58.68 64.79 C 55.55 65.58 53.72 68.35 51.93 70.79 C 52.70 71.77 53.47 72.76 54.24 73.74 C 54.68 74.29 55.57 75.38 56.01 75.93 C 55.69 76.58 55.05 77.87 54.73 78.51 C 49.79 72.36 44.26 66.67 39.79 60.15 C 48.17 60.08 56.51 61.11 64.89 61.37 C 72.93 61.59 80.92 62.90 88.96 62.81 C 92.11 62.86 93.83 59.75 95.71 57.71 C 100.40 51.69 105.43 45.95 110.18 39.99 M 107.77 46.98 C 103.00 52.85 98.07 58.63 93.82 64.90 C 100.61 73.78 107.74 82.40 114.37 91.41 C 117.01 94.70 119.73 97.95 122.00 101.52 C 122.49 101.94 123.46 102.79 123.95 103.21 C 125.31 105.24 126.80 107.19 128.32 109.11 C 132.59 100.63 135.61 91.60 139.85 83.10 C 139.88 82.84 139.96 82.32 139.99 82.06 C 130.00 69.45 120.73 56.29 110.81 43.62 C 109.76 44.71 108.75 45.83 107.77 46.98 Z" />
</g>
<g id="#4c4c4cff">
<path fill="#4c4c4c" opacity="1.00" d=" M 107.77 46.98 C 108.75 45.83 109.76 44.71 110.81 43.62 C 120.73 56.29 130.00 69.45 139.99 82.06 C 139.96 82.32 139.88 82.84 139.85 83.10 C 136.83 82.26 133.70 82.71 130.82 83.83 C 131.93 83.20 133.01 82.53 134.09 81.86 C 125.71 69.95 116.56 58.59 107.77 46.98 Z" />
</g>
<g id="#818181ff">
<path fill="#818181" opacity="1.00" d=" M 93.82 64.90 C 98.07 58.63 103.00 52.85 107.77 46.98 C 116.56 58.59 125.71 69.95 134.09 81.86 C 133.01 82.53 131.93 83.20 130.82 83.83 C 125.14 85.89 119.21 87.62 114.37 91.41 C 107.74 82.40 100.61 73.78 93.82 64.90 Z" />
<path fill="#818181" opacity="1.00" d=" M 86.99 123.34 C 89.06 124.40 90.99 125.77 92.41 127.63 C 100.09 137.09 108.86 145.73 115.42 156.05 C 114.83 156.03 113.66 156.00 113.07 155.99 C 98.59 153.33 84.20 150.10 69.85 146.82 C 74.78 138.43 81.99 131.69 86.99 123.34 Z" />
</g>
<g id="#3a3a3aff">
<path fill="#3a3a3a" opacity="1.00" d=" M 51.93 70.79 C 53.72 68.35 55.55 65.58 58.68 64.79 C 58.61 65.80 58.54 66.80 58.48 67.81 C 63.77 67.69 69.05 67.42 74.33 67.11 C 72.47 68.59 70.67 70.73 68.07 70.65 C 63.34 71.01 57.50 69.13 54.24 73.74 C 53.47 72.76 52.70 71.77 51.93 70.79 Z" />
</g>
<g id="#747474ff">
<path fill="#747474" opacity="1.00" d=" M 58.68 64.79 C 68.13 66.97 77.85 65.58 87.38 66.84 C 84.11 70.63 80.68 74.33 76.58 77.24 L 75.98 77.67 C 77.83 73.64 80.17 69.86 83.16 66.59 C 80.21 66.72 77.27 66.90 74.33 67.11 C 69.05 67.42 63.77 67.69 58.48 67.81 C 58.54 66.80 58.61 65.80 58.68 64.79 Z" />
</g>
<g id="#505050ff">
<path fill="#505050" opacity="1.00" d=" M 91.03 65.07 C 101.88 77.64 111.32 91.35 121.90 104.14 C 124.30 107.11 127.19 110.09 127.59 114.08 C 127.24 113.60 126.53 112.65 126.17 112.18 C 125.58 112.30 124.41 112.53 123.82 112.65 C 118.09 113.70 112.54 115.48 106.86 116.69 C 106.39 116.79 105.46 116.97 105.00 117.06 C 110.22 113.83 115.97 111.60 121.99 110.38 C 120.78 108.27 119.60 106.15 118.23 104.14 C 117.95 103.81 117.39 103.15 117.10 102.81 C 114.25 99.54 111.30 96.34 108.82 92.76 C 102.80 84.08 96.59 75.48 89.74 67.43 C 90.06 66.84 90.71 65.66 91.03 65.07 Z" />
</g>
<g id="#272727ff">
<path fill="#272727" opacity="1.00" d=" M 74.33 67.11 C 77.27 66.90 80.21 66.72 83.16 66.59 C 80.17 69.86 77.83 73.64 75.98 77.67 C 72.29 80.58 68.64 83.56 64.64 86.04 C 61.57 82.84 58.86 79.32 56.01 75.93 C 55.57 75.38 54.68 74.29 54.24 73.74 C 57.50 69.13 63.34 71.01 68.07 70.65 C 70.67 70.73 72.47 68.59 74.33 67.11 Z" />
</g>
<g id="#838383ff">
<path fill="#838383" opacity="1.00" d=" M 89.74 67.43 C 96.59 75.48 102.80 84.08 108.82 92.76 C 107.36 93.73 105.91 94.71 104.43 95.64 C 99.09 95.81 96.82 89.83 93.42 86.67 C 95.79 90.05 98.15 93.43 100.39 96.90 C 96.77 101.21 93.13 105.50 89.56 109.85 C 84.83 106.02 81.10 101.20 77.77 96.15 C 81.11 99.10 84.20 102.47 88.12 104.67 C 91.82 103.84 94.10 100.41 96.73 97.96 C 94.97 93.74 93.03 89.50 89.86 86.13 C 86.80 82.91 84.17 79.29 82.37 75.22 C 85.27 73.09 87.75 70.43 89.74 67.43 Z" />
</g>
<g id="#929292ff">
<path fill="#929292" opacity="1.00" d=" M 76.58 77.24 C 78.51 76.56 80.48 76.00 82.37 75.22 C 84.17 79.29 86.80 82.91 89.86 86.13 C 93.03 89.50 94.97 93.74 96.73 97.96 C 94.10 100.41 91.82 103.84 88.12 104.67 C 84.20 102.47 81.11 99.10 77.77 96.15 C 74.91 92.72 72.19 88.71 67.65 87.44 C 66.64 86.98 65.63 86.54 64.64 86.04 C 68.64 83.56 72.29 80.58 75.98 77.67 L 76.58 77.24 Z" />
</g>
<g id="#bebebeff">
<path fill="#bebebe" opacity="1.00" d=" M 30.27 94.20 C 36.96 88.37 42.97 81.84 49.40 75.75 C 49.33 76.15 49.20 76.94 49.13 77.33 C 43.16 82.26 38.33 88.37 32.46 93.42 C 30.33 95.29 28.28 97.32 26.85 99.80 C 26.46 100.60 26.09 101.42 25.72 102.23 C 25.10 101.54 24.49 100.85 23.88 100.15 C 25.29 96.23 26.86 92.37 28.61 88.58 C 28.83 89.30 29.26 90.75 29.48 91.48 C 29.68 92.16 30.07 93.52 30.27 94.20 Z" />
</g>
<g id="#b1b1b1ff">
<path fill="#b1b1b1" opacity="1.00" d=" M 56.01 75.93 C 58.86 79.32 61.57 82.84 64.64 86.04 C 65.63 86.54 66.64 86.98 67.65 87.44 C 71.98 93.07 76.52 98.52 81.07 103.97 C 85.12 108.78 88.34 114.21 92.29 119.11 C 98.79 126.76 104.26 135.24 111.22 142.51 C 114.65 147.02 117.94 151.69 122.08 155.58 C 122.92 155.84 123.77 156.09 124.63 156.32 C 124.74 157.58 124.90 158.85 125.05 160.11 C 125.13 160.89 125.31 162.46 125.40 163.24 C 123.55 163.39 121.71 163.52 119.86 163.59 C 120.99 163.05 122.12 162.50 123.25 161.96 C 100.72 133.89 77.41 106.46 54.73 78.51 C 55.05 77.87 55.69 76.58 56.01 75.93 Z" />
</g>
<g id="#353535ff">
<path fill="#353535" opacity="1.00" d=" M 32.46 93.42 C 38.33 88.37 43.16 82.26 49.13 77.33 C 52.03 81.99 55.43 86.34 59.66 89.88 C 49.17 93.82 38.39 96.98 27.61 99.99 L 26.85 99.80 C 28.28 97.32 30.33 95.29 32.46 93.42 Z" />
</g>
<g id="#343434ff">
<path fill="#343434" opacity="1.00" d=" M 130.82 83.83 C 133.70 82.71 136.83 82.26 139.85 83.10 C 135.61 91.60 132.59 100.63 128.32 109.11 C 126.80 107.19 125.31 105.24 123.95 103.21 C 125.54 103.12 127.13 102.96 128.72 102.80 C 129.22 101.19 129.72 99.58 130.21 97.96 C 127.37 98.88 124.60 100.03 122.00 101.52 C 119.73 97.95 117.01 94.70 114.37 91.41 C 119.21 87.62 125.14 85.89 130.82 83.83 Z" />
</g>
<g id="#3f3f3fff">
<path fill="#3f3f3f" opacity="1.00" d=" M 67.65 87.44 C 72.19 88.71 74.91 92.72 77.77 96.15 C 81.10 101.20 84.83 106.02 89.56 109.85 C 93.13 105.50 96.77 101.21 100.39 96.90 C 98.15 93.43 95.79 90.05 93.42 86.67 C 96.82 89.83 99.09 95.81 104.43 95.64 C 103.60 99.37 102.26 102.99 100.18 106.21 C 98.32 109.22 96.60 112.30 95.01 115.46 C 95.65 115.44 96.93 115.39 97.57 115.37 C 99.78 115.94 101.96 116.65 104.17 117.23 C 100.25 118.07 96.27 118.63 92.29 119.11 C 88.34 114.21 85.12 108.78 81.07 103.97 C 76.52 98.52 71.98 93.07 67.65 87.44 Z" />
</g>
<g id="#a7a7a7ff">
<path fill="#a7a7a7" opacity="1.00" d=" M 59.66 89.88 C 66.74 96.35 72.16 104.34 78.63 111.38 C 73.85 115.81 67.10 116.19 61.07 117.57 C 55.84 111.38 52.02 104.15 46.73 98.00 C 45.55 98.96 44.38 99.91 43.21 100.87 C 47.90 106.77 54.35 111.28 58.04 117.92 C 56.55 121.50 53.09 123.61 50.03 125.72 C 44.76 120.37 40.00 114.56 35.01 108.96 C 33.07 106.89 32.12 104.18 31.57 101.45 C 30.26 100.94 28.95 100.43 27.61 99.99 C 38.39 96.98 49.17 93.82 59.66 89.88 Z" />
</g>
<g id="#323232ff">
<path fill="#323232" opacity="1.00" d=" M 108.82 92.76 C 111.30 96.34 114.25 99.54 117.10 102.81 C 111.30 102.96 105.73 104.69 100.18 106.21 C 102.26 102.99 103.60 99.37 104.43 95.64 C 105.91 94.71 107.36 93.73 108.82 92.76 Z" />
</g>
<g id="#2c2c2cff">
<path fill="#2c2c2c" opacity="1.00" d=" M 140.06 94.87 C 142.57 94.07 145.03 95.34 147.31 96.22 C 140.88 112.53 136.06 129.42 129.76 145.78 C 128.75 147.99 127.60 150.14 126.43 152.26 C 126.52 146.79 127.04 141.24 129.03 136.09 C 133.83 123.50 138.67 110.92 142.91 98.13 C 140.07 98.64 137.24 99.13 134.38 99.49 C 135.89 97.56 137.46 95.31 140.06 94.87 Z" />
</g>
<g id="#9c9c9cff">
<path fill="#9c9c9c" opacity="1.00" d=" M 43.21 100.87 C 44.38 99.91 45.55 98.96 46.73 98.00 C 52.02 104.15 55.84 111.38 61.07 117.57 C 67.10 116.19 73.85 115.81 78.63 111.38 C 80.54 113.66 82.19 116.15 83.77 118.67 C 77.74 127.20 72.45 136.22 67.13 145.20 L 66.69 145.97 C 61.49 138.94 56.35 131.80 50.03 125.72 C 53.09 123.61 56.55 121.50 58.04 117.92 C 54.35 111.28 47.90 106.77 43.21 100.87 Z" />
</g>
<g id="#101010ff">
<path fill="#101010" opacity="1.00" d=" M 122.00 101.52 C 124.60 100.03 127.37 98.88 130.21 97.96 C 129.72 99.58 129.22 101.19 128.72 102.80 C 127.13 102.96 125.54 103.12 123.95 103.21 C 123.46 102.79 122.49 101.94 122.00 101.52 Z" />
</g>
<g id="#8a8a8aff">
<path fill="#8a8a8a" opacity="1.00" d=" M 25.72 102.23 C 26.09 101.42 26.46 100.60 26.85 99.80 L 27.61 99.99 C 28.95 100.43 30.26 100.94 31.57 101.45 C 32.12 104.18 33.07 106.89 35.01 108.96 C 40.00 114.56 44.76 120.37 50.03 125.72 C 56.35 131.80 61.49 138.94 66.69 145.97 C 66.47 146.37 66.01 147.19 65.79 147.60 C 52.17 132.71 39.46 117.01 25.72 102.23 Z" />
</g>
<g id="#111111ff">
<path fill="#111111" opacity="1.00" d=" M 100.18 106.21 C 105.73 104.69 111.30 102.96 117.10 102.81 C 117.39 103.15 117.95 103.81 118.23 104.14 C 114.08 106.20 111.03 109.65 107.98 113.01 C 104.80 114.67 101.06 114.78 97.57 115.37 C 96.93 115.39 95.65 115.44 95.01 115.46 C 96.60 112.30 98.32 109.22 100.18 106.21 Z" />
</g>
<g id="#868686ff">
<path fill="#868686" opacity="1.00" d=" M 106.86 116.69 C 112.54 115.48 118.09 113.70 123.82 112.65 C 123.81 118.44 123.47 124.23 122.94 130.00 C 122.15 138.51 122.22 147.05 122.08 155.58 C 117.94 151.69 114.65 147.02 111.22 142.51 C 110.44 135.53 108.67 128.60 104.80 122.65 C 105.47 120.66 106.16 118.68 106.86 116.69 Z" />
</g>
<g id="#6f6f6fff">
<path fill="#6f6f6f" opacity="1.00" d=" M 104.17 117.23 L 105.00 117.06 C 105.46 116.97 106.39 116.79 106.86 116.69 C 106.16 118.68 105.47 120.66 104.80 122.65 C 108.67 128.60 110.44 135.53 111.22 142.51 C 104.26 135.24 98.79 126.76 92.29 119.11 C 96.27 118.63 100.25 118.07 104.17 117.23 Z" />
</g>
<g id="#363636ff">
<path fill="#363636" opacity="1.00" d=" M 83.77 118.67 C 84.79 120.27 85.87 121.82 86.99 123.34 C 81.99 131.69 74.78 138.43 69.85 146.82 C 84.20 150.10 98.59 153.33 113.07 155.99 C 115.32 157.17 119.93 159.18 117.53 162.35 C 105.27 159.76 93.13 156.54 80.83 154.08 C 75.48 152.69 69.84 152.13 64.84 149.62 C 65.59 148.14 66.34 146.66 67.13 145.20 C 72.45 136.22 77.74 127.20 83.77 118.67 Z" />
</g>
</svg>
