<?xml version="1.0" encoding="UTF-8" ?>
<!DOCTYPE svg PUBLIC "-//W3C//DTD SVG 1.1//EN" "http://www.w3.org/Graphics/SVG/1.1/DTD/svg11.dtd">
<svg width="180pt" height="180pt" viewBox="0 0 180 180" version="1.1" xmlns="http://www.w3.org/2000/svg">
<g id="#fefefeff">
</g>
<g id="#505050ff">
<path fill="#505050" opacity="1.00" d=" M 32.23 56.18 C 50.77 43.80 70.25 32.83 89.16 21.02 C 97.61 24.78 104.31 33.07 112.19 38.53 C 106.01 46.51 98.09 52.87 90.64 59.60 C 72.02 59.21 53.38 57.77 34.74 57.07 C 60.96 92.96 88.99 127.69 115.12 163.72 C 115.40 164.53 115.48 165.39 115.33 166.30 C 94.74 156.39 66.03 157.30 53.34 135.67 C 43.76 123.65 34.06 111.72 24.61 99.59 C 40.43 110.66 50.75 130.48 64.01 145.34 C 69.16 137.42 75.47 129.89 80.57 122.19 C 70.72 112.41 65.02 96.90 53.23 89.82 C 54.37 86.57 48.68 78.62 45.58 82.62 C 43.54 86.83 27.52 91.73 36.04 95.36 C 33.34 96.31 30.56 97.04 27.73 97.48 C 28.23 88.34 38.34 85.62 43.75 79.81 C 48.97 75.51 39.19 70.45 37.30 65.76 C 36.16 63.89 34.86 62.08 33.08 60.76 C 29.72 73.22 28.07 86.10 24.25 98.43 C 24.21 85.56 29.21 69.89 32.23 56.18 M 88.41 23.45 C 72.63 34.19 54.87 43.66 40.11 54.86 C 47.84 56.38 57.38 55.96 65.68 55.78 C 71.75 47.12 76.76 37.58 83.35 29.35 C 86.03 29.04 93.51 23.28 88.41 23.45 M 83.28 127.18 C 78.58 133.58 72.15 139.15 68.01 145.67 C 81.73 148.58 94.54 154.73 108.08 158.12 C 99.85 147.93 92.47 135.38 83.28 127.18 Z" />
</g>
<g id="#b2b2b2ff">
<path fill="#b2b2b2" opacity="1.00" d=" M 88.41 23.45 C 93.51 23.28 86.03 29.04 83.35 29.35 C 76.76 37.58 71.75 47.12 65.68 55.78 C 57.38 55.96 47.84 56.38 40.11 54.86 C 54.87 43.66 72.63 34.19 88.41 23.45 Z" />
</g>
<g id="#a4a4a4ff">
<path fill="#a4a4a4" opacity="1.00" d=" M 112.19 38.53 C 121.08 51.22 132.79 67.49 142.36 81.64 C 142.97 82.28 143.65 86.20 142.01 84.61 C 133.21 70.39 123.08 57.03 113.72 43.19 C 111.12 41.88 111.97 44.90 112.80 46.21 C 120.51 58.90 130.50 70.11 137.98 82.92 C 137.45 83.26 136.41 83.94 135.89 84.28 C 126.63 72.65 118.18 60.45 109.80 48.17 C 108.71 45.70 106.96 48.93 105.72 49.72 C 102.09 53.48 98.01 56.89 94.83 61.06 C 100.89 72.35 109.89 81.94 116.65 92.85 C 121.03 98.04 123.82 104.54 128.81 109.18 C 133.13 100.95 137.20 92.58 142.01 84.61 C 143.82 88.88 147.06 99.04 145.07 101.87 C 142.12 99.48 141.98 95.44 139.94 92.44 C 137.89 94.61 140.90 97.06 140.92 99.51 C 137.77 100.19 134.29 101.05 133.69 104.75 C 136.14 104.11 138.56 103.31 141.08 102.92 C 135.01 119.48 123.02 134.19 120.85 152.07 C 121.59 151.37 122.32 150.65 123.03 149.92 C 122.81 153.14 121.55 157.37 117.80 157.81 C 119.93 142.07 124.88 126.81 127.00 111.08 C 115.44 95.58 104.66 79.47 92.94 64.08 C 90.65 59.81 89.93 60.68 90.08 63.87 C 88.15 67.33 80.05 71.01 84.66 75.38 C 87.22 80.20 99.28 89.18 89.99 93.07 C 83.65 89.69 82.44 70.91 73.17 81.15 C 70.61 82.19 68.38 88.75 65.71 85.00 C 68.66 81.90 71.62 78.81 74.73 75.88 C 79.02 71.88 84.74 68.59 87.20 63.14 C 79.45 62.96 71.68 63.14 63.97 62.36 C 58.84 64.34 56.22 71.61 51.05 74.81 C 54.92 78.77 56.87 86.01 62.81 87.06 C 62.92 94.27 69.09 94.86 73.00 98.77 C 80.38 105.15 82.37 114.98 87.65 121.89 C 95.57 135.07 106.74 145.99 114.88 159.05 C 116.38 162.02 117.32 160.33 117.80 157.81 C 117.67 160.51 118.83 165.29 115.33 166.30 C 115.48 165.39 115.40 164.53 115.12 163.72 C 88.99 127.69 60.96 92.96 34.74 57.07 C 53.38 57.77 72.02 59.21 90.64 59.60 C 98.09 52.87 106.01 46.51 112.19 38.53 Z" />
</g>
<g id="#434343ff">
<path fill="#434343" opacity="1.00" d=" M 112.80 46.21 C 111.97 44.90 111.12 41.88 113.72 43.19 C 123.08 57.03 133.21 70.39 142.01 84.61 C 137.20 92.58 133.13 100.95 128.81 109.18 C 123.82 104.54 121.03 98.04 116.65 92.85 C 119.93 88.15 126.64 88.32 131.17 85.22 C 122.74 73.37 115.15 60.82 105.72 49.72 C 106.96 48.93 108.71 45.70 109.80 48.17 C 118.18 60.45 126.63 72.65 135.89 84.28 C 136.41 83.94 137.45 83.26 137.98 82.92 C 130.50 70.11 120.51 58.90 112.80 46.21 Z" />
</g>
<g id="#797979ff">
<path fill="#797979" opacity="1.00" d=" M 94.83 61.06 C 98.01 56.89 102.09 53.48 105.72 49.72 C 115.15 60.82 122.74 73.37 131.17 85.22 C 126.64 88.32 119.93 88.15 116.65 92.85 C 109.89 81.94 100.89 72.35 94.83 61.06 Z" />
</g>
<g id="#989898ff">
<path fill="#989898" opacity="1.00" d=" M 33.08 60.76 C 34.86 62.08 36.16 63.89 37.30 65.76 C 36.20 65.16 35.10 64.56 33.96 64.03 C 31.51 75.31 28.79 86.53 26.03 97.75 C 26.45 97.68 27.30 97.55 27.73 97.48 C 30.56 97.04 33.34 96.31 36.04 95.36 C 41.64 93.13 47.46 91.54 53.23 89.82 C 65.02 96.90 70.72 112.41 80.57 122.19 C 75.47 129.89 69.16 137.42 64.01 145.34 C 50.75 130.48 40.43 110.66 24.61 99.59 C 24.52 99.30 24.34 98.72 24.25 98.43 C 28.07 86.10 29.72 73.22 33.08 60.76 Z" />
</g>
<g id="#3a3a3aff">
<path fill="#3a3a3a" opacity="1.00" d=" M 90.08 63.87 C 89.93 60.68 90.65 59.81 92.94 64.08 C 104.66 79.47 115.44 95.58 127.00 111.08 C 124.88 126.81 119.93 142.07 117.80 157.81 C 117.32 160.33 116.38 162.02 114.88 159.05 C 115.11 143.41 122.21 128.78 123.00 113.16 C 110.45 113.05 98.76 116.66 87.65 121.89 C 82.37 114.98 80.38 105.15 73.00 98.77 C 75.87 95.47 83.12 111.31 87.30 114.66 C 92.87 120.59 87.40 109.77 91.86 107.86 C 98.97 102.72 106.12 95.75 96.01 87.92 C 99.61 95.55 104.91 97.76 111.85 93.71 C 104.14 84.11 96.98 74.06 90.08 63.87 Z" />
</g>
<g id="#2d2d2dff">
<path fill="#2d2d2d" opacity="1.00" d=" M 51.05 74.81 C 56.22 71.61 58.84 64.34 63.97 62.36 C 55.45 73.55 73.80 66.90 80.38 67.16 C 78.63 70.28 74.32 71.68 74.73 75.88 C 71.62 78.81 68.66 81.90 65.71 85.00 C 63.98 83.60 63.51 85.82 62.81 87.06 C 56.87 86.01 54.92 78.77 51.05 74.81 Z" />
</g>
<g id="#6d6d6dff">
<path fill="#6d6d6d" opacity="1.00" d=" M 63.97 62.36 C 71.68 63.14 79.45 62.96 87.20 63.14 C 84.74 68.59 79.02 71.88 74.73 75.88 C 74.32 71.68 78.63 70.28 80.38 67.16 C 73.80 66.90 55.45 73.55 63.97 62.36 Z" />
</g>
<g id="#d8d8d8ff">
<path fill="#d8d8d8" opacity="1.00" d=" M 33.96 64.03 C 35.10 64.56 36.20 65.16 37.30 65.76 C 39.19 70.45 48.97 75.51 43.75 79.81 C 38.34 85.62 28.23 88.34 27.73 97.48 C 27.30 97.55 26.45 97.68 26.03 97.75 C 28.79 86.53 31.51 75.31 33.96 64.03 Z" />
</g>
<g id="#7c7c7cff">
<path fill="#7c7c7c" opacity="1.00" d=" M 90.08 63.87 C 96.98 74.06 104.14 84.11 111.85 93.71 C 104.91 97.76 99.61 95.55 96.01 87.92 C 106.12 95.75 98.97 102.72 91.86 107.86 C 87.40 109.77 92.87 120.59 87.30 114.66 C 83.12 111.31 75.87 95.47 73.00 98.77 C 69.09 94.86 62.92 94.27 62.81 87.06 C 63.51 85.82 63.98 83.60 65.71 85.00 C 68.38 88.75 70.61 82.19 73.17 81.15 C 82.44 70.91 83.65 89.69 89.99 93.07 C 99.28 89.18 87.22 80.20 84.66 75.38 C 80.05 71.01 88.15 67.33 90.08 63.87 Z" />
</g>
<g id="#262626ff">
<path fill="#262626" opacity="1.00" d=" M 45.58 82.62 C 48.68 78.62 54.37 86.57 53.23 89.82 C 47.46 91.54 41.64 93.13 36.04 95.36 C 27.52 91.73 43.54 86.83 45.58 82.62 Z" />
</g>
<g id="#474747ff">
<path fill="#474747" opacity="1.00" d=" M 140.92 99.51 C 140.90 97.06 137.89 94.61 139.94 92.44 C 141.98 95.44 142.12 99.48 145.07 101.87 C 137.80 117.91 130.30 133.88 123.03 149.92 C 122.32 150.65 121.59 151.37 120.85 152.07 C 123.02 134.19 135.01 119.48 141.08 102.92 C 138.56 103.31 136.14 104.11 133.69 104.75 C 134.29 101.05 137.77 100.19 140.92 99.51 Z" />
</g>
<g id="#7f7f7fff">
<path fill="#7f7f7f" opacity="1.00" d=" M 87.65 121.89 C 98.76 116.66 110.45 113.05 123.00 113.16 C 122.21 128.78 115.11 143.41 114.88 159.05 C 106.74 145.99 95.57 135.07 87.65 121.89 Z" />
</g>
<g id="#7d7d7dff">
<path fill="#7d7d7d" opacity="1.00" d=" M 83.28 127.18 C 92.47 135.38 99.85 147.93 108.08 158.12 C 94.54 154.73 81.73 148.58 68.01 145.67 C 72.15 139.15 78.58 133.58 83.28 127.18 Z" />
</g>
</svg>
