<?xml version="1.0" encoding="UTF-8" ?>
<!DOCTYPE svg PUBLIC "-//W3C//DTD SVG 1.1//EN" "http://www.w3.org/Graphics/SVG/1.1/DTD/svg11.dtd">
<svg width="180pt" height="180pt" viewBox="0 0 180 180" version="1.1" xmlns="http://www.w3.org/2000/svg">
<g id="#fefefeff">
</g>
<g id="#4a4a4aff">
<path fill="#4a4a4a" opacity="1.00" d=" M 30.10 52.08 C 50.04 43.00 69.88 33.53 90.00 24.93 C 98.55 28.96 107.13 33.37 115.14 38.47 C 107.13 44.03 99.32 49.89 91.07 55.10 C 71.01 55.80 50.95 55.29 30.89 55.12 C 30.74 57.34 32.40 58.80 33.81 60.23 C 39.00 67.19 43.76 74.45 48.94 81.40 C 67.41 109.60 87.80 136.54 106.37 164.67 C 107.59 165.82 106.26 166.71 105.45 167.56 C 90.97 159.91 75.40 154.13 61.48 145.58 C 49.69 129.69 38.18 113.56 26.72 97.40 C 27.10 97.00 27.86 96.18 28.24 95.78 C 40.47 110.94 50.40 127.89 62.76 142.92 C 67.20 137.21 72.99 132.44 76.68 126.17 C 69.78 115.59 61.77 105.74 54.98 95.06 C 50.61 82.39 37.70 95.80 29.46 94.23 C 29.85 86.54 39.60 85.46 44.12 80.80 C 40.10 74.15 35.31 68.02 30.99 61.56 C 29.75 59.62 28.35 57.79 27.12 55.83 C 26.40 53.91 28.73 52.80 30.10 52.08 M 35.65 52.76 C 47.34 53.16 59.04 53.15 70.73 52.87 C 76.21 45.84 79.53 37.08 85.98 30.83 C 89.79 31.94 85.83 41.79 82.03 41.48 C 78.39 44.42 69.49 59.01 79.21 51.58 C 84.08 57.70 95.91 51.53 100.03 46.03 C 97.04 39.74 90.38 33.11 90.42 27.39 C 71.77 33.59 53.40 43.66 35.65 52.76 M 96.81 32.99 C 98.00 36.75 100.93 44.68 105.25 43.32 C 114.02 39.39 100.03 35.75 96.81 32.99 M 78.35 130.24 C 73.98 134.46 70.46 139.50 66.00 143.67 C 77.58 146.83 87.34 154.94 99.02 158.14 C 92.58 149.03 85.75 136.85 78.35 130.24 Z" />
</g>
<g id="#bababaff">
<path fill="#bababa" opacity="1.00" d=" M 35.65 52.76 C 53.40 43.66 71.77 33.59 90.42 27.39 C 89.21 28.85 87.58 29.85 85.98 30.83 C 79.53 37.08 76.21 45.84 70.73 52.87 C 59.04 53.15 47.34 53.16 35.65 52.76 Z" />
</g>
<g id="#7b7b7bff">
<path fill="#7b7b7b" opacity="1.00" d=" M 90.42 27.39 C 90.38 33.11 97.04 39.74 100.03 46.03 C 95.91 51.53 84.08 57.70 79.21 51.58 C 69.49 59.01 78.39 44.42 82.03 41.48 C 85.83 41.79 89.79 31.94 85.98 30.83 C 87.58 29.85 89.21 28.85 90.42 27.39 Z" />
</g>
<g id="#999999ff">
<path fill="#999999" opacity="1.00" d=" M 96.81 32.99 C 100.03 35.75 114.02 39.39 105.25 43.32 C 100.93 44.68 98.00 36.75 96.81 32.99 Z" />
</g>
<g id="#a6a6a6ff">
<path fill="#a6a6a6" opacity="1.00" d=" M 115.14 38.47 C 125.04 52.48 135.75 69.89 145.69 84.99 C 143.81 92.59 146.52 102.24 142.15 109.01 C 143.73 102.53 134.75 94.90 138.93 104.16 C 134.49 104.97 126.57 111.08 138.08 109.22 C 130.60 123.58 119.43 136.16 114.90 151.97 C 115.41 151.72 116.44 151.21 116.95 150.96 C 115.96 154.21 114.83 158.52 110.82 158.83 L 110.83 157.84 C 115.13 141.74 124.43 125.98 126.20 109.82 C 114.70 91.90 102.52 74.41 90.67 56.72 C 90.77 56.31 90.97 55.50 91.07 55.10 C 99.32 49.89 107.13 44.03 115.14 38.47 M 113.96 43.91 C 122.40 57.41 132.03 70.19 139.96 83.99 C 138.35 86.14 134.22 87.24 131.40 86.75 C 126.13 76.38 118.23 67.65 112.37 57.62 C 110.36 55.50 108.08 48.01 104.79 52.53 C 103.03 54.31 97.98 58.48 97.02 61.85 C 103.33 72.25 112.22 83.85 117.79 93.35 C 121.39 98.44 124.85 103.63 128.20 108.89 C 134.43 102.32 138.58 93.34 143.91 85.87 C 135.74 71.05 125.11 57.32 116.28 42.73 C 115.32 41.03 114.36 42.96 113.96 43.91 Z" />
</g>
<g id="#474747ff">
<path fill="#474747" opacity="1.00" d=" M 113.96 43.91 C 114.36 42.96 115.32 41.03 116.28 42.73 C 125.11 57.32 135.74 71.05 143.91 85.87 C 138.58 93.34 134.43 102.32 128.20 108.89 C 124.85 103.63 121.39 98.44 117.79 93.35 C 121.07 91.28 125.29 90.94 128.12 88.12 C 121.25 75.68 111.58 65.03 104.79 52.53 C 108.08 48.01 110.36 55.50 112.37 57.62 C 118.23 67.65 126.13 76.38 131.40 86.75 C 134.22 87.24 138.35 86.14 139.96 83.99 C 132.03 70.19 122.40 57.41 113.96 43.91 Z" />
</g>
<g id="#7a7a7aff">
<path fill="#7a7a7a" opacity="1.00" d=" M 97.02 61.85 C 97.98 58.48 103.03 54.31 104.79 52.53 C 111.58 65.03 121.25 75.68 128.12 88.12 C 125.29 90.94 121.07 91.28 117.79 93.35 C 112.22 83.85 103.33 72.25 97.02 61.85 Z" />
</g>
<g id="#818181ff">
<path fill="#818181" opacity="1.00" d=" M 30.89 55.12 C 50.95 55.29 71.01 55.80 91.07 55.10 C 90.97 55.50 90.77 56.31 90.67 56.72 C 89.48 61.63 85.81 65.26 83.02 69.30 C 86.36 67.86 88.94 65.23 91.87 63.15 C 97.82 73.02 105.45 81.83 110.93 91.97 C 113.94 95.83 107.51 96.21 105.15 97.58 C 98.14 89.12 94.05 78.18 85.81 70.82 C 90.17 80.64 97.75 88.66 103.00 98.01 C 98.84 104.20 92.54 108.69 88.80 115.22 C 81.92 104.03 73.59 93.87 66.28 82.99 C 69.65 74.21 80.24 70.91 82.20 61.87 C 76.90 66.29 71.03 69.79 63.86 69.99 C 64.39 66.23 71.74 60.71 67.37 58.62 C 56.42 55.25 44.50 57.59 33.22 56.95 C 33.38 58.05 33.58 59.14 33.81 60.23 C 32.40 58.80 30.74 57.34 30.89 55.12 Z" />
</g>
<g id="#959595ff">
<path fill="#959595" opacity="1.00" d=" M 27.12 55.83 C 28.35 57.79 29.75 59.62 30.99 61.56 C 29.13 71.73 26.68 85.47 29.46 94.23 C 37.70 95.80 50.61 82.39 54.98 95.06 C 61.77 105.74 69.78 115.59 76.68 126.17 C 72.99 132.44 67.20 137.21 62.76 142.92 C 50.40 127.89 40.47 110.94 28.24 95.78 C 27.86 96.18 27.10 97.00 26.72 97.40 C 23.19 86.87 26.62 69.02 27.12 55.83 Z" />
</g>
<g id="#b8b8b8ff">
<path fill="#b8b8b8" opacity="1.00" d=" M 33.22 56.95 C 44.50 57.59 56.42 55.25 67.37 58.62 C 63.01 66.68 57.13 73.51 49.97 78.81 C 49.71 79.46 49.20 80.75 48.94 81.40 C 43.76 74.45 39.00 67.19 33.81 60.23 C 33.58 59.14 33.38 58.05 33.22 56.95 Z" />
</g>
<g id="#3b3b3bff">
<path fill="#3b3b3b" opacity="1.00" d=" M 83.02 69.30 C 85.81 65.26 89.48 61.63 90.67 56.72 C 102.52 74.41 114.70 91.90 126.20 109.82 C 124.43 125.98 115.13 141.74 110.83 157.84 C 110.19 160.99 105.00 168.06 107.27 158.24 C 110.97 142.67 118.69 128.38 122.98 113.00 C 111.01 114.38 98.50 113.77 88.75 120.14 C 90.86 126.47 84.06 127.24 80.85 123.12 C 85.58 118.17 88.19 112.22 80.83 107.18 C 73.17 100.64 70.95 82.11 58.33 86.34 C 53.62 88.27 52.22 81.69 49.97 78.81 C 57.13 73.51 63.01 66.68 67.37 58.62 C 71.74 60.71 64.39 66.23 63.86 69.99 C 71.03 69.79 76.90 66.29 82.20 61.87 C 80.24 70.91 69.65 74.21 66.28 82.99 C 73.59 93.87 81.92 104.03 88.80 115.22 C 92.54 108.69 98.84 104.20 103.00 98.01 C 97.75 88.66 90.17 80.64 85.81 70.82 C 94.05 78.18 98.14 89.12 105.15 97.58 C 107.51 96.21 113.94 95.83 110.93 91.97 C 105.45 81.83 97.82 73.02 91.87 63.15 C 88.94 65.23 86.36 67.86 83.02 69.30 Z" />
</g>
<g id="#d7d7d7ff">
<path fill="#d7d7d7" opacity="1.00" d=" M 29.46 94.23 C 26.68 85.47 29.13 71.73 30.99 61.56 C 35.31 68.02 40.10 74.15 44.12 80.80 C 39.60 85.46 29.85 86.54 29.46 94.23 Z" />
</g>
<g id="#8a8a8aff">
<path fill="#8a8a8a" opacity="1.00" d=" M 49.97 78.81 C 52.22 81.69 53.62 88.27 58.33 86.34 C 70.95 82.11 73.17 100.64 80.83 107.18 C 88.19 112.22 85.58 118.17 80.85 123.12 C 84.06 127.24 90.86 126.47 88.75 120.14 C 98.50 113.77 111.01 114.38 122.98 113.00 C 118.69 128.38 110.97 142.67 107.27 158.24 C 105.00 168.06 110.19 160.99 110.83 157.84 L 110.82 158.83 C 111.41 162.35 107.50 170.11 105.45 167.56 C 106.26 166.71 107.59 165.82 106.37 164.67 C 87.80 136.54 67.41 109.60 48.94 81.40 C 49.20 80.75 49.71 79.46 49.97 78.81 Z" />
</g>
<g id="#4f4f4fff">
<path fill="#4f4f4f" opacity="1.00" d=" M 138.93 104.16 C 134.75 94.90 143.73 102.53 142.15 109.01 C 133.30 122.72 125.46 137.05 116.95 150.96 C 116.44 151.21 115.41 151.72 114.90 151.97 C 119.43 136.16 130.60 123.58 138.08 109.22 C 126.57 111.08 134.49 104.97 138.93 104.16 Z" />
</g>
<g id="#7f7f7fff">
<path fill="#7f7f7f" opacity="1.00" d=" M 78.35 130.24 C 85.75 136.85 92.58 149.03 99.02 158.14 C 87.34 154.94 77.58 146.83 66.00 143.67 C 70.46 139.50 73.98 134.46 78.35 130.24 Z" />
</g>
</svg>
