<?xml version="1.0" encoding="UTF-8" ?>
<!DOCTYPE svg PUBLIC "-//W3C//DTD SVG 1.1//EN" "http://www.w3.org/Graphics/SVG/1.1/DTD/svg11.dtd">
<svg width="180pt" height="180pt" viewBox="0 0 180 180" version="1.1" xmlns="http://www.w3.org/2000/svg">
<g id="#ffffffff">
</g>
<g id="#494949ff">
<path fill="#494949" opacity="1.00" d=" M 86.92 29.99 C 88.63 29.37 90.50 29.08 92.26 29.70 C 100.88 32.33 109.43 35.21 118.09 37.71 C 110.43 42.98 101.46 45.84 93.47 50.52 C 92.25 51.13 91.73 52.43 91.29 53.63 C 91.47 53.94 91.83 54.56 92.01 54.87 C 91.04 54.67 90.07 54.48 89.10 54.30 C 81.80 52.97 74.35 53.75 66.99 53.87 C 53.96 54.61 40.91 53.96 27.89 54.70 C 28.89 56.17 29.90 57.64 30.87 59.14 C 38.53 71.36 46.42 83.44 53.99 95.71 C 53.26 96.44 52.53 97.18 51.81 97.92 C 49.69 94.68 47.43 91.54 45.19 88.40 C 41.10 89.70 37.02 91.00 32.92 92.26 C 32.39 91.18 31.90 90.09 31.45 88.98 C 34.75 86.59 38.45 84.86 42.04 82.96 C 37.76 75.98 33.13 69.23 28.84 62.25 C 27.34 59.87 25.54 57.70 23.85 55.47 C 23.44 53.90 22.83 51.67 24.78 50.90 C 27.87 49.36 31.26 48.54 34.50 47.41 C 51.98 41.60 69.48 35.87 86.92 29.99 M 71.84 36.83 C 59.84 41.24 47.50 44.76 35.72 49.73 C 34.71 49.85 33.72 50.09 32.74 50.30 C 41.53 50.87 50.36 50.57 59.15 50.16 C 63.45 50.39 67.76 50.35 72.06 50.23 C 73.71 50.09 75.62 50.13 76.86 48.84 C 76.83 49.40 76.77 50.53 76.73 51.09 C 79.82 47.99 82.60 44.57 85.02 40.93 C 83.60 43.89 82.27 46.89 81.04 49.92 C 86.73 50.72 92.36 49.43 97.02 46.06 C 94.33 41.62 91.67 37.15 89.26 32.56 C 89.58 32.21 90.22 31.50 90.54 31.15 C 84.01 31.86 78.06 34.90 71.84 36.83 M 93.24 35.00 C 95.63 38.17 97.91 41.42 100.13 44.72 C 103.43 43.46 106.64 41.96 109.63 40.07 C 104.37 37.82 98.96 35.72 93.24 35.00 Z" />
</g>
<g id="#dfdfdfff">
<path fill="#dfdfdf" opacity="1.00" d=" M 71.84 36.83 C 78.06 34.90 84.01 31.86 90.54 31.15 C 90.22 31.50 89.58 32.21 89.26 32.56 C 88.76 32.99 88.25 33.41 87.73 33.81 C 87.09 34.04 85.80 34.50 85.16 34.73 C 74.18 38.36 62.93 41.20 52.26 45.70 C 47.04 48.07 41.46 49.55 35.72 49.73 C 47.50 44.76 59.84 41.24 71.84 36.83 Z" />
<path fill="#dfdfdf" opacity="1.00" d=" M 118.09 37.71 C 119.71 39.77 121.18 42.29 121.19 45.18 C 120.16 43.98 119.13 42.78 118.13 41.57 C 117.56 41.86 116.42 42.44 115.85 42.73 C 114.46 43.43 113.04 44.09 111.64 44.80 C 107.62 46.54 103.93 48.90 100.12 51.02 C 97.31 52.30 94.32 53.10 91.29 53.63 C 91.73 52.43 92.25 51.13 93.47 50.52 C 101.46 45.84 110.43 42.98 118.09 37.71 Z" />
</g>
<g id="#959595ff">
<path fill="#959595" opacity="1.00" d=" M 87.73 33.81 C 88.25 33.41 88.76 32.99 89.26 32.56 C 91.67 37.15 94.33 41.62 97.02 46.06 C 92.36 49.43 86.73 50.72 81.04 49.92 C 82.27 46.89 83.60 43.89 85.02 40.93 C 86.16 38.66 87.02 36.25 87.73 33.81 Z" />
</g>
<g id="#262626ff">
<path fill="#262626" opacity="1.00" d=" M 85.16 34.73 C 85.80 34.50 87.09 34.04 87.73 33.81 C 87.02 36.25 86.16 38.66 85.02 40.93 C 82.60 44.57 79.82 47.99 76.73 51.09 C 76.77 50.53 76.83 49.40 76.86 48.84 C 79.40 44.01 82.51 39.51 85.16 34.73 Z" />
<path fill="#262626" opacity="1.00" d=" M 118.63 79.57 C 122.55 82.90 125.42 87.16 128.02 91.54 C 129.33 91.18 130.63 90.82 131.94 90.46 C 134.59 89.70 137.18 88.79 139.80 87.95 C 140.46 87.84 141.77 87.62 142.43 87.50 C 141.65 90.03 140.89 92.56 139.97 95.03 C 136.25 99.56 132.05 103.69 128.75 108.53 C 128.38 108.07 127.65 107.14 127.29 106.67 C 128.53 104.81 129.93 103.02 130.77 100.93 C 130.16 99.08 129.16 97.38 128.28 95.65 C 125.78 96.14 123.27 96.64 120.73 96.94 C 120.49 96.57 120.01 95.84 119.76 95.48 C 121.59 94.19 123.41 92.89 125.22 91.57 C 123.92 89.40 122.62 87.24 121.45 85.00 C 120.50 83.19 119.62 81.35 118.63 79.57 M 131.05 94.54 C 131.84 95.81 132.50 97.16 133.30 98.44 C 135.43 96.51 137.54 94.53 139.13 92.11 C 136.40 92.82 133.72 93.67 131.05 94.54 Z" />
</g>
<g id="#b8b8b8ff">
<path fill="#b8b8b8" opacity="1.00" d=" M 52.26 45.70 C 62.93 41.20 74.18 38.36 85.16 34.73 C 82.51 39.51 79.40 44.01 76.86 48.84 C 75.62 50.13 73.71 50.09 72.06 50.23 C 67.76 50.35 63.45 50.39 59.15 50.16 C 56.33 49.64 54.06 47.85 52.26 45.70 Z" />
</g>
<g id="#b7b7b7ff">
<path fill="#b7b7b7" opacity="1.00" d=" M 93.24 35.00 C 98.96 35.72 104.37 37.82 109.63 40.07 C 106.64 41.96 103.43 43.46 100.13 44.72 C 97.91 41.42 95.63 38.17 93.24 35.00 Z" />
<path fill="#b7b7b7" opacity="1.00" d=" M 29.96 55.16 C 39.96 54.64 49.98 54.75 59.99 54.65 C 64.22 54.62 68.44 54.86 72.63 55.45 C 69.11 60.26 66.27 65.51 63.03 70.50 C 60.95 66.63 59.41 62.49 57.20 58.69 C 56.17 56.83 53.96 56.29 52.21 55.35 C 54.45 61.28 57.70 66.74 60.17 72.57 C 53.59 72.82 47.14 71.20 40.57 71.32 C 45.57 73.03 50.75 74.20 55.73 75.99 C 52.82 77.51 49.90 79.02 47.00 80.55 C 47.53 81.38 48.07 82.20 48.61 83.03 C 49.33 84.14 50.05 85.25 50.75 86.37 C 57.73 97.72 64.89 108.97 72.25 120.08 C 73.79 122.46 75.24 124.90 76.68 127.34 L 77.17 128.15 C 79.05 131.03 81.14 133.76 83.05 136.62 C 87.02 142.75 90.74 149.05 94.93 155.04 C 96.92 157.61 97.42 160.86 97.75 164.00 C 95.72 161.12 93.63 158.27 91.76 155.27 C 79.28 135.35 66.44 115.65 53.99 95.71 C 46.42 83.44 38.53 71.36 30.87 59.14 C 30.53 57.82 30.25 56.49 29.96 55.16 Z" />
</g>
<g id="#383838ff">
<path fill="#383838" opacity="1.00" d=" M 115.85 42.73 C 116.42 42.44 117.56 41.86 118.13 41.57 C 119.13 42.78 120.16 43.98 121.19 45.18 C 121.43 45.45 121.89 46.00 122.12 46.28 C 122.06 46.07 122.00 45.85 121.95 45.64 C 126.54 54.92 132.99 63.13 137.74 72.33 C 137.83 72.13 137.93 71.94 138.04 71.75 C 140.62 77.22 144.30 82.06 147.04 87.44 C 144.61 89.90 142.26 92.45 139.97 95.03 C 140.89 92.56 141.65 90.03 142.43 87.50 C 141.77 87.62 140.46 87.84 139.80 87.95 C 140.79 87.36 141.78 86.76 142.76 86.15 C 141.33 83.85 139.91 81.55 138.50 79.24 C 130.94 67.07 123.63 54.75 115.85 42.73 Z" />
<path fill="#383838" opacity="1.00" d=" M 103.16 56.51 C 104.01 55.64 104.86 54.78 105.73 53.92 C 112.35 64.39 118.70 75.02 125.46 85.39 C 126.97 87.81 128.73 90.50 131.94 90.46 C 130.63 90.82 129.33 91.18 128.02 91.54 C 125.42 87.16 122.55 82.90 118.63 79.57 C 112.61 72.47 109.03 63.72 103.16 56.51 Z" />
</g>
<g id="#a4a4a4ff">
<path fill="#a4a4a4" opacity="1.00" d=" M 111.64 44.80 C 113.04 44.09 114.46 43.43 115.85 42.73 C 123.63 54.75 130.94 67.07 138.50 79.24 C 134.29 81.56 129.93 83.61 125.46 85.39 C 118.70 75.02 112.35 64.39 105.73 53.92 C 104.86 54.78 104.01 55.64 103.16 56.51 C 101.70 57.98 100.27 59.49 98.84 60.98 C 103.84 70.39 110.37 78.86 115.57 88.16 C 116.95 90.61 118.28 93.09 119.76 95.48 C 120.01 95.84 120.49 96.57 120.73 96.94 C 122.90 100.19 124.93 103.55 127.29 106.67 C 127.65 107.14 128.38 108.07 128.75 108.53 C 128.10 109.58 127.52 110.65 126.94 111.74 C 122.98 104.03 118.05 96.88 113.52 89.51 C 106.43 77.91 99.10 66.46 92.01 54.87 C 91.83 54.56 91.47 53.94 91.29 53.63 C 94.32 53.10 97.31 52.30 100.12 51.02 C 98.21 53.55 96.79 56.44 96.42 59.62 C 102.26 55.55 107.24 50.36 111.64 44.80 Z" />
</g>
<g id="#282828ff">
<path fill="#282828" opacity="1.00" d=" M 100.12 51.02 C 103.93 48.90 107.62 46.54 111.64 44.80 C 107.24 50.36 102.26 55.55 96.42 59.62 C 96.79 56.44 98.21 53.55 100.12 51.02 Z" />
</g>
<g id="#999999ff">
<path fill="#999999" opacity="1.00" d=" M 35.72 49.73 C 41.46 49.55 47.04 48.07 52.26 45.70 C 54.06 47.85 56.33 49.64 59.15 50.16 C 50.36 50.57 41.53 50.87 32.74 50.30 C 33.72 50.09 34.71 49.85 35.72 49.73 Z" />
</g>
<g id="#919191ff">
<path fill="#919191" opacity="1.00" d=" M 27.89 54.70 C 40.91 53.96 53.96 54.61 66.99 53.87 C 74.35 53.75 81.80 52.97 89.10 54.30 C 89.95 56.68 90.87 59.04 91.79 61.40 C 85.21 63.54 80.23 68.38 75.77 73.45 C 75.53 73.01 75.05 72.15 74.81 71.71 C 78.66 66.34 83.78 61.82 86.29 55.58 C 81.17 57.85 78.42 62.99 74.10 66.31 C 74.87 62.83 75.88 59.41 77.06 56.04 C 76.44 55.96 75.21 55.79 74.60 55.70 C 74.11 55.64 73.12 55.51 72.63 55.45 C 68.44 54.86 64.22 54.62 59.99 54.65 C 49.98 54.75 39.96 54.64 29.96 55.16 C 30.25 56.49 30.53 57.82 30.87 59.14 C 29.90 57.64 28.89 56.17 27.89 54.70 Z" />
</g>
<g id="#343434ff">
<path fill="#343434" opacity="1.00" d=" M 89.10 54.30 C 90.07 54.48 91.04 54.67 92.01 54.87 C 99.10 66.46 106.43 77.91 113.52 89.51 C 118.05 96.88 122.98 104.03 126.94 111.74 C 122.09 121.03 117.79 130.60 112.87 139.86 C 107.95 149.52 102.82 159.11 98.89 169.22 C 88.34 163.33 78.63 156.03 68.44 149.53 C 64.73 147.01 60.42 144.92 58.18 140.82 C 48.41 125.23 38.00 110.04 28.51 94.28 C 29.16 94.31 30.46 94.37 31.11 94.40 C 41.54 109.34 50.63 125.18 60.87 140.25 C 61.62 139.69 62.37 139.14 63.13 138.58 C 66.56 136.10 69.52 133.06 72.38 129.95 C 70.08 126.25 67.77 122.56 65.36 118.93 C 60.77 111.97 56.38 104.89 51.81 97.92 C 52.53 97.18 53.26 96.44 53.99 95.71 C 66.44 115.65 79.28 135.35 91.76 155.27 C 93.63 158.27 95.72 161.12 97.75 164.00 C 97.84 164.32 98.03 164.97 98.12 165.29 C 99.54 155.16 105.98 146.91 109.90 137.72 C 113.28 130.67 116.93 123.76 120.22 116.67 C 120.83 115.33 121.43 113.97 122.03 112.62 C 115.01 112.93 108.11 114.51 101.07 114.47 C 98.08 114.54 94.82 114.31 92.24 116.12 C 86.86 119.68 83.04 125.23 77.17 128.15 L 76.68 127.34 C 78.91 123.45 82.03 120.22 84.97 116.88 C 85.38 116.43 86.19 115.53 86.60 115.08 C 80.11 104.09 72.63 93.70 66.59 82.45 C 67.04 82.39 67.94 82.26 68.39 82.19 C 74.68 90.17 79.73 99.02 85.26 107.52 C 86.56 109.64 87.79 111.79 89.05 113.94 C 93.82 108.63 99.50 104.25 104.54 99.20 C 103.94 98.15 103.35 97.09 102.75 96.04 C 98.01 87.50 92.13 79.65 87.59 71.00 C 87.88 70.82 88.45 70.45 88.74 70.27 C 95.22 79.32 100.05 89.48 106.80 98.35 C 107.18 98.19 107.94 97.88 108.32 97.72 C 109.51 96.44 110.96 95.24 111.56 93.55 C 111.45 90.67 109.62 88.24 108.26 85.82 C 103.51 78.44 98.98 70.92 94.15 63.59 C 92.35 64.87 90.57 66.17 88.71 67.35 C 87.91 67.83 87.11 68.31 86.30 68.78 C 82.99 70.68 79.79 72.74 76.49 74.65 C 76.31 74.35 75.95 73.75 75.77 73.45 C 80.23 68.38 85.21 63.54 91.79 61.40 C 90.87 59.04 89.95 56.68 89.10 54.30 M 109.18 103.91 C 109.81 105.84 110.87 107.59 111.82 109.39 C 115.31 109.12 118.81 108.88 122.31 108.65 C 120.59 105.08 118.63 101.64 116.51 98.30 C 113.95 99.99 111.28 101.63 109.18 103.91 M 97.80 109.34 C 101.92 107.02 105.92 104.15 108.16 99.85 C 103.74 101.79 100.59 105.54 97.80 109.34 M 64.58 141.26 C 67.37 143.23 70.19 145.18 73.13 146.93 C 78.67 150.14 83.56 154.40 89.43 157.06 C 86.87 151.13 82.67 146.18 79.38 140.68 C 77.65 137.88 75.84 135.14 74.00 132.41 C 70.77 135.26 67.63 138.21 64.58 141.26 Z" />
</g>
<g id="#8c8c8cff">
<path fill="#8c8c8c" opacity="1.00" d=" M 23.85 55.47 C 25.54 57.70 27.34 59.87 28.84 62.25 C 26.72 68.70 28.29 75.41 28.56 81.99 C 28.76 85.70 29.23 89.38 29.60 93.07 C 30.20 91.70 30.80 90.32 31.45 88.98 C 31.90 90.09 32.39 91.18 32.92 92.26 C 39.58 103.70 46.96 114.71 54.14 125.83 C 56.50 130.49 59.37 134.91 63.13 138.58 C 62.37 139.14 61.62 139.69 60.87 140.25 C 50.63 125.18 41.54 109.34 31.11 94.40 C 30.46 94.37 29.16 94.31 28.51 94.28 C 28.26 94.25 27.77 94.18 27.52 94.15 C 26.36 88.81 26.28 83.31 25.65 77.90 C 25.08 70.42 23.78 62.99 23.85 55.47 Z" />
</g>
<g id="#9e9e9eff">
<path fill="#9e9e9e" opacity="1.00" d=" M 52.21 55.35 C 53.96 56.29 56.17 56.83 57.20 58.69 C 59.41 62.49 60.95 66.63 63.03 70.50 C 61.15 72.98 58.45 74.59 55.73 75.99 C 50.75 74.20 45.57 73.03 40.57 71.32 C 47.14 71.20 53.59 72.82 60.17 72.57 C 57.70 66.74 54.45 61.28 52.21 55.35 Z" />
</g>
<g id="#272727ff">
<path fill="#272727" opacity="1.00" d=" M 72.63 55.45 C 73.12 55.51 74.11 55.64 74.60 55.70 C 71.92 60.85 68.85 65.78 65.93 70.80 C 68.31 70.68 70.68 70.54 73.06 70.41 C 71.98 71.80 70.91 73.20 69.87 74.62 C 68.09 74.25 66.17 73.61 64.42 74.46 C 58.93 76.87 53.87 80.17 48.61 83.03 C 48.07 82.20 47.53 81.38 47.00 80.55 C 49.90 79.02 52.82 77.51 55.73 75.99 C 58.45 74.59 61.15 72.98 63.03 70.50 C 66.27 65.51 69.11 60.26 72.63 55.45 Z" />
</g>
<g id="#676767ff">
<path fill="#676767" opacity="1.00" d=" M 74.60 55.70 C 75.21 55.79 76.44 55.96 77.06 56.04 C 75.88 59.41 74.87 62.83 74.10 66.31 C 78.42 62.99 81.17 57.85 86.29 55.58 C 83.78 61.82 78.66 66.34 74.81 71.71 C 72.31 74.68 70.30 78.01 68.74 81.56 L 68.39 82.19 C 67.94 82.26 67.04 82.39 66.59 82.45 C 65.10 82.67 63.61 82.90 62.14 83.18 C 65.42 81.04 67.68 77.79 69.87 74.62 C 70.91 73.20 71.98 71.80 73.06 70.41 C 70.68 70.54 68.31 70.68 65.93 70.80 C 68.85 65.78 71.92 60.85 74.60 55.70 Z" />
</g>
<g id="#838383ff">
<path fill="#838383" opacity="1.00" d=" M 98.84 60.98 C 100.27 59.49 101.70 57.98 103.16 56.51 C 109.03 63.72 112.61 72.47 118.63 79.57 C 119.62 81.35 120.50 83.19 121.45 85.00 C 119.48 86.05 117.52 87.10 115.57 88.16 C 110.37 78.86 103.84 70.39 98.84 60.98 Z" />
<path fill="#838383" opacity="1.00" d=" M 64.58 141.26 C 67.63 138.21 70.77 135.26 74.00 132.41 C 75.84 135.14 77.65 137.88 79.38 140.68 C 82.67 146.18 86.87 151.13 89.43 157.06 C 83.56 154.40 78.67 150.14 73.13 146.93 C 70.19 145.18 67.37 143.23 64.58 141.26 Z" />
</g>
<g id="#e0e0e0ff">
<path fill="#e0e0e0" opacity="1.00" d=" M 28.56 81.99 C 28.29 75.41 26.72 68.70 28.84 62.25 C 33.13 69.23 37.76 75.98 42.04 82.96 C 38.45 84.86 34.75 86.59 31.45 88.98 C 30.80 90.32 30.20 91.70 29.60 93.07 C 29.23 89.38 28.76 85.70 28.56 81.99 Z" />
</g>
<g id="#6d6d6dff">
<path fill="#6d6d6d" opacity="1.00" d=" M 88.71 67.35 C 90.57 66.17 92.35 64.87 94.15 63.59 C 98.98 70.92 103.51 78.44 108.26 85.82 C 109.62 88.24 111.45 90.67 111.56 93.55 C 110.96 95.24 109.51 96.44 108.32 97.72 C 105.41 92.84 102.96 87.71 100.18 82.77 C 97.04 77.15 92.89 72.20 88.71 67.35 Z" />
</g>
<g id="#878787ff">
<path fill="#878787" opacity="1.00" d=" M 86.30 68.78 C 87.11 68.31 87.91 67.83 88.71 67.35 C 92.89 72.20 97.04 77.15 100.18 82.77 C 102.96 87.71 105.41 92.84 108.32 97.72 C 107.94 97.88 107.18 98.19 106.80 98.35 C 100.05 89.48 95.22 79.32 88.74 70.27 C 87.92 69.78 87.10 69.28 86.30 68.78 Z" />
</g>
<g id="#a6a6a6ff">
<path fill="#a6a6a6" opacity="1.00" d=" M 76.49 74.65 C 79.79 72.74 82.99 70.68 86.30 68.78 C 87.10 69.28 87.92 69.78 88.74 70.27 C 88.45 70.45 87.88 70.82 87.59 71.00 C 81.58 75.00 75.38 78.71 68.74 81.56 C 70.30 78.01 72.31 74.68 74.81 71.71 C 75.05 72.15 75.53 73.01 75.77 73.45 C 75.95 73.75 76.31 74.35 76.49 74.65 Z" />
</g>
<g id="#898989ff">
<path fill="#898989" opacity="1.00" d=" M 68.74 81.56 C 75.38 78.71 81.58 75.00 87.59 71.00 C 92.13 79.65 98.01 87.50 102.75 96.04 C 101.68 97.24 100.65 98.50 99.44 99.55 C 97.59 99.65 96.04 98.32 94.41 97.63 C 92.83 98.72 91.27 99.82 89.71 100.94 C 87.45 98.30 85.20 95.65 82.95 92.99 C 84.40 95.91 86.00 98.79 86.95 101.92 C 87.68 103.95 85.98 105.75 85.26 107.52 C 79.73 99.02 74.68 90.17 68.39 82.19 L 68.74 81.56 Z" />
</g>
<g id="#161616ff">
<path fill="#161616" opacity="1.00" d=" M 64.42 74.46 C 66.17 73.61 68.09 74.25 69.87 74.62 C 67.68 77.79 65.42 81.04 62.14 83.18 C 58.28 84.03 54.50 85.15 50.75 86.37 C 50.05 85.25 49.33 84.14 48.61 83.03 C 53.87 80.17 58.93 76.87 64.42 74.46 Z" />
</g>
<g id="#949494ff">
<path fill="#949494" opacity="1.00" d=" M 138.50 79.24 C 139.91 81.55 141.33 83.85 142.76 86.15 C 141.78 86.76 140.79 87.36 139.80 87.95 C 137.18 88.79 134.59 89.70 131.94 90.46 C 128.73 90.50 126.97 87.81 125.46 85.39 C 129.93 83.61 134.29 81.56 138.50 79.24 Z" />
<path fill="#949494" opacity="1.00" d=" M 93.22 118.96 C 102.20 117.97 111.18 116.67 120.22 116.67 C 116.93 123.76 113.28 130.67 109.90 137.72 C 106.50 135.65 103.24 133.34 100.38 130.57 C 100.83 134.34 101.26 138.12 101.27 141.92 C 101.26 144.94 99.09 147.32 97.66 149.79 C 92.51 140.21 96.69 128.95 93.22 118.96 Z" />
</g>
<g id="#8a8a8aff">
<path fill="#8a8a8a" opacity="1.00" d=" M 50.75 86.37 C 54.50 85.15 58.28 84.03 62.14 83.18 C 63.61 82.90 65.10 82.67 66.59 82.45 C 72.63 93.70 80.11 104.09 86.60 115.08 C 86.19 115.53 85.38 116.43 84.97 116.88 C 80.67 117.69 76.42 118.76 72.25 120.08 C 64.89 108.97 57.73 97.72 50.75 86.37 Z" />
</g>
<g id="#787878ff">
<path fill="#787878" opacity="1.00" d=" M 121.45 85.00 C 122.62 87.24 123.92 89.40 125.22 91.57 C 123.41 92.89 121.59 94.19 119.76 95.48 C 118.28 93.09 116.95 90.61 115.57 88.16 C 117.52 87.10 119.48 86.05 121.45 85.00 Z" />
</g>
<g id="#c6c6c6ff">
<path fill="#c6c6c6" opacity="1.00" d=" M 139.97 95.03 C 142.26 92.45 144.61 89.90 147.04 87.44 C 147.16 94.23 144.79 100.63 143.18 107.13 C 142.70 109.21 141.63 111.08 140.52 112.88 C 139.38 109.89 138.18 106.94 136.97 103.98 C 136.06 104.34 135.16 104.71 134.26 105.09 C 134.72 106.61 135.18 108.12 135.65 109.64 C 133.53 110.21 131.42 110.78 129.31 111.38 C 128.83 112.42 128.36 113.46 127.88 114.51 C 130.31 114.43 132.74 114.33 135.18 114.28 C 128.27 123.73 120.74 132.72 113.84 142.18 C 113.60 141.60 113.11 140.44 112.87 139.86 C 117.79 130.60 122.09 121.03 126.94 111.74 C 127.52 110.65 128.10 109.58 128.75 108.53 C 132.05 103.69 136.25 99.56 139.97 95.03 Z" />
</g>
<g id="#a9a9a9ff">
<path fill="#a9a9a9" opacity="1.00" d=" M 32.92 92.26 C 37.02 91.00 41.10 89.70 45.19 88.40 C 47.43 91.54 49.69 94.68 51.81 97.92 C 56.38 104.89 60.77 111.97 65.36 118.93 C 62.24 121.64 59.38 124.62 56.90 127.92 C 55.97 127.23 55.04 126.54 54.14 125.83 C 46.96 114.71 39.58 103.70 32.92 92.26 Z" />
</g>
<g id="#a3a3a3ff">
<path fill="#a3a3a3" opacity="1.00" d=" M 131.05 94.54 C 133.72 93.67 136.40 92.82 139.13 92.11 C 137.54 94.53 135.43 96.51 133.30 98.44 C 132.50 97.16 131.84 95.81 131.05 94.54 Z" />
</g>
<g id="#7a7a7aff">
<path fill="#7a7a7a" opacity="1.00" d=" M 82.95 92.99 C 85.20 95.65 87.45 98.30 89.71 100.94 C 91.27 99.82 92.83 98.72 94.41 97.63 C 96.04 98.32 97.59 99.65 99.44 99.55 C 100.65 98.50 101.68 97.24 102.75 96.04 C 103.35 97.09 103.94 98.15 104.54 99.20 C 99.50 104.25 93.82 108.63 89.05 113.94 C 87.79 111.79 86.56 109.64 85.26 107.52 C 85.98 105.75 87.68 103.95 86.95 101.92 C 86.00 98.79 84.40 95.91 82.95 92.99 Z" />
<path fill="#7a7a7a" opacity="1.00" d=" M 97.80 109.34 C 100.59 105.54 103.74 101.79 108.16 99.85 C 105.92 104.15 101.92 107.02 97.80 109.34 Z" />
</g>
<g id="#696969ff">
<path fill="#696969" opacity="1.00" d=" M 120.73 96.94 C 123.27 96.64 125.78 96.14 128.28 95.65 C 129.16 97.38 130.16 99.08 130.77 100.93 C 129.93 103.02 128.53 104.81 127.29 106.67 C 124.93 103.55 122.90 100.19 120.73 96.94 Z" />
</g>
<g id="#525252ff">
<path fill="#525252" opacity="1.00" d=" M 109.18 103.91 C 111.28 101.63 113.95 99.99 116.51 98.30 C 118.63 101.64 120.59 105.08 122.31 108.65 C 118.81 108.88 115.31 109.12 111.82 109.39 C 110.87 107.59 109.81 105.84 109.18 103.91 Z" />
</g>
<g id="#575757ff">
<path fill="#575757" opacity="1.00" d=" M 134.26 105.09 C 135.16 104.71 136.06 104.34 136.97 103.98 C 138.18 106.94 139.38 109.89 140.52 112.88 C 135.01 118.70 130.82 125.59 125.80 131.80 C 119.95 138.07 115.83 145.75 109.61 151.69 C 110.71 148.39 112.00 145.13 113.84 142.18 C 120.74 132.72 128.27 123.73 135.18 114.28 C 132.74 114.33 130.31 114.43 127.88 114.51 C 128.36 113.46 128.83 112.42 129.31 111.38 C 131.42 110.78 133.53 110.21 135.65 109.64 C 135.18 108.12 134.72 106.61 134.26 105.09 Z" />
</g>
<g id="#6a6a6aff">
<path fill="#6a6a6a" opacity="1.00" d=" M 101.07 114.47 C 108.11 114.51 115.01 112.93 122.03 112.62 C 121.43 113.97 120.83 115.33 120.22 116.67 C 111.18 116.67 102.20 117.97 93.22 118.96 C 87.01 122.91 87.33 131.18 83.05 136.62 C 81.14 133.76 79.05 131.03 77.17 128.15 C 83.04 125.23 86.86 119.68 92.24 116.12 C 94.82 114.31 98.08 114.54 101.07 114.47 Z" />
</g>
<g id="#6b6b6bff">
<path fill="#6b6b6b" opacity="1.00" d=" M 72.25 120.08 C 76.42 118.76 80.67 117.69 84.97 116.88 C 82.03 120.22 78.91 123.45 76.68 127.34 C 75.24 124.90 73.79 122.46 72.25 120.08 Z" />
</g>
<g id="#8b8b8bff">
<path fill="#8b8b8b" opacity="1.00" d=" M 65.36 118.93 C 67.77 122.56 70.08 126.25 72.38 129.95 C 69.52 133.06 66.56 136.10 63.13 138.58 C 59.37 134.91 56.50 130.49 54.14 125.83 C 55.04 126.54 55.97 127.23 56.90 127.92 C 59.38 124.62 62.24 121.64 65.36 118.93 Z" />
</g>
<g id="#848484ff">
<path fill="#848484" opacity="1.00" d=" M 83.05 136.62 C 87.33 131.18 87.01 122.91 93.22 118.96 C 96.69 128.95 92.51 140.21 97.66 149.79 C 99.09 147.32 101.26 144.94 101.27 141.92 C 101.26 138.12 100.83 134.34 100.38 130.57 C 103.24 133.34 106.50 135.65 109.90 137.72 C 105.98 146.91 99.54 155.16 98.12 165.29 C 98.03 164.97 97.84 164.32 97.75 164.00 C 97.42 160.86 96.92 157.61 94.93 155.04 C 90.74 149.05 87.02 142.75 83.05 136.62 Z" />
</g>
<g id="#aaaaaaff">
<path fill="#aaaaaa" opacity="1.00" d=" M 109.61 151.69 C 115.83 145.75 119.95 138.07 125.80 131.80 C 123.77 136.20 120.66 139.94 117.76 143.77 C 111.56 152.33 104.87 160.51 98.89 169.22 C 102.82 159.11 107.95 149.52 112.87 139.86 C 113.11 140.44 113.60 141.60 113.84 142.18 C 112.00 145.13 110.71 148.39 109.61 151.69 Z" />
</g>
</svg>
