<?xml version="1.0" encoding="UTF-8" ?>
<!DOCTYPE svg PUBLIC "-//W3C//DTD SVG 1.1//EN" "http://www.w3.org/Graphics/SVG/1.1/DTD/svg11.dtd">
<svg width="180pt" height="180pt" viewBox="0 0 180 180" version="1.1" xmlns="http://www.w3.org/2000/svg">
<g id="#ffffffff">
</g>
<g id="#3f3f3fff">
<path fill="#3f3f3f" opacity="1.00" d=" M 23.42 48.62 C 45.26 43.69 67.11 38.79 88.96 33.87 C 90.98 33.40 93.05 33.96 95.07 34.17 C 103.60 35.41 112.21 36.08 120.71 37.55 C 116.49 39.49 112.06 40.92 107.57 42.05 C 103.35 38.14 97.32 38.36 91.95 38.27 C 93.29 39.94 94.56 41.69 96.17 43.12 C 99.26 43.31 102.33 42.74 105.41 42.63 C 100.92 44.34 96.32 45.76 91.78 47.30 L 90.90 47.63 C 94.47 56.93 100.70 64.91 105.14 73.80 C 104.53 74.20 103.31 74.99 102.70 75.39 C 100.85 71.82 98.63 68.30 95.03 66.27 C 95.24 65.95 95.68 65.31 95.89 64.99 C 93.29 66.38 90.69 67.78 87.99 68.97 C 83.61 70.71 79.33 72.72 74.82 74.14 C 76.03 72.32 77.28 70.53 78.57 68.77 C 84.31 67.77 90.29 66.05 93.95 61.18 C 92.50 58.44 91.08 55.69 89.66 52.94 C 89.33 52.31 88.68 51.04 88.35 50.41 C 77.28 50.39 66.27 51.59 55.21 51.77 C 45.18 52.21 35.13 52.19 25.13 53.05 C 29.94 62.35 35.44 71.27 40.60 80.37 C 53.55 103.07 66.68 125.66 79.68 148.34 C 82.84 153.76 85.68 159.42 89.55 164.39 C 90.00 164.96 90.91 166.10 91.36 166.67 L 91.83 167.25 C 91.33 167.86 90.32 169.09 89.81 169.70 C 85.30 166.80 81.83 162.67 77.81 159.19 C 73.18 155.17 68.89 150.78 64.28 146.73 C 61.99 144.68 59.62 142.64 57.98 140.00 C 48.75 124.43 40.11 108.50 30.62 93.09 C 31.39 91.73 32.15 90.36 32.96 89.02 C 34.31 86.71 36.70 85.42 38.92 84.11 C 34.97 76.34 30.35 68.92 25.87 61.45 C 24.32 58.52 22.53 55.72 20.97 52.79 C 19.73 50.93 21.40 48.72 23.42 48.62 M 75.34 38.12 C 64.56 40.62 53.83 43.38 43.03 45.83 C 41.00 46.28 39.07 47.08 37.22 48.03 C 41.05 48.38 44.94 47.99 48.66 47.04 C 58.51 48.13 68.39 46.89 78.25 46.80 C 79.14 46.85 79.99 46.69 80.80 46.34 C 83.09 43.33 84.29 39.22 88.11 37.73 C 87.60 40.70 86.33 43.44 85.10 46.16 C 87.84 46.36 90.54 45.87 93.14 45.04 C 91.93 42.28 90.67 39.54 89.51 36.75 C 89.75 36.34 90.24 35.53 90.48 35.12 C 85.28 35.19 80.37 37.03 75.34 38.12 M 34.01 90.27 C 39.46 100.54 45.54 110.45 51.32 120.52 C 52.48 122.37 53.44 124.44 55.13 125.88 C 56.10 130.15 57.59 134.30 59.89 138.05 C 62.37 136.31 64.61 134.28 66.69 132.09 C 65.13 128.91 63.44 125.79 61.46 122.84 C 57.30 115.01 52.54 107.51 48.22 99.77 C 45.93 96.02 44.07 91.99 41.42 88.47 C 38.82 87.89 36.40 89.48 34.01 90.27 M 68.17 134.94 C 66.61 136.39 65.01 137.79 63.37 139.15 C 67.95 143.91 72.86 148.47 78.29 152.24 C 75.48 146.19 72.03 140.39 68.17 134.94 Z" />
</g>
<g id="#bbbbbbff">
<path fill="#bbbbbb" opacity="1.00" d=" M 75.34 38.12 C 80.37 37.03 85.28 35.19 90.48 35.12 C 90.24 35.53 89.75 36.34 89.51 36.75 C 89.16 37.00 88.46 37.48 88.11 37.73 C 84.29 39.22 83.09 43.33 80.80 46.34 C 75.21 46.20 69.62 46.28 64.04 45.97 C 65.30 44.91 66.57 43.85 67.83 42.79 C 61.33 43.65 54.91 45.02 48.66 47.04 C 44.94 47.99 41.05 48.38 37.22 48.03 C 39.07 47.08 41.00 46.28 43.03 45.83 C 53.83 43.38 64.56 40.62 75.34 38.12 Z" />
</g>
<g id="#a3a3a3ff">
<path fill="#a3a3a3" opacity="1.00" d=" M 88.11 37.73 C 88.46 37.48 89.16 37.00 89.51 36.75 C 90.67 39.54 91.93 42.28 93.14 45.04 C 90.54 45.87 87.84 46.36 85.10 46.16 C 86.33 43.44 87.60 40.70 88.11 37.73 Z" />
<path fill="#a3a3a3" opacity="1.00" d=" M 48.66 47.04 C 54.91 45.02 61.33 43.65 67.83 42.79 C 66.57 43.85 65.30 44.91 64.04 45.97 C 69.62 46.28 75.21 46.20 80.80 46.34 C 79.99 46.69 79.14 46.85 78.25 46.80 C 68.39 46.89 58.51 48.13 48.66 47.04 Z" />
</g>
<g id="#dededeff">
<path fill="#dedede" opacity="1.00" d=" M 120.71 37.55 C 121.58 38.89 122.32 40.30 122.92 41.78 L 121.97 41.68 C 120.67 41.81 119.39 42.08 118.12 42.36 C 116.39 42.74 114.66 43.15 112.98 43.73 C 108.87 45.50 106.19 49.29 103.03 52.29 C 101.59 51.23 100.16 50.15 98.67 49.16 C 98.26 49.23 97.44 49.37 97.03 49.45 C 95.79 49.73 94.57 50.05 93.35 50.37 C 92.83 49.35 92.30 48.32 91.78 47.30 C 96.32 45.76 100.92 44.34 105.41 42.63 C 105.95 42.49 107.03 42.20 107.57 42.05 C 112.06 40.92 116.49 39.49 120.71 37.55 Z" />
</g>
<g id="#b9b9b9ff">
<path fill="#b9b9b9" opacity="1.00" d=" M 91.95 38.27 C 97.32 38.36 103.35 38.14 107.57 42.05 C 107.03 42.20 105.95 42.49 105.41 42.63 C 102.33 42.74 99.26 43.31 96.17 43.12 C 94.56 41.69 93.29 39.94 91.95 38.27 Z" />
</g>
<g id="#3e3e3eff">
<path fill="#3e3e3e" opacity="1.00" d=" M 118.12 42.36 C 119.39 42.08 120.67 41.81 121.97 41.68 C 123.23 44.75 124.74 47.71 126.47 50.55 C 134.17 63.26 141.37 76.27 148.79 89.14 C 142.24 95.92 134.67 101.63 128.18 108.46 C 125.43 103.93 122.27 99.54 120.74 94.40 C 118.78 87.90 114.70 82.38 111.44 76.52 C 108.19 71.09 105.85 64.76 100.37 61.10 C 104.39 56.52 109.28 52.86 113.79 48.80 C 115.79 47.08 117.09 44.75 118.12 42.36 M 105.51 59.05 C 108.51 65.31 112.55 71.00 115.67 77.21 C 117.33 80.21 118.66 83.45 120.84 86.14 C 121.95 89.15 123.90 91.71 125.96 94.13 C 132.49 92.44 139.20 91.15 145.34 88.23 C 144.30 86.83 143.28 85.43 142.28 84.01 C 134.85 71.09 127.51 58.12 119.96 45.28 C 114.78 49.47 110.00 54.13 105.51 59.05 M 127.96 97.52 C 128.74 99.07 129.47 100.65 130.13 102.27 C 133.64 100.24 136.65 97.50 139.32 94.47 C 135.49 95.34 131.72 96.42 127.96 97.52 Z" />
</g>
<g id="#cdcdcdff">
<path fill="#cdcdcd" opacity="1.00" d=" M 121.97 41.68 L 122.92 41.78 C 131.74 56.48 139.94 71.54 148.83 86.19 C 151.21 89.60 149.33 94.17 146.75 96.90 C 146.78 96.41 146.85 95.42 146.89 94.93 C 140.99 98.74 139.40 105.85 136.93 111.94 C 135.34 110.44 133.75 108.94 132.16 107.45 L 131.94 108.23 C 131.81 108.67 131.54 109.54 131.41 109.98 C 131.67 111.56 132.10 113.10 132.53 114.64 C 130.21 114.96 127.89 115.30 125.57 115.62 C 125.00 116.78 124.44 117.93 123.87 119.09 C 126.35 119.25 128.84 119.39 131.32 119.56 C 123.83 128.12 115.73 136.13 107.70 144.18 C 107.49 143.81 107.08 143.08 106.88 142.71 C 112.91 132.11 119.68 121.96 126.22 111.67 C 126.86 110.60 127.49 109.51 128.18 108.46 C 134.67 101.63 142.24 95.92 148.79 89.14 C 141.37 76.27 134.17 63.26 126.47 50.55 C 124.74 47.71 123.23 44.75 121.97 41.68 Z" />
</g>
<g id="#a6a6a6ff">
<path fill="#a6a6a6" opacity="1.00" d=" M 112.98 43.73 C 114.66 43.15 116.39 42.74 118.12 42.36 C 117.09 44.75 115.79 47.08 113.79 48.80 C 109.28 52.86 104.39 56.52 100.37 61.10 C 105.85 64.76 108.19 71.09 111.44 76.52 C 114.70 82.38 118.78 87.90 120.74 94.40 C 122.27 99.54 125.43 103.93 128.18 108.46 C 127.49 109.51 126.86 110.60 126.22 111.67 C 123.99 105.41 120.03 100.01 116.87 94.22 C 113.08 87.34 109.02 80.62 105.14 73.80 C 100.70 64.91 94.47 56.93 90.90 47.63 L 91.78 47.30 C 92.30 48.32 92.83 49.35 93.35 50.37 C 94.57 50.05 95.79 49.73 97.03 49.45 C 97.58 51.65 98.19 53.85 98.59 56.09 C 98.78 57.29 98.95 58.49 99.14 59.68 C 105.01 54.91 110.50 49.60 115.29 43.73 C 114.71 43.73 113.56 43.73 112.98 43.73 Z" />
<path fill="#a6a6a6" opacity="1.00" d=" M 25.13 53.05 C 35.13 52.19 45.18 52.21 55.21 51.77 L 54.51 52.35 C 53.74 53.03 52.97 53.71 52.21 54.40 C 55.49 61.20 59.49 67.61 63.25 74.15 C 56.99 77.07 50.54 79.56 44.21 82.33 C 45.03 83.61 45.85 84.89 46.66 86.18 C 53.60 98.32 60.70 110.36 67.70 122.46 C 68.79 124.36 69.84 126.27 70.90 128.19 C 71.51 129.29 72.14 130.39 72.78 131.49 C 74.54 134.45 76.33 137.40 78.02 140.41 C 81.72 147.92 86.88 154.64 90.17 162.35 C 90.02 162.86 89.71 163.88 89.55 164.39 C 85.68 159.42 82.84 153.76 79.68 148.34 C 66.68 125.66 53.55 103.07 40.60 80.37 C 35.44 71.27 29.94 62.35 25.13 53.05 Z" />
</g>
<g id="#282828ff">
<path fill="#282828" opacity="1.00" d=" M 103.03 52.29 C 106.19 49.29 108.87 45.50 112.98 43.73 C 113.56 43.73 114.71 43.73 115.29 43.73 C 110.50 49.60 105.01 54.91 99.14 59.68 C 98.95 58.49 98.78 57.29 98.59 56.09 C 100.12 54.88 101.63 53.65 103.03 52.29 Z" />
<path fill="#282828" opacity="1.00" d=" M 76.57 53.61 C 77.30 52.21 78.90 51.94 80.26 51.49 C 77.41 58.85 71.56 64.67 69.35 72.32 C 68.36 75.53 67.27 79.12 64.03 80.76 C 58.23 82.53 52.39 84.18 46.66 86.18 C 45.85 84.89 45.03 83.61 44.21 82.33 C 50.54 79.56 56.99 77.07 63.25 74.15 C 64.05 73.26 64.81 72.33 65.52 71.36 C 69.44 65.59 72.63 59.36 76.57 53.61 Z" />
</g>
<g id="#aeaeaeff">
<path fill="#aeaeae" opacity="1.00" d=" M 105.51 59.05 C 110.00 54.13 114.78 49.47 119.96 45.28 C 127.51 58.12 134.85 71.09 142.28 84.01 C 136.66 86.26 130.98 88.38 125.14 89.97 C 123.69 88.70 122.23 87.46 120.84 86.14 C 118.66 83.45 117.33 80.21 115.67 77.21 C 112.55 71.00 108.51 65.31 105.51 59.05 Z" />
</g>
<g id="#606060ff">
<path fill="#606060" opacity="1.00" d=" M 97.03 49.45 C 97.44 49.37 98.26 49.23 98.67 49.16 C 100.16 50.15 101.59 51.23 103.03 52.29 C 101.63 53.65 100.12 54.88 98.59 56.09 C 98.19 53.85 97.58 51.65 97.03 49.45 Z" />
</g>
<g id="#afafafff">
<path fill="#afafaf" opacity="1.00" d=" M 55.21 51.77 C 66.27 51.59 77.28 50.39 88.35 50.41 C 88.68 51.04 89.33 52.31 89.66 52.94 C 86.76 58.75 82.21 63.45 78.57 68.77 C 77.28 70.53 76.03 72.32 74.82 74.14 C 79.33 72.72 83.61 70.71 87.99 68.97 C 88.62 68.83 89.88 68.54 90.51 68.40 C 90.43 68.95 90.27 70.07 90.19 70.63 L 89.28 70.99 C 82.82 73.81 76.60 77.17 70.20 80.13 L 69.74 79.26 C 73.97 68.96 83.31 61.80 87.51 51.51 C 81.36 52.20 79.63 58.92 76.14 63.01 C 77.90 59.68 79.83 56.45 81.49 53.08 C 81.19 52.68 80.57 51.89 80.26 51.49 C 78.90 51.94 77.30 52.21 76.57 53.61 C 72.63 59.36 69.44 65.59 65.52 71.36 C 60.48 65.89 58.44 58.54 54.51 52.35 L 55.21 51.77 Z" />
</g>
<g id="#646464ff">
<path fill="#646464" opacity="1.00" d=" M 80.26 51.49 C 80.57 51.89 81.19 52.68 81.49 53.08 C 79.83 56.45 77.90 59.68 76.14 63.01 C 79.63 58.92 81.36 52.20 87.51 51.51 C 83.31 61.80 73.97 68.96 69.74 79.26 C 68.81 80.20 67.84 81.11 66.88 82.02 C 65.93 81.59 64.98 81.17 64.03 80.76 C 67.27 79.12 68.36 75.53 69.35 72.32 C 71.56 64.67 77.41 58.85 80.26 51.49 Z" />
</g>
<g id="#888888ff">
<path fill="#888888" opacity="1.00" d=" M 20.97 52.79 C 22.53 55.72 24.32 58.52 25.87 61.45 C 26.45 71.00 29.51 80.14 31.17 89.53 C 31.62 89.40 32.51 89.15 32.96 89.02 C 32.15 90.36 31.39 91.73 30.62 93.09 C 28.00 87.73 27.52 81.69 25.96 76.00 C 24.35 68.26 22.11 60.63 20.97 52.79 Z" />
<path fill="#888888" opacity="1.00" d=" M 46.66 86.18 C 52.39 84.18 58.23 82.53 64.03 80.76 C 64.98 81.17 65.93 81.59 66.88 82.02 C 72.61 93.25 79.71 103.72 85.36 114.99 C 83.61 116.53 81.86 118.07 80.12 119.63 C 77.99 118.45 75.88 117.24 73.78 116.02 C 73.59 117.42 73.40 118.81 73.21 120.21 C 71.37 120.96 69.53 121.71 67.70 122.46 C 60.70 110.36 53.60 98.32 46.66 86.18 Z" />
</g>
<g id="#8b8b8bff">
<path fill="#8b8b8b" opacity="1.00" d=" M 52.21 54.40 C 52.97 53.71 53.74 53.03 54.51 52.35 C 58.44 58.54 60.48 65.89 65.52 71.36 C 64.81 72.33 64.05 73.26 63.25 74.15 C 59.49 67.61 55.49 61.20 52.21 54.40 Z" />
</g>
<g id="#838383ff">
<path fill="#838383" opacity="1.00" d=" M 89.66 52.94 C 91.08 55.69 92.50 58.44 93.95 61.18 C 90.29 66.05 84.31 67.77 78.57 68.77 C 82.21 63.45 86.76 58.75 89.66 52.94 Z" />
</g>
<g id="#d4d4d4ff">
<path fill="#d4d4d4" opacity="1.00" d=" M 31.17 89.53 C 29.51 80.14 26.45 71.00 25.87 61.45 C 30.35 68.92 34.97 76.34 38.92 84.11 C 36.70 85.42 34.31 86.71 32.96 89.02 C 32.51 89.15 31.62 89.40 31.17 89.53 Z" />
</g>
<g id="#808080ff">
<path fill="#808080" opacity="1.00" d=" M 87.99 68.97 C 90.69 67.78 93.29 66.38 95.89 64.99 C 95.68 65.31 95.24 65.95 95.03 66.27 C 94.34 67.28 93.66 68.29 92.97 69.29 C 95.57 73.45 98.83 77.13 101.60 81.16 C 104.95 86.69 107.87 92.50 110.19 98.53 C 109.80 98.71 109.01 99.08 108.61 99.26 C 103.64 92.06 99.63 84.27 95.41 76.62 C 94.13 74.27 92.38 72.18 90.19 70.63 C 90.27 70.07 90.43 68.95 90.51 68.40 C 89.88 68.54 88.62 68.83 87.99 68.97 Z" />
</g>
<g id="#6a6a6aff">
<path fill="#6a6a6a" opacity="1.00" d=" M 92.97 69.29 C 93.66 68.29 94.34 67.28 95.03 66.27 C 98.63 68.30 100.85 71.82 102.70 75.39 C 106.57 82.58 111.17 89.36 114.70 96.73 C 113.19 97.32 111.68 97.90 110.19 98.53 C 107.87 92.50 104.95 86.69 101.60 81.16 C 98.83 77.13 95.57 73.45 92.97 69.29 Z" />
</g>
<g id="#878787ff">
<path fill="#878787" opacity="1.00" d=" M 70.20 80.13 C 76.60 77.17 82.82 73.81 89.28 70.99 C 94.01 80.92 100.91 89.68 105.11 99.87 C 101.07 102.99 96.85 105.86 92.95 109.16 C 91.66 110.29 90.42 111.48 89.17 112.66 C 82.65 101.94 76.46 91.01 70.20 80.13 Z" />
</g>
<g id="#535353ff">
<path fill="#535353" opacity="1.00" d=" M 89.28 70.99 L 90.19 70.63 C 92.38 72.18 94.13 74.27 95.41 76.62 C 99.63 84.27 103.64 92.06 108.61 99.26 C 109.19 100.09 109.77 100.93 110.36 101.76 C 112.70 101.27 115.04 100.79 117.38 100.30 C 119.10 102.60 120.42 105.17 121.33 107.90 C 118.32 108.34 115.26 109.08 112.21 108.68 C 110.72 108.11 109.71 106.79 108.55 105.78 C 107.27 107.01 106.00 108.25 104.72 109.49 C 103.15 109.41 101.57 109.33 100.00 109.34 C 103.57 107.02 106.96 104.34 109.55 100.91 C 104.18 103.08 99.87 107.02 95.09 110.16 C 94.55 109.91 93.49 109.41 92.95 109.16 C 96.85 105.86 101.07 102.99 105.11 99.87 C 100.91 89.68 94.01 80.92 89.28 70.99 Z" />
</g>
<g id="#353535ff">
<path fill="#353535" opacity="1.00" d=" M 102.70 75.39 C 103.31 74.99 104.53 74.20 105.14 73.80 C 109.02 80.62 113.08 87.34 116.87 94.22 C 120.03 100.01 123.99 105.41 126.22 111.67 C 119.68 121.96 112.91 132.11 106.88 142.71 C 101.63 150.64 97.16 159.12 91.36 166.67 C 90.91 166.10 90.00 164.96 89.55 164.39 C 89.71 163.88 90.02 162.86 90.17 162.35 C 97.74 147.54 108.28 134.46 116.13 119.80 C 109.49 119.57 102.84 119.83 96.21 120.20 C 94.64 120.04 93.08 119.85 91.52 119.64 C 95.13 116.18 100.26 116.11 104.95 116.27 C 109.79 116.44 114.63 116.18 119.43 115.55 C 119.95 114.44 120.47 113.34 120.98 112.23 C 112.60 112.60 104.33 114.14 95.95 114.57 C 93.47 114.83 90.61 114.74 88.76 116.71 C 83.74 121.54 78.44 126.07 73.51 131.00 L 72.78 131.49 C 72.14 130.39 71.51 129.29 70.90 128.19 C 73.93 125.29 76.98 122.40 80.12 119.63 C 81.86 118.07 83.61 116.53 85.36 114.99 C 79.71 103.72 72.61 93.25 66.88 82.02 C 67.84 81.11 68.81 80.20 69.74 79.26 L 70.20 80.13 C 76.46 91.01 82.65 101.94 89.17 112.66 C 90.42 111.48 91.66 110.29 92.95 109.16 C 93.49 109.41 94.55 109.91 95.09 110.16 C 95.38 110.28 95.96 110.51 96.25 110.63 C 97.52 110.25 98.76 109.79 100.00 109.34 C 101.57 109.33 103.15 109.41 104.72 109.49 C 106.00 108.25 107.27 107.01 108.55 105.78 C 109.71 106.79 110.72 108.11 112.21 108.68 C 115.26 109.08 118.32 108.34 121.33 107.90 C 120.42 105.17 119.10 102.60 117.38 100.30 C 115.04 100.79 112.70 101.27 110.36 101.76 C 109.77 100.93 109.19 100.09 108.61 99.26 C 109.01 99.08 109.80 98.71 110.19 98.53 C 111.68 97.90 113.19 97.32 114.70 96.73 C 111.17 89.36 106.57 82.58 102.70 75.39 Z" />
</g>
<g id="#939393ff">
<path fill="#939393" opacity="1.00" d=" M 142.28 84.01 C 143.28 85.43 144.30 86.83 145.34 88.23 C 139.20 91.15 132.49 92.44 125.96 94.13 C 123.90 91.71 121.95 89.15 120.84 86.14 C 122.23 87.46 123.69 88.70 125.14 89.97 C 130.98 88.38 136.66 86.26 142.28 84.01 Z" />
</g>
<g id="#b1b1b1ff">
<path fill="#b1b1b1" opacity="1.00" d=" M 34.01 90.27 C 36.40 89.48 38.82 87.89 41.42 88.47 C 44.07 91.99 45.93 96.02 48.22 99.77 C 52.54 107.51 57.30 115.01 61.46 122.84 C 60.36 124.59 59.27 126.35 58.19 128.10 C 57.16 127.37 56.13 126.64 55.13 125.88 C 53.44 124.44 52.48 122.37 51.32 120.52 C 45.54 110.45 39.46 100.54 34.01 90.27 Z" />
</g>
<g id="#a5a5a5ff">
<path fill="#a5a5a5" opacity="1.00" d=" M 127.96 97.52 C 131.72 96.42 135.49 95.34 139.32 94.47 C 136.65 97.50 133.64 100.24 130.13 102.27 C 129.47 100.65 128.74 99.07 127.96 97.52 Z" />
</g>
<g id="#868686ff">
<path fill="#868686" opacity="1.00" d=" M 136.93 111.94 C 139.40 105.85 140.99 98.74 146.89 94.93 C 146.85 95.42 146.78 96.41 146.75 96.90 C 145.73 100.23 143.88 103.24 142.82 106.56 C 141.15 110.79 140.23 115.58 136.93 118.94 C 133.65 122.33 130.50 125.89 126.76 128.81 C 129.77 124.57 134.24 121.45 136.68 116.82 C 136.65 113.35 133.81 110.86 131.94 108.23 L 132.16 107.45 C 133.75 108.94 135.34 110.44 136.93 111.94 Z" />
</g>
<g id="#777777ff">
<path fill="#777777" opacity="1.00" d=" M 95.09 110.16 C 99.87 107.02 104.18 103.08 109.55 100.91 C 106.96 104.34 103.57 107.02 100.00 109.34 C 98.76 109.79 97.52 110.25 96.25 110.63 C 95.96 110.51 95.38 110.28 95.09 110.16 Z" />
</g>
<g id="#626262ff">
<path fill="#626262" opacity="1.00" d=" M 131.41 109.98 C 131.54 109.54 131.81 108.67 131.94 108.23 C 133.81 110.86 136.65 113.35 136.68 116.82 C 134.24 121.45 129.77 124.57 126.76 128.81 C 122.19 134.18 116.89 138.86 112.31 144.22 C 108.76 147.97 105.62 152.25 101.16 154.99 C 101.91 150.72 104.79 147.23 107.70 144.18 C 115.73 136.13 123.83 128.12 131.32 119.56 C 128.84 119.39 126.35 119.25 123.87 119.09 C 124.44 117.93 125.00 116.78 125.57 115.62 C 127.89 115.30 130.21 114.96 132.53 114.64 C 132.10 113.10 131.67 111.56 131.41 109.98 Z" />
</g>
<g id="#707070ff">
<path fill="#707070" opacity="1.00" d=" M 95.95 114.57 C 104.33 114.14 112.60 112.60 120.98 112.23 C 120.47 113.34 119.95 114.44 119.43 115.55 C 114.63 116.18 109.79 116.44 104.95 116.27 C 100.26 116.11 95.13 116.18 91.52 119.64 C 93.08 119.85 94.64 120.04 96.21 120.20 C 93.50 120.73 90.82 121.41 88.18 122.22 C 82.71 124.09 78.68 128.52 73.51 131.00 C 78.44 126.07 83.74 121.54 88.76 116.71 C 90.61 114.74 93.47 114.83 95.95 114.57 Z" />
</g>
<g id="#717171ff">
<path fill="#717171" opacity="1.00" d=" M 73.78 116.02 C 75.88 117.24 77.99 118.45 80.12 119.63 C 76.98 122.40 73.93 125.29 70.90 128.19 C 69.84 126.27 68.79 124.36 67.70 122.46 C 69.53 121.71 71.37 120.96 73.21 120.21 C 73.40 118.81 73.59 117.42 73.78 116.02 Z" />
</g>
<g id="#858585ff">
<path fill="#858585" opacity="1.00" d=" M 96.21 120.20 C 102.84 119.83 109.49 119.57 116.13 119.80 C 108.28 134.46 97.74 147.54 90.17 162.35 C 86.88 154.64 81.72 147.92 78.02 140.41 C 82.89 135.29 85.98 128.86 88.18 122.22 C 90.82 121.41 93.50 120.73 96.21 120.20 Z" />
</g>
<g id="#5b5b5bff">
<path fill="#5b5b5b" opacity="1.00" d=" M 73.51 131.00 C 78.68 128.52 82.71 124.09 88.18 122.22 C 85.98 128.86 82.89 135.29 78.02 140.41 C 76.33 137.40 74.54 134.45 72.78 131.49 L 73.51 131.00 Z" />
</g>
<g id="#979797ff">
<path fill="#979797" opacity="1.00" d=" M 61.46 122.84 C 63.44 125.79 65.13 128.91 66.69 132.09 C 64.61 134.28 62.37 136.31 59.89 138.05 C 57.59 134.30 56.10 130.15 55.13 125.88 C 56.13 126.64 57.16 127.37 58.19 128.10 C 59.27 126.35 60.36 124.59 61.46 122.84 Z" />
</g>
<g id="#898989ff">
<path fill="#898989" opacity="1.00" d=" M 68.17 134.94 C 72.03 140.39 75.48 146.19 78.29 152.24 C 72.86 148.47 67.95 143.91 63.37 139.15 C 65.01 137.79 66.61 136.39 68.17 134.94 Z" />
</g>
</svg>
