<?xml version="1.0" encoding="UTF-8" ?>
<!DOCTYPE svg PUBLIC "-//W3C//DTD SVG 1.1//EN" "http://www.w3.org/Graphics/SVG/1.1/DTD/svg11.dtd">
<svg width="180pt" height="180pt" viewBox="0 0 180 180" version="1.1" xmlns="http://www.w3.org/2000/svg">
<g id="#fefefeff">
</g>
<g id="#bababaff">
<path fill="#bababa" opacity="1.00" d=" M 100.00 37.97 C 109.90 34.88 128.23 33.52 128.85 49.26 C 126.52 44.64 119.48 36.62 122.14 46.69 C 123.44 55.20 121.09 47.86 119.25 43.55 C 112.94 39.88 106.75 52.75 100.76 56.24 C 99.07 53.06 97.58 45.43 92.68 47.98 C 91.94 46.47 91.25 44.92 90.83 43.29 C 100.35 41.38 110.04 40.50 119.50 38.35 C 113.00 37.98 106.50 38.06 100.00 37.97 Z" />
</g>
<g id="#9b9b9bff">
<path fill="#9b9b9b" opacity="1.00" d=" M 57.28 42.64 C 66.09 41.38 80.11 39.57 91.18 37.99 C 84.99 48.49 67.49 41.61 56.98 45.04 C 50.67 44.62 62.60 44.09 57.28 42.64 Z" />
</g>
<g id="#444444ff">
<path fill="#444444" opacity="1.00" d=" M 91.18 37.99 C 94.11 37.84 97.06 37.95 100.00 37.97 C 106.50 38.06 113.00 37.98 119.50 38.35 C 110.04 40.50 100.35 41.38 90.83 43.29 C 91.25 44.92 91.94 46.47 92.68 47.98 C 102.21 69.74 117.03 89.53 124.89 111.71 C 114.58 124.79 104.78 138.28 94.59 151.46 C 91.24 154.95 88.06 158.65 85.82 162.96 C 84.45 165.25 82.68 167.28 80.87 169.22 C 59.30 146.81 46.99 117.95 32.90 90.67 C 33.98 88.18 36.94 85.57 35.29 82.73 C 30.88 73.92 26.10 65.30 21.08 56.83 C 19.78 54.17 16.47 47.51 21.45 47.51 C 33.42 46.10 45.37 44.51 57.28 42.64 C 62.60 44.09 50.67 44.62 56.98 45.04 C 67.49 41.61 84.99 48.49 91.18 37.99 M 85.11 46.79 C 64.84 48.31 44.59 50.37 24.27 51.19 C 21.84 52.47 23.90 54.69 24.76 56.27 C 39.24 84.13 53.79 111.99 67.93 140.03 C 72.31 146.99 76.74 160.32 81.09 163.18 C 90.18 149.23 101.36 136.64 111.07 123.09 C 103.83 122.42 96.19 123.02 89.26 120.47 C 84.65 128.03 76.75 133.22 70.28 139.16 C 69.03 136.29 67.54 133.54 65.72 130.99 C 67.53 121.43 80.78 121.36 84.04 113.00 C 79.07 102.32 72.96 91.93 67.63 81.34 C 66.53 79.71 68.67 78.41 69.15 76.94 C 59.94 79.06 52.08 85.98 42.35 85.92 C 39.43 79.22 54.95 80.25 58.72 76.59 C 62.02 77.98 67.25 66.51 66.35 73.36 C 74.29 66.42 75.10 51.95 85.02 48.03 C 85.68 48.69 86.33 49.37 86.97 50.05 C 81.15 58.05 76.22 66.67 70.99 75.03 C 75.18 84.24 80.34 93.02 84.79 102.14 C 87.36 116.71 100.12 103.73 107.02 100.02 C 101.95 90.70 96.99 81.30 91.99 71.94 C 92.33 70.60 95.11 67.95 94.98 71.97 C 99.59 81.34 104.84 91.41 110.02 99.96 C 120.38 94.88 105.35 83.35 104.01 75.99 C 99.59 62.08 86.10 71.14 75.80 72.03 C 80.54 66.81 97.88 69.54 92.46 59.01 C 93.86 54.32 89.28 43.42 85.11 46.79 M 35.98 87.94 C 43.05 103.45 51.02 120.15 60.13 133.95 C 55.34 120.62 46.26 99.82 35.98 87.94 M 114.51 112.60 C 104.42 114.81 90.45 110.03 83.88 120.15 C 87.63 119.35 93.65 110.80 95.41 117.75 C 101.65 118.03 108.22 119.72 114.35 118.38 C 116.86 116.71 123.25 108.98 114.51 112.60 Z" />
</g>
<g id="#585858ff">
<path fill="#585858" opacity="1.00" d=" M 122.14 46.69 C 119.48 36.62 126.52 44.64 128.85 49.26 C 135.39 61.57 142.51 73.61 148.71 86.12 C 155.39 96.99 133.41 100.39 127.87 107.22 C 121.01 104.48 146.04 96.38 132.52 98.64 C 127.52 102.13 113.75 96.95 126.17 95.30 C 132.83 94.07 139.39 92.33 145.94 90.63 C 141.66 77.68 133.02 66.32 127.04 54.01 C 125.77 51.34 124.18 48.84 122.14 46.69 Z" />
</g>
<g id="#424242ff">
<path fill="#424242" opacity="1.00" d=" M 100.76 56.24 C 106.75 52.75 112.94 39.88 119.25 43.55 C 112.84 48.68 108.26 56.18 100.94 60.10 C 100.32 58.88 100.41 57.52 100.76 56.24 Z" />
</g>
<g id="#909090ff">
<path fill="#909090" opacity="1.00" d=" M 100.94 60.10 C 108.26 56.18 112.84 48.68 119.25 43.55 C 121.09 47.86 123.44 55.20 122.14 46.69 C 124.18 48.84 125.77 51.34 127.04 54.01 C 117.86 50.72 110.42 57.51 105.09 63.93 C 113.10 72.98 113.70 92.34 126.17 95.30 C 113.75 96.95 127.52 102.13 132.52 98.64 C 146.04 96.38 121.01 104.48 127.87 107.22 C 126.83 108.69 125.91 110.23 124.89 111.71 C 117.03 89.53 102.21 69.74 92.68 47.98 C 97.58 45.43 99.07 53.06 100.76 56.24 C 100.41 57.52 100.32 58.88 100.94 60.10 Z" />
</g>
<g id="#7b7b7bff">
<path fill="#7b7b7b" opacity="1.00" d=" M 85.11 46.79 C 89.28 43.42 93.86 54.32 92.46 59.01 C 97.88 69.54 80.54 66.81 75.80 72.03 C 86.10 71.14 99.59 62.08 104.01 75.99 C 105.35 83.35 120.38 94.88 110.02 99.96 C 104.84 91.41 99.59 81.34 94.98 71.97 C 95.11 67.95 92.33 70.60 91.99 71.94 C 96.99 81.30 101.95 90.70 107.02 100.02 C 100.12 103.73 87.36 116.71 84.79 102.14 C 80.34 93.02 75.18 84.24 70.99 75.03 C 76.22 66.67 81.15 58.05 86.97 50.05 C 86.33 49.37 85.68 48.69 85.02 48.03 C 88.43 48.28 88.38 46.91 85.11 46.79 Z" />
</g>
<g id="#989898ff">
<path fill="#989898" opacity="1.00" d=" M 24.27 51.19 C 44.59 50.37 64.84 48.31 85.11 46.79 C 88.38 46.91 88.43 48.28 85.02 48.03 C 75.10 51.95 74.29 66.42 66.35 73.36 C 67.25 66.51 62.02 77.98 58.72 76.59 C 54.95 80.25 39.43 79.22 42.35 85.92 C 49.69 101.34 60.87 114.64 65.72 130.99 C 67.54 133.54 69.03 136.29 70.28 139.16 C 73.97 147.05 80.12 154.26 81.09 163.18 C 76.74 160.32 72.31 146.99 67.93 140.03 C 53.79 111.99 39.24 84.13 24.76 56.27 C 23.90 54.69 21.84 52.47 24.27 51.19 Z" />
</g>
<g id="#adadadff">
<path fill="#adadad" opacity="1.00" d=" M 105.09 63.93 C 110.42 57.51 117.86 50.72 127.04 54.01 C 133.02 66.32 141.66 77.68 145.94 90.63 C 139.39 92.33 132.83 94.07 126.17 95.30 C 113.70 92.34 113.10 72.98 105.09 63.93 Z" />
</g>
<g id="#a3a3a3ff">
<path fill="#a3a3a3" opacity="1.00" d=" M 21.08 56.83 C 26.10 65.30 30.88 73.92 35.29 82.73 C 36.94 85.57 33.98 88.18 32.90 90.67 C 28.52 81.39 24.09 67.82 21.08 56.83 Z" />
</g>
<g id="#808080ff">
<path fill="#808080" opacity="1.00" d=" M 42.35 85.92 C 52.08 85.98 59.94 79.06 69.15 76.94 C 68.67 78.41 66.53 79.71 67.63 81.34 C 72.96 91.93 79.07 102.32 84.04 113.00 C 80.78 121.36 67.53 121.43 65.72 130.99 C 60.87 114.64 49.69 101.34 42.35 85.92 Z" />
</g>
<g id="#c1c1c1ff">
<path fill="#c1c1c1" opacity="1.00" d=" M 148.71 86.12 C 155.87 90.18 149.09 101.00 145.02 105.09 C 145.97 102.60 146.86 100.10 147.72 97.58 C 140.66 101.11 139.57 110.20 135.02 116.09 C 132.81 121.98 130.11 108.94 127.29 111.23 C 126.16 114.43 129.13 117.11 130.13 119.96 C 125.81 119.66 119.95 117.93 117.74 123.06 C 121.16 123.67 124.64 123.89 128.09 124.28 C 116.92 133.27 106.31 143.37 94.59 151.46 C 104.78 138.28 114.58 124.79 124.89 111.71 C 125.91 110.23 126.83 108.69 127.87 107.22 C 133.41 100.39 155.39 96.99 148.71 86.12 Z" />
</g>
<g id="#898989ff">
<path fill="#898989" opacity="1.00" d=" M 35.98 87.94 C 46.26 99.82 55.34 120.62 60.13 133.95 C 51.02 120.15 43.05 103.45 35.98 87.94 Z" />
</g>
<g id="#747474ff">
<path fill="#747474" opacity="1.00" d=" M 135.02 116.09 C 139.57 110.20 140.66 101.11 147.72 97.58 C 146.86 100.10 145.97 102.60 145.02 105.09 C 132.86 130.69 106.28 144.57 85.82 162.96 C 88.06 158.65 91.24 154.95 94.59 151.46 C 106.31 143.37 116.92 133.27 128.09 124.28 C 124.64 123.89 121.16 123.67 117.74 123.06 C 119.95 117.93 125.81 119.66 130.13 119.96 C 129.13 117.11 126.16 114.43 127.29 111.23 C 130.11 108.94 132.81 121.98 135.02 116.09 Z" />
</g>
<g id="#717171ff">
<path fill="#717171" opacity="1.00" d=" M 114.51 112.60 C 123.25 108.98 116.86 116.71 114.35 118.38 C 108.22 119.72 101.65 118.03 95.41 117.75 C 93.65 110.80 87.63 119.35 83.88 120.15 C 90.45 110.03 104.42 114.81 114.51 112.60 Z" />
</g>
<g id="#757575ff">
<path fill="#757575" opacity="1.00" d=" M 89.26 120.47 C 96.19 123.02 103.83 122.42 111.07 123.09 C 101.36 136.64 90.18 149.23 81.09 163.18 C 80.12 154.26 73.97 147.05 70.28 139.16 C 76.75 133.22 84.65 128.03 89.26 120.47 Z" />
</g>
</svg>
