<?xml version="1.0" encoding="UTF-8" ?>
<!DOCTYPE svg PUBLIC "-//W3C//DTD SVG 1.1//EN" "http://www.w3.org/Graphics/SVG/1.1/DTD/svg11.dtd">
<svg width="180pt" height="180pt" viewBox="0 0 180 180" version="1.1" xmlns="http://www.w3.org/2000/svg">
<g id="#fefefeff">
</g>
<g id="#cbcbcbff">
<path fill="#cbcbcb" opacity="1.00" d=" M 96.02 37.97 C 103.86 35.66 116.10 37.40 125.59 37.25 C 135.12 53.76 142.58 71.40 152.05 87.97 C 153.98 91.34 156.14 98.20 151.29 99.48 C 139.78 100.44 138.10 116.61 129.95 123.37 C 127.89 119.92 126.62 116.07 124.66 112.57 C 124.15 106.38 131.68 106.56 135.23 103.15 C 141.06 99.83 147.05 96.81 152.99 93.71 C 145.18 76.65 135.57 60.37 127.72 43.28 C 127.23 41.13 125.32 40.91 123.53 41.68 C 123.16 41.76 122.41 41.93 122.03 42.01 C 120.75 42.05 119.46 42.10 118.18 42.15 C 110.42 39.55 96.70 48.17 91.82 39.98 C 100.65 38.48 109.76 39.90 118.52 38.35 C 111.03 37.78 103.52 38.04 96.02 37.97 Z" />
</g>
<g id="#444444ff">
<path fill="#444444" opacity="1.00" d=" M 21.65 46.63 C 44.69 44.07 67.69 41.04 90.66 38.13 C 93.93 48.99 100.24 58.58 104.76 68.93 C 111.69 82.05 118.35 95.35 124.09 109.03 C 109.09 129.58 89.63 146.87 73.61 166.75 C 72.34 169.47 70.25 167.22 69.67 165.33 C 52.23 126.81 34.67 88.33 17.12 49.87 C 16.14 47.13 19.84 46.94 21.65 46.63 M 21.97 51.10 C 36.79 88.19 54.92 124.38 70.81 161.16 C 70.73 163.45 74.11 163.70 73.21 161.05 C 77.76 158.70 72.24 154.94 75.77 152.78 C 87.56 146.85 97.11 136.03 103.93 125.23 C 94.64 125.05 87.69 116.43 82.69 126.74 C 77.00 131.41 69.27 133.30 62.99 137.31 C 61.58 133.66 57.01 126.68 63.33 125.42 C 72.12 125.36 76.97 117.03 83.70 112.80 C 79.57 101.22 72.76 90.79 68.46 79.29 C 65.19 77.87 61.66 77.77 58.61 79.59 C 55.78 80.80 43.83 82.69 50.97 84.31 C 49.47 89.66 37.73 90.65 38.22 83.25 C 45.69 78.81 54.72 77.25 62.59 73.51 C 77.53 70.15 76.30 50.13 88.18 42.95 C 66.32 45.03 42.21 47.71 21.97 51.10 M 88.21 45.16 C 82.87 54.71 77.05 64.06 72.17 73.85 C 75.97 78.49 82.20 70.21 87.33 73.11 C 84.07 76.15 77.49 75.94 75.96 80.04 C 79.76 89.83 85.34 99.02 89.31 108.84 C 95.45 106.42 101.46 103.41 107.88 101.63 C 105.00 91.56 99.23 82.04 94.32 72.65 C 93.28 71.30 95.13 70.42 95.96 69.71 C 101.40 78.99 104.89 89.39 110.35 98.66 C 110.97 101.13 115.00 99.64 113.33 97.66 C 109.12 87.15 101.37 75.57 98.33 66.50 C 91.39 69.45 83.40 69.60 76.00 71.12 C 80.13 62.10 86.57 54.19 90.08 44.93 C 89.62 44.99 88.68 45.10 88.21 45.16 M 114.37 111.45 C 106.32 112.35 99.29 110.41 94.93 118.82 C 100.24 120.33 107.93 123.40 111.84 117.79 C 113.56 116.21 120.45 109.72 114.37 111.45 Z" />
</g>
<g id="#959595ff">
<path fill="#959595" opacity="1.00" d=" M 90.66 38.13 C 92.44 37.99 94.23 37.96 96.02 37.97 C 103.52 38.04 111.03 37.78 118.52 38.35 C 109.76 39.90 100.65 38.48 91.82 39.98 C 96.70 48.17 110.42 39.55 118.18 42.15 C 114.60 48.72 101.36 53.53 103.07 61.11 C 109.80 55.16 115.96 48.61 122.03 42.01 C 122.41 41.93 123.16 41.76 123.53 41.68 C 124.55 44.36 125.78 46.94 126.96 49.55 C 122.95 51.17 126.12 54.52 128.08 56.36 C 121.01 61.71 108.75 59.76 104.76 68.93 C 100.24 58.58 93.93 48.99 90.66 38.13 Z" />
</g>
<g id="#555555ff">
<path fill="#555555" opacity="1.00" d=" M 123.53 41.68 C 125.32 40.91 127.23 41.13 127.72 43.28 C 135.57 60.37 145.18 76.65 152.99 93.71 C 147.05 96.81 141.06 99.83 135.23 103.15 C 131.69 103.89 128.14 107.58 124.45 106.14 C 127.31 104.30 130.36 102.80 133.32 101.12 C 130.40 100.24 121.01 104.82 122.04 98.28 C 130.87 96.07 140.04 95.33 148.83 92.95 C 142.11 78.21 134.44 63.91 126.96 49.55 C 125.78 46.94 124.55 44.36 123.53 41.68 Z" />
</g>
<g id="#383838ff">
<path fill="#383838" opacity="1.00" d=" M 118.18 42.15 C 119.46 42.10 120.75 42.05 122.03 42.01 C 115.96 48.61 109.80 55.16 103.07 61.11 C 101.36 53.53 114.60 48.72 118.18 42.15 Z" />
</g>
<g id="#838383ff">
<path fill="#838383" opacity="1.00" d=" M 21.97 51.10 C 42.21 47.71 66.32 45.03 88.18 42.95 C 76.30 50.13 77.53 70.15 62.59 73.51 C 54.72 77.25 45.69 78.81 38.22 83.25 C 37.73 90.65 49.47 89.66 50.97 84.31 C 43.83 82.69 55.78 80.80 58.61 79.59 C 61.66 77.77 65.19 77.87 68.46 79.29 C 72.76 90.79 79.57 101.22 83.70 112.80 C 76.97 117.03 72.12 125.36 63.33 125.42 C 57.01 126.68 61.58 133.66 62.99 137.31 C 66.56 145.15 70.85 152.70 73.21 161.05 C 74.11 163.70 70.73 163.45 70.81 161.16 C 54.92 124.38 36.79 88.19 21.97 51.10 Z" />
</g>
<g id="#7c7c7cff">
<path fill="#7c7c7c" opacity="1.00" d=" M 88.21 45.16 C 88.68 45.10 89.62 44.99 90.08 44.93 C 86.57 54.19 80.13 62.10 76.00 71.12 C 83.40 69.60 91.39 69.45 98.33 66.50 C 101.37 75.57 109.12 87.15 113.33 97.66 C 115.00 99.64 110.97 101.13 110.35 98.66 C 104.89 89.39 101.40 78.99 95.96 69.71 C 95.13 70.42 93.28 71.30 94.32 72.65 C 99.23 82.04 105.00 91.56 107.88 101.63 C 101.46 103.41 95.45 106.42 89.31 108.84 C 85.34 99.02 79.76 89.83 75.96 80.04 C 77.49 75.94 84.07 76.15 87.33 73.11 C 82.20 70.21 75.97 78.49 72.17 73.85 C 77.05 64.06 82.87 54.71 88.21 45.16 Z" />
</g>
<g id="#b0b0b0ff">
<path fill="#b0b0b0" opacity="1.00" d=" M 128.08 56.36 C 126.12 54.52 122.95 51.17 126.96 49.55 C 134.44 63.91 142.11 78.21 148.83 92.95 C 140.04 95.33 130.87 96.07 122.04 98.28 C 121.01 104.82 130.40 100.24 133.32 101.12 C 130.36 102.80 127.31 104.30 124.45 106.14 C 128.14 107.58 131.69 103.89 135.23 103.15 C 131.68 106.56 124.15 106.38 124.66 112.57 C 120.13 115.63 125.11 120.17 126.03 123.93 C 122.07 125.17 113.21 119.72 113.02 126.62 C 116.43 127.45 119.89 128.10 123.27 129.09 C 110.66 138.93 93.09 144.90 84.29 158.10 C 81.70 161.67 77.13 163.94 73.61 166.75 C 89.63 146.87 109.09 129.58 124.09 109.03 C 118.35 95.35 111.69 82.05 104.76 68.93 C 108.75 59.76 121.01 61.71 128.08 56.36 Z" />
</g>
<g id="#707070ff">
<path fill="#707070" opacity="1.00" d=" M 129.95 123.37 C 138.10 116.61 139.78 100.44 151.29 99.48 C 144.90 108.68 138.53 117.94 132.09 127.09 C 115.76 136.75 100.29 147.88 84.29 158.10 C 93.09 144.90 110.66 138.93 123.27 129.09 C 119.89 128.10 116.43 127.45 113.02 126.62 C 113.21 119.72 122.07 125.17 126.03 123.93 C 125.11 120.17 120.13 115.63 124.66 112.57 C 126.62 116.07 127.89 119.92 129.95 123.37 Z" />
</g>
<g id="#737373ff">
<path fill="#737373" opacity="1.00" d=" M 114.37 111.45 C 120.45 109.72 113.56 116.21 111.84 117.79 C 107.93 123.40 100.24 120.33 94.93 118.82 C 99.29 110.41 106.32 112.35 114.37 111.45 Z" />
</g>
<g id="#6b6b6bff">
<path fill="#6b6b6b" opacity="1.00" d=" M 82.69 126.74 C 87.69 116.43 94.64 125.05 103.93 125.23 C 97.11 136.03 87.56 146.85 75.77 152.78 C 72.24 154.94 77.76 158.70 73.21 161.05 C 70.85 152.70 66.56 145.15 62.99 137.31 C 69.27 133.30 77.00 131.41 82.69 126.74 Z" />
</g>
</svg>
