<?xml version="1.0" encoding="UTF-8" ?>
<!DOCTYPE svg PUBLIC "-//W3C//DTD SVG 1.1//EN" "http://www.w3.org/Graphics/SVG/1.1/DTD/svg11.dtd">
<svg width="180pt" height="180pt" viewBox="0 0 180 180" version="1.1" xmlns="http://www.w3.org/2000/svg">
<g id="#ffffffff">
</g>
<g id="#404040ff">
<path fill="#404040" opacity="1.00" d=" M 87.12 9.08 C 88.23 8.03 91.45 6.03 91.57 8.78 C 91.45 11.49 91.16 14.19 90.98 16.91 C 90.87 18.52 90.78 20.13 90.71 21.75 C 88.82 41.81 87.34 61.92 85.70 82.00 C 85.51 83.92 85.29 85.83 85.06 87.74 C 67.03 97.98 49.47 109.04 31.63 119.62 C 27.46 122.27 23.20 124.78 18.78 127.00 L 18.01 127.38 C 18.21 124.63 18.43 121.85 19.12 119.17 C 23.11 103.78 26.83 88.31 30.70 72.89 C 31.99 68.09 32.52 63.05 34.48 58.46 C 36.72 54.79 40.44 52.41 43.47 49.46 C 57.93 35.90 72.59 22.56 87.12 9.08 M 62.16 37.36 C 53.89 43.53 46.47 50.84 38.89 57.84 C 39.27 58.00 40.01 58.31 40.39 58.47 C 45.14 61.21 50.13 63.52 55.00 66.03 C 57.50 67.23 60.00 68.73 62.82 68.94 C 67.41 66.75 71.06 63.07 75.14 60.10 C 77.96 58.02 81.17 56.29 83.34 53.48 C 83.93 51.40 83.94 49.22 84.13 47.09 C 84.77 40.99 86.45 34.59 83.94 28.69 C 86.00 25.69 85.96 22.20 84.78 18.85 C 75.89 23.04 68.14 29.61 62.16 37.36 M 65.48 71.44 C 62.93 73.02 63.35 76.29 62.97 78.86 C 62.25 84.72 61.08 90.53 60.77 96.43 C 66.48 94.19 71.46 90.61 76.54 87.26 C 78.69 86.02 80.39 84.20 81.94 82.30 L 80.96 81.71 C 81.52 78.20 82.35 74.69 82.24 71.11 C 82.86 67.10 83.08 63.05 82.98 59.00 C 76.96 62.87 71.19 67.14 65.48 71.44 M 30.90 85.86 C 27.49 97.41 24.93 109.21 22.12 120.92 C 25.59 118.76 29.87 117.39 32.49 114.19 C 39.06 111.13 44.93 106.83 51.20 103.22 C 53.27 101.75 56.20 100.59 56.71 97.81 C 58.16 90.93 58.84 83.92 60.05 77.00 C 60.11 75.68 60.17 74.36 60.22 73.04 C 56.41 70.74 52.34 68.84 47.94 68.00 C 44.53 65.42 40.64 63.59 36.85 61.66 C 34.79 69.70 32.36 77.69 30.90 85.86 Z" />
<path fill="#404040" opacity="1.00" d=" M 89.28 60.92 C 90.03 51.56 89.69 42.09 91.44 32.84 C 91.97 37.96 92.49 43.09 92.85 48.23 L 92.91 49.12 C 93.34 58.52 91.94 67.89 92.13 77.31 C 91.92 79.86 91.66 82.40 91.43 84.95 C 90.82 84.94 89.61 84.92 89.01 84.91 C 88.74 84.69 88.22 84.23 87.95 84.01 C 88.06 76.30 89.02 68.62 89.28 60.92 Z" />
<path fill="#404040" opacity="1.00" d=" M 143.34 60.69 C 145.19 60.77 147.04 60.85 148.89 60.93 L 149.55 60.95 C 151.04 79.33 154.06 97.54 155.99 115.87 C 156.45 120.75 156.72 125.65 156.68 130.56 C 155.47 129.08 153.81 127.77 153.45 125.79 C 151.26 116.33 151.21 106.52 149.17 97.03 C 148.82 85.17 146.45 73.50 145.88 61.65 C 138.13 64.76 131.12 69.66 122.98 71.77 C 129.40 67.42 136.63 64.53 143.34 60.69 Z" />
<path fill="#404040" opacity="1.00" d=" M 127.50 73.66 C 130.76 72.34 133.83 70.62 137.03 69.16 C 132.42 71.76 127.68 74.15 123.45 77.36 C 123.64 84.59 123.56 91.83 124.01 99.06 C 124.32 101.75 123.50 104.35 122.44 106.79 C 121.85 106.43 120.69 105.72 120.10 105.36 C 120.47 96.87 120.73 88.32 119.81 79.86 C 119.67 78.72 119.53 77.58 119.39 76.45 C 112.04 80.40 104.44 83.99 97.71 88.97 C 96.59 88.64 95.47 88.31 94.36 87.96 C 101.13 81.92 109.87 78.89 117.12 73.52 C 120.48 74.35 124.19 75.10 127.50 73.66 Z" />
<path fill="#404040" opacity="1.00" d=" M 74.66 95.73 C 78.00 93.57 81.40 91.46 85.18 90.14 C 82.51 94.04 77.92 95.61 74.06 97.99 C 68.44 101.11 63.23 105.08 57.03 107.02 C 62.20 102.23 68.80 99.52 74.66 95.73 Z" />
<path fill="#404040" opacity="1.00" d=" M 88.45 93.94 C 89.72 94.30 90.99 94.67 92.26 95.03 C 92.33 103.28 90.95 111.50 91.66 119.75 C 97.43 117.78 103.16 115.60 108.34 112.36 C 110.55 111.29 112.98 109.20 115.56 110.38 C 116.64 110.81 118.41 111.10 117.43 112.62 C 115.31 114.30 112.72 115.20 110.28 116.29 C 103.50 119.11 96.74 121.99 90.04 125.02 C 89.62 134.17 87.95 143.21 87.57 152.36 C 94.20 150.78 100.73 148.76 107.02 146.13 C 122.18 142.41 136.69 136.46 151.83 132.69 C 152.79 134.09 153.67 135.54 154.56 136.99 C 147.34 138.13 140.54 140.90 133.50 142.77 C 126.49 144.59 119.70 147.15 112.71 149.06 C 103.75 151.55 95.11 155.10 86.05 157.25 C 85.56 153.42 85.11 149.58 85.05 145.72 C 85.60 138.81 85.94 131.89 86.54 124.98 C 87.82 124.68 89.11 124.38 90.40 124.08 C 87.71 120.17 86.02 115.52 86.93 110.72 C 87.10 109.22 87.28 107.72 87.40 106.22 C 87.81 102.13 88.16 98.04 88.45 93.94 Z" />
<path fill="#404040" opacity="1.00" d=" M 124.05 107.87 C 130.47 111.43 137.03 115.23 141.51 121.22 C 135.68 116.78 128.53 113.90 124.05 107.87 Z" />
</g>
<g id="#a0a0a0ff">
<path fill="#a0a0a0" opacity="1.00" d=" M 91.57 8.78 C 95.03 11.15 98.12 13.98 101.10 16.90 C 115.65 30.02 130.25 43.09 144.81 56.19 C 146.33 57.62 147.61 59.28 148.89 60.93 C 147.04 60.85 145.19 60.77 143.34 60.69 C 134.64 52.36 125.80 44.14 116.24 36.79 C 108.27 30.17 101.29 22.43 93.08 16.08 C 92.55 16.29 91.50 16.70 90.98 16.91 C 91.16 14.19 91.45 11.49 91.57 8.78 Z" />
<path fill="#a0a0a0" opacity="1.00" d=" M 85.70 82.00 C 87.34 61.92 88.82 41.81 90.71 21.75 C 93.05 30.40 92.93 39.35 92.85 48.23 C 92.49 43.09 91.97 37.96 91.44 32.84 C 89.69 42.09 90.03 51.56 89.28 60.92 C 89.02 68.62 88.06 76.30 87.95 84.01 C 87.20 83.34 86.44 82.67 85.70 82.00 Z" />
<path fill="#a0a0a0" opacity="1.00" d=" M 62.16 37.36 C 63.09 36.91 64.03 36.48 64.97 36.06 C 64.84 39.03 64.70 42.00 64.54 44.97 C 68.02 44.11 71.08 42.25 74.21 40.60 C 78.07 41.71 80.93 44.82 84.13 47.09 C 83.94 49.22 83.93 51.40 83.34 53.48 C 81.17 56.29 77.96 58.02 75.14 60.10 C 73.06 55.51 70.59 49.51 64.96 48.64 C 59.39 49.62 54.64 53.35 48.91 53.93 C 45.51 54.21 42.50 55.80 40.39 58.47 C 40.01 58.31 39.27 58.00 38.89 57.84 C 46.47 50.84 53.89 43.53 62.16 37.36 Z" />
<path fill="#a0a0a0" opacity="1.00" d=" M 92.91 49.12 C 97.86 56.51 106.35 60.25 112.55 66.42 C 115.62 68.64 118.70 73.05 122.98 71.77 C 131.12 69.66 138.13 64.76 145.88 61.65 C 146.45 73.50 148.82 85.17 149.17 97.03 C 147.12 93.01 146.17 88.57 144.49 84.41 C 142.17 80.83 138.84 77.68 134.88 76.02 C 131.09 76.66 127.35 78.46 123.45 77.36 C 127.68 74.15 132.42 71.76 137.03 69.16 C 133.83 70.62 130.76 72.34 127.50 73.66 C 124.19 75.10 120.48 74.35 117.12 73.52 C 112.25 70.66 107.94 67.00 103.57 63.46 C 100.75 65.05 97.90 66.58 95.06 68.14 C 94.42 67.14 93.79 66.14 93.17 65.14 C 92.94 69.21 92.57 73.26 92.13 77.31 C 91.94 67.89 93.34 58.52 92.91 49.12 Z" />
<path fill="#a0a0a0" opacity="1.00" d=" M 69.28 70.36 C 72.69 67.11 76.85 63.50 81.94 64.58 C 82.05 66.75 82.18 68.93 82.24 71.11 C 82.35 74.69 81.52 78.20 80.96 81.71 C 76.61 78.89 71.71 76.96 67.52 73.88 C 67.11 72.43 68.41 71.32 69.28 70.36 Z" />
<path fill="#a0a0a0" opacity="1.00" d=" M 62.97 78.86 C 67.63 81.44 72.16 84.24 76.54 87.26 C 71.46 90.61 66.48 94.19 60.77 96.43 C 61.08 90.53 62.25 84.72 62.97 78.86 Z" />
<path fill="#a0a0a0" opacity="1.00" d=" M 22.12 120.92 C 24.93 109.21 27.49 97.41 30.90 85.86 C 31.05 87.74 31.28 89.60 31.47 91.48 C 32.57 89.50 33.90 87.67 35.46 86.03 C 34.57 95.44 32.81 104.73 32.49 114.19 C 29.87 117.39 25.59 118.76 22.12 120.92 Z" />
<path fill="#a0a0a0" opacity="1.00" d=" M 142.22 131.04 C 145.51 129.76 149.01 130.83 151.83 132.69 C 136.69 136.46 122.18 142.41 107.02 146.13 C 110.72 143.25 114.61 140.52 119.13 139.11 C 126.88 136.56 134.48 133.58 142.22 131.04 Z" />
</g>
<g id="#d9d9d9ff">
<path fill="#d9d9d9" opacity="1.00" d=" M 90.98 16.91 C 91.50 16.70 92.55 16.29 93.08 16.08 C 101.29 22.43 108.27 30.17 116.24 36.79 C 125.80 44.14 134.64 52.36 143.34 60.69 C 136.63 64.53 129.40 67.42 122.98 71.77 C 118.70 73.05 115.62 68.64 112.55 66.42 C 106.35 60.25 97.86 56.51 92.91 49.12 L 92.85 48.23 C 92.93 39.35 93.05 30.40 90.71 21.75 C 90.78 20.13 90.87 18.52 90.98 16.91 Z" />
<path fill="#d9d9d9" opacity="1.00" d=" M 95.06 68.14 C 97.90 66.58 100.75 65.05 103.57 63.46 C 107.94 67.00 112.25 70.66 117.12 73.52 C 109.87 78.89 101.13 81.92 94.36 87.96 C 99.07 93.10 105.44 96.10 111.00 100.15 C 113.85 102.20 117.03 103.70 120.10 105.36 C 120.69 105.72 121.85 106.43 122.44 106.79 C 122.98 107.14 123.51 107.51 124.05 107.87 C 128.53 113.90 135.68 116.78 141.51 121.22 C 146.05 126.22 152.05 129.44 158.10 132.24 C 158.14 130.43 158.18 128.63 158.18 126.82 C 158.75 129.85 159.12 132.91 159.23 135.99 L 158.63 135.50 C 153.34 130.87 147.24 127.36 141.39 123.53 C 129.78 116.21 118.68 108.11 106.85 101.14 C 99.34 97.08 92.43 92.04 85.06 87.74 C 85.29 85.83 85.51 83.92 85.70 82.00 C 86.44 82.67 87.20 83.34 87.95 84.01 C 88.22 84.23 88.74 84.69 89.01 84.91 C 89.61 84.92 90.82 84.94 91.43 84.95 C 91.66 82.40 91.92 79.86 92.13 77.31 C 92.57 73.26 92.94 69.21 93.17 65.14 C 93.79 66.14 94.42 67.14 95.06 68.14 Z" />
<path fill="#d9d9d9" opacity="1.00" d=" M 72.16 104.54 C 76.70 101.72 81.37 99.11 86.29 97.02 C 86.74 100.07 87.18 103.14 87.40 106.22 C 87.28 107.72 87.10 109.22 86.93 110.72 C 86.58 113.36 86.16 115.98 85.75 118.61 C 82.04 116.53 78.10 114.78 74.70 112.17 C 72.15 110.52 72.60 107.15 72.16 104.54 Z" />
<path fill="#d9d9d9" opacity="1.00" d=" M 52.48 112.37 C 55.18 111.39 58.11 109.76 61.03 110.92 C 65.98 112.56 70.30 115.57 74.92 117.93 C 78.96 119.98 82.85 122.34 86.54 124.98 C 85.94 131.89 85.60 138.81 85.05 145.72 C 84.74 147.53 84.33 149.33 83.96 151.13 C 78.37 148.79 72.82 146.33 67.58 143.27 C 61.64 139.79 54.77 138.47 48.67 135.32 C 41.18 131.58 33.54 128.13 25.91 124.67 C 29.43 122.61 32.83 120.37 36.41 118.41 C 41.45 115.62 47.20 114.60 52.48 112.37 Z" />
</g>
<g id="#797979ff">
<path fill="#797979" opacity="1.00" d=" M 62.16 37.36 C 68.14 29.61 75.89 23.04 84.78 18.85 C 85.96 22.20 86.00 25.69 83.94 28.69 C 86.45 34.59 84.77 40.99 84.13 47.09 C 80.93 44.82 78.07 41.71 74.21 40.60 C 71.08 42.25 68.02 44.11 64.54 44.97 C 64.70 42.00 64.84 39.03 64.97 36.06 C 64.03 36.48 63.09 36.91 62.16 37.36 Z" />
<path fill="#797979" opacity="1.00" d=" M 65.48 71.44 C 71.19 67.14 76.96 62.87 82.98 59.00 C 83.08 63.05 82.86 67.10 82.24 71.11 C 82.18 68.93 82.05 66.75 81.94 64.58 C 76.85 63.50 72.69 67.11 69.28 70.36 C 68.41 71.32 67.11 72.43 67.52 73.88 C 71.71 76.96 76.61 78.89 80.96 81.71 L 81.94 82.30 C 80.39 84.20 78.69 86.02 76.54 87.26 C 72.16 84.24 67.63 81.44 62.97 78.86 C 63.35 76.29 62.93 73.02 65.48 71.44 Z" />
<path fill="#797979" opacity="1.00" d=" M 47.94 68.00 C 52.34 68.84 56.41 70.74 60.22 73.04 C 60.17 74.36 60.11 75.68 60.05 77.00 C 55.89 74.18 51.90 71.10 47.94 68.00 Z" />
<path fill="#797979" opacity="1.00" d=" M 97.71 88.97 C 104.44 83.99 112.04 80.40 119.39 76.45 C 119.53 77.58 119.67 78.72 119.81 79.86 C 114.44 81.96 109.39 84.73 104.41 87.60 C 102.41 88.85 100.06 89.48 97.71 88.97 Z" />
</g>
<g id="#b7b7b7ff">
<path fill="#b7b7b7" opacity="1.00" d=" M 48.91 53.93 C 54.64 53.35 59.39 49.62 64.96 48.64 C 70.59 49.51 73.06 55.51 75.14 60.10 C 71.06 63.07 67.41 66.75 62.82 68.94 C 60.00 68.73 57.50 67.23 55.00 66.03 C 50.13 63.52 45.14 61.21 40.39 58.47 C 42.50 55.80 45.51 54.21 48.91 53.93 Z" />
<path fill="#b7b7b7" opacity="1.00" d=" M 30.90 85.86 C 32.36 77.69 34.79 69.70 36.85 61.66 C 40.64 63.59 44.53 65.42 47.94 68.00 C 51.90 71.10 55.89 74.18 60.05 77.00 C 58.84 83.92 58.16 90.93 56.71 97.81 C 56.20 100.59 53.27 101.75 51.20 103.22 C 44.93 106.83 39.06 111.13 32.49 114.19 C 32.81 104.73 34.57 95.44 35.46 86.03 C 33.90 87.67 32.57 89.50 31.47 91.48 C 31.28 89.60 31.05 87.74 30.90 85.86 Z" />
<path fill="#b7b7b7" opacity="1.00" d=" M 123.45 77.36 C 127.35 78.46 131.09 76.66 134.88 76.02 C 138.84 77.68 142.17 80.83 144.49 84.41 C 146.17 88.57 147.12 93.01 149.17 97.03 C 151.21 106.52 151.26 116.33 153.45 125.79 C 153.81 127.77 155.47 129.08 156.68 130.56 C 156.72 125.65 156.45 120.75 155.99 115.87 C 157.10 119.43 158.21 123.06 158.18 126.82 C 158.18 128.63 158.14 130.43 158.10 132.24 C 152.05 129.44 146.05 126.22 141.51 121.22 C 137.03 115.23 130.47 111.43 124.05 107.87 C 123.51 107.51 122.98 107.14 122.44 106.79 C 123.50 104.35 124.32 101.75 124.01 99.06 C 123.56 91.83 123.64 84.59 123.45 77.36 Z" />
<path fill="#b7b7b7" opacity="1.00" d=" M 104.41 87.60 C 109.39 84.73 114.44 81.96 119.81 79.86 C 120.73 88.32 120.47 96.87 120.10 105.36 C 117.03 103.70 113.85 102.20 111.00 100.15 C 105.44 96.10 99.07 93.10 94.36 87.96 C 95.47 88.31 96.59 88.64 97.71 88.97 C 100.06 89.48 102.41 88.85 104.41 87.60 Z" />
<path fill="#b7b7b7" opacity="1.00" d=" M 31.63 119.62 C 49.47 109.04 67.03 97.98 85.06 87.74 C 92.43 92.04 99.34 97.08 106.85 101.14 C 118.68 108.11 129.78 116.21 141.39 123.53 C 147.24 127.36 153.34 130.87 158.63 135.50 C 157.13 135.47 155.87 136.39 154.56 136.99 C 153.67 135.54 152.79 134.09 151.83 132.69 C 149.01 130.83 145.51 129.76 142.22 131.04 C 134.48 133.58 126.88 136.56 119.13 139.11 C 114.61 140.52 110.72 143.25 107.02 146.13 C 100.73 148.76 94.20 150.78 87.57 152.36 C 87.95 143.21 89.62 134.17 90.04 125.02 C 96.74 121.99 103.50 119.11 110.28 116.29 C 112.72 115.20 115.31 114.30 117.43 112.62 C 118.41 111.10 116.64 110.81 115.56 110.38 C 112.98 109.20 110.55 111.29 108.34 112.36 C 103.16 115.60 97.43 117.78 91.66 119.75 C 90.95 111.50 92.33 103.28 92.26 95.03 C 90.99 94.67 89.72 94.30 88.45 93.94 C 88.16 98.04 87.81 102.13 87.40 106.22 C 87.18 103.14 86.74 100.07 86.29 97.02 C 81.37 99.11 76.70 101.72 72.16 104.54 C 72.60 107.15 72.15 110.52 74.70 112.17 C 78.10 114.78 82.04 116.53 85.75 118.61 C 86.16 115.98 86.58 113.36 86.93 110.72 C 86.02 115.52 87.71 120.17 90.40 124.08 C 89.11 124.38 87.82 124.68 86.54 124.98 C 82.85 122.34 78.96 119.98 74.92 117.93 C 70.30 115.57 65.98 112.56 61.03 110.92 C 58.11 109.76 55.18 111.39 52.48 112.37 C 47.20 114.60 41.45 115.62 36.41 118.41 C 32.83 120.37 29.43 122.61 25.91 124.67 C 33.54 128.13 41.18 131.58 48.67 135.32 C 54.77 138.47 61.64 139.79 67.58 143.27 C 72.82 146.33 78.37 148.79 83.96 151.13 C 84.33 149.33 84.74 147.53 85.05 145.72 C 85.11 149.58 85.56 153.42 86.05 157.25 C 72.39 152.30 59.54 145.40 46.15 139.78 C 37.09 135.39 27.62 131.84 18.78 127.00 C 23.20 124.78 27.46 122.27 31.63 119.62 M 74.66 95.73 C 68.80 99.52 62.20 102.23 57.03 107.02 C 63.23 105.08 68.44 101.11 74.06 97.99 C 77.92 95.61 82.51 94.04 85.18 90.14 C 81.40 91.46 78.00 93.57 74.66 95.73 Z" />
</g>
</svg>
