<?xml version="1.0" encoding="UTF-8" ?>
<!DOCTYPE svg PUBLIC "-//W3C//DTD SVG 1.1//EN" "http://www.w3.org/Graphics/SVG/1.1/DTD/svg11.dtd">
<svg width="180pt" height="180pt" viewBox="0 0 180 180" version="1.1" xmlns="http://www.w3.org/2000/svg">
<g id="#fefefeff">
</g>
<g id="#afafafff">
<path fill="#afafaf" opacity="1.00" d=" M 86.02 34.84 C 98.17 32.89 114.64 36.47 128.05 37.95 C 136.36 53.38 144.23 69.95 150.77 86.23 L 150.82 87.20 C 143.12 73.19 136.91 58.41 130.05 43.98 C 129.40 42.14 127.69 41.76 125.92 41.90 C 132.95 60.26 144.09 77.01 150.08 95.73 C 141.00 97.18 131.49 97.38 122.67 99.74 C 119.87 103.14 124.84 103.92 128.10 103.15 C 125.96 104.59 121.77 106.78 126.96 105.94 C 125.47 107.04 124.22 108.41 123.10 109.88 C 122.90 108.57 122.67 107.26 122.27 105.99 C 115.35 92.10 109.94 77.51 102.80 63.74 C 110.34 56.66 118.72 50.10 125.31 42.23 C 115.36 40.74 103.97 41.84 95.80 48.03 C 93.22 43.51 93.35 33.77 86.02 34.84 Z" />
</g>
<g id="#3e3e3eff">
<path fill="#3e3e3e" opacity="1.00" d=" M 18.66 46.65 C 41.05 42.44 63.65 39.25 86.02 34.84 C 93.35 33.77 93.22 43.51 95.80 48.03 C 97.63 53.47 100.18 58.64 102.80 63.74 C 109.94 77.51 115.35 92.10 122.27 105.99 C 121.98 110.02 118.59 112.68 116.31 115.71 C 99.89 132.60 81.92 147.95 65.66 165.03 C 65.06 165.02 63.86 165.00 63.26 164.99 C 47.08 129.83 33.83 91.52 18.81 55.14 C 18.15 52.73 14.61 47.17 18.66 46.65 M 20.19 51.04 C 34.86 87.19 48.67 123.68 63.20 159.88 C 64.14 160.24 66.55 159.41 65.88 158.17 C 72.78 152.17 79.33 145.45 85.90 139.24 C 74.09 131.61 98.82 135.75 97.87 126.29 C 93.30 125.69 89.48 120.52 84.87 122.84 C 77.38 127.01 68.50 127.15 61.45 131.48 C 57.46 137.10 64.66 144.18 62.27 150.39 C 53.68 128.03 45.02 105.68 35.94 83.52 C 51.55 73.35 78.45 73.81 80.09 49.08 C 67.62 48.71 55.15 49.29 42.68 48.88 C 53.76 42.15 70.40 52.23 81.98 47.05 C 82.75 43.44 85.40 41.10 88.30 39.11 C 65.57 42.53 42.33 45.16 20.19 51.04 M 88.21 42.10 C 83.66 51.96 77.29 61.51 74.09 71.75 C 79.14 75.27 86.19 70.37 92.05 70.97 C 90.35 75.68 82.02 74.70 79.09 79.24 C 79.50 89.34 86.83 97.37 89.37 106.91 C 97.50 103.23 104.87 109.23 112.90 104.78 C 115.40 98.89 106.64 105.68 108.68 100.87 C 107.71 89.32 95.84 79.78 97.87 68.02 C 90.82 67.46 83.86 69.39 76.81 68.94 C 81.00 62.97 82.01 53.17 89.89 50.90 C 86.23 48.30 95.20 44.25 88.21 42.10 M 63.39 80.41 C 59.44 80.31 54.36 88.85 56.92 81.04 C 51.20 81.93 42.50 80.60 39.81 86.82 C 47.17 83.84 48.34 88.84 42.99 91.17 C 47.16 104.24 52.27 117.40 58.26 129.87 C 66.37 123.57 75.74 117.53 82.96 110.99 C 77.97 100.45 75.82 82.33 63.39 80.41 M 105.37 111.25 C 101.90 114.07 97.46 116.46 95.04 120.10 C 100.08 130.01 125.31 105.52 105.37 111.25 Z" />
</g>
<g id="#7a7a7aff">
<path fill="#7a7a7a" opacity="1.00" d=" M 20.19 51.04 C 42.33 45.16 65.57 42.53 88.30 39.11 C 85.40 41.10 82.75 43.44 81.98 47.05 C 70.40 52.23 53.76 42.15 42.68 48.88 C 55.15 49.29 67.62 48.71 80.09 49.08 C 78.45 73.81 51.55 73.35 35.94 83.52 C 45.02 105.68 53.68 128.03 62.27 150.39 C 63.35 153.03 64.64 155.59 65.88 158.17 C 66.55 159.41 64.14 160.24 63.20 159.88 C 48.67 123.68 34.86 87.19 20.19 51.04 Z" />
</g>
<g id="#606060ff">
<path fill="#606060" opacity="1.00" d=" M 95.80 48.03 C 103.97 41.84 115.36 40.74 125.31 42.23 C 118.72 50.10 110.34 56.66 102.80 63.74 C 100.18 58.64 97.63 53.47 95.80 48.03 Z" />
</g>
<g id="#767676ff">
<path fill="#767676" opacity="1.00" d=" M 88.21 42.10 C 95.20 44.25 86.23 48.30 89.89 50.90 C 82.01 53.17 81.00 62.97 76.81 68.94 C 83.86 69.39 90.82 67.46 97.87 68.02 C 95.84 79.78 107.71 89.32 108.68 100.87 C 106.64 105.68 115.40 98.89 112.90 104.78 C 104.87 109.23 97.50 103.23 89.37 106.91 C 86.83 97.37 79.50 89.34 79.09 79.24 C 82.02 74.70 90.35 75.68 92.05 70.97 C 86.19 70.37 79.14 75.27 74.09 71.75 C 77.29 61.51 83.66 51.96 88.21 42.10 Z" />
</g>
<g id="#525252ff">
<path fill="#525252" opacity="1.00" d=" M 125.92 41.90 C 127.69 41.76 129.40 42.14 130.05 43.98 C 136.91 58.41 143.12 73.19 150.82 87.20 C 152.15 90.13 153.67 92.98 154.84 95.98 C 145.68 99.67 136.07 102.11 126.96 105.94 C 121.77 106.78 125.96 104.59 128.10 103.15 C 124.84 103.92 119.87 103.14 122.67 99.74 C 131.49 97.38 141.00 97.18 150.08 95.73 C 144.09 77.01 132.95 60.26 125.92 41.90 Z" />
</g>
<g id="#787878ff">
<path fill="#787878" opacity="1.00" d=" M 63.39 80.41 C 75.82 82.33 77.97 100.45 82.96 110.99 C 75.74 117.53 66.37 123.57 58.26 129.87 C 52.27 117.40 47.16 104.24 42.99 91.17 C 48.34 88.84 47.17 83.84 39.81 86.82 C 42.50 80.60 51.20 81.93 56.92 81.04 C 54.36 88.85 59.44 80.31 63.39 80.41 Z" />
</g>
<g id="#cececeff">
<path fill="#cecece" opacity="1.00" d=" M 150.77 86.23 C 154.23 88.30 158.89 99.19 153.19 101.46 C 140.17 101.62 135.91 123.26 125.96 127.31 C 125.69 121.01 115.47 114.78 123.10 109.88 C 124.22 108.41 125.47 107.04 126.96 105.94 C 136.07 102.11 145.68 99.67 154.84 95.98 C 153.67 92.98 152.15 90.13 150.82 87.20 L 150.77 86.23 Z" />
</g>
<g id="#777777ff">
<path fill="#777777" opacity="1.00" d=" M 125.96 127.31 C 135.91 123.26 140.17 101.62 153.19 101.46 C 145.02 111.53 136.93 121.69 128.77 131.76 C 111.28 139.02 95.07 149.14 77.85 157.09 C 73.95 157.11 78.36 154.64 79.32 153.40 C 89.83 145.30 103.79 142.94 114.41 135.08 C 111.19 132.66 99.00 139.48 99.51 133.56 C 105.70 134.33 120.99 130.30 105.71 128.00 C 108.49 123.11 113.58 126.35 117.63 127.37 C 126.07 130.65 119.29 118.69 116.31 115.71 C 118.59 112.68 121.98 110.02 122.27 105.99 C 122.67 107.26 122.90 108.57 123.10 109.88 C 115.47 114.78 125.69 121.01 125.96 127.31 Z" />
</g>
<g id="#737373ff">
<path fill="#737373" opacity="1.00" d=" M 105.37 111.25 C 125.31 105.52 100.08 130.01 95.04 120.10 C 97.46 116.46 101.90 114.07 105.37 111.25 Z" />
</g>
<g id="#b1b1b1ff">
<path fill="#b1b1b1" opacity="1.00" d=" M 116.31 115.71 C 119.29 118.69 126.07 130.65 117.63 127.37 C 113.58 126.35 108.49 123.11 105.71 128.00 C 120.99 130.30 105.70 134.33 99.51 133.56 C 99.00 139.48 111.19 132.66 114.41 135.08 C 103.79 142.94 89.83 145.30 79.32 153.40 C 78.36 154.64 73.95 157.11 77.85 157.09 C 73.97 159.91 70.23 163.49 65.66 165.03 C 81.92 147.95 99.89 132.60 116.31 115.71 Z" />
</g>
<g id="#585858ff">
<path fill="#585858" opacity="1.00" d=" M 84.87 122.84 C 89.48 120.52 93.30 125.69 97.87 126.29 C 98.82 135.75 74.09 131.61 85.90 139.24 C 79.33 145.45 72.78 152.17 65.88 158.17 C 64.64 155.59 63.35 153.03 62.27 150.39 C 64.66 144.18 57.46 137.10 61.45 131.48 C 68.50 127.15 77.38 127.01 84.87 122.84 Z" />
</g>
<g id="#8a8a8aff">
<path fill="#8a8a8a" opacity="1.00" d=" M 63.26 164.99 C 63.86 165.00 65.06 165.02 65.66 165.03 C 66.39 166.86 62.55 166.82 63.26 164.99 Z" />
</g>
</svg>
