<?xml version="1.0" encoding="UTF-8" ?>
<!DOCTYPE svg PUBLIC "-//W3C//DTD SVG 1.1//EN" "http://www.w3.org/Graphics/SVG/1.1/DTD/svg11.dtd">
<svg width="180pt" height="180pt" viewBox="0 0 180 180" version="1.1" xmlns="http://www.w3.org/2000/svg">
<g id="#fefefeff">
</g>
<g id="#929292ff">
<path fill="#929292" opacity="1.00" d=" M 87.98 31.21 C 87.71 29.08 91.76 29.77 92.77 31.00 C 92.22 37.51 96.96 43.60 99.73 49.39 C 101.64 53.19 103.09 57.19 104.55 61.18 C 104.59 63.00 106.02 63.37 107.25 62.23 C 113.98 56.52 120.71 50.61 126.29 43.74 C 126.55 43.39 127.07 42.67 127.32 42.32 C 127.94 42.13 129.19 41.75 129.81 41.56 C 129.11 43.52 129.21 45.59 129.92 47.53 C 128.24 52.11 127.19 56.89 125.78 61.55 C 118.62 60.29 113.14 75.74 107.00 68.20 C 106.66 68.38 105.97 68.74 105.62 68.92 C 104.85 67.19 104.05 65.47 103.21 63.77 C 99.29 52.81 93.88 42.42 90.61 31.25 C 89.95 31.24 88.63 31.22 87.98 31.21 Z" />
</g>
<g id="#7a7a7aff">
<path fill="#7a7a7a" opacity="1.00" d=" M 84.17 32.01 C 84.03 30.25 87.01 30.30 87.98 31.21 C 86.90 32.08 85.50 32.21 84.17 32.01 Z" />
</g>
<g id="#262626ff">
<path fill="#262626" opacity="1.00" d=" M 87.98 31.21 C 88.63 31.22 89.95 31.24 90.61 31.25 C 93.88 42.42 99.29 52.81 103.21 63.77 C 103.44 65.86 103.77 67.93 104.04 70.01 C 102.93 68.94 102.11 66.79 100.25 67.76 L 99.32 67.76 C 92.60 66.81 85.81 66.99 79.05 67.13 C 81.51 65.17 81.56 62.11 82.21 59.32 C 84.50 57.83 87.06 56.84 89.47 55.56 C 88.52 52.10 92.47 51.83 94.75 50.77 C 93.60 47.11 91.91 43.64 91.02 39.89 C 90.31 38.38 90.15 35.18 88.17 35.18 C 81.26 35.77 74.65 37.75 67.98 39.44 C 66.11 37.36 70.03 36.35 71.23 35.09 C 75.57 34.26 79.74 32.30 84.17 32.01 C 85.50 32.21 86.90 32.08 87.98 31.21 Z" />
</g>
<g id="#cfcfcfff">
<path fill="#cfcfcf" opacity="1.00" d=" M 92.77 31.00 C 105.00 32.08 116.97 35.92 129.13 37.79 C 130.62 38.15 132.69 38.94 131.86 40.87 C 131.35 41.04 130.32 41.38 129.81 41.56 C 129.19 41.75 127.94 42.13 127.32 42.32 C 117.60 39.21 108.92 47.29 99.73 49.39 C 96.96 43.60 92.22 37.51 92.77 31.00 Z" />
<path fill="#cfcfcf" opacity="1.00" d=" M 157.32 98.18 C 159.25 98.23 157.73 103.79 155.32 103.69 C 152.83 102.44 150.73 102.53 149.01 103.99 C 140.06 112.92 132.64 123.85 123.03 131.88 C 118.81 127.61 119.41 118.48 113.60 114.64 C 115.32 113.33 117.20 112.24 119.09 111.20 C 120.00 110.50 121.76 110.30 121.81 108.89 C 121.76 103.65 128.94 106.35 132.23 104.17 C 138.57 102.07 145.12 100.70 151.73 99.79 C 153.64 99.50 157.02 101.05 157.32 98.18 Z" />
</g>
<g id="#444444ff">
<path fill="#444444" opacity="1.00" d=" M 16.97 47.06 C 35.04 43.04 52.96 37.99 71.23 35.09 C 70.03 36.35 66.11 37.36 67.98 39.44 C 52.71 42.46 37.59 46.20 22.35 49.36 C 20.28 49.87 20.93 52.26 21.28 53.78 C 33.69 88.38 44.07 123.80 56.76 158.20 C 56.19 159.53 55.61 160.86 55.06 162.20 C 49.29 149.24 45.91 134.24 40.40 120.77 C 33.21 96.05 22.36 72.17 16.97 47.06 Z" />
</g>
<g id="#909090ff">
<path fill="#909090" opacity="1.00" d=" M 67.98 39.44 C 74.65 37.75 81.26 35.77 88.17 35.18 C 87.08 36.07 85.99 36.96 84.89 37.84 C 74.18 39.21 63.76 42.27 53.13 44.16 C 49.48 45.11 45.15 45.11 42.43 48.12 C 39.57 48.09 36.67 47.78 33.83 48.28 C 33.37 48.41 32.43 48.68 31.97 48.81 C 29.03 49.73 26.03 50.42 23.08 51.30 C 23.47 54.93 24.47 58.47 25.58 61.94 C 28.74 70.00 35.11 76.22 38.54 84.16 C 39.15 85.39 39.77 86.61 40.28 87.88 C 38.79 88.89 37.23 89.81 35.85 90.97 C 39.87 94.20 41.40 99.15 43.29 103.72 C 43.82 103.49 44.86 103.02 45.38 102.79 C 48.70 111.02 51.70 119.40 53.96 127.98 C 56.63 136.19 52.68 145.58 57.37 153.24 C 57.53 154.47 57.72 155.70 57.88 156.94 C 57.60 157.25 57.04 157.88 56.76 158.20 C 44.07 123.80 33.69 88.38 21.28 53.78 C 20.93 52.26 20.28 49.87 22.35 49.36 C 37.59 46.20 52.71 42.46 67.98 39.44 Z" />
</g>
<g id="#303030ff">
<path fill="#303030" opacity="1.00" d=" M 88.17 35.18 C 90.15 35.18 90.31 38.38 91.02 39.89 C 90.11 39.55 89.18 39.29 88.23 39.12 C 84.02 48.40 80.06 57.80 75.84 67.07 C 77.57 74.36 87.35 70.04 92.97 71.06 C 93.05 71.47 93.20 72.28 93.28 72.69 C 89.08 75.11 84.63 77.04 80.32 79.25 C 83.29 87.88 85.59 97.06 89.95 105.08 C 91.23 105.05 92.52 104.98 93.80 104.87 C 100.79 104.30 108.23 106.48 114.99 104.04 C 117.39 104.97 119.63 106.43 120.39 109.04 C 120.07 109.58 119.42 110.66 119.09 111.20 C 117.20 112.24 115.32 113.33 113.60 114.64 C 112.73 115.25 111.93 115.95 111.21 116.74 C 108.90 119.23 106.28 121.39 103.79 123.71 C 89.60 135.18 75.76 147.12 61.81 158.89 C 59.78 160.72 57.93 163.12 54.96 163.23 L 55.06 162.20 C 55.61 160.86 56.19 159.53 56.76 158.20 C 57.04 157.88 57.60 157.25 57.88 156.94 C 63.51 150.98 72.80 147.63 75.56 139.53 C 82.49 137.11 87.21 131.22 93.10 127.11 C 91.62 125.52 90.61 123.30 88.79 122.16 C 80.94 123.57 73.25 127.40 65.15 126.34 C 53.87 130.25 61.38 144.43 57.37 153.24 C 52.68 145.58 56.63 136.19 53.96 127.98 C 51.70 119.40 48.70 111.02 45.38 102.79 C 43.84 97.77 41.99 92.85 40.28 87.88 C 39.77 86.61 39.15 85.39 38.54 84.16 C 39.20 83.10 39.93 82.09 40.64 81.06 C 50.40 73.99 62.58 71.55 73.18 66.18 C 75.33 63.20 75.93 59.29 77.46 55.94 C 78.82 53.62 77.18 52.69 74.87 52.64 C 76.29 52.12 77.76 51.72 79.16 51.14 C 81.84 47.17 82.74 42.15 84.89 37.84 C 85.99 36.96 87.08 36.07 88.17 35.18 M 48.90 81.07 C 46.63 81.57 44.14 81.73 42.17 83.06 C 44.42 89.17 46.07 96.82 48.80 101.86 C 50.36 110.50 54.61 118.57 57.34 126.93 C 64.97 123.83 71.05 116.98 78.22 112.74 C 79.95 111.50 83.43 110.77 82.93 108.11 C 79.95 102.74 78.52 96.68 75.81 91.18 C 75.71 87.40 71.92 84.03 73.93 80.12 C 67.68 80.82 61.44 81.36 55.14 80.96 C 54.55 80.89 53.38 80.76 52.80 80.69 C 56.43 78.05 62.26 80.78 64.53 76.46 C 67.66 72.56 67.84 81.18 71.68 78.72 C 75.79 78.17 73.30 73.57 72.76 71.04 C 64.64 73.75 55.80 76.20 48.90 81.07 M 76.94 83.99 C 79.22 92.03 82.34 100.07 85.25 108.01 C 86.40 107.41 87.48 106.56 86.90 105.10 C 83.91 98.23 81.53 91.12 78.75 84.16 C 78.30 84.12 77.39 84.03 76.94 83.99 M 86.16 112.56 C 88.80 113.81 90.95 118.84 94.28 116.27 C 96.91 114.43 103.43 106.10 106.15 111.84 C 101.96 114.99 97.45 117.87 93.96 121.79 C 96.09 123.32 98.26 122.86 99.89 120.91 C 103.17 117.29 109.93 115.35 110.03 110.08 C 116.62 111.37 108.79 103.86 106.00 106.99 C 99.69 109.37 90.40 106.54 86.16 112.56 M 83.35 114.40 C 78.73 118.06 71.62 120.30 68.96 125.06 C 74.99 123.77 80.96 122.03 87.07 120.94 C 86.02 118.94 86.22 113.53 83.35 114.40 Z" />
</g>
<g id="#757575ff">
<path fill="#757575" opacity="1.00" d=" M 53.13 44.16 C 63.76 42.27 74.18 39.21 84.89 37.84 C 82.74 42.15 81.84 47.17 79.16 51.14 C 77.52 51.14 75.88 51.11 74.24 51.13 C 63.60 50.92 52.93 49.53 42.43 48.12 C 45.15 45.11 49.48 45.11 53.13 44.16 Z" />
</g>
<g id="#5a5a5aff">
<path fill="#5a5a5a" opacity="1.00" d=" M 88.23 39.12 C 89.18 39.29 90.11 39.55 91.02 39.89 C 91.91 43.64 93.60 47.11 94.75 50.77 C 92.47 51.83 88.52 52.10 89.47 55.56 C 87.06 56.84 84.50 57.83 82.21 59.32 C 81.56 62.11 81.51 65.17 79.05 67.13 C 85.81 66.99 92.60 66.81 99.32 67.76 C 91.49 68.01 83.60 68.40 75.84 67.07 C 80.06 57.80 84.02 48.40 88.23 39.12 Z" />
</g>
<g id="#565656ff">
<path fill="#565656" opacity="1.00" d=" M 99.73 49.39 C 108.92 47.29 117.60 39.21 127.32 42.32 C 127.07 42.67 126.55 43.39 126.29 43.74 C 124.15 42.61 122.19 44.27 120.84 45.83 C 115.80 51.36 109.97 56.06 104.55 61.18 C 103.09 57.19 101.64 53.19 99.73 49.39 Z" />
</g>
<g id="#9d9d9dff">
<path fill="#9d9d9d" opacity="1.00" d=" M 129.81 41.56 C 130.32 41.38 131.35 41.04 131.86 40.87 C 140.72 59.79 149.09 78.97 157.32 98.18 C 157.02 101.05 153.64 99.50 151.73 99.79 C 153.04 99.02 157.04 99.65 155.53 97.31 C 146.96 78.74 139.60 59.49 129.81 41.56 Z" />
</g>
<g id="#505050ff">
<path fill="#505050" opacity="1.00" d=" M 129.81 41.56 C 139.60 59.49 146.96 78.74 155.53 97.31 C 157.04 99.65 153.04 99.02 151.73 99.79 C 145.12 100.70 138.57 102.07 132.23 104.17 C 128.46 103.32 120.09 107.67 120.93 101.11 C 131.25 99.70 141.80 100.19 152.01 97.83 C 145.18 80.86 138.00 63.95 129.92 47.53 C 129.21 45.59 129.11 43.52 129.81 41.56 Z" />
</g>
<g id="#393939ff">
<path fill="#393939" opacity="1.00" d=" M 120.84 45.83 C 122.19 44.27 124.15 42.61 126.29 43.74 C 120.71 50.61 113.98 56.52 107.25 62.23 C 106.02 63.37 104.59 63.00 104.55 61.18 C 109.97 56.06 115.80 51.36 120.84 45.83 Z" />
</g>
<g id="#616161ff">
<path fill="#616161" opacity="1.00" d=" M 31.97 48.81 C 32.43 48.68 33.37 48.41 33.83 48.28 C 45.51 52.01 60.43 51.07 73.51 52.73 C 73.69 52.33 74.06 51.53 74.24 51.13 C 75.88 51.11 77.52 51.14 79.16 51.14 C 77.76 51.72 76.29 52.12 74.87 52.64 C 77.18 52.69 78.82 53.62 77.46 55.94 C 69.50 55.02 60.72 57.92 52.27 56.36 C 46.11 59.50 49.39 65.20 53.16 68.98 C 49.35 69.61 44.31 67.06 44.32 62.81 C 45.06 56.73 35.98 57.12 33.06 60.99 C 33.41 56.87 34.13 52.58 31.97 48.81 Z" />
</g>
<g id="#404040ff">
<path fill="#404040" opacity="1.00" d=" M 33.83 48.28 C 36.67 47.78 39.57 48.09 42.43 48.12 C 52.93 49.53 63.60 50.92 74.24 51.13 C 74.06 51.53 73.69 52.33 73.51 52.73 C 60.43 51.07 45.51 52.01 33.83 48.28 Z" />
</g>
<g id="#abababff">
<path fill="#ababab" opacity="1.00" d=" M 125.78 61.55 C 127.19 56.89 128.24 52.11 129.92 47.53 C 138.00 63.95 145.18 80.86 152.01 97.83 C 141.80 100.19 131.25 99.70 120.93 101.11 C 120.09 107.67 128.46 103.32 132.23 104.17 C 128.94 106.35 121.76 103.65 121.81 108.89 C 121.76 110.30 120.00 110.50 119.09 111.20 C 119.42 110.66 120.07 109.58 120.39 109.04 C 121.80 107.23 120.44 105.08 119.78 103.28 C 115.07 91.82 110.51 80.30 105.62 68.92 C 105.97 68.74 106.66 68.38 107.00 68.20 C 113.14 75.74 118.62 60.29 125.78 61.55 Z" />
</g>
<g id="#707070ff">
<path fill="#707070" opacity="1.00" d=" M 23.08 51.30 C 26.03 50.42 29.03 49.73 31.97 48.81 C 34.13 52.58 33.41 56.87 33.06 60.99 C 35.98 57.12 45.06 56.73 44.32 62.81 C 44.31 67.06 49.35 69.61 53.16 68.98 C 49.39 65.20 46.11 59.50 52.27 56.36 C 60.72 57.92 69.50 55.02 77.46 55.94 C 75.93 59.29 75.33 63.20 73.18 66.18 C 62.58 71.55 50.40 73.99 40.64 81.06 C 34.81 75.78 31.72 67.96 27.62 61.29 C 27.11 61.45 26.09 61.78 25.58 61.94 C 24.47 58.47 23.47 54.93 23.08 51.30 Z" />
</g>
<g id="#515151ff">
<path fill="#515151" opacity="1.00" d=" M 25.58 61.94 C 26.09 61.78 27.11 61.45 27.62 61.29 C 31.72 67.96 34.81 75.78 40.64 81.06 C 39.93 82.09 39.20 83.10 38.54 84.16 C 35.11 76.22 28.74 70.00 25.58 61.94 Z" />
</g>
<g id="#3f3f3fff">
<path fill="#3f3f3f" opacity="1.00" d=" M 103.21 63.77 C 104.05 65.47 104.85 67.19 105.62 68.92 C 110.51 80.30 115.07 91.82 119.78 103.28 C 120.44 105.08 121.80 107.23 120.39 109.04 C 119.63 106.43 117.39 104.97 114.99 104.04 C 114.06 95.01 109.61 86.43 105.05 78.80 C 107.14 86.08 110.35 92.98 112.81 100.13 C 114.01 103.95 107.08 104.36 106.29 100.93 C 103.92 95.73 102.30 90.22 99.96 85.00 C 97.71 80.96 97.78 75.00 93.28 72.69 C 93.20 72.28 93.05 71.47 92.97 71.06 C 96.36 71.62 99.73 71.57 100.25 67.76 C 102.11 66.79 102.93 68.94 104.04 70.01 C 103.77 67.93 103.44 65.86 103.21 63.77 Z" />
</g>
<g id="#717171ff">
<path fill="#717171" opacity="1.00" d=" M 75.84 67.07 C 83.60 68.40 91.49 68.01 99.32 67.76 L 100.25 67.76 C 99.73 71.57 96.36 71.62 92.97 71.06 C 87.35 70.04 77.57 74.36 75.84 67.07 Z" />
</g>
<g id="#4d4d4dff">
<path fill="#4d4d4d" opacity="1.00" d=" M 48.90 81.07 C 55.80 76.20 64.64 73.75 72.76 71.04 C 73.30 73.57 75.79 78.17 71.68 78.72 C 67.84 81.18 67.66 72.56 64.53 76.46 C 62.26 80.78 56.43 78.05 52.80 80.69 C 51.50 80.82 50.20 80.95 48.90 81.07 Z" />
</g>
<g id="#5d5d5dff">
<path fill="#5d5d5d" opacity="1.00" d=" M 80.32 79.25 C 84.63 77.04 89.08 75.11 93.28 72.69 C 97.78 75.00 97.71 80.96 99.96 85.00 C 88.63 81.10 84.99 97.09 89.95 105.08 C 85.59 97.06 83.29 87.88 80.32 79.25 Z" />
</g>
<g id="#595959ff">
<path fill="#595959" opacity="1.00" d=" M 105.05 78.80 C 109.61 86.43 114.06 95.01 114.99 104.04 C 108.23 106.48 100.79 104.30 93.80 104.87 C 97.29 103.11 104.50 105.23 106.29 100.93 C 107.08 104.36 114.01 103.95 112.81 100.13 C 110.35 92.98 107.14 86.08 105.05 78.80 Z" />
</g>
<g id="#525252ff">
<path fill="#525252" opacity="1.00" d=" M 55.14 80.96 C 61.44 81.36 67.68 80.82 73.93 80.12 C 71.92 84.03 75.71 87.40 75.81 91.18 C 72.50 91.56 69.01 92.21 66.55 89.48 C 62.42 89.40 57.81 90.62 53.95 87.93 C 54.50 85.62 56.42 83.36 55.14 80.96 Z" />
</g>
<g id="#6a6a6aff">
<path fill="#6a6a6a" opacity="1.00" d=" M 42.17 83.06 C 44.14 81.73 46.63 81.57 48.90 81.07 C 50.20 80.95 51.50 80.82 52.80 80.69 C 53.38 80.76 54.55 80.89 55.14 80.96 C 56.42 83.36 54.50 85.62 53.95 87.93 C 57.81 90.62 62.42 89.40 66.55 89.48 C 69.01 92.21 72.50 91.56 75.81 91.18 C 78.52 96.68 79.95 102.74 82.93 108.11 C 83.43 110.77 79.95 111.50 78.22 112.74 C 77.34 105.33 70.63 106.68 67.56 101.41 C 60.43 105.31 59.97 93.54 54.26 97.03 C 55.19 99.27 56.38 101.61 54.95 103.96 C 53.29 101.41 50.19 95.96 48.80 101.86 C 46.07 96.82 44.42 89.17 42.17 83.06 Z" />
</g>
<g id="#484848ff">
<path fill="#484848" opacity="1.00" d=" M 76.94 83.99 C 77.39 84.03 78.30 84.12 78.75 84.16 C 81.53 91.12 83.91 98.23 86.90 105.10 C 87.48 106.56 86.40 107.41 85.25 108.01 C 82.34 100.07 79.22 92.03 76.94 83.99 Z" />
</g>
<g id="#737373ff">
<path fill="#737373" opacity="1.00" d=" M 89.95 105.08 C 84.99 97.09 88.63 81.10 99.96 85.00 C 102.30 90.22 103.92 95.73 106.29 100.93 C 104.50 105.23 97.29 103.11 93.80 104.87 C 92.52 104.98 91.23 105.05 89.95 105.08 Z" />
</g>
<g id="#797979ff">
<path fill="#797979" opacity="1.00" d=" M 40.28 87.88 C 41.99 92.85 43.84 97.77 45.38 102.79 C 44.86 103.02 43.82 103.49 43.29 103.72 C 41.40 99.15 39.87 94.20 35.85 90.97 C 37.23 89.81 38.79 88.89 40.28 87.88 Z" />
</g>
<g id="#7d7d7dff">
<path fill="#7d7d7d" opacity="1.00" d=" M 54.26 97.03 C 59.97 93.54 60.43 105.31 67.56 101.41 C 70.63 106.68 77.34 105.33 78.22 112.74 C 71.05 116.98 64.97 123.83 57.34 126.93 C 54.61 118.57 50.36 110.50 48.80 101.86 C 50.19 95.96 53.29 101.41 54.95 103.96 C 56.38 101.61 55.19 99.27 54.26 97.03 Z" />
</g>
<g id="#9a9a9aff">
<path fill="#9a9a9a" opacity="1.00" d=" M 149.01 103.99 C 150.73 102.53 152.83 102.44 155.32 103.69 C 152.92 106.80 150.21 109.78 146.96 112.03 C 147.92 108.56 157.20 102.59 149.01 103.99 Z" />
</g>
<g id="#676767ff">
<path fill="#676767" opacity="1.00" d=" M 149.01 103.99 C 157.20 102.59 147.92 108.56 146.96 112.03 C 146.47 112.83 145.85 113.51 145.10 114.07 C 141.32 117.28 136.98 120.35 134.86 125.00 C 134.35 126.33 133.18 127.22 132.12 128.10 C 128.09 131.12 125.02 135.67 119.91 136.98 C 116.99 138.11 114.06 139.21 111.13 140.30 C 106.18 139.63 114.88 137.17 116.76 135.98 C 124.02 136.92 118.69 132.59 118.10 129.99 C 115.63 125.72 115.37 119.71 111.21 116.74 C 111.93 115.95 112.73 115.25 113.60 114.64 C 119.41 118.48 118.81 127.61 123.03 131.88 C 132.64 123.85 140.06 112.92 149.01 103.99 Z" />
</g>
<g id="#4a4a4aff">
<path fill="#4a4a4a" opacity="1.00" d=" M 86.16 112.56 C 90.40 106.54 99.69 109.37 106.00 106.99 C 108.79 103.86 116.62 111.37 110.03 110.08 C 108.55 110.16 107.36 111.10 106.15 111.84 C 103.43 106.10 96.91 114.43 94.28 116.27 C 90.95 118.84 88.80 113.81 86.16 112.56 Z" />
</g>
<g id="#626262ff">
<path fill="#626262" opacity="1.00" d=" M 106.15 111.84 C 107.36 111.10 108.55 110.16 110.03 110.08 C 109.93 115.35 103.17 117.29 99.89 120.91 C 98.26 122.86 96.09 123.32 93.96 121.79 C 97.45 117.87 101.96 114.99 106.15 111.84 Z" />
</g>
<g id="#585858ff">
<path fill="#585858" opacity="1.00" d=" M 83.35 114.40 C 86.22 113.53 86.02 118.94 87.07 120.94 C 80.96 122.03 74.99 123.77 68.96 125.06 C 71.62 120.30 78.73 118.06 83.35 114.40 Z" />
</g>
<g id="#a5a5a5ff">
<path fill="#a5a5a5" opacity="1.00" d=" M 134.86 125.00 C 136.98 120.35 141.32 117.28 145.10 114.07 C 142.94 118.59 138.83 122.05 134.86 125.00 Z" />
<path fill="#a5a5a5" opacity="1.00" d=" M 119.91 136.98 C 125.02 135.67 128.09 131.12 132.12 128.10 C 130.34 131.58 127.34 134.97 123.98 136.89 C 122.62 136.91 121.27 136.94 119.91 136.98 Z" />
</g>
<g id="#cacacaff">
<path fill="#cacaca" opacity="1.00" d=" M 111.21 116.74 C 115.37 119.71 115.63 125.72 118.10 129.99 C 118.07 130.46 118.01 131.39 117.98 131.85 C 112.87 130.12 108.18 127.33 102.99 125.83 C 103.19 125.30 103.59 124.24 103.79 123.71 C 106.28 121.39 108.90 119.23 111.21 116.74 Z" />
</g>
<g id="#545454ff">
<path fill="#545454" opacity="1.00" d=" M 65.15 126.34 C 73.25 127.40 80.94 123.57 88.79 122.16 C 90.61 123.30 91.62 125.52 93.10 127.11 C 87.21 131.22 82.49 137.11 75.56 139.53 C 72.80 147.63 63.51 150.98 57.88 156.94 C 57.72 155.70 57.53 154.47 57.37 153.24 C 61.38 144.43 53.87 130.25 65.15 126.34 Z" />
</g>
<g id="#a4a4a4ff">
<path fill="#a4a4a4" opacity="1.00" d=" M 61.81 158.89 C 75.76 147.12 89.60 135.18 103.79 123.71 C 103.59 124.24 103.19 125.30 102.99 125.83 C 96.97 132.60 112.58 130.60 112.95 135.84 C 109.06 138.48 101.82 133.73 99.04 137.87 C 101.31 138.82 104.36 138.05 106.18 139.87 C 103.11 141.30 99.92 142.44 96.77 143.68 C 88.02 146.31 79.43 149.51 70.98 153.01 C 69.38 153.76 66.29 156.63 70.06 156.28 C 67.57 157.84 64.65 158.35 61.81 158.89 Z" />
</g>
<g id="#888888ff">
<path fill="#888888" opacity="1.00" d=" M 102.99 125.83 C 108.18 127.33 112.87 130.12 117.98 131.85 C 118.01 131.39 118.07 130.46 118.10 129.99 C 118.69 132.59 124.02 136.92 116.76 135.98 C 114.88 137.17 106.18 139.63 111.13 140.30 C 106.90 141.99 102.76 143.91 98.40 145.23 C 97.99 144.84 97.18 144.07 96.77 143.68 C 99.92 142.44 103.11 141.30 106.18 139.87 C 104.36 138.05 101.31 138.82 99.04 137.87 C 101.82 133.73 109.06 138.48 112.95 135.84 C 112.58 130.60 96.97 132.60 102.99 125.83 Z" />
</g>
<g id="#d5d5d5ff">
<path fill="#d5d5d5" opacity="1.00" d=" M 111.13 140.30 C 114.06 139.21 116.99 138.11 119.91 136.98 C 121.27 136.94 122.62 136.91 123.98 136.89 C 118.69 140.25 111.82 142.79 105.42 144.54 C 90.89 151.62 75.58 156.95 60.44 162.58 C 59.00 163.38 55.53 165.36 54.96 163.23 C 57.93 163.12 59.78 160.72 61.81 158.89 C 64.65 158.35 67.57 157.84 70.06 156.28 C 79.35 152.22 88.96 148.93 98.40 145.23 C 102.76 143.91 106.90 141.99 111.13 140.30 Z" />
</g>
<g id="#6e6e6eff">
<path fill="#6e6e6e" opacity="1.00" d=" M 70.98 153.01 C 79.43 149.51 88.02 146.31 96.77 143.68 C 97.18 144.07 97.99 144.84 98.40 145.23 C 88.96 148.93 79.35 152.22 70.06 156.28 C 66.29 156.63 69.38 153.76 70.98 153.01 Z" />
</g>
</svg>
