<?xml version="1.0" encoding="UTF-8" ?>
<!DOCTYPE svg PUBLIC "-//W3C//DTD SVG 1.1//EN" "http://www.w3.org/Graphics/SVG/1.1/DTD/svg11.dtd">
<svg width="180pt" height="180pt" viewBox="0 0 180 180" version="1.1" xmlns="http://www.w3.org/2000/svg">
<g id="#fefefeff">
</g>
<g id="#747474ff">
<path fill="#747474" opacity="1.00" d=" M 86.09 27.86 C 87.51 27.65 90.35 27.25 91.76 27.05 C 93.53 34.92 97.25 42.17 99.19 49.98 C 92.18 44.72 95.53 29.36 86.09 27.86 Z" />
</g>
<g id="#cfcfcfff">
<path fill="#cfcfcf" opacity="1.00" d=" M 91.76 27.05 C 105.36 31.20 119.42 34.17 132.65 39.43 C 134.97 40.72 136.24 43.50 135.85 46.11 C 134.79 44.71 133.91 42.64 131.78 43.04 C 131.42 43.01 130.69 42.95 130.33 42.92 C 120.44 40.92 112.04 49.39 102.78 51.93 C 102.07 51.96 100.65 52.04 99.94 52.08 C 99.75 51.55 99.38 50.50 99.19 49.98 C 97.25 42.17 93.53 34.92 91.76 27.05 Z" />
</g>
<g id="#393939ff">
<path fill="#393939" opacity="1.00" d=" M 18.05 47.35 C 40.68 40.68 63.41 34.34 86.09 27.86 C 95.53 29.36 92.18 44.72 99.19 49.98 C 99.38 50.50 99.75 51.55 99.94 52.08 C 101.75 60.71 105.55 68.73 108.51 77.00 C 108.64 77.43 108.91 78.28 109.05 78.71 C 109.21 81.72 110.52 84.47 112.13 86.97 C 114.08 92.68 116.93 98.09 118.20 104.02 C 116.16 103.80 114.13 103.47 112.11 103.09 C 108.62 93.50 105.69 83.70 101.62 74.34 C 100.89 71.73 98.09 73.56 96.70 74.55 C 95.67 74.92 94.65 75.30 93.62 75.67 C 87.78 76.67 83.70 82.23 84.56 88.27 C 83.46 85.63 82.17 83.00 81.82 80.12 C 84.92 78.14 88.11 76.28 90.96 73.93 C 92.30 72.77 95.38 72.32 94.19 70.00 C 96.81 70.23 99.39 70.86 102.02 71.01 C 102.89 67.93 100.09 67.75 97.83 67.36 C 102.58 65.70 96.87 58.69 96.20 54.90 C 94.70 48.28 92.68 41.04 88.44 35.73 C 87.65 35.08 86.84 34.45 86.02 33.84 C 86.88 33.01 87.69 32.12 88.22 31.04 C 65.94 37.73 43.11 43.16 21.02 50.18 C 21.85 59.07 25.80 67.43 27.58 76.16 C 33.14 92.91 36.52 110.26 41.84 127.07 C 44.83 136.09 44.88 146.47 50.82 154.25 C 50.19 147.35 50.46 140.50 52.94 133.91 C 56.41 123.16 49.07 113.16 46.96 102.91 C 44.33 95.23 44.11 86.39 39.34 79.66 C 37.63 77.36 35.78 75.19 34.03 72.92 C 30.94 67.41 25.81 63.08 23.83 56.98 C 24.32 57.01 25.31 57.08 25.81 57.11 C 30.33 64.17 35.35 70.91 40.51 77.52 C 42.19 79.87 44.61 77.47 46.62 76.89 C 47.35 77.67 48.09 78.43 48.85 79.19 L 49.32 79.67 C 41.10 85.15 50.67 97.11 51.70 105.22 C 53.44 111.13 54.22 117.50 57.18 122.99 C 61.24 123.60 64.05 119.93 67.27 118.09 C 67.98 117.66 68.70 117.25 69.43 116.84 C 70.69 117.42 71.96 117.98 73.24 118.50 C 69.55 120.09 65.03 125.46 72.12 123.06 C 71.14 123.67 69.69 124.23 71.00 125.42 C 65.64 124.66 56.95 125.43 56.94 132.65 C 55.38 139.06 53.94 145.50 52.97 152.02 C 55.88 150.29 58.45 148.06 61.08 145.93 C 62.63 144.89 64.20 143.89 65.73 142.82 C 65.62 144.34 64.76 146.46 67.11 146.44 C 65.26 148.02 63.32 149.49 61.40 150.97 C 60.06 151.83 58.86 152.88 57.70 153.96 C 54.68 156.21 51.60 158.38 48.45 160.43 C 37.14 124.76 28.18 87.93 17.97 51.78 C 18.04 50.61 18.04 49.44 17.99 48.27 L 18.05 47.35 Z" />
</g>
<g id="#7f7f7fff">
<path fill="#7f7f7f" opacity="1.00" d=" M 21.02 50.18 C 43.11 43.16 65.94 37.73 88.22 31.04 C 87.69 32.12 86.88 33.01 86.02 33.84 L 85.17 34.06 C 72.54 37.06 59.58 39.76 48.14 46.15 C 48.89 47.93 49.87 49.60 50.80 51.30 C 43.84 50.46 36.88 49.24 29.85 49.32 C 28.27 49.42 26.99 50.55 25.93 51.64 C 30.35 53.73 35.04 55.25 39.23 57.79 C 34.85 59.65 30.24 57.58 25.81 57.11 C 25.31 57.08 24.32 57.01 23.83 56.98 C 25.81 63.08 30.94 67.41 34.03 72.92 C 31.07 71.27 29.26 74.14 27.58 76.16 C 25.80 67.43 21.85 59.07 21.02 50.18 Z" />
</g>
<g id="#6e6e6eff">
<path fill="#6e6e6e" opacity="1.00" d=" M 48.14 46.15 C 59.58 39.76 72.54 37.06 85.17 34.06 C 82.82 41.06 80.08 47.92 77.85 54.97 C 68.72 54.78 59.68 53.34 50.80 51.30 C 49.87 49.60 48.89 47.93 48.14 46.15 Z" />
</g>
<g id="#2b2b2bff">
<path fill="#2b2b2b" opacity="1.00" d=" M 85.17 34.06 L 86.02 33.84 C 86.84 34.45 87.65 35.08 88.44 35.73 C 85.20 46.16 80.18 56.03 77.23 66.53 C 78.80 67.33 80.39 68.10 81.96 68.93 C 81.43 71.64 81.49 74.69 83.13 77.04 C 85.83 76.25 88.34 74.94 90.96 73.93 C 88.11 76.28 84.92 78.14 81.82 80.12 C 82.17 83.00 83.46 85.63 84.56 88.27 C 87.19 92.61 86.20 101.42 91.21 102.96 C 95.15 103.11 99.10 103.11 103.05 102.96 C 101.50 97.94 99.49 93.07 97.97 88.03 C 96.48 83.92 95.00 79.82 93.62 75.67 C 94.65 75.30 95.67 74.92 96.70 74.55 C 100.65 83.67 102.84 93.45 106.30 102.75 C 107.76 102.83 110.66 103.00 112.11 103.09 C 114.13 103.47 116.16 103.80 118.20 104.02 C 118.51 105.25 118.75 106.49 118.92 107.75 C 115.86 110.49 112.34 112.68 108.93 114.97 C 108.01 115.55 107.10 116.14 106.24 116.80 C 102.73 119.50 99.41 122.45 95.83 125.06 C 94.93 125.66 94.03 126.25 93.17 126.91 C 88.00 130.89 82.90 134.97 77.56 138.74 C 74.00 141.19 70.56 143.83 67.11 146.44 C 64.76 146.46 65.62 144.34 65.73 142.82 C 73.73 136.02 82.75 130.42 90.24 123.03 C 83.74 122.98 77.36 124.29 71.00 125.42 C 69.69 124.23 71.14 123.67 72.12 123.06 C 76.74 122.31 81.37 121.65 85.97 120.75 C 85.76 118.12 85.47 115.53 84.82 112.99 C 80.30 113.02 77.26 116.99 73.24 118.50 C 71.96 117.98 70.69 117.42 69.43 116.84 C 73.40 113.90 77.77 111.52 81.68 108.50 C 82.02 104.41 80.77 100.47 79.10 96.82 C 77.20 91.95 76.46 86.54 73.82 82.03 C 69.59 79.74 68.63 83.71 66.69 85.79 C 63.46 85.19 62.58 81.70 61.19 79.20 C 68.07 79.81 71.27 73.25 75.08 68.84 C 66.06 71.47 57.73 76.12 48.85 79.19 C 48.09 78.43 47.35 77.67 46.62 76.89 C 52.47 74.12 58.37 71.46 64.27 68.81 C 69.02 66.47 75.86 65.42 76.51 59.15 C 76.97 57.76 77.40 56.36 77.85 54.97 C 80.08 47.92 82.82 41.06 85.17 34.06 M 91.33 105.25 C 85.58 107.45 87.93 114.50 91.22 117.84 C 95.61 117.25 99.35 113.54 102.53 110.57 C 104.56 106.81 112.15 111.49 112.08 106.16 C 105.17 105.87 98.26 104.53 91.33 105.25 Z" />
</g>
<g id="#545454ff">
<path fill="#545454" opacity="1.00" d=" M 88.44 35.73 C 92.68 41.04 94.70 48.28 96.20 54.90 C 94.55 55.69 92.87 56.46 91.18 57.16 C 88.54 56.81 85.82 56.20 83.23 57.19 C 83.03 61.75 76.31 68.79 87.07 65.98 C 90.69 66.12 94.26 66.75 97.83 67.36 C 100.09 67.75 102.89 67.93 102.02 71.01 C 99.39 70.86 96.81 70.23 94.19 70.00 C 90.10 69.73 86.04 69.30 81.96 68.93 C 80.39 68.10 78.80 67.33 77.23 66.53 C 80.18 56.03 85.20 46.16 88.44 35.73 Z" />
</g>
<g id="#444444ff">
<path fill="#444444" opacity="1.00" d=" M 102.78 51.93 C 112.04 49.39 120.44 40.92 130.33 42.92 C 123.69 51.27 114.91 57.99 106.97 65.15 C 104.49 61.44 101.44 56.51 102.78 51.93 Z" />
</g>
<g id="#959595ff">
<path fill="#959595" opacity="1.00" d=" M 130.33 42.92 C 130.69 42.95 131.42 43.01 131.78 43.04 C 131.33 45.36 132.36 47.56 133.17 49.67 C 128.18 48.89 132.29 58.60 127.55 60.50 C 120.89 65.59 115.44 72.31 108.51 77.00 C 105.55 68.73 101.75 60.71 99.94 52.08 C 100.65 52.04 102.07 51.96 102.78 51.93 C 101.44 56.51 104.49 61.44 106.97 65.15 C 114.91 57.99 123.69 51.27 130.33 42.92 Z" />
</g>
<g id="#4a4a4aff">
<path fill="#4a4a4a" opacity="1.00" d=" M 131.78 43.04 C 133.91 42.64 134.79 44.71 135.85 46.11 L 136.01 46.91 C 138.20 55.34 141.64 63.58 145.86 71.19 C 146.84 72.64 147.30 74.36 147.81 76.02 C 149.27 81.52 151.68 86.72 153.91 91.94 C 155.31 95.23 158.87 104.98 153.26 98.94 C 146.37 82.59 140.26 65.93 133.17 49.67 C 132.36 47.56 131.33 45.36 131.78 43.04 Z" />
</g>
<g id="#a3a3a3ff">
<path fill="#a3a3a3" opacity="1.00" d=" M 136.01 46.91 C 140.42 54.30 143.40 63.02 145.86 71.19 C 141.64 63.58 138.20 55.34 136.01 46.91 Z" />
</g>
<g id="#979797ff">
<path fill="#979797" opacity="1.00" d=" M 17.97 51.78 C 16.15 52.10 16.16 47.91 17.99 48.27 C 18.04 49.44 18.04 50.61 17.97 51.78 Z" />
</g>
<g id="#6f6f6fff">
<path fill="#6f6f6f" opacity="1.00" d=" M 25.93 51.64 C 26.99 50.55 28.27 49.42 29.85 49.32 C 36.05 50.89 42.35 52.02 48.65 53.15 C 50.14 56.83 54.72 56.36 57.43 58.69 C 53.12 61.08 39.34 54.59 40.15 62.73 C 41.88 65.66 43.90 64.81 45.53 62.34 C 51.88 61.46 61.23 62.23 64.27 68.81 C 58.37 71.46 52.47 74.12 46.62 76.89 C 44.61 77.47 42.19 79.87 40.51 77.52 C 35.35 70.91 30.33 64.17 25.81 57.11 C 30.24 57.58 34.85 59.65 39.23 57.79 C 35.04 55.25 30.35 53.73 25.93 51.64 Z" />
</g>
<g id="#404040ff">
<path fill="#404040" opacity="1.00" d=" M 29.85 49.32 C 36.88 49.24 43.84 50.46 50.80 51.30 C 59.68 53.34 68.72 54.78 77.85 54.97 C 77.40 56.36 76.97 57.76 76.51 59.15 C 69.14 54.27 57.82 54.81 48.65 53.15 C 42.35 52.02 36.05 50.89 29.85 49.32 Z" />
</g>
<g id="#a4a4a4ff">
<path fill="#a4a4a4" opacity="1.00" d=" M 127.55 60.50 C 132.29 58.60 128.18 48.89 133.17 49.67 C 140.26 65.93 146.37 82.59 153.26 98.94 C 144.91 103.69 130.73 99.60 120.12 102.15 C 118.78 106.64 126.65 103.19 129.21 104.19 C 125.73 104.92 120.80 103.84 118.92 107.75 C 118.75 106.49 118.51 105.25 118.20 104.02 C 116.93 98.09 114.08 92.68 112.13 86.97 C 111.83 84.01 111.32 80.85 109.05 78.71 C 108.91 78.28 108.64 77.43 108.51 77.00 C 115.44 72.31 120.89 65.59 127.55 60.50 Z" />
</g>
<g id="#5a5a5aff">
<path fill="#5a5a5a" opacity="1.00" d=" M 48.65 53.15 C 57.82 54.81 69.14 54.27 76.51 59.15 C 75.86 65.42 69.02 66.47 64.27 68.81 C 61.23 62.23 51.88 61.46 45.53 62.34 C 43.90 64.81 41.88 65.66 40.15 62.73 C 39.34 54.59 53.12 61.08 57.43 58.69 C 54.72 56.36 50.14 56.83 48.65 53.15 Z" />
</g>
<g id="#111111ff">
<path fill="#111111" opacity="1.00" d=" M 91.18 57.16 C 92.87 56.46 94.55 55.69 96.20 54.90 C 96.87 58.69 102.58 65.70 97.83 67.36 C 94.26 66.75 90.69 66.12 87.07 65.98 C 81.45 62.23 90.82 61.21 91.18 57.16 Z" />
</g>
<g id="#3a3a3aff">
<path fill="#3a3a3a" opacity="1.00" d=" M 83.23 57.19 C 85.82 56.20 88.54 56.81 91.18 57.16 C 90.82 61.21 81.45 62.23 87.07 65.98 C 76.31 68.79 83.03 61.75 83.23 57.19 Z" />
<path fill="#3a3a3a" opacity="1.00" d=" M 91.33 105.25 C 98.26 104.53 105.17 105.87 112.08 106.16 C 112.15 111.49 104.56 106.81 102.53 110.57 C 99.35 113.54 95.61 117.25 91.22 117.84 C 87.93 114.50 85.58 107.45 91.33 105.25 Z" />
</g>
<g id="#4e4e4eff">
<path fill="#4e4e4e" opacity="1.00" d=" M 48.85 79.19 C 57.73 76.12 66.06 71.47 75.08 68.84 C 71.27 73.25 68.07 79.81 61.19 79.20 C 62.58 81.70 63.46 85.19 66.69 85.79 C 68.63 83.71 69.59 79.74 73.82 82.03 C 76.46 86.54 77.20 91.95 79.10 96.82 C 74.88 97.31 69.38 100.32 66.51 95.53 C 63.11 90.68 56.04 93.95 50.90 92.86 C 50.86 89.27 54.06 86.97 55.72 84.11 C 54.00 82.11 51.68 80.78 49.32 79.67 L 48.85 79.19 Z" />
</g>
<g id="#131313ff">
<path fill="#131313" opacity="1.00" d=" M 81.96 68.93 C 86.04 69.30 90.10 69.73 94.19 70.00 C 95.38 72.32 92.30 72.77 90.96 73.93 C 88.34 74.94 85.83 76.25 83.13 77.04 C 81.49 74.69 81.43 71.64 81.96 68.93 Z" />
</g>
<g id="#929292ff">
<path fill="#929292" opacity="1.00" d=" M 27.58 76.16 C 29.26 74.14 31.07 71.27 34.03 72.92 C 35.78 75.19 37.63 77.36 39.34 79.66 C 37.21 82.18 32.47 82.53 31.89 86.01 C 33.98 85.90 36.03 85.49 38.10 85.20 C 32.57 92.22 35.99 100.80 39.25 107.96 C 40.77 104.66 42.91 101.93 46.96 102.91 C 49.07 113.16 56.41 123.16 52.94 133.91 C 50.46 140.50 50.19 147.35 50.82 154.25 C 44.88 146.47 44.83 136.09 41.84 127.07 C 36.52 110.26 33.14 92.91 27.58 76.16 Z" />
</g>
<g id="#5f5f5fff">
<path fill="#5f5f5f" opacity="1.00" d=" M 96.70 74.55 C 98.09 73.56 100.89 71.73 101.62 74.34 C 105.69 83.70 108.62 93.50 112.11 103.09 C 110.66 103.00 107.76 102.83 106.30 102.75 C 102.84 93.45 100.65 83.67 96.70 74.55 Z" />
</g>
<g id="#4d4d4dff">
<path fill="#4d4d4d" opacity="1.00" d=" M 84.56 88.27 C 83.70 82.23 87.78 76.67 93.62 75.67 C 95.00 79.82 96.48 83.92 97.97 88.03 C 95.79 85.05 91.82 84.13 89.92 87.93 C 87.46 92.89 89.63 98.17 91.21 102.96 C 86.20 101.42 87.19 92.61 84.56 88.27 Z" />
</g>
<g id="#a6a6a6ff">
<path fill="#a6a6a6" opacity="1.00" d=" M 147.81 76.02 C 151.41 80.29 153.25 86.77 154.77 92.25 L 153.91 91.94 C 151.68 86.72 149.27 81.52 147.81 76.02 Z" />
</g>
<g id="#6c6c6cff">
<path fill="#6c6c6c" opacity="1.00" d=" M 109.05 78.71 C 111.32 80.85 111.83 84.01 112.13 86.97 C 110.52 84.47 109.21 81.72 109.05 78.71 Z" />
</g>
<g id="#828282ff">
<path fill="#828282" opacity="1.00" d=" M 31.89 86.01 C 32.47 82.53 37.21 82.18 39.34 79.66 C 44.11 86.39 44.33 95.23 46.96 102.91 C 42.91 101.93 40.77 104.66 39.25 107.96 C 35.99 100.80 32.57 92.22 38.10 85.20 C 36.03 85.49 33.98 85.90 31.89 86.01 Z" />
</g>
<g id="#686868ff">
<path fill="#686868" opacity="1.00" d=" M 51.70 105.22 C 50.67 97.11 41.10 85.15 49.32 79.67 C 51.68 80.78 54.00 82.11 55.72 84.11 C 54.06 86.97 50.86 89.27 50.90 92.86 C 56.04 93.95 63.11 90.68 66.51 95.53 C 69.38 100.32 74.88 97.31 79.10 96.82 C 80.77 100.47 82.02 104.41 81.68 108.50 C 77.77 111.52 73.40 113.90 69.43 116.84 C 68.70 117.25 67.98 117.66 67.27 118.09 C 67.27 109.97 60.07 104.53 54.74 99.30 C 51.39 99.30 51.94 102.80 51.70 105.22 Z" />
</g>
<g id="#616161ff">
<path fill="#616161" opacity="1.00" d=" M 89.92 87.93 C 91.82 84.13 95.79 85.05 97.97 88.03 C 99.49 93.07 101.50 97.94 103.05 102.96 C 99.10 103.11 95.15 103.11 91.21 102.96 C 89.63 98.17 87.46 92.89 89.92 87.93 Z" />
</g>
<g id="#7e7e7eff">
<path fill="#7e7e7e" opacity="1.00" d=" M 153.91 91.94 L 154.77 92.25 C 156.27 94.30 156.94 96.83 158.05 99.09 C 157.96 99.76 157.79 101.10 157.71 101.77 C 148.22 102.72 138.69 103.15 129.21 104.19 C 126.65 103.19 118.78 106.64 120.12 102.15 C 130.73 99.60 144.91 103.69 153.26 98.94 C 158.87 104.98 155.31 95.23 153.91 91.94 Z" />
</g>
<g id="#7c7c7cff">
<path fill="#7c7c7c" opacity="1.00" d=" M 51.70 105.22 C 51.94 102.80 51.39 99.30 54.74 99.30 C 60.07 104.53 67.27 109.97 67.27 118.09 C 64.05 119.93 61.24 123.60 57.18 122.99 C 54.22 117.50 53.44 111.13 51.70 105.22 Z" />
</g>
<g id="#cdcdcdff">
<path fill="#cdcdcd" opacity="1.00" d=" M 158.05 99.09 C 160.89 100.44 159.38 106.27 156.13 106.55 C 154.85 106.46 152.28 106.29 150.99 106.21 C 139.25 114.99 131.11 128.51 118.39 135.98 C 115.14 129.08 115.14 119.99 108.93 114.97 C 112.34 112.68 115.86 110.49 118.92 107.75 C 120.80 103.84 125.73 104.92 129.21 104.19 C 138.69 103.15 148.22 102.72 157.71 101.77 C 157.79 101.10 157.96 99.76 158.05 99.09 Z" />
</g>
<g id="#646464ff">
<path fill="#646464" opacity="1.00" d=" M 150.99 106.21 C 152.28 106.29 154.85 106.46 156.13 106.55 C 154.68 107.94 153.25 109.36 151.71 110.65 C 148.52 113.14 145.24 115.67 142.99 119.09 C 141.63 120.98 140.07 122.81 138.01 123.96 C 132.84 126.94 128.60 131.38 125.00 136.09 C 123.51 137.66 122.26 140.32 120.11 140.72 C 118.82 140.53 117.53 140.37 116.24 140.28 C 111.45 140.34 113.54 138.84 116.97 138.67 C 116.19 137.11 115.24 135.65 114.40 134.13 C 111.54 128.49 111.32 120.73 106.24 116.80 C 107.10 116.14 108.01 115.55 108.93 114.97 C 115.14 119.99 115.14 129.08 118.39 135.98 C 131.11 128.51 139.25 114.99 150.99 106.21 Z" />
</g>
<g id="#b3b3b3ff">
<path fill="#b3b3b3" opacity="1.00" d=" M 142.99 119.09 C 145.24 115.67 148.52 113.14 151.71 110.65 C 149.83 113.94 146.89 117.96 142.99 119.09 Z" />
</g>
<g id="#505050ff">
<path fill="#505050" opacity="1.00" d=" M 73.24 118.50 C 77.26 116.99 80.30 113.02 84.82 112.99 C 85.47 115.53 85.76 118.12 85.97 120.75 C 81.37 121.65 76.74 122.31 72.12 123.06 C 65.03 125.46 69.55 120.09 73.24 118.50 Z" />
</g>
<g id="#c5c5c5ff">
<path fill="#c5c5c5" opacity="1.00" d=" M 106.24 116.80 C 111.32 120.73 111.54 128.49 114.40 134.13 C 107.71 135.02 102.46 126.67 95.83 125.06 C 99.41 122.45 102.73 119.50 106.24 116.80 Z" />
</g>
<g id="#535353ff">
<path fill="#535353" opacity="1.00" d=" M 71.00 125.42 C 77.36 124.29 83.74 122.98 90.24 123.03 C 82.75 130.42 73.73 136.02 65.73 142.82 C 64.20 143.89 62.63 144.89 61.08 145.93 C 61.14 141.11 58.91 136.87 56.94 132.65 C 56.95 125.43 65.64 124.66 71.00 125.42 Z" />
</g>
<g id="#aeaeaeff">
<path fill="#aeaeae" opacity="1.00" d=" M 125.00 136.09 C 128.60 131.38 132.84 126.94 138.01 123.96 C 133.84 127.98 130.56 134.04 125.00 136.09 Z" />
</g>
<g id="#838383ff">
<path fill="#838383" opacity="1.00" d=" M 93.17 126.91 C 94.03 126.25 94.93 125.66 95.83 125.06 C 102.46 126.67 107.71 135.02 114.40 134.13 C 115.24 135.65 116.19 137.11 116.97 138.67 C 113.54 138.84 111.45 140.34 116.24 140.28 C 98.71 145.32 80.93 149.50 63.38 154.46 C 61.48 155.24 59.52 154.63 57.70 153.96 C 58.86 152.88 60.06 151.83 61.40 150.97 C 76.83 149.83 92.30 144.67 107.31 140.40 C 108.97 140.01 110.87 139.91 111.98 138.43 C 105.75 134.53 99.19 131.16 93.17 126.91 Z" />
</g>
<g id="#bababaff">
<path fill="#bababa" opacity="1.00" d=" M 93.17 126.91 C 99.19 131.16 105.75 134.53 111.98 138.43 C 110.87 139.91 108.97 140.01 107.31 140.40 C 97.98 139.69 88.68 140.89 79.41 141.71 C 78.77 140.74 78.15 139.74 77.56 138.74 C 82.90 134.97 88.00 130.89 93.17 126.91 Z" />
</g>
<g id="#676767ff">
<path fill="#676767" opacity="1.00" d=" M 56.94 132.65 C 58.91 136.87 61.14 141.11 61.08 145.93 C 58.45 148.06 55.88 150.29 52.97 152.02 C 53.94 145.50 55.38 139.06 56.94 132.65 Z" />
</g>
<g id="#a2a2a2ff">
<path fill="#a2a2a2" opacity="1.00" d=" M 67.11 146.44 C 70.56 143.83 74.00 141.19 77.56 138.74 C 78.15 139.74 78.77 140.74 79.41 141.71 C 88.68 140.89 97.98 139.69 107.31 140.40 C 92.30 144.67 76.83 149.83 61.40 150.97 C 63.32 149.49 65.26 148.02 67.11 146.44 Z" />
</g>
<g id="#cececeff">
<path fill="#cecece" opacity="1.00" d=" M 116.24 140.28 C 117.53 140.37 118.82 140.53 120.11 140.72 C 102.06 148.07 80.92 151.74 61.66 157.61 C 57.71 158.28 50.11 161.90 48.45 160.43 C 51.60 158.38 54.68 156.21 57.70 153.96 C 59.52 154.63 61.48 155.24 63.38 154.46 C 80.93 149.50 98.71 145.32 116.24 140.28 Z" />
</g>
</svg>
