<?xml version="1.0" encoding="UTF-8" ?>
<!DOCTYPE svg PUBLIC "-//W3C//DTD SVG 1.1//EN" "http://www.w3.org/Graphics/SVG/1.1/DTD/svg11.dtd">
<svg width="180pt" height="180pt" viewBox="0 0 180 180" version="1.1" xmlns="http://www.w3.org/2000/svg">
<g id="#fefefeff">
</g>
<g id="#ccccccff">
<path fill="#cccccc" opacity="1.00" d=" M 87.36 23.75 C 96.76 23.10 109.93 31.61 121.13 34.84 C 125.96 38.10 135.68 37.77 136.92 43.77 C 135.87 43.79 134.82 43.84 133.77 43.90 C 133.42 43.90 132.71 43.90 132.35 43.91 C 121.67 43.16 112.40 52.47 102.57 56.38 C 101.12 52.55 99.84 48.64 97.82 45.05 C 93.25 38.85 95.73 25.87 87.36 23.75 Z" />
</g>
<g id="#323232ff">
<path fill="#323232" opacity="1.00" d=" M 18.03 49.07 C 40.67 39.50 64.42 32.65 87.36 23.75 C 95.73 25.87 93.25 38.85 97.82 45.05 C 100.94 66.40 115.73 87.06 114.12 108.13 C 110.97 109.90 107.91 111.85 104.91 113.86 C 104.49 114.14 103.66 114.71 103.25 114.99 C 87.06 126.83 70.39 138.00 53.77 149.23 C 52.82 149.85 51.88 150.49 50.96 151.14 C 48.02 153.13 45.06 155.10 42.22 157.21 C 32.66 121.65 26.47 85.00 18.03 49.07 M 22.12 50.26 C 22.99 59.74 24.77 69.96 28.33 78.51 C 31.86 102.66 38.30 126.79 43.27 150.84 C 46.32 143.89 50.55 132.76 54.01 123.99 C 47.91 102.04 47.07 76.99 27.76 61.60 C 32.40 59.73 39.22 74.51 44.69 77.47 C 53.63 72.01 63.59 68.55 72.85 63.72 C 74.00 60.50 70.00 60.07 67.85 59.20 C 55.84 56.54 43.80 54.06 31.83 51.26 C 29.56 50.88 24.05 48.13 33.55 50.48 C 46.53 53.03 59.47 55.80 72.40 58.56 C 78.41 62.42 77.38 54.43 79.05 52.01 C 82.08 44.00 82.44 34.66 88.02 27.84 C 65.96 34.96 44.08 42.77 22.12 50.26 M 89.20 32.36 C 85.00 42.29 82.38 53.37 79.13 63.69 C 83.41 69.04 91.17 67.91 97.21 69.68 C 106.31 74.39 100.89 63.70 96.46 66.45 C 91.84 64.54 83.13 66.58 81.97 60.98 C 87.33 61.94 94.40 62.05 97.90 57.88 C 94.72 49.87 93.24 38.23 89.20 32.36 M 65.34 71.35 C 59.29 74.42 52.89 76.77 47.00 80.16 C 48.58 94.36 53.53 107.98 56.17 122.02 C 65.49 118.18 73.50 111.31 81.85 105.68 C 80.43 98.82 79.80 79.31 70.28 90.24 C 65.50 95.78 62.37 85.63 57.52 90.49 C 47.60 91.70 67.70 84.64 61.66 80.38 C 56.55 76.23 69.90 82.89 70.83 77.80 C 78.60 72.73 67.86 74.21 65.34 71.35 M 99.39 73.33 C 91.72 77.77 100.69 88.23 101.03 94.91 C 101.36 100.77 105.97 104.53 111.80 100.95 C 108.91 92.14 106.75 83.10 103.71 74.33 C 103.12 72.48 100.81 72.71 99.39 73.33 M 61.27 124.59 C 52.13 128.52 51.78 141.27 46.86 149.07 C 55.87 143.18 64.89 137.08 73.29 130.34 C 76.12 127.11 67.54 129.86 68.21 126.83 C 68.68 121.63 64.11 127.04 61.27 124.59 Z" />
</g>
<g id="#787878ff">
<path fill="#787878" opacity="1.00" d=" M 22.12 50.26 C 44.08 42.77 65.96 34.96 88.02 27.84 C 82.44 34.66 82.08 44.00 79.05 52.01 C 77.38 54.43 78.41 62.42 72.40 58.56 C 59.47 55.80 46.53 53.03 33.55 50.48 C 24.05 48.13 29.56 50.88 31.83 51.26 C 43.80 54.06 55.84 56.54 67.85 59.20 C 70.00 60.07 74.00 60.50 72.85 63.72 C 63.59 68.55 53.63 72.01 44.69 77.47 C 39.22 74.51 32.40 59.73 27.76 61.60 C 25.51 67.31 30.12 72.81 28.33 78.51 C 24.77 69.96 22.99 59.74 22.12 50.26 Z" />
</g>
<g id="#535353ff">
<path fill="#535353" opacity="1.00" d=" M 89.20 32.36 C 93.24 38.23 94.72 49.87 97.90 57.88 C 94.40 62.05 87.33 61.94 81.97 60.98 C 83.13 66.58 91.84 64.54 96.46 66.45 C 100.89 63.70 106.31 74.39 97.21 69.68 C 91.17 67.91 83.41 69.04 79.13 63.69 C 82.38 53.37 85.00 42.29 89.20 32.36 Z" />
<path fill="#535353" opacity="1.00" d=" M 133.77 43.90 C 134.82 43.84 135.87 43.79 136.92 43.77 C 144.23 63.75 152.06 83.53 159.41 103.49 C 154.47 105.91 153.83 99.86 152.43 96.61 C 146.35 79.00 138.22 61.98 133.77 43.90 Z" />
<path fill="#535353" opacity="1.00" d=" M 99.39 73.33 C 100.81 72.71 103.12 72.48 103.71 74.33 C 106.75 83.10 108.91 92.14 111.80 100.95 C 105.97 104.53 101.36 100.77 101.03 94.91 C 100.69 88.23 91.72 77.77 99.39 73.33 Z" />
</g>
<g id="#454545ff">
<path fill="#454545" opacity="1.00" d=" M 102.57 56.38 C 112.40 52.47 121.67 43.16 132.35 43.91 C 125.67 52.99 116.02 59.35 107.94 67.08 C 104.02 65.83 104.16 59.82 102.57 56.38 Z" />
</g>
<g id="#9c9c9cff">
<path fill="#9c9c9c" opacity="1.00" d=" M 132.35 43.91 C 132.71 43.90 133.42 43.90 133.77 43.90 C 138.22 61.98 146.35 79.00 152.43 96.61 C 153.83 99.86 154.47 105.91 159.41 103.49 C 159.65 103.69 160.12 104.09 160.36 104.28 C 145.84 109.65 125.87 96.79 114.12 108.13 C 115.73 87.06 100.94 66.40 97.82 45.05 C 99.84 48.64 101.12 52.55 102.57 56.38 C 104.16 59.82 104.02 65.83 107.94 67.08 C 116.02 59.35 125.67 52.99 132.35 43.91 Z" />
</g>
<g id="#8b8b8bff">
<path fill="#8b8b8b" opacity="1.00" d=" M 28.33 78.51 C 30.12 72.81 25.51 67.31 27.76 61.60 C 47.07 76.99 47.91 102.04 54.01 123.99 C 50.55 132.76 46.32 143.89 43.27 150.84 C 38.30 126.79 31.86 102.66 28.33 78.51 Z" />
</g>
<g id="#5d5d5dff">
<path fill="#5d5d5d" opacity="1.00" d=" M 65.34 71.35 C 67.86 74.21 78.60 72.73 70.83 77.80 C 69.90 82.89 56.55 76.23 61.66 80.38 C 67.70 84.64 47.60 91.70 57.52 90.49 C 62.37 85.63 65.50 95.78 70.28 90.24 C 79.80 79.31 80.43 98.82 81.85 105.68 C 73.50 111.31 65.49 118.18 56.17 122.02 C 53.53 107.98 48.58 94.36 47.00 80.16 C 52.89 76.77 59.29 74.42 65.34 71.35 Z" />
</g>
<g id="#cdcdcdff">
<path fill="#cdcdcd" opacity="1.00" d=" M 114.12 108.13 C 125.87 96.79 145.84 109.65 160.36 104.28 C 162.34 105.79 158.37 112.18 154.89 111.95 C 157.81 109.80 156.73 107.35 153.10 107.99 C 139.91 117.98 128.27 129.95 115.07 139.99 C 109.83 132.17 112.06 120.27 104.91 113.86 C 107.91 111.85 110.97 109.90 114.12 108.13 Z" />
</g>
<g id="#707070ff">
<path fill="#707070" opacity="1.00" d=" M 115.07 139.99 C 128.27 129.95 139.91 117.98 153.10 107.99 C 156.73 107.35 157.81 109.80 154.89 111.95 C 142.29 122.69 129.84 133.62 116.72 143.73 C 94.65 143.47 72.97 151.99 50.96 151.14 C 51.88 150.49 52.82 149.85 53.77 149.23 C 72.45 148.49 91.08 145.03 109.48 142.19 C 104.01 136.34 96.69 132.49 91.30 126.60 C 89.71 123.34 93.95 125.89 94.93 127.06 C 100.19 131.51 104.97 136.55 110.79 140.32 C 108.58 131.79 106.00 123.36 103.25 114.99 C 103.66 114.71 104.49 114.14 104.91 113.86 C 112.06 120.27 109.83 132.17 115.07 139.99 Z" />
</g>
<g id="#c3c3c3ff">
<path fill="#c3c3c3" opacity="1.00" d=" M 103.25 114.99 C 106.00 123.36 108.58 131.79 110.79 140.32 C 104.97 136.55 100.19 131.51 94.93 127.06 C 93.95 125.89 89.71 123.34 91.30 126.60 C 96.69 132.49 104.01 136.34 109.48 142.19 C 91.08 145.03 72.45 148.49 53.77 149.23 C 70.39 138.00 87.06 126.83 103.25 114.99 Z" />
</g>
<g id="#5c5c5cff">
<path fill="#5c5c5c" opacity="1.00" d=" M 61.27 124.59 C 64.11 127.04 68.68 121.63 68.21 126.83 C 67.54 129.86 76.12 127.11 73.29 130.34 C 64.89 137.08 55.87 143.18 46.86 149.07 C 51.78 141.27 52.13 128.52 61.27 124.59 Z" />
</g>
<g id="#cbcbcbff">
<path fill="#cbcbcb" opacity="1.00" d=" M 50.96 151.14 C 72.97 151.99 94.65 143.47 116.72 143.73 C 95.00 150.53 63.84 153.53 42.22 157.21 C 45.06 155.10 48.02 153.13 50.96 151.14 Z" />
</g>
</svg>
