<?xml version="1.0" encoding="UTF-8" ?>
<!DOCTYPE svg PUBLIC "-//W3C//DTD SVG 1.1//EN" "http://www.w3.org/Graphics/SVG/1.1/DTD/svg11.dtd">
<svg width="180pt" height="180pt" viewBox="0 0 180 180" version="1.1" xmlns="http://www.w3.org/2000/svg">
<g id="#ffffffff">
</g>
<g id="#717171ff">
<path fill="#717171" opacity="1.00" d=" M 87.11 20.76 C 86.86 18.90 90.49 20.37 91.81 20.08 C 92.08 21.75 92.36 23.43 92.74 25.08 C 93.10 27.19 93.71 29.24 94.50 31.23 L 94.77 32.07 C 95.74 35.77 96.80 39.45 97.83 43.14 C 99.97 48.74 99.91 55.41 103.52 60.27 C 103.88 61.82 104.19 63.38 104.46 64.95 C 104.23 66.33 104.00 67.71 103.81 69.10 C 99.03 53.90 94.81 38.53 90.93 23.07 C 90.65 21.22 88.60 21.01 87.11 20.76 Z" />
</g>
<g id="#cececeff">
<path fill="#cecece" opacity="1.00" d=" M 91.81 20.08 C 106.79 26.98 121.38 34.67 136.35 41.61 C 137.24 42.33 139.28 42.70 138.90 44.23 C 137.71 44.49 136.52 44.73 135.32 44.91 C 121.58 37.36 107.07 31.39 92.74 25.08 C 92.36 23.43 92.08 21.75 91.81 20.08 Z" />
</g>
<g id="#2d2d2dff">
<path fill="#2d2d2d" opacity="1.00" d=" M 44.57 39.39 C 58.00 32.20 73.07 27.15 87.11 20.76 C 88.60 21.01 90.65 21.22 90.93 23.07 C 94.81 38.53 99.03 53.90 103.81 69.10 C 104.16 70.04 104.50 70.99 104.83 71.94 C 106.74 82.74 111.50 92.91 112.97 103.82 C 104.24 110.24 94.83 115.63 85.91 121.76 C 80.58 125.65 75.08 129.30 69.23 132.38 C 61.09 131.38 72.49 125.65 75.19 122.93 C 69.51 123.52 60.03 117.50 56.16 123.69 C 53.25 127.73 50.82 132.09 47.90 136.12 C 47.30 135.80 46.10 135.14 45.50 134.81 C 48.11 130.09 51.74 125.89 53.87 120.92 C 51.50 107.87 48.49 94.91 46.08 81.85 C 46.33 79.31 45.21 77.28 43.09 75.95 C 38.01 70.61 32.77 65.42 27.84 59.95 C 26.68 58.31 25.31 56.74 24.84 54.74 C 33.48 59.69 38.38 68.80 45.74 75.21 C 46.57 75.97 47.47 75.98 48.42 75.25 C 54.57 72.58 60.21 68.92 66.22 65.98 C 68.87 64.76 71.48 63.46 74.10 62.18 C 77.05 60.96 79.49 58.57 79.47 55.18 C 81.08 47.02 83.25 38.99 84.85 30.83 C 85.74 28.76 86.84 26.79 87.86 24.78 C 76.82 28.05 66.54 33.53 55.81 37.69 C 54.61 38.19 53.42 38.72 52.22 39.24 C 49.69 39.56 47.10 39.98 44.57 39.39 M 88.22 30.11 C 85.99 39.81 83.99 49.57 81.20 59.13 C 80.39 61.78 83.00 63.77 84.19 65.87 C 83.55 68.53 83.72 71.11 87.15 70.14 C 84.43 72.16 87.25 76.60 86.01 79.03 C 91.54 79.38 95.83 74.84 100.31 72.32 C 102.13 70.87 98.70 69.93 97.81 69.09 C 100.78 70.62 101.15 64.27 98.20 65.35 C 94.85 65.70 97.12 63.37 98.01 61.75 C 96.12 51.00 92.55 40.59 89.89 29.99 C 89.48 30.02 88.64 30.08 88.22 30.11 M 60.34 73.65 C 56.55 75.06 52.95 76.93 49.15 78.34 C 49.49 81.83 49.76 85.48 51.23 88.71 C 50.86 93.41 52.43 101.31 53.61 103.60 C 54.41 108.73 55.22 113.86 56.18 118.97 C 64.88 116.64 71.84 109.13 79.98 105.01 C 82.92 104.54 82.44 100.72 80.89 99.15 C 82.58 94.00 76.34 88.38 80.93 84.03 C 78.60 82.76 76.00 81.96 73.34 81.84 C 72.79 78.20 78.56 76.81 78.55 73.26 C 78.05 70.83 77.42 68.43 76.76 66.04 C 71.46 67.61 64.01 70.29 60.34 73.65 M 100.94 75.15 C 99.44 75.88 96.45 77.35 94.95 78.08 C 95.84 85.49 97.91 92.95 100.19 99.91 C 103.03 99.81 106.90 101.40 108.89 98.80 C 107.04 90.82 104.21 83.08 102.75 75.01 C 102.30 75.05 101.39 75.12 100.94 75.15 M 86.34 104.22 C 80.27 107.17 82.99 112.78 84.25 117.78 C 92.22 114.36 100.50 110.62 107.14 105.21 C 100.22 104.63 93.30 103.45 86.34 104.22 Z" />
</g>
<g id="#848484ff">
<path fill="#848484" opacity="1.00" d=" M 55.81 37.69 C 66.54 33.53 76.82 28.05 87.86 24.78 C 86.84 26.79 85.74 28.76 84.85 30.83 C 83.72 33.08 80.54 37.18 78.45 33.61 C 74.96 26.84 73.44 38.67 75.16 41.79 C 77.40 45.46 68.04 39.78 70.38 43.61 C 75.77 44.92 78.17 50.21 79.47 55.18 C 79.49 58.57 77.05 60.96 74.10 62.18 C 70.06 61.22 66.05 60.17 62.06 59.02 C 66.33 52.17 58.07 46.92 60.42 41.47 C 58.97 40.11 57.39 38.89 55.81 37.69 Z" />
</g>
<g id="#bcbcbcff">
<path fill="#bcbcbc" opacity="1.00" d=" M 92.74 25.08 C 107.07 31.39 121.58 37.36 135.32 44.91 L 134.37 45.09 C 133.08 45.05 131.78 45.00 130.50 44.94 C 120.78 41.46 110.13 41.85 100.02 40.10 C 97.59 39.11 97.94 41.49 97.83 43.14 C 96.80 39.45 95.74 35.77 94.77 32.07 C 97.81 32.93 102.84 33.32 99.16 37.08 C 105.17 37.71 111.02 39.55 117.05 40.05 C 115.96 34.25 103.96 38.10 102.51 32.01 C 101.00 29.84 93.73 25.77 94.50 31.23 C 93.71 29.24 93.10 27.19 92.74 25.08 Z" />
</g>
<g id="#d1d1d1ff">
<path fill="#d1d1d1" opacity="1.00" d=" M 94.50 31.23 C 93.73 25.77 101.00 29.84 102.51 32.01 C 103.96 38.10 115.96 34.25 117.05 40.05 C 111.02 39.55 105.17 37.71 99.16 37.08 C 102.84 33.32 97.81 32.93 94.77 32.07 L 94.50 31.23 Z" />
<path fill="#d1d1d1" opacity="1.00" d=" M 97.83 43.14 C 97.94 41.49 97.59 39.11 100.02 40.10 C 110.13 41.85 120.78 41.46 130.50 44.94 C 121.94 50.79 112.06 54.39 103.52 60.27 C 99.91 55.41 99.97 48.74 97.83 43.14 Z" />
<path fill="#d1d1d1" opacity="1.00" d=" M 69.23 132.38 C 75.08 129.30 80.58 125.65 85.91 121.76 C 87.18 122.20 88.43 122.68 89.68 123.18 L 89.81 124.02 C 90.71 132.33 101.26 137.21 105.04 144.86 C 88.62 145.55 72.20 145.95 55.80 147.05 C 55.69 143.69 57.97 141.26 59.89 138.80 C 63.18 136.92 66.19 134.63 69.23 132.38 Z" />
</g>
<g id="#5c5c5cff">
<path fill="#5c5c5c" opacity="1.00" d=" M 88.22 30.11 C 88.64 30.08 89.48 30.02 89.89 29.99 C 92.55 40.59 96.12 51.00 98.01 61.75 C 91.60 60.79 90.60 69.16 84.19 65.87 C 83.00 63.77 80.39 61.78 81.20 59.13 C 83.99 49.57 85.99 39.81 88.22 30.11 Z" />
</g>
<g id="#6a6a6aff">
<path fill="#6a6a6a" opacity="1.00" d=" M 75.16 41.79 C 73.44 38.67 74.96 26.84 78.45 33.61 C 80.54 37.18 83.72 33.08 84.85 30.83 C 83.25 38.99 81.08 47.02 79.47 55.18 C 78.17 50.21 75.77 44.92 70.38 43.61 C 68.04 39.78 77.40 45.46 75.16 41.79 Z" />
</g>
<g id="#999999ff">
<path fill="#999999" opacity="1.00" d=" M 52.22 39.24 C 53.42 38.72 54.61 38.19 55.81 37.69 C 57.39 38.89 58.97 40.11 60.42 41.47 C 58.07 46.92 66.33 52.17 62.06 59.02 C 51.78 56.14 41.29 53.99 31.11 50.77 C 30.34 50.21 29.58 49.65 28.82 49.08 C 36.47 45.44 44.61 42.97 52.22 39.24 Z" />
<path fill="#999999" opacity="1.00" d=" M 142.47 66.83 C 147.18 80.60 151.17 94.69 157.03 108.03 C 143.32 105.57 129.22 104.81 115.77 101.07 C 115.83 100.30 115.94 98.76 116.00 97.99 C 117.45 99.08 119.03 100.12 120.93 100.11 C 120.36 94.38 119.67 88.63 116.00 84.00 C 118.68 76.94 128.02 76.61 133.22 72.07 C 133.26 75.64 123.59 79.31 129.09 81.98 C 138.81 81.39 131.90 65.63 142.47 66.83 Z" />
</g>
<g id="#414141ff">
<path fill="#414141" opacity="1.00" d=" M 20.11 49.20 C 28.29 46.16 36.11 41.24 44.57 39.39 C 47.10 39.98 49.69 39.56 52.22 39.24 C 44.61 42.97 36.47 45.44 28.82 49.08 C 21.83 49.63 22.64 55.93 24.75 61.26 C 24.85 61.68 25.05 62.51 25.15 62.92 C 24.61 64.63 24.52 66.61 25.78 68.04 C 25.99 69.52 26.40 72.48 26.61 73.95 L 26.93 74.69 C 28.11 87.62 30.19 100.46 32.59 113.22 C 34.57 124.41 35.52 135.81 38.18 146.88 C 41.95 145.07 41.89 138.05 45.50 134.81 C 46.10 135.14 47.30 135.80 47.90 136.12 C 46.14 138.74 44.29 141.32 43.00 144.20 C 49.15 140.62 56.28 137.17 60.91 131.94 C 58.94 129.62 57.94 126.08 56.16 123.69 C 60.03 117.50 69.51 123.52 75.19 122.93 C 72.49 125.65 61.09 131.38 69.23 132.38 C 66.19 134.63 63.18 136.92 59.89 138.80 C 55.27 141.25 50.82 144.01 46.52 146.98 C 45.55 147.57 44.62 148.24 43.70 148.91 C 41.33 150.48 38.91 151.98 36.41 153.36 C 34.78 151.96 34.85 149.78 35.00 147.83 C 35.22 146.52 35.06 145.17 34.45 143.98 C 34.36 143.45 34.18 142.38 34.09 141.85 C 33.92 140.38 33.59 137.45 33.43 135.98 L 33.20 134.92 C 33.22 133.58 33.03 132.23 32.43 131.02 C 32.32 130.22 32.09 128.62 31.97 127.82 C 32.15 126.21 32.20 124.52 31.48 123.02 C 30.65 120.71 29.67 118.33 29.98 115.82 C 30.20 114.19 30.11 112.53 29.46 111.01 C 29.35 110.48 29.14 109.41 29.03 108.87 C 29.19 107.55 29.07 106.20 28.44 105.01 C 28.32 104.22 28.09 102.62 27.97 101.82 C 28.15 100.21 28.21 98.52 27.48 97.02 C 26.83 95.01 25.82 93.00 25.98 90.82 C 26.17 89.21 26.10 87.57 25.54 86.03 C 24.95 83.31 24.14 80.61 24.00 77.82 C 24.16 76.21 24.09 74.57 23.54 73.03 C 22.91 69.99 21.91 66.96 22.01 63.83 C 22.20 62.52 22.08 61.16 21.43 59.98 C 21.32 59.45 21.11 58.39 21.00 57.86 C 21.18 56.23 21.11 54.56 20.46 53.04 C 20.01 51.79 19.89 50.51 20.11 49.20 Z" />
</g>
<g id="#8e8e8eff">
<path fill="#8e8e8e" opacity="1.00" d=" M 135.32 44.91 C 136.52 44.73 137.71 44.49 138.90 44.23 C 142.18 55.28 147.82 66.05 149.66 77.28 C 145.03 67.18 142.41 56.30 137.82 46.18 C 135.77 45.20 136.08 47.13 136.10 48.54 C 134.71 48.60 133.33 48.72 131.96 48.87 C 132.81 47.64 133.60 46.37 134.37 45.09 L 135.32 44.91 Z" />
</g>
<g id="#444444ff">
<path fill="#444444" opacity="1.00" d=" M 130.50 44.94 C 131.78 45.00 133.08 45.05 134.37 45.09 C 133.60 46.37 132.81 47.64 131.96 48.87 C 128.58 51.85 125.00 54.61 121.72 57.70 C 116.53 59.91 109.22 74.50 104.46 64.95 C 104.19 63.38 103.88 61.82 103.52 60.27 C 112.06 54.39 121.94 50.79 130.50 44.94 Z" />
</g>
<g id="#3f3f3fff">
<path fill="#3f3f3f" opacity="1.00" d=" M 136.10 48.54 C 136.08 47.13 135.77 45.20 137.82 46.18 C 142.41 56.30 145.03 67.18 149.66 77.28 C 152.28 87.64 157.56 97.31 159.10 107.93 C 158.59 107.95 157.55 108.01 157.03 108.03 C 151.17 94.69 147.18 80.60 142.47 66.83 C 140.97 60.53 138.58 54.50 136.10 48.54 Z" />
</g>
<g id="#acacacff">
<path fill="#acacac" opacity="1.00" d=" M 131.96 48.87 C 133.33 48.72 134.71 48.60 136.10 48.54 C 138.58 54.50 140.97 60.53 142.47 66.83 C 131.90 65.63 138.81 81.39 129.09 81.98 C 123.59 79.31 133.26 75.64 133.22 72.07 C 128.02 76.61 118.68 76.94 116.00 84.00 C 119.67 88.63 120.36 94.38 120.93 100.11 C 119.03 100.12 117.45 99.08 116.00 97.99 C 114.24 91.73 112.50 85.46 110.74 79.20 C 109.19 74.21 114.65 74.48 113.22 78.93 C 121.20 74.98 128.20 68.11 130.15 58.93 C 129.12 59.85 128.16 60.85 127.18 61.82 C 128.06 55.79 116.49 64.88 121.72 57.70 C 125.00 54.61 128.58 51.85 131.96 48.87 Z" />
</g>
<g id="#7e7e7eff">
<path fill="#7e7e7e" opacity="1.00" d=" M 24.75 61.26 C 22.64 55.93 21.83 49.63 28.82 49.08 C 29.58 49.65 30.34 50.21 31.11 50.77 C 30.55 50.86 29.44 51.05 28.89 51.15 C 38.61 55.61 49.58 56.75 59.64 60.40 C 61.76 60.63 60.18 61.67 59.36 62.52 C 61.08 64.60 63.68 65.31 66.22 65.98 C 60.21 68.92 54.57 72.58 48.42 75.25 C 42.03 68.40 35.10 62.03 29.52 54.46 C 28.25 52.47 26.25 53.52 24.84 54.74 C 25.31 56.74 26.68 58.31 27.84 59.95 C 26.80 60.37 25.77 60.80 24.75 61.26 Z" />
</g>
<g id="#606060ff">
<path fill="#606060" opacity="1.00" d=" M 28.89 51.15 C 29.44 51.05 30.55 50.86 31.11 50.77 C 41.29 53.99 51.78 56.14 62.06 59.02 C 66.05 60.17 70.06 61.22 74.10 62.18 C 71.48 63.46 68.87 64.76 66.22 65.98 C 63.68 65.31 61.08 64.60 59.36 62.52 C 60.18 61.67 61.76 60.63 59.64 60.40 C 49.58 56.75 38.61 55.61 28.89 51.15 Z" />
<path fill="#606060" opacity="1.00" d=" M 64.16 96.23 C 68.94 95.64 70.72 89.12 76.43 91.19 C 77.14 94.24 78.91 96.80 80.89 99.15 C 82.44 100.72 82.92 104.54 79.98 105.01 C 71.84 109.13 64.88 116.64 56.18 118.97 C 55.22 113.86 54.41 108.73 53.61 103.60 C 55.91 99.85 60.15 97.74 64.16 96.23 Z" />
<path fill="#606060" opacity="1.00" d=" M 152.17 112.14 C 154.74 109.71 160.21 112.12 155.91 114.93 C 153.98 116.47 151.96 117.99 149.67 118.93 C 148.02 119.27 146.82 120.48 145.78 121.72 C 144.22 122.25 142.95 123.32 141.98 124.63 C 141.69 124.90 141.12 125.44 140.83 125.72 C 138.46 127.37 136.14 129.10 133.87 130.90 C 129.87 133.98 126.01 137.41 121.67 139.94 C 120.02 140.24 118.82 141.45 117.84 142.72 C 116.65 142.96 115.62 143.65 114.93 144.66 C 114.17 145.51 113.39 146.35 112.59 147.16 C 111.53 146.77 110.48 146.38 109.44 145.97 C 110.44 144.60 111.57 143.34 112.87 142.26 C 125.85 132.07 138.98 122.06 152.17 112.14 Z" />
</g>
<g id="#a9a9a9ff">
<path fill="#a9a9a9" opacity="1.00" d=" M 20.46 53.04 C 21.11 54.56 21.18 56.23 21.00 57.86 C 19.02 57.65 19.44 54.21 20.46 53.04 Z" />
</g>
<g id="#686868ff">
<path fill="#686868" opacity="1.00" d=" M 24.84 54.74 C 26.25 53.52 28.25 52.47 29.52 54.46 C 35.10 62.03 42.03 68.40 48.42 75.25 C 47.47 75.98 46.57 75.97 45.74 75.21 C 38.38 68.80 33.48 59.69 24.84 54.74 Z" />
<path fill="#686868" opacity="1.00" d=" M 49.15 78.34 C 52.95 76.93 56.55 75.06 60.34 73.65 C 62.07 77.45 59.33 78.45 54.63 77.38 C 58.44 79.93 63.68 80.35 64.26 85.98 C 60.45 88.93 53.88 96.49 51.23 88.71 C 49.76 85.48 49.49 81.83 49.15 78.34 Z" />
<path fill="#686868" opacity="1.00" d=" M 56.16 123.69 C 57.94 126.08 58.94 129.62 60.91 131.94 C 56.28 137.17 49.15 140.62 43.00 144.20 C 44.29 141.32 46.14 138.74 47.90 136.12 C 50.82 132.09 53.25 127.73 56.16 123.69 Z" />
</g>
<g id="#9f9f9fff">
<path fill="#9f9f9f" opacity="1.00" d=" M 104.46 64.95 C 109.22 74.50 116.53 59.91 121.72 57.70 C 116.49 64.88 128.06 55.79 127.18 61.82 C 128.16 60.85 129.12 59.85 130.15 58.93 C 128.20 68.11 121.20 74.98 113.22 78.93 C 114.65 74.48 109.19 74.21 110.74 79.20 C 109.47 76.57 109.28 72.88 106.92 71.10 C 106.40 71.31 105.35 71.73 104.83 71.94 C 104.50 70.99 104.16 70.04 103.81 69.10 C 104.00 67.71 104.23 66.33 104.46 64.95 Z" />
<path fill="#9f9f9f" opacity="1.00" d=" M 149.66 77.28 C 154.97 85.24 157.16 97.60 161.36 107.34 C 160.80 107.49 159.67 107.78 159.10 107.93 C 157.56 97.31 152.28 87.64 149.66 77.28 Z" />
</g>
<g id="#a4a4a4ff">
<path fill="#a4a4a4" opacity="1.00" d=" M 21.43 59.98 C 22.08 61.16 22.20 62.52 22.01 63.83 C 20.18 63.97 20.34 60.85 21.43 59.98 Z" />
<path fill="#a4a4a4" opacity="1.00" d=" M 145.78 121.72 C 146.82 120.48 148.02 119.27 149.67 118.93 C 150.20 120.80 147.44 122.74 145.78 121.72 Z" />
<path fill="#a4a4a4" opacity="1.00" d=" M 34.45 143.98 C 35.06 145.17 35.22 146.52 35.00 147.83 C 33.17 147.96 33.36 144.83 34.45 143.98 Z" />
</g>
<g id="#959595ff">
<path fill="#959595" opacity="1.00" d=" M 24.75 61.26 C 25.77 60.80 26.80 60.37 27.84 59.95 C 32.77 65.42 38.01 70.61 43.09 75.95 C 45.19 81.61 37.19 84.12 35.96 89.23 C 39.86 87.64 42.78 84.39 46.08 81.85 C 48.49 94.91 51.50 107.87 53.87 120.92 C 51.74 125.89 48.11 130.09 45.50 134.81 C 41.89 138.05 41.95 145.07 38.18 146.88 C 35.52 135.81 34.57 124.41 32.59 113.22 C 33.00 110.98 33.65 108.81 34.35 106.65 C 36.09 113.55 37.20 121.46 36.10 128.81 C 40.48 128.51 44.15 125.73 47.89 123.70 C 46.83 117.57 47.85 108.57 40.16 106.74 C 42.00 101.83 39.51 96.74 32.90 98.93 C 31.33 95.27 34.87 92.56 36.92 90.03 C 26.56 93.00 31.68 78.17 26.93 74.69 L 26.61 73.95 C 28.61 72.16 28.01 69.33 25.78 68.04 C 26.42 66.35 26.59 64.28 25.15 62.92 C 25.05 62.51 24.85 61.68 24.75 61.26 Z" />
</g>
<g id="#484848ff">
<path fill="#484848" opacity="1.00" d=" M 84.19 65.87 C 90.60 69.16 91.60 60.79 98.01 61.75 C 97.12 63.37 94.85 65.70 98.20 65.35 C 101.15 64.27 100.78 70.62 97.81 69.09 C 94.20 68.51 90.30 67.88 87.15 70.14 C 83.72 71.11 83.55 68.53 84.19 65.87 Z" />
</g>
<g id="#767676ff">
<path fill="#767676" opacity="1.00" d=" M 25.15 62.92 C 26.59 64.28 26.42 66.35 25.78 68.04 C 24.52 66.61 24.61 64.63 25.15 62.92 Z" />
</g>
<g id="#575757ff">
<path fill="#575757" opacity="1.00" d=" M 60.34 73.65 C 64.01 70.29 71.46 67.61 76.76 66.04 C 77.42 68.43 78.05 70.83 78.55 73.26 C 78.56 76.81 72.79 78.20 73.34 81.84 C 74.53 86.77 66.21 82.02 64.26 85.98 C 63.68 80.35 58.44 79.93 54.63 77.38 C 59.33 78.45 62.07 77.45 60.34 73.65 Z" />
</g>
<g id="#7c7c7cff">
<path fill="#7c7c7c" opacity="1.00" d=" M 25.78 68.04 C 28.01 69.33 28.61 72.16 26.61 73.95 C 26.40 72.48 25.99 69.52 25.78 68.04 Z" />
</g>
<g id="#0d0d0dff">
<path fill="#0d0d0d" opacity="1.00" d=" M 87.15 70.14 C 90.30 67.88 94.20 68.51 97.81 69.09 C 98.70 69.93 102.13 70.87 100.31 72.32 C 95.83 74.84 91.54 79.38 86.01 79.03 C 87.25 76.60 84.43 72.16 87.15 70.14 Z" />
</g>
<g id="#878787ff">
<path fill="#878787" opacity="1.00" d=" M 104.83 71.94 C 105.35 71.73 106.40 71.31 106.92 71.10 C 108.58 81.23 112.57 90.84 114.93 100.82 C 114.12 102.86 113.32 104.91 112.13 106.76 C 104.65 111.70 97.31 116.87 89.53 121.33 C 89.57 121.79 89.65 122.72 89.68 123.18 C 88.43 122.68 87.18 122.20 85.91 121.76 C 94.83 115.63 104.24 110.24 112.97 103.82 C 111.50 92.91 106.74 82.74 104.83 71.94 Z" />
</g>
<g id="#616161ff">
<path fill="#616161" opacity="1.00" d=" M 106.92 71.10 C 109.28 72.88 109.47 76.57 110.74 79.20 C 112.50 85.46 114.24 91.73 116.00 97.99 C 115.94 98.76 115.83 100.30 115.77 101.07 L 114.93 100.82 C 112.57 90.84 108.58 81.23 106.92 71.10 Z" />
</g>
<g id="#b4b4b4ff">
<path fill="#b4b4b4" opacity="1.00" d=" M 23.54 73.03 C 24.09 74.57 24.16 76.21 24.00 77.82 C 21.99 77.67 22.43 74.14 23.54 73.03 Z" />
<path fill="#b4b4b4" opacity="1.00" d=" M 25.54 86.03 C 26.10 87.57 26.17 89.21 25.98 90.82 C 23.98 90.65 24.44 87.14 25.54 86.03 Z" />
</g>
<g id="#818181ff">
<path fill="#818181" opacity="1.00" d=" M 26.93 74.69 C 31.68 78.17 26.56 93.00 36.92 90.03 C 34.87 92.56 31.33 95.27 32.90 98.93 C 33.36 101.51 33.90 104.07 34.35 106.65 C 33.65 108.81 33.00 110.98 32.59 113.22 C 30.19 100.46 28.11 87.62 26.93 74.69 Z" />
</g>
<g id="#505050ff">
<path fill="#505050" opacity="1.00" d=" M 100.94 75.15 C 101.39 75.12 102.30 75.05 102.75 75.01 C 104.21 83.08 107.04 90.82 108.89 98.80 C 106.90 101.40 103.03 99.81 100.19 99.91 C 97.91 92.95 95.84 85.49 94.95 78.08 C 96.45 77.35 99.44 75.88 100.94 75.15 Z" />
</g>
<g id="#757575ff">
<path fill="#757575" opacity="1.00" d=" M 43.09 75.95 C 45.21 77.28 46.33 79.31 46.08 81.85 C 42.78 84.39 39.86 87.64 35.96 89.23 C 37.19 84.12 45.19 81.61 43.09 75.95 Z" />
</g>
<g id="#494949ff">
<path fill="#494949" opacity="1.00" d=" M 73.34 81.84 C 76.00 81.96 78.60 82.76 80.93 84.03 C 76.34 88.38 82.58 94.00 80.89 99.15 C 78.91 96.80 77.14 94.24 76.43 91.19 C 70.72 89.12 68.94 95.64 64.16 96.23 C 60.15 97.74 55.91 99.85 53.61 103.60 C 52.43 101.31 50.86 93.41 51.23 88.71 C 53.88 96.49 60.45 88.93 64.26 85.98 C 66.21 82.02 74.53 86.77 73.34 81.84 Z" />
</g>
<g id="#898989ff">
<path fill="#898989" opacity="1.00" d=" M 27.48 97.02 C 28.21 98.52 28.15 100.21 27.97 101.82 C 26.02 101.61 26.48 98.18 27.48 97.02 Z" />
</g>
<g id="#a5a5a5ff">
<path fill="#a5a5a5" opacity="1.00" d=" M 32.90 98.93 C 39.51 96.74 42.00 101.83 40.16 106.74 C 47.85 108.57 46.83 117.57 47.89 123.70 C 44.15 125.73 40.48 128.51 36.10 128.81 C 37.20 121.46 36.09 113.55 34.35 106.65 C 33.90 104.07 33.36 101.51 32.90 98.93 Z" />
<path fill="#a5a5a5" opacity="1.00" d=" M 141.98 124.63 C 142.95 123.32 144.22 122.25 145.78 121.72 C 146.28 123.56 143.68 125.78 141.98 124.63 Z" />
</g>
<g id="#c2c2c2ff">
<path fill="#c2c2c2" opacity="1.00" d=" M 112.13 106.76 C 113.32 104.91 114.12 102.86 114.93 100.82 L 115.77 101.07 C 129.22 104.81 143.32 105.57 157.03 108.03 C 157.55 108.01 158.59 107.95 159.10 107.93 C 159.67 107.78 160.80 107.49 161.36 107.34 C 163.84 108.60 159.33 115.54 155.91 114.93 C 160.21 112.12 154.74 109.71 152.17 112.14 C 138.98 122.06 125.85 132.07 112.87 142.26 C 111.49 141.77 110.30 140.88 110.03 139.37 C 115.44 135.81 116.24 128.27 120.72 123.81 C 128.30 123.74 134.49 116.34 139.93 112.08 C 136.34 109.33 128.48 110.10 123.13 109.08 C 121.65 112.43 124.34 115.95 123.85 119.36 C 120.27 116.22 120.61 106.84 113.94 109.79 C 115.77 108.03 113.73 107.37 112.13 106.76 Z" />
</g>
<g id="#131313ff">
<path fill="#131313" opacity="1.00" d=" M 86.34 104.22 C 93.30 103.45 100.22 104.63 107.14 105.21 C 100.50 110.62 92.22 114.36 84.25 117.78 C 82.99 112.78 80.27 107.17 86.34 104.22 Z" />
</g>
<g id="#9b9b9bff">
<path fill="#9b9b9b" opacity="1.00" d=" M 28.44 105.01 C 29.07 106.20 29.19 107.55 29.03 108.87 C 27.19 108.99 27.33 105.88 28.44 105.01 Z" />
</g>
<g id="#5b5b5bff">
<path fill="#5b5b5b" opacity="1.00" d=" M 89.53 121.33 C 97.31 116.87 104.65 111.70 112.13 106.76 C 113.73 107.37 115.77 108.03 113.94 109.79 C 110.57 111.70 107.17 113.69 104.20 116.20 C 105.58 123.14 106.80 130.18 109.04 136.91 C 109.25 139.86 109.55 143.43 106.30 140.37 C 104.56 132.90 102.42 125.54 100.71 118.07 C 97.55 119.86 94.74 122.20 91.61 124.04 C 91.16 124.03 90.26 124.02 89.81 124.02 L 89.68 123.18 C 89.65 122.72 89.57 121.79 89.53 121.33 Z" />
</g>
<g id="#cfcfcfff">
<path fill="#cfcfcf" opacity="1.00" d=" M 113.94 109.79 C 120.61 106.84 120.27 116.22 123.85 119.36 C 124.34 115.95 121.65 112.43 123.13 109.08 C 128.48 110.10 136.34 109.33 139.93 112.08 C 134.49 116.34 128.30 123.74 120.72 123.81 C 116.24 128.27 115.44 135.81 110.03 139.37 C 109.78 138.75 109.29 137.52 109.04 136.91 C 106.80 130.18 105.58 123.14 104.20 116.20 C 107.17 113.69 110.57 111.70 113.94 109.79 Z" />
<path fill="#cfcfcf" opacity="1.00" d=" M 43.70 148.91 C 65.25 150.23 87.64 146.75 109.44 145.97 C 110.48 146.38 111.53 146.77 112.59 147.16 L 113.10 147.82 C 87.55 151.29 61.50 151.27 35.79 153.95 L 36.41 153.36 C 38.91 151.98 41.33 150.48 43.70 148.91 Z" />
</g>
<g id="#a1a1a1ff">
<path fill="#a1a1a1" opacity="1.00" d=" M 29.46 111.01 C 30.11 112.53 30.20 114.19 29.98 115.82 C 28.02 115.62 28.45 112.17 29.46 111.01 Z" />
</g>
<g id="#bbbbbbff">
<path fill="#bbbbbb" opacity="1.00" d=" M 91.61 124.04 C 94.74 122.20 97.55 119.86 100.71 118.07 C 102.42 125.54 104.56 132.90 106.30 140.37 C 100.24 136.88 96.02 129.69 91.61 124.04 Z" />
</g>
<g id="#888888ff">
<path fill="#888888" opacity="1.00" d=" M 31.48 123.02 C 32.20 124.52 32.15 126.21 31.97 127.82 C 30.02 127.61 30.48 124.18 31.48 123.02 Z" />
</g>
<g id="#909090ff">
<path fill="#909090" opacity="1.00" d=" M 89.81 124.02 C 90.26 124.02 91.16 124.03 91.61 124.04 C 96.02 129.69 100.24 136.88 106.30 140.37 C 109.55 143.43 109.25 139.86 109.04 136.91 C 109.29 137.52 109.78 138.75 110.03 139.37 C 110.30 140.88 111.49 141.77 112.87 142.26 C 111.57 143.34 110.44 144.60 109.44 145.97 C 87.64 146.75 65.25 150.23 43.70 148.91 C 44.62 148.24 45.55 147.57 46.52 146.98 C 49.61 147.58 52.73 147.68 55.80 147.05 C 72.20 145.95 88.62 145.55 105.04 144.86 C 101.26 137.21 90.71 132.33 89.81 124.02 Z" />
</g>
<g id="#afafafff">
<path fill="#afafaf" opacity="1.00" d=" M 133.87 130.90 C 136.14 129.10 138.46 127.37 140.83 125.72 C 139.49 128.38 137.16 130.10 133.87 130.90 Z" />
</g>
<g id="#a6a6a6ff">
<path fill="#a6a6a6" opacity="1.00" d=" M 32.43 131.02 C 33.03 132.23 33.22 133.58 33.20 134.92 C 31.31 135.07 31.30 131.95 32.43 131.02 Z" />
</g>
<g id="#969696ff">
<path fill="#969696" opacity="1.00" d=" M 33.43 135.98 C 33.59 137.45 33.92 140.38 34.09 141.85 C 31.78 141.46 32.25 137.44 33.43 135.98 Z" />
</g>
<g id="#b0b0b0ff">
<path fill="#b0b0b0" opacity="1.00" d=" M 46.52 146.98 C 50.82 144.01 55.27 141.25 59.89 138.80 C 57.97 141.26 55.69 143.69 55.80 147.05 C 52.73 147.68 49.61 147.58 46.52 146.98 Z" />
</g>
<g id="#b2b2b2ff">
<path fill="#b2b2b2" opacity="1.00" d=" M 117.84 142.72 C 118.82 141.45 120.02 140.24 121.67 139.94 C 122.21 141.77 119.49 143.74 117.84 142.72 Z" />
</g>
<g id="#aaaaaaff">
<path fill="#aaaaaa" opacity="1.00" d=" M 114.93 144.66 C 115.62 143.65 116.65 142.96 117.84 142.72 C 118.58 144.27 116.11 145.86 114.93 144.66 Z" />
</g>
</svg>
