<?xml version="1.0" encoding="UTF-8" ?>
<!DOCTYPE svg PUBLIC "-//W3C//DTD SVG 1.1//EN" "http://www.w3.org/Graphics/SVG/1.1/DTD/svg11.dtd">
<svg width="180pt" height="180pt" viewBox="0 0 180 180" version="1.1" xmlns="http://www.w3.org/2000/svg">
<g id="#ffffffff">
</g>
<g id="#373737ff">
<path fill="#373737" opacity="1.00" d=" M 77.68 20.68 C 82.14 18.30 86.26 15.03 91.29 13.92 L 91.48 14.98 C 92.12 18.76 92.85 22.51 93.51 26.28 C 94.38 33.27 96.52 40.08 96.75 47.14 C 96.75 49.13 96.78 51.12 96.92 53.10 C 94.89 46.26 93.77 39.21 92.85 32.14 C 92.10 32.84 91.35 33.55 90.60 34.25 C 90.13 33.00 89.60 31.78 89.08 30.55 C 87.18 40.05 84.65 49.75 85.79 59.50 C 86.55 65.24 87.67 70.95 89.43 76.47 C 89.42 77.80 89.40 79.12 89.39 80.44 C 88.51 79.63 87.64 78.81 86.77 77.99 C 85.82 71.45 85.26 64.79 83.07 58.51 C 82.91 61.05 82.62 63.59 82.69 66.14 L 82.54 65.32 C 82.31 63.88 81.91 62.47 81.54 61.07 C 77.75 63.03 74.02 65.07 70.28 67.12 C 64.68 69.99 59.16 73.03 53.70 76.16 C 53.78 77.51 53.87 78.87 53.98 80.22 C 53.39 78.22 52.70 76.26 52.02 74.30 C 51.49 74.48 50.43 74.84 49.90 75.02 C 42.65 70.54 36.86 64.16 29.91 59.27 C 28.98 57.57 28.14 55.82 27.30 54.07 C 30.27 54.50 33.10 55.61 35.28 57.71 C 41.11 62.86 46.93 68.03 52.99 72.90 C 56.85 70.64 60.66 68.30 64.55 66.10 C 65.81 65.39 67.08 64.69 68.34 63.98 C 72.93 61.40 77.53 58.82 81.87 55.83 C 83.12 43.72 85.67 31.78 86.86 19.65 C 84.59 20.88 82.33 22.13 80.11 23.43 C 70.75 28.87 61.24 34.03 51.90 39.49 C 45.21 43.36 38.52 47.21 31.66 50.77 C 30.08 51.59 28.49 52.40 26.90 53.21 C 26.77 58.96 26.62 64.75 27.38 70.47 C 25.33 64.20 25.89 57.54 24.66 51.13 C 42.51 41.31 59.97 30.77 77.68 20.68 Z" />
</g>
<g id="#c2c2c2ff">
<path fill="#c2c2c2" opacity="1.00" d=" M 91.48 14.98 C 98.79 18.62 105.33 23.54 112.29 27.77 C 119.73 32.27 126.88 37.24 134.36 41.68 C 137.64 43.58 140.69 45.85 143.44 48.46 C 139.60 48.69 135.58 48.93 132.26 51.11 C 132.32 49.61 132.39 48.12 132.46 46.62 C 131.91 46.46 130.80 46.14 130.25 45.98 C 122.99 43.89 115.98 41.07 108.80 38.74 C 108.91 38.08 109.13 36.74 109.24 36.07 C 113.47 37.47 117.73 38.79 122.05 39.91 C 113.02 33.74 103.44 28.37 93.93 22.98 C 93.83 23.81 93.62 25.46 93.51 26.28 C 92.85 22.51 92.12 18.76 91.48 14.98 Z" />
</g>
<g id="#8c8c8cff">
<path fill="#8c8c8c" opacity="1.00" d=" M 80.11 23.43 C 82.33 22.13 84.59 20.88 86.86 19.65 C 85.67 31.78 83.12 43.72 81.87 55.83 C 78.05 51.31 72.35 49.31 67.63 45.98 C 72.00 46.86 76.30 47.98 80.60 49.13 C 80.67 40.56 81.04 31.97 80.11 23.43 Z" />
</g>
<g id="#d2d2d2ff">
<path fill="#d2d2d2" opacity="1.00" d=" M 93.93 22.98 C 103.44 28.37 113.02 33.74 122.05 39.91 C 117.73 38.79 113.47 37.47 109.24 36.07 C 109.13 36.74 108.91 38.08 108.80 38.74 C 104.79 41.03 100.78 43.40 97.36 46.52 L 96.75 47.14 C 96.52 40.08 94.38 33.27 93.51 26.28 C 93.62 25.46 93.83 23.81 93.93 22.98 Z" />
</g>
<g id="#a4a4a4ff">
<path fill="#a4a4a4" opacity="1.00" d=" M 51.90 39.49 C 61.24 34.03 70.75 28.87 80.11 23.43 C 81.04 31.97 80.67 40.56 80.60 49.13 C 76.30 47.98 72.00 46.86 67.63 45.98 C 72.35 49.31 78.05 51.31 81.87 55.83 C 77.53 58.82 72.93 61.40 68.34 63.98 C 66.83 62.45 65.32 60.93 63.80 59.41 C 64.88 57.07 66.17 54.76 66.62 52.19 C 63.65 46.19 57.69 42.43 51.90 39.49 Z" />
<path fill="#a4a4a4" opacity="1.00" d=" M 28.45 58.45 C 28.81 58.65 29.54 59.06 29.91 59.27 C 36.86 64.16 42.65 70.54 49.90 75.02 C 52.06 82.10 51.74 89.60 52.57 96.89 C 51.95 98.49 51.35 100.14 50.31 101.53 C 49.01 102.58 47.22 102.73 45.67 103.25 C 45.33 109.87 45.44 116.51 46.15 123.10 C 45.05 124.13 43.98 125.20 42.89 126.26 C 43.01 118.14 42.46 110.03 41.86 101.93 C 41.46 96.92 41.92 91.88 41.53 86.86 C 41.31 83.78 39.49 81.18 38.13 78.51 C 35.19 71.68 31.47 65.23 28.45 58.45 Z" />
</g>
<g id="#848484ff">
<path fill="#848484" opacity="1.00" d=" M 89.08 30.55 C 89.60 31.78 90.13 33.00 90.60 34.25 C 92.58 42.80 93.63 51.53 95.39 60.13 C 92.17 60.53 88.91 60.37 85.79 59.50 C 84.65 49.75 87.18 40.05 89.08 30.55 Z" />
<path fill="#848484" opacity="1.00" d=" M 94.73 122.62 C 95.88 122.05 97.00 121.44 98.13 120.82 C 100.64 128.99 100.69 137.69 103.37 145.80 C 103.71 146.24 104.40 147.13 104.75 147.58 C 103.61 148.64 102.56 149.80 101.50 150.94 C 94.17 148.92 86.51 148.74 79.02 147.70 C 63.68 145.68 48.31 143.96 33.00 141.79 C 34.75 140.59 36.59 139.52 38.46 138.52 C 38.36 139.11 38.17 140.28 38.08 140.87 C 38.61 140.94 39.69 141.09 40.22 141.16 C 58.18 143.58 76.10 146.42 94.15 148.15 C 95.01 148.20 96.74 148.29 97.60 148.34 C 96.67 145.65 95.72 142.96 94.63 140.34 C 92.60 134.88 88.70 129.67 89.76 123.54 C 90.36 123.58 91.54 123.68 92.13 123.72 C 92.03 126.13 92.03 128.62 93.06 130.86 C 95.64 136.95 98.17 143.11 101.62 148.77 C 101.19 146.69 100.71 144.62 100.19 142.56 C 99.53 135.75 99.62 128.66 96.56 122.36 C 96.34 123.33 95.89 125.28 95.67 126.25 C 95.37 125.03 95.06 123.83 94.73 122.62 Z" />
</g>
<g id="#282828ff">
<path fill="#282828" opacity="1.00" d=" M 90.60 34.25 C 91.35 33.55 92.10 32.84 92.85 32.14 C 93.77 39.21 94.89 46.26 96.92 53.10 C 99.81 64.74 101.15 76.68 103.73 88.39 C 104.68 92.50 105.01 96.77 104.34 100.95 C 101.42 102.64 98.40 104.15 95.45 105.77 C 92.06 107.62 88.72 109.58 85.38 111.53 C 84.36 112.12 83.33 112.70 82.30 113.27 C 75.88 114.85 70.58 118.85 64.75 121.69 C 62.83 122.91 60.95 121.51 59.46 120.32 C 58.17 119.21 56.93 118.05 55.68 116.90 C 54.59 117.89 53.50 118.89 52.41 119.89 C 52.00 119.73 51.17 119.43 50.76 119.27 C 52.11 117.76 53.99 116.23 53.85 114.00 C 53.98 108.27 53.00 102.59 52.57 96.89 C 51.74 89.60 52.06 82.10 49.90 75.02 C 50.43 74.84 51.49 74.48 52.02 74.30 C 52.70 76.26 53.39 78.22 53.98 80.22 C 54.24 82.22 54.49 84.22 54.69 86.23 C 54.79 87.44 54.92 88.65 55.06 89.85 C 55.57 97.63 55.94 105.43 57.00 113.16 C 66.35 108.93 75.02 103.38 83.67 97.91 C 83.37 93.82 83.08 89.68 83.65 85.59 C 84.15 83.02 84.80 80.48 85.25 77.90 C 86.25 84.01 87.31 90.11 88.37 96.21 C 92.58 96.59 96.78 97.18 100.86 98.34 C 95.36 101.27 88.66 97.75 83.48 101.47 C 77.88 105.00 72.33 108.63 66.84 112.34 C 70.62 112.77 74.73 113.32 78.16 111.20 C 86.08 106.57 94.43 102.76 102.67 98.72 C 102.29 97.89 101.91 97.06 101.53 96.24 C 99.99 95.89 98.45 95.54 96.89 95.25 C 98.48 95.26 100.07 95.21 101.67 95.17 C 100.79 90.25 99.90 85.33 98.99 80.41 C 96.65 81.18 94.30 81.95 91.90 82.49 C 90.48 82.77 89.05 82.98 87.63 83.19 C 87.33 81.46 87.04 79.73 86.77 77.99 C 87.64 78.81 88.51 79.63 89.39 80.44 C 89.40 79.12 89.42 77.80 89.43 76.47 C 92.06 74.90 94.68 73.34 97.31 71.77 C 96.75 67.88 96.13 63.99 95.39 60.13 C 93.63 51.53 92.58 42.80 90.60 34.25 Z" />
</g>
<g id="#e0e0e0ff">
<path fill="#e0e0e0" opacity="1.00" d=" M 97.36 46.52 C 100.78 43.40 104.79 41.03 108.80 38.74 C 115.98 41.07 122.99 43.89 130.25 45.98 C 129.57 46.72 128.88 47.45 128.20 48.18 C 118.78 49.28 109.34 50.16 99.93 51.38 C 99.23 50.48 98.54 49.57 97.86 48.65 C 97.74 48.12 97.49 47.05 97.36 46.52 Z" />
</g>
<g id="#b0b0b0ff">
<path fill="#b0b0b0" opacity="1.00" d=" M 31.66 50.77 C 38.52 47.21 45.21 43.36 51.90 39.49 C 57.69 42.43 63.65 46.19 66.62 52.19 C 66.17 54.76 64.88 57.07 63.80 59.41 C 65.32 60.93 66.83 62.45 68.34 63.98 C 67.08 64.69 65.81 65.39 64.55 66.10 C 53.92 60.80 42.50 57.33 31.56 52.75 C 31.58 52.26 31.63 51.26 31.66 50.77 Z" />
<path fill="#b0b0b0" opacity="1.00" d=" M 98.35 109.85 C 100.11 108.22 101.71 106.22 104.01 105.33 C 105.59 105.50 107.12 105.96 108.65 106.34 C 105.15 108.65 101.55 110.81 97.98 113.01 C 98.31 114.08 98.63 115.15 98.96 116.22 C 98.63 116.41 97.96 116.79 97.62 116.98 C 96.87 113.67 95.97 110.40 94.67 107.27 C 93.21 111.08 93.83 115.15 94.42 119.07 C 93.25 119.71 92.09 120.34 90.92 120.97 C 90.34 117.49 89.58 114.04 88.51 110.67 C 87.48 112.72 86.58 114.90 86.70 117.25 C 86.24 115.34 85.81 113.44 85.38 111.53 C 88.72 109.58 92.06 107.62 95.45 105.77 C 96.41 107.13 97.38 108.49 98.35 109.85 Z" />
</g>
<g id="#d4d4d4ff">
<path fill="#d4d4d4" opacity="1.00" d=" M 130.25 45.98 C 130.80 46.14 131.91 46.46 132.46 46.62 C 132.39 48.12 132.32 49.61 132.26 51.11 C 124.05 56.35 115.42 60.88 107.18 66.07 C 108.84 67.31 110.52 68.55 112.07 69.94 C 112.22 70.35 112.52 71.16 112.67 71.57 C 110.86 71.39 109.07 71.10 107.33 70.55 C 106.96 70.43 106.22 70.18 105.84 70.06 C 104.42 69.49 103.01 68.87 101.60 68.27 C 100.88 64.93 100.13 61.60 99.57 58.23 C 99.66 56.60 99.81 54.97 99.96 53.35 C 109.59 52.78 119.26 52.26 128.73 50.30 C 128.60 49.77 128.33 48.71 128.20 48.18 C 128.88 47.45 129.57 46.72 130.25 45.98 Z" />
</g>
<g id="#717171ff">
<path fill="#717171" opacity="1.00" d=" M 96.75 47.14 L 97.36 46.52 C 97.49 47.05 97.74 48.12 97.86 48.65 C 98.42 51.84 98.96 55.04 99.57 58.23 C 100.13 61.60 100.88 64.93 101.60 68.27 C 103.01 68.87 104.42 69.49 105.84 70.06 C 104.57 70.58 103.33 71.17 102.12 71.81 C 102.79 80.70 105.39 89.30 106.22 98.17 C 105.61 99.11 105.00 100.05 104.34 100.95 C 105.01 96.77 104.68 92.50 103.73 88.39 C 101.15 76.68 99.81 64.74 96.92 53.10 C 96.78 51.12 96.75 49.13 96.75 47.14 Z" />
<path fill="#717171" opacity="1.00" d=" M 82.54 65.32 L 82.69 66.14 C 82.76 66.58 82.92 67.47 82.99 67.92 C 82.45 72.82 80.75 77.58 80.84 82.54 C 80.74 84.16 82.69 84.65 83.65 85.59 C 83.08 89.68 83.37 93.82 83.67 97.91 C 75.02 103.38 66.35 108.93 57.00 113.16 C 55.94 105.43 55.57 97.63 55.06 89.85 C 56.01 92.32 57.14 94.71 58.25 97.12 C 58.15 98.90 58.07 100.68 57.99 102.47 C 62.26 101.24 65.87 98.63 68.86 95.40 C 67.82 94.53 66.78 93.66 65.74 92.80 C 68.83 90.87 71.61 88.43 73.77 85.49 C 67.93 82.50 61.52 80.90 55.29 78.93 C 55.06 81.36 54.81 83.79 54.69 86.23 C 54.49 84.22 54.24 82.22 53.98 80.22 C 53.87 78.87 53.78 77.51 53.70 76.16 C 59.16 73.03 64.68 69.99 70.28 67.12 C 73.44 69.78 77.33 71.26 81.35 72.01 C 81.81 69.79 82.26 67.57 82.54 65.32 M 75.67 86.73 C 73.30 87.98 71.63 90.16 69.90 92.14 C 74.73 93.16 78.30 89.44 81.23 86.20 C 79.37 86.32 77.46 86.17 75.67 86.73 Z" />
</g>
<g id="#bababaff">
<path fill="#bababa" opacity="1.00" d=" M 99.93 51.38 C 109.34 50.16 118.78 49.28 128.20 48.18 C 128.33 48.71 128.60 49.77 128.73 50.30 C 119.26 52.26 109.59 52.78 99.96 53.35 C 99.81 54.97 99.66 56.60 99.57 58.23 C 98.96 55.04 98.42 51.84 97.86 48.65 C 98.54 49.57 99.23 50.48 99.93 51.38 Z" />
</g>
<g id="#4f4f4fff">
<path fill="#4f4f4f" opacity="1.00" d=" M 132.26 51.11 C 135.58 48.93 139.60 48.69 143.44 48.46 C 143.43 48.98 143.42 50.02 143.41 50.54 C 142.77 50.54 141.49 50.55 140.85 50.56 C 140.94 51.72 141.04 52.88 141.16 54.05 C 140.54 52.82 139.87 51.61 139.21 50.41 C 135.53 53.33 131.77 56.15 128.06 59.04 C 122.93 62.94 118.23 67.66 112.07 69.94 C 110.52 68.55 108.84 67.31 107.18 66.07 C 115.42 60.88 124.05 56.35 132.26 51.11 Z" />
</g>
<g id="#272727ff">
<path fill="#272727" opacity="1.00" d=" M 140.85 50.56 C 141.49 50.55 142.77 50.54 143.41 50.54 C 143.48 50.93 143.64 51.71 143.72 52.11 C 148.98 73.16 155.66 93.85 160.93 114.90 C 159.64 114.61 158.34 114.32 157.06 114.01 C 156.01 109.54 154.82 105.10 153.51 100.70 C 152.69 97.93 151.90 95.16 151.16 92.37 C 149.75 86.88 148.32 81.40 146.74 75.96 C 144.46 68.76 142.88 61.39 141.16 54.05 C 141.04 52.88 140.94 51.72 140.85 50.56 Z" />
</g>
<g id="#878787ff">
<path fill="#878787" opacity="1.00" d=" M 26.90 53.21 C 28.49 52.40 30.08 51.59 31.66 50.77 C 31.63 51.26 31.58 52.26 31.56 52.75 C 42.50 57.33 53.92 60.80 64.55 66.10 C 60.66 68.30 56.85 70.64 52.99 72.90 C 46.93 68.03 41.11 62.86 35.28 57.71 C 33.10 55.61 30.27 54.50 27.30 54.07 C 28.14 55.82 28.98 57.57 29.91 59.27 C 29.54 59.06 28.81 58.65 28.45 58.45 C 31.47 65.23 35.19 71.68 38.13 78.51 C 38.07 78.97 37.95 79.87 37.89 80.33 C 34.21 75.18 31.51 69.47 28.57 63.90 C 28.07 66.09 27.74 68.33 27.60 70.58 L 27.52 71.51 L 27.38 70.47 C 26.62 64.75 26.77 58.96 26.90 53.21 Z" />
</g>
<g id="#b7b7b7ff">
<path fill="#b7b7b7" opacity="1.00" d=" M 128.06 59.04 C 131.77 56.15 135.53 53.33 139.21 50.41 C 139.87 51.61 140.54 52.82 141.16 54.05 C 142.88 61.39 144.46 68.76 146.74 75.96 C 144.89 78.38 142.68 80.58 141.29 83.31 C 141.30 88.07 143.12 92.60 143.87 97.27 C 146.18 95.47 148.62 93.84 151.16 92.37 C 151.90 95.16 152.69 97.93 153.51 100.70 C 153.04 102.24 152.56 103.78 152.09 105.33 C 149.75 104.35 147.55 103.06 145.63 101.39 C 145.91 103.59 146.12 105.81 146.31 108.02 C 144.73 105.65 143.16 103.28 141.60 100.90 C 140.53 103.33 139.46 105.77 138.40 108.21 C 130.71 106.06 123.28 103.14 115.85 100.23 C 116.59 100.05 118.07 99.70 118.81 99.53 C 116.66 90.23 115.39 80.72 112.67 71.57 C 112.52 71.16 112.22 70.35 112.07 69.94 C 118.23 67.66 122.93 62.94 128.06 59.04 Z" />
</g>
<g id="#1f1f1fff">
<path fill="#1f1f1f" opacity="1.00" d=" M 24.37 63.27 C 24.35 59.22 23.93 55.14 24.66 51.13 C 25.89 57.54 25.33 64.20 27.38 70.47 L 27.52 71.51 C 27.31 80.44 27.44 89.39 28.17 98.29 C 28.72 109.79 28.24 121.33 29.28 132.80 C 29.48 136.02 28.17 138.98 26.83 141.83 C 25.97 124.23 25.49 106.61 25.21 88.99 C 24.46 80.44 24.60 71.84 24.37 63.27 Z" />
</g>
<g id="#ccccccff">
<path fill="#cccccc" opacity="1.00" d=" M 143.72 52.11 C 144.73 53.94 145.70 55.82 146.30 57.84 C 150.62 73.72 155.16 89.55 159.73 105.37 C 160.79 109.22 162.34 112.99 162.70 117.00 C 162.96 118.36 161.65 119.69 160.32 119.63 C 158.57 119.04 156.86 118.32 155.16 117.63 C 150.70 115.78 146.14 114.09 141.36 113.30 C 135.59 111.27 129.74 109.44 124.07 107.12 C 120.14 104.92 115.88 103.44 111.58 102.15 C 109.51 101.60 108.24 99.78 106.77 98.37 C 109.82 98.85 112.90 99.27 115.85 100.23 C 123.28 103.14 130.71 106.06 138.40 108.21 C 144.65 110.03 150.74 112.41 157.06 114.01 C 158.34 114.32 159.64 114.61 160.93 114.90 C 155.66 93.85 148.98 73.16 143.72 52.11 Z" />
</g>
<g id="#0d0d0dff">
<path fill="#0d0d0d" opacity="1.00" d=" M 83.07 58.51 C 85.26 64.79 85.82 71.45 86.77 77.99 C 87.04 79.73 87.33 81.46 87.63 83.19 C 88.28 87.00 88.89 90.81 89.48 94.62 C 91.03 94.75 92.58 94.88 94.13 95.02 C 94.82 95.07 96.20 95.19 96.89 95.25 C 98.45 95.54 99.99 95.89 101.53 96.24 C 101.91 97.06 102.29 97.89 102.67 98.72 C 94.43 102.76 86.08 106.57 78.16 111.20 C 74.73 113.32 70.62 112.77 66.84 112.34 C 72.33 108.63 77.88 105.00 83.48 101.47 C 88.66 97.75 95.36 101.27 100.86 98.34 C 96.78 97.18 92.58 96.59 88.37 96.21 C 87.31 90.11 86.25 84.01 85.25 77.90 C 84.73 74.52 83.87 71.22 82.99 67.92 C 82.92 67.47 82.76 66.58 82.69 66.14 C 82.62 63.59 82.91 61.05 83.07 58.51 Z" />
</g>
<g id="#676767ff">
<path fill="#676767" opacity="1.00" d=" M 85.79 59.50 C 88.91 60.37 92.17 60.53 95.39 60.13 C 96.13 63.99 96.75 67.88 97.31 71.77 C 94.68 73.34 92.06 74.90 89.43 76.47 C 87.67 70.95 86.55 65.24 85.79 59.50 Z" />
</g>
<g id="#888888ff">
<path fill="#888888" opacity="1.00" d=" M 70.28 67.12 C 74.02 65.07 77.75 63.03 81.54 61.07 C 81.91 62.47 82.31 63.88 82.54 65.32 C 82.26 67.57 81.81 69.79 81.35 72.01 C 77.33 71.26 73.44 69.78 70.28 67.12 Z" />
</g>
<g id="#adadadff">
<path fill="#adadad" opacity="1.00" d=" M 28.57 63.90 C 31.51 69.47 34.21 75.18 37.89 80.33 C 37.77 85.49 33.63 88.84 29.60 91.31 C 29.27 84.37 29.44 77.34 27.60 70.58 C 27.74 68.33 28.07 66.09 28.57 63.90 Z" />
<path fill="#adadad" opacity="1.00" d=" M 138.40 108.21 C 139.46 105.77 140.53 103.33 141.60 100.90 C 143.16 103.28 144.73 105.65 146.31 108.02 C 146.12 105.81 145.91 103.59 145.63 101.39 C 147.55 103.06 149.75 104.35 152.09 105.33 C 152.56 103.78 153.04 102.24 153.51 100.70 C 154.82 105.10 156.01 109.54 157.06 114.01 C 150.74 112.41 144.65 110.03 138.40 108.21 Z" />
</g>
<g id="#4a4a4aff">
<path fill="#4a4a4a" opacity="1.00" d=" M 82.99 67.92 C 83.87 71.22 84.73 74.52 85.25 77.90 C 84.80 80.48 84.15 83.02 83.65 85.59 C 82.69 84.65 80.74 84.16 80.84 82.54 C 80.75 77.58 82.45 72.82 82.99 67.92 Z" />
</g>
<g id="#343434ff">
<path fill="#343434" opacity="1.00" d=" M 102.12 71.81 C 103.33 71.17 104.57 70.58 105.84 70.06 C 106.22 70.18 106.96 70.43 107.33 70.55 C 107.36 71.28 107.41 72.75 107.43 73.49 C 105.84 73.19 104.25 72.91 102.67 72.57 L 102.12 71.81 Z" />
</g>
<g id="#929292ff">
<path fill="#929292" opacity="1.00" d=" M 27.52 71.51 L 27.60 70.58 C 29.44 77.34 29.27 84.37 29.60 91.31 C 33.63 88.84 37.77 85.49 37.89 80.33 C 37.95 79.87 38.07 78.97 38.13 78.51 C 39.49 81.18 41.31 83.78 41.53 86.86 C 41.92 91.88 41.46 96.92 41.86 101.93 C 42.46 110.03 43.01 118.14 42.89 126.26 C 38.53 130.48 33.79 134.28 29.67 138.75 C 29.53 136.76 29.40 134.78 29.28 132.80 C 28.24 121.33 28.72 109.79 28.17 98.29 C 27.44 89.39 27.31 80.44 27.52 71.51 M 30.34 97.54 C 31.48 107.69 30.86 117.93 31.93 128.08 C 34.92 126.63 38.73 125.61 40.29 122.36 C 40.68 119.22 39.83 116.11 39.54 112.99 C 38.71 104.58 39.49 96.08 38.21 87.70 C 34.87 90.11 29.44 92.54 30.34 97.54 Z" />
</g>
<g id="#434343ff">
<path fill="#434343" opacity="1.00" d=" M 107.33 70.55 C 109.07 71.10 110.86 71.39 112.67 71.57 C 115.39 80.72 116.66 90.23 118.81 99.53 C 118.07 99.70 116.59 100.05 115.85 100.23 C 113.82 91.32 112.21 82.32 110.47 73.35 C 108.47 74.19 106.48 75.03 104.49 75.88 C 103.89 74.77 103.29 73.67 102.67 72.57 C 104.25 72.91 105.84 73.19 107.43 73.49 C 107.41 72.75 107.36 71.28 107.33 70.55 Z" />
</g>
<g id="#aeaeaeff">
<path fill="#aeaeae" opacity="1.00" d=" M 106.22 98.17 C 105.39 89.30 102.79 80.70 102.12 71.81 L 102.67 72.57 C 103.29 73.67 103.89 74.77 104.49 75.88 C 106.48 75.03 108.47 74.19 110.47 73.35 C 112.21 82.32 113.82 91.32 115.85 100.23 C 112.90 99.27 109.82 98.85 106.77 98.37 L 106.22 98.17 Z" />
</g>
<g id="#a8a8a8ff">
<path fill="#a8a8a8" opacity="1.00" d=" M 146.74 75.96 C 148.32 81.40 149.75 86.88 151.16 92.37 C 148.62 93.84 146.18 95.47 143.87 97.27 C 143.12 92.60 141.30 88.07 141.29 83.31 C 142.68 80.58 144.89 78.38 146.74 75.96 Z" />
</g>
<g id="#858585ff">
<path fill="#858585" opacity="1.00" d=" M 55.29 78.93 C 61.52 80.90 67.93 82.50 73.77 85.49 C 71.61 88.43 68.83 90.87 65.74 92.80 C 63.29 94.32 60.77 95.72 58.25 97.12 C 57.14 94.71 56.01 92.32 55.06 89.85 C 54.92 88.65 54.79 87.44 54.69 86.23 C 54.81 83.79 55.06 81.36 55.29 78.93 Z" />
</g>
<g id="#626262ff">
<path fill="#626262" opacity="1.00" d=" M 91.90 82.49 C 94.30 81.95 96.65 81.18 98.99 80.41 C 99.90 85.33 100.79 90.25 101.67 95.17 C 100.07 95.21 98.48 95.26 96.89 95.25 C 96.20 95.19 94.82 95.07 94.13 95.02 C 93.45 90.83 92.68 86.66 91.90 82.49 Z" />
</g>
<g id="#313131ff">
<path fill="#313131" opacity="1.00" d=" M 87.63 83.19 C 89.05 82.98 90.48 82.77 91.90 82.49 C 92.68 86.66 93.45 90.83 94.13 95.02 C 92.58 94.88 91.03 94.75 89.48 94.62 C 88.89 90.81 88.28 87.00 87.63 83.19 Z" />
</g>
<g id="#4d4d4dff">
<path fill="#4d4d4d" opacity="1.00" d=" M 75.67 86.73 C 77.46 86.17 79.37 86.32 81.23 86.20 C 78.30 89.44 74.73 93.16 69.90 92.14 C 71.63 90.16 73.30 87.98 75.67 86.73 Z" />
</g>
<g id="#b3b3b3ff">
<path fill="#b3b3b3" opacity="1.00" d=" M 30.34 97.54 C 29.44 92.54 34.87 90.11 38.21 87.70 C 39.49 96.08 38.71 104.58 39.54 112.99 C 39.83 116.11 40.68 119.22 40.29 122.36 C 38.73 125.61 34.92 126.63 31.93 128.08 C 30.86 117.93 31.48 107.69 30.34 97.54 Z" />
</g>
<g id="#575757ff">
<path fill="#575757" opacity="1.00" d=" M 58.25 97.12 C 60.77 95.72 63.29 94.32 65.74 92.80 C 66.78 93.66 67.82 94.53 68.86 95.40 C 65.87 98.63 62.26 101.24 57.99 102.47 C 58.07 100.68 58.15 98.90 58.25 97.12 Z" />
<path fill="#575757" opacity="1.00" d=" M 119.35 107.76 C 120.92 107.51 122.49 107.30 124.07 107.12 C 129.74 109.44 135.59 111.27 141.36 113.30 C 140.90 113.35 139.99 113.44 139.53 113.48 C 132.62 112.39 125.57 111.13 119.35 107.76 Z" />
</g>
<g id="#909090ff">
<path fill="#909090" opacity="1.00" d=" M 52.57 96.89 C 53.00 102.59 53.98 108.27 53.85 114.00 C 53.99 116.23 52.11 117.76 50.76 119.27 C 49.17 120.48 47.61 121.74 46.15 123.10 C 45.44 116.51 45.33 109.87 45.67 103.25 C 47.22 102.73 49.01 102.58 50.31 101.53 C 51.35 100.14 51.95 98.49 52.57 96.89 Z" />
</g>
<g id="#bbbbbbff">
<path fill="#bbbbbb" opacity="1.00" d=" M 106.22 98.17 L 106.77 98.37 C 108.24 99.78 109.51 101.60 111.58 102.15 C 115.88 103.44 120.14 104.92 124.07 107.12 C 122.49 107.30 120.92 107.51 119.35 107.76 C 125.57 111.13 132.62 112.39 139.53 113.48 C 141.19 114.14 142.84 114.86 144.49 115.55 C 144.98 117.80 145.48 120.05 146.01 122.30 C 132.40 130.96 118.21 138.71 104.75 147.58 C 104.40 147.13 103.71 146.24 103.37 145.80 C 107.68 141.54 111.13 136.56 114.88 131.83 C 117.54 128.36 122.47 129.08 125.98 127.04 C 131.92 123.60 138.27 120.61 143.26 115.79 C 134.85 117.79 128.50 124.09 120.50 127.07 C 119.51 122.12 118.33 117.21 117.06 112.32 C 115.62 112.42 114.18 112.52 112.74 112.67 C 114.69 111.44 116.53 110.05 118.36 108.65 C 115.98 108.48 113.38 107.75 111.22 109.13 C 107.04 111.33 103.10 113.95 98.96 116.22 C 98.63 115.15 98.31 114.08 97.98 113.01 C 101.55 110.81 105.15 108.65 108.65 106.34 C 107.12 105.96 105.59 105.50 104.01 105.33 C 101.71 106.22 100.11 108.22 98.35 109.85 C 97.38 108.49 96.41 107.13 95.45 105.77 C 98.40 104.15 101.42 102.64 104.34 100.95 C 105.00 100.05 105.61 99.11 106.22 98.17 Z" />
</g>
<g id="#4c4c4cff">
<path fill="#4c4c4c" opacity="1.00" d=" M 94.42 119.07 C 93.83 115.15 93.21 111.08 94.67 107.27 C 95.97 110.40 96.87 113.67 97.62 116.98 C 97.96 116.79 98.63 116.41 98.96 116.22 C 103.10 113.95 107.04 111.33 111.22 109.13 C 113.38 107.75 115.98 108.48 118.36 108.65 C 116.53 110.05 114.69 111.44 112.74 112.67 C 107.78 115.23 102.98 118.07 98.13 120.82 C 97.00 121.44 95.88 122.05 94.73 122.62 C 94.08 122.90 92.78 123.45 92.13 123.72 C 91.54 123.68 90.36 123.58 89.76 123.54 C 89.44 123.50 88.81 123.42 88.49 123.39 C 87.84 121.36 87.20 119.32 86.70 117.25 C 86.58 114.90 87.48 112.72 88.51 110.67 C 89.58 114.04 90.34 117.49 90.92 120.97 C 92.09 120.34 93.25 119.71 94.42 119.07 Z" />
</g>
<g id="#c1c1c1ff">
<path fill="#c1c1c1" opacity="1.00" d=" M 82.30 113.27 C 83.33 112.70 84.36 112.12 85.38 111.53 C 85.81 113.44 86.24 115.34 86.70 117.25 C 87.20 119.32 87.84 121.36 88.49 123.39 C 85.44 122.99 82.42 122.46 79.39 121.92 C 79.83 122.58 80.27 123.24 80.70 123.90 C 79.17 123.99 77.64 124.08 76.11 124.17 C 81.89 129.96 87.27 136.49 94.63 140.34 C 95.72 142.96 96.67 145.65 97.60 148.34 C 96.74 148.29 95.01 148.20 94.15 148.15 C 89.38 142.81 83.32 138.77 78.96 133.05 C 75.73 128.88 71.80 125.34 67.76 121.99 C 72.64 119.13 77.52 116.28 82.30 113.27 Z" />
</g>
<g id="#c7c7c7ff">
<path fill="#c7c7c7" opacity="1.00" d=" M 112.74 112.67 C 114.18 112.52 115.62 112.42 117.06 112.32 C 118.33 117.21 119.51 122.12 120.50 127.07 C 128.50 124.09 134.85 117.79 143.26 115.79 C 138.27 120.61 131.92 123.60 125.98 127.04 C 122.47 129.08 117.54 128.36 114.88 131.83 C 111.13 136.56 107.68 141.54 103.37 145.80 C 100.69 137.69 100.64 128.99 98.13 120.82 C 102.98 118.07 107.78 115.23 112.74 112.67 Z" />
</g>
<g id="#3d3d3dff">
<path fill="#3d3d3d" opacity="1.00" d=" M 64.75 121.69 C 70.58 118.85 75.88 114.85 82.30 113.27 C 77.52 116.28 72.64 119.13 67.76 121.99 C 62.10 125.30 56.46 128.63 50.73 131.81 C 46.66 134.08 42.58 136.34 38.46 138.52 C 36.59 139.52 34.75 140.59 33.00 141.79 C 31.74 142.68 30.53 143.62 29.32 144.57 C 28.65 144.54 27.32 144.49 26.66 144.47 C 26.65 143.58 26.71 142.70 26.83 141.83 C 28.17 138.98 29.48 136.02 29.28 132.80 C 29.40 134.78 29.53 136.76 29.67 138.75 C 33.79 134.28 38.53 130.48 42.89 126.26 C 43.98 125.20 45.05 124.13 46.15 123.10 C 47.61 121.74 49.17 120.48 50.76 119.27 C 51.17 119.43 52.00 119.73 52.41 119.89 C 47.91 124.07 43.15 128.04 39.39 132.94 C 46.73 129.92 53.75 125.90 59.46 120.32 C 60.95 121.51 62.83 122.91 64.75 121.69 Z" />
<path fill="#3d3d3d" opacity="1.00" d=" M 96.56 122.36 C 99.62 128.66 99.53 135.75 100.19 142.56 C 97.31 137.57 96.61 131.82 95.67 126.25 C 95.89 125.28 96.34 123.33 96.56 122.36 Z" />
</g>
<g id="#979797ff">
<path fill="#979797" opacity="1.00" d=" M 141.36 113.30 C 146.14 114.09 150.70 115.78 155.16 117.63 C 152.03 119.03 148.93 120.51 146.01 122.30 C 145.48 120.05 144.98 117.80 144.49 115.55 C 142.84 114.86 141.19 114.14 139.53 113.48 C 139.99 113.44 140.90 113.35 141.36 113.30 Z" />
</g>
<g id="#545454ff">
<path fill="#545454" opacity="1.00" d=" M 52.41 119.89 C 53.50 118.89 54.59 117.89 55.68 116.90 C 56.93 118.05 58.17 119.21 59.46 120.32 C 53.75 125.90 46.73 129.92 39.39 132.94 C 43.15 128.04 47.91 124.07 52.41 119.89 Z" />
</g>
<g id="#5c5c5cff">
<path fill="#5c5c5c" opacity="1.00" d=" M 146.01 122.30 C 148.93 120.51 152.03 119.03 155.16 117.63 C 156.86 118.32 158.57 119.04 160.32 119.63 C 146.10 127.56 132.18 135.99 118.02 144.02 C 113.63 146.63 109.08 148.98 104.93 151.97 C 103.79 151.62 102.65 151.28 101.50 150.94 C 102.56 149.80 103.61 148.64 104.75 147.58 C 118.21 138.71 132.40 130.96 146.01 122.30 Z" />
</g>
<g id="#dededeff">
<path fill="#dedede" opacity="1.00" d=" M 50.73 131.81 C 56.46 128.63 62.10 125.30 67.76 121.99 C 71.80 125.34 75.73 128.88 78.96 133.05 C 83.32 138.77 89.38 142.81 94.15 148.15 C 76.10 146.42 58.18 143.58 40.22 141.16 C 41.57 140.16 42.88 139.07 44.37 138.30 C 48.24 138.45 52.13 140.71 55.97 139.15 C 61.65 137.06 67.36 135.01 72.84 132.43 C 70.65 132.02 68.33 131.11 66.15 132.07 C 61.29 133.84 56.49 135.80 51.43 136.94 C 51.20 135.23 50.96 133.52 50.73 131.81 Z" />
</g>
<g id="#d8d8d8ff">
<path fill="#d8d8d8" opacity="1.00" d=" M 79.39 121.92 C 82.42 122.46 85.44 122.99 88.49 123.39 C 88.81 123.42 89.44 123.50 89.76 123.54 C 88.70 129.67 92.60 134.88 94.63 140.34 C 87.27 136.49 81.89 129.96 76.11 124.17 C 77.64 124.08 79.17 123.99 80.70 123.90 C 80.27 123.24 79.83 122.58 79.39 121.92 Z" />
</g>
<g id="#c8c8c8ff">
<path fill="#c8c8c8" opacity="1.00" d=" M 92.13 123.72 C 92.78 123.45 94.08 122.90 94.73 122.62 C 95.06 123.83 95.37 125.03 95.67 126.25 C 96.61 131.82 97.31 137.57 100.19 142.56 C 100.71 144.62 101.19 146.69 101.62 148.77 C 98.17 143.11 95.64 136.95 93.06 130.86 C 92.03 128.62 92.03 126.13 92.13 123.72 Z" />
<path fill="#c8c8c8" opacity="1.00" d=" M 66.15 132.07 C 68.33 131.11 70.65 132.02 72.84 132.43 C 67.36 135.01 61.65 137.06 55.97 139.15 C 52.13 140.71 48.24 138.45 44.37 138.30 C 42.88 139.07 41.57 140.16 40.22 141.16 C 39.69 141.09 38.61 140.94 38.08 140.87 C 38.17 140.28 38.36 139.11 38.46 138.52 C 42.58 136.34 46.66 134.08 50.73 131.81 C 50.96 133.52 51.20 135.23 51.43 136.94 C 56.49 135.80 61.29 133.84 66.15 132.07 Z" />
</g>
<g id="#cbcbcbff">
<path fill="#cbcbcb" opacity="1.00" d=" M 29.32 144.57 C 30.53 143.62 31.74 142.68 33.00 141.79 C 48.31 143.96 63.68 145.68 79.02 147.70 C 86.51 148.74 94.17 148.92 101.50 150.94 C 102.65 151.28 103.79 151.62 104.93 151.97 C 102.10 154.37 98.30 153.32 94.98 153.02 C 79.20 151.02 63.38 149.43 47.60 147.45 C 41.48 146.66 35.21 146.57 29.32 144.57 Z" />
</g>
</svg>
