<?xml version="1.0" encoding="UTF-8" ?>
<!DOCTYPE svg PUBLIC "-//W3C//DTD SVG 1.1//EN" "http://www.w3.org/Graphics/SVG/1.1/DTD/svg11.dtd">
<svg width="180pt" height="180pt" viewBox="0 0 180 180" version="1.1" xmlns="http://www.w3.org/2000/svg">
<g id="#ffffffff">
</g>
<g id="#3c3c3cff">
<path fill="#3c3c3c" opacity="1.00" d=" M 84.01 15.01 C 86.32 13.49 88.65 11.70 91.53 11.64 L 91.66 12.89 C 92.17 18.36 92.82 23.82 93.68 29.25 C 94.57 36.28 95.37 43.33 96.37 50.35 C 96.60 52.16 96.82 53.97 97.09 55.78 C 97.62 69.66 101.02 83.28 101.27 97.16 C 98.63 98.87 95.87 100.40 93.13 101.94 C 85.46 106.50 77.18 110.19 70.27 115.92 C 74.07 117.48 78.00 118.68 81.90 119.97 C 77.96 119.09 74.22 117.58 70.37 116.40 C 67.96 115.57 65.87 117.66 63.77 118.54 C 62.45 119.25 61.10 119.91 59.76 120.57 C 59.90 120.82 60.05 121.08 60.20 121.33 C 55.88 122.86 51.91 125.16 47.97 127.47 C 43.52 129.88 39.05 132.28 34.55 134.59 C 32.23 135.78 30.00 137.14 27.73 138.40 C 26.35 139.04 24.97 139.66 23.58 140.28 C 23.62 139.60 23.72 138.26 23.76 137.59 C 24.97 135.59 26.39 133.54 26.26 131.08 C 26.47 124.62 25.82 118.11 27.09 111.72 C 27.14 119.11 26.44 126.49 26.70 133.88 C 30.65 131.08 34.61 128.30 38.41 125.29 C 43.64 121.08 49.03 117.06 54.32 112.92 C 54.35 111.64 54.36 110.36 54.37 109.09 C 54.35 106.75 54.24 104.41 54.11 102.08 C 53.18 93.37 54.31 84.51 53.03 75.87 C 47.91 71.13 42.03 67.17 36.30 63.17 C 33.93 61.13 31.62 59.02 29.23 57.01 C 28.59 64.42 28.51 71.86 28.81 79.29 C 28.65 81.77 28.53 84.25 28.43 86.72 C 28.14 89.57 27.65 92.40 27.43 95.26 C 27.20 89.70 26.80 84.14 25.69 78.69 C 25.24 70.23 26.18 61.75 26.40 53.29 C 45.48 40.35 64.85 27.83 84.01 15.01 M 61.05 34.03 C 58.59 35.51 56.24 37.16 53.97 38.92 C 45.98 44.07 37.95 49.18 30.03 54.44 C 31.27 54.59 32.50 54.78 33.72 55.01 C 37.59 59.39 43.07 61.75 47.35 65.63 C 50.00 67.96 52.84 70.06 55.84 71.91 C 58.09 70.22 60.44 68.66 62.86 67.24 C 69.17 63.70 75.05 59.49 81.28 55.83 C 84.37 54.46 83.77 50.74 84.17 47.96 C 84.73 37.85 86.58 27.83 86.84 17.69 C 77.99 22.72 69.76 28.76 61.05 34.03 M 87.24 55.69 C 86.69 55.61 85.59 55.44 85.04 55.35 C 84.55 55.90 84.06 56.45 83.57 57.00 C 84.34 59.60 84.88 62.26 84.93 64.98 L 83.90 64.92 C 83.78 63.20 83.54 61.49 83.27 59.80 C 78.08 63.09 72.37 65.49 67.41 69.13 C 63.73 70.77 60.00 72.52 56.97 75.24 C 56.46 77.04 56.73 78.94 56.74 80.78 L 56.91 81.65 C 56.54 88.84 57.29 96.01 57.12 103.20 C 56.47 102.25 55.79 101.32 55.07 100.42 C 53.98 106.39 54.62 112.55 57.78 117.81 C 67.69 112.60 77.83 107.87 87.76 102.69 C 91.92 100.37 95.98 97.88 100.36 96.00 C 99.00 82.30 96.30 68.78 94.63 55.13 C 94.16 55.39 93.22 55.92 92.75 56.18 C 91.62 48.76 91.24 41.21 89.45 33.90 C 87.79 41.00 87.13 48.42 87.24 55.69 Z" />
</g>
<g id="#b9b9b9ff">
<path fill="#b9b9b9" opacity="1.00" d=" M 91.66 12.89 C 97.48 16.06 102.56 20.34 108.08 23.96 C 117.02 29.96 125.58 36.51 134.46 42.60 C 138.18 45.31 142.32 47.59 145.25 51.23 C 142.70 51.44 140.14 51.47 137.60 51.75 C 134.87 47.62 129.69 46.84 125.46 45.00 C 125.85 44.20 126.25 43.41 126.65 42.61 C 120.01 36.95 111.95 33.34 105.11 27.97 C 101.92 25.46 98.63 22.87 94.57 21.98 C 94.22 24.39 93.88 26.81 93.68 29.25 C 92.82 23.82 92.17 18.36 91.66 12.89 Z" />
</g>
<g id="#939393ff">
<path fill="#939393" opacity="1.00" d=" M 61.05 34.03 C 69.76 28.76 77.99 22.72 86.84 17.69 C 86.58 27.83 84.73 37.85 84.17 47.96 C 83.77 50.74 84.37 54.46 81.28 55.83 C 78.14 53.87 74.92 52.06 71.62 50.38 C 71.53 49.76 71.37 48.50 71.28 47.88 C 74.96 49.97 78.79 51.79 82.77 53.23 C 83.20 43.92 85.07 34.25 82.35 25.13 C 73.92 30.33 65.71 35.88 57.18 40.91 C 56.11 40.25 55.04 39.58 53.97 38.92 C 56.24 37.16 58.59 35.51 61.05 34.03 Z" />
</g>
<g id="#d2d2d2ff">
<path fill="#d2d2d2" opacity="1.00" d=" M 94.57 21.98 C 98.63 22.87 101.92 25.46 105.11 27.97 C 111.95 33.34 120.01 36.95 126.65 42.61 C 126.25 43.41 125.85 44.20 125.46 45.00 C 129.69 46.84 134.87 47.62 137.60 51.75 C 136.98 52.10 135.75 52.81 135.13 53.17 C 134.89 52.90 134.40 52.36 134.15 52.09 C 134.17 51.56 134.21 50.51 134.23 49.98 C 128.52 47.61 122.69 45.53 117.02 43.06 C 114.63 42.23 111.75 40.66 109.39 42.41 C 105.04 45.04 100.90 48.02 96.37 50.35 C 95.37 43.33 94.57 36.28 93.68 29.25 C 93.88 26.81 94.22 24.39 94.57 21.98 Z" />
</g>
<g id="#a7a7a7ff">
<path fill="#a7a7a7" opacity="1.00" d=" M 57.18 40.91 C 65.71 35.88 73.92 30.33 82.35 25.13 C 85.07 34.25 83.20 43.92 82.77 53.23 C 78.79 51.79 74.96 49.97 71.28 47.88 C 71.37 48.50 71.53 49.76 71.62 50.38 C 66.95 48.14 62.62 45.22 57.86 43.17 C 54.48 41.62 50.79 43.32 47.77 44.91 C 43.31 47.56 39.03 50.50 34.46 52.97 C 34.49 53.53 34.55 54.65 34.58 55.20 L 33.72 55.01 C 32.50 54.78 31.27 54.59 30.03 54.44 C 37.95 49.18 45.98 44.07 53.97 38.92 C 55.04 39.58 56.11 40.25 57.18 40.91 Z" />
</g>
<g id="#818181ff">
<path fill="#818181" opacity="1.00" d=" M 87.24 55.69 C 87.13 48.42 87.79 41.00 89.45 33.90 C 91.24 41.21 91.62 48.76 92.75 56.18 C 93.45 63.39 94.88 70.53 94.92 77.80 C 93.27 78.25 91.62 78.71 89.97 79.15 C 89.53 75.51 89.43 71.85 89.42 68.19 C 89.38 63.93 87.91 59.87 87.24 55.69 Z" />
<path fill="#818181" opacity="1.00" d=" M 56.91 81.65 C 57.90 86.82 58.21 92.18 60.31 97.07 C 63.17 96.40 66.03 95.52 68.53 93.91 C 68.88 94.55 69.58 95.83 69.93 96.47 C 74.45 93.67 78.93 90.72 83.92 88.79 C 84.08 90.92 84.24 93.06 84.41 95.19 C 75.50 100.59 66.60 106.03 57.42 110.95 C 57.32 108.37 57.25 105.78 57.12 103.20 C 57.29 96.01 56.54 88.84 56.91 81.65 Z" />
</g>
<g id="#e0e0e0ff">
<path fill="#e0e0e0" opacity="1.00" d=" M 109.39 42.41 C 111.75 40.66 114.63 42.23 117.02 43.06 C 122.69 45.53 128.52 47.61 134.23 49.98 C 134.21 50.51 134.17 51.56 134.15 52.09 C 122.29 53.98 110.90 58.11 99.07 60.22 C 98.39 58.75 97.71 57.28 97.09 55.78 C 96.82 53.97 96.60 52.16 96.37 50.35 C 100.90 48.02 105.04 45.04 109.39 42.41 Z" />
</g>
<g id="#b8b8b8ff">
<path fill="#b8b8b8" opacity="1.00" d=" M 47.77 44.91 C 50.79 43.32 54.48 41.62 57.86 43.17 C 62.62 45.22 66.95 48.14 71.62 50.38 C 74.92 52.06 78.14 53.87 81.28 55.83 C 75.05 59.49 69.17 63.70 62.86 67.24 C 53.22 63.73 44.30 58.50 34.58 55.20 C 34.55 54.65 34.49 53.53 34.46 52.97 C 39.03 50.50 43.31 47.56 47.77 44.91 Z" />
<path fill="#b8b8b8" opacity="1.00" d=" M 99.07 60.22 C 110.90 58.11 122.29 53.98 134.15 52.09 C 134.40 52.36 134.89 52.90 135.13 53.17 C 133.60 54.09 132.06 55.01 130.53 55.94 C 123.50 55.85 116.92 58.75 110.07 59.93 C 107.86 60.66 104.82 60.60 103.64 62.96 C 106.07 64.79 108.80 66.15 111.46 67.62 C 113.19 68.30 115.09 70.22 117.01 69.07 C 125.79 64.54 132.97 57.50 141.60 52.73 C 141.69 53.18 141.87 54.07 141.95 54.51 C 138.72 57.78 135.63 61.18 132.67 64.70 C 128.04 70.24 122.04 74.39 117.20 79.73 C 116.87 78.41 116.54 77.10 116.21 75.79 C 115.96 74.76 115.69 73.74 115.39 72.72 C 115.01 72.60 114.26 72.36 113.88 72.23 C 111.07 71.72 108.01 69.52 105.23 71.16 C 103.12 72.38 99.63 73.84 100.96 76.90 C 101.13 78.91 103.47 78.65 104.71 77.89 C 107.38 76.75 109.92 75.34 112.60 74.21 C 113.23 77.37 113.84 80.54 114.31 83.74 C 114.18 85.60 113.96 87.45 113.75 89.31 C 109.37 87.76 108.07 83.16 106.22 79.40 C 105.36 82.15 103.85 84.87 103.99 87.81 C 104.81 91.03 106.55 93.93 107.91 96.94 C 106.42 96.46 104.92 96.04 103.41 95.62 C 102.99 95.92 102.16 96.53 101.74 96.83 L 101.27 97.16 C 101.02 83.28 97.62 69.66 97.09 55.78 C 97.71 57.28 98.39 58.75 99.07 60.22 Z" />
<path fill="#b8b8b8" opacity="1.00" d=" M 143.33 62.25 L 143.63 61.58 C 148.05 80.42 152.19 99.35 157.31 118.01 C 151.02 115.64 144.84 112.99 138.69 110.29 C 131.86 107.27 124.78 104.81 118.09 101.48 C 120.57 99.30 119.30 95.90 119.05 93.10 C 118.99 92.55 118.86 91.46 118.79 90.92 C 122.69 89.51 126.50 87.88 130.33 86.32 C 129.72 87.72 128.87 89.07 128.65 90.61 C 129.31 94.34 133.51 95.49 136.39 97.07 C 136.60 93.79 136.46 90.50 136.16 87.23 C 137.97 84.98 140.23 82.73 140.41 79.67 C 141.08 73.82 140.77 67.72 143.33 62.25 Z" />
</g>
<g id="#484848ff">
<path fill="#484848" opacity="1.00" d=" M 137.60 51.75 C 140.14 51.47 142.70 51.44 145.25 51.23 C 145.44 53.25 145.80 55.26 145.76 57.29 C 145.06 58.72 144.29 60.13 143.63 61.58 L 143.33 62.25 C 143.05 59.64 142.51 57.07 141.95 54.51 C 141.87 54.07 141.69 53.18 141.60 52.73 C 132.97 57.50 125.79 64.54 117.01 69.07 C 115.09 70.22 113.19 68.30 111.46 67.62 C 117.67 63.49 124.27 60.00 130.53 55.94 C 132.06 55.01 133.60 54.09 135.13 53.17 C 135.75 52.81 136.98 52.10 137.60 51.75 Z" />
<path fill="#484848" opacity="1.00" d=" M 90.77 107.98 C 90.37 106.08 91.89 104.68 92.72 103.16 C 93.51 106.22 94.29 109.30 94.64 112.45 C 94.73 114.36 94.71 116.27 94.72 118.18 L 95.47 117.86 C 102.10 115.97 107.47 111.45 113.71 108.71 C 115.50 107.84 117.43 108.85 119.24 109.13 C 117.34 110.69 115.33 112.14 113.16 113.31 C 107.61 116.13 102.20 119.21 96.56 121.83 C 94.84 122.69 93.20 123.69 91.58 124.72 C 90.06 123.65 88.08 122.64 87.64 120.67 C 86.60 115.90 86.50 110.98 86.73 106.12 C 87.25 106.39 88.30 106.92 88.83 107.19 C 90.39 111.76 89.76 116.80 91.40 121.38 C 91.93 116.90 91.23 112.43 90.77 107.98 Z" />
</g>
<g id="#868686ff">
<path fill="#868686" opacity="1.00" d=" M 33.72 55.01 L 34.58 55.20 C 44.30 58.50 53.22 63.73 62.86 67.24 C 60.44 68.66 58.09 70.22 55.84 71.91 C 52.84 70.06 50.00 67.96 47.35 65.63 C 43.07 61.75 37.59 59.39 33.72 55.01 Z" />
</g>
<g id="#272727ff">
<path fill="#272727" opacity="1.00" d=" M 85.04 55.35 C 85.59 55.44 86.69 55.61 87.24 55.69 C 87.91 59.87 89.38 63.93 89.42 68.19 C 89.43 71.85 89.53 75.51 89.97 79.15 C 91.62 78.71 93.27 78.25 94.92 77.80 C 94.88 70.53 93.45 63.39 92.75 56.18 C 93.22 55.92 94.16 55.39 94.63 55.13 C 96.30 68.78 99.00 82.30 100.36 96.00 C 95.98 97.88 91.92 100.37 87.76 102.69 C 77.83 107.87 67.69 112.60 57.78 117.81 C 54.62 112.55 53.98 106.39 55.07 100.42 C 55.79 101.32 56.47 102.25 57.12 103.20 C 57.25 105.78 57.32 108.37 57.42 110.95 C 66.60 106.03 75.50 100.59 84.41 95.19 C 87.26 85.30 85.03 75.04 84.93 64.98 C 84.88 62.26 84.34 59.60 83.57 57.00 C 84.06 56.45 84.55 55.90 85.04 55.35 M 91.19 85.07 C 91.24 87.39 91.28 89.72 91.32 92.04 C 93.20 92.40 95.13 92.45 97.04 92.25 C 96.81 89.69 96.52 87.13 96.17 84.59 C 94.51 84.74 92.85 84.90 91.19 85.07 Z" />
<path fill="#272727" opacity="1.00" d=" M 24.30 114.98 C 24.48 102.87 25.02 90.77 25.69 78.69 C 26.80 84.14 27.20 89.70 27.43 95.26 C 27.49 100.75 27.46 106.24 27.09 111.72 C 25.82 118.11 26.47 124.62 26.26 131.08 C 26.39 133.54 24.97 135.59 23.76 137.59 C 23.19 130.05 23.93 122.50 24.30 114.98 Z" />
</g>
<g id="#d5d5d5ff">
<path fill="#d5d5d5" opacity="1.00" d=" M 110.07 59.93 C 116.92 58.75 123.50 55.85 130.53 55.94 C 124.27 60.00 117.67 63.49 111.46 67.62 C 108.80 66.15 106.07 64.79 103.64 62.96 C 104.82 60.60 107.86 60.66 110.07 59.93 Z" />
</g>
<g id="#c3c3c3ff">
<path fill="#c3c3c3" opacity="1.00" d=" M 132.67 64.70 C 135.63 61.18 138.72 57.78 141.95 54.51 C 142.51 57.07 143.05 59.64 143.33 62.25 C 140.77 67.72 141.08 73.82 140.41 79.67 C 140.23 82.73 137.97 84.98 136.16 87.23 C 136.46 90.50 136.60 93.79 136.39 97.07 C 133.51 95.49 129.31 94.34 128.65 90.61 C 128.87 89.07 129.72 87.72 130.33 86.32 C 126.50 87.88 122.69 89.51 118.79 90.92 C 118.86 91.46 118.99 92.55 119.05 93.10 C 117.78 87.38 116.90 81.60 116.21 75.79 C 116.54 77.10 116.87 78.41 117.20 79.73 C 122.04 74.39 128.04 70.24 132.67 64.70 Z" />
</g>
<g id="#969696ff">
<path fill="#969696" opacity="1.00" d=" M 29.23 57.01 C 31.62 59.02 33.93 61.13 36.30 63.17 C 34.14 62.29 31.97 61.41 29.87 60.40 C 31.65 64.71 33.09 69.15 34.47 73.61 C 36.30 79.62 39.12 85.52 38.88 91.95 C 38.67 103.06 39.23 114.20 38.41 125.29 C 34.61 128.30 30.65 131.08 26.70 133.88 C 26.44 126.49 27.14 119.11 27.09 111.72 C 27.46 106.24 27.49 100.75 27.43 95.26 C 27.65 92.40 28.14 89.57 28.43 86.72 C 28.67 88.23 28.93 89.74 29.22 91.24 C 31.92 89.78 34.44 88.01 36.76 86.01 C 34.72 80.20 33.20 74.17 30.34 68.68 C 29.89 72.23 29.36 75.76 28.81 79.29 C 28.51 71.86 28.59 64.42 29.23 57.01 M 29.26 95.16 C 28.70 105.84 28.64 116.56 29.40 127.24 C 31.89 125.98 34.96 124.92 36.13 122.14 C 36.98 119.80 36.74 117.25 36.70 114.81 C 36.16 106.21 37.18 97.62 36.78 89.03 C 34.08 90.75 30.70 92.11 29.26 95.16 Z" />
<path fill="#969696" opacity="1.00" d=" M 56.74 80.78 C 57.54 80.24 58.34 79.70 59.14 79.15 C 65.54 81.30 72.19 83.33 77.44 87.75 C 74.42 89.74 71.58 91.99 68.53 93.91 C 66.03 95.52 63.17 96.40 60.31 97.07 C 58.21 92.18 57.90 86.82 56.91 81.65 L 56.74 80.78 Z" />
</g>
<g id="#363636ff">
<path fill="#363636" opacity="1.00" d=" M 143.63 61.58 C 144.29 60.13 145.06 58.72 145.76 57.29 C 147.65 60.92 148.15 65.04 149.19 68.96 C 152.83 83.27 156.21 97.64 159.91 111.93 C 160.39 114.10 161.84 117.41 158.84 118.38 C 158.46 118.29 157.70 118.10 157.31 118.01 C 152.19 99.35 148.05 80.42 143.63 61.58 Z" />
</g>
<g id="#afafafff">
<path fill="#afafaf" opacity="1.00" d=" M 29.87 60.40 C 31.97 61.41 34.14 62.29 36.30 63.17 C 42.03 67.17 47.91 71.13 53.03 75.87 C 54.31 84.51 53.18 93.37 54.11 102.08 C 50.88 104.50 47.54 106.78 44.33 109.23 C 47.48 111.43 51.11 110.37 54.37 109.09 C 54.36 110.36 54.35 111.64 54.32 112.92 C 49.03 117.06 43.64 121.08 38.41 125.29 C 39.23 114.20 38.67 103.06 38.88 91.95 C 39.12 85.52 36.30 79.62 34.47 73.61 C 33.09 69.15 31.65 64.71 29.87 60.40 Z" />
<path fill="#afafaf" opacity="1.00" d=" M 135.80 112.62 C 144.81 115.12 153.30 119.16 161.68 123.25 C 160.13 123.86 158.60 124.49 157.06 125.11 C 157.32 124.48 157.82 123.20 158.07 122.56 C 156.20 122.08 154.15 121.11 152.33 122.27 C 137.78 129.35 123.81 137.57 109.14 144.40 C 112.55 139.20 117.18 135.00 121.99 131.13 C 128.02 129.36 133.37 125.65 139.71 124.92 C 141.65 122.94 143.61 120.98 145.65 119.10 C 143.53 118.25 141.44 117.33 139.36 116.40 C 138.29 115.04 137.11 113.76 135.80 112.62 Z" />
</g>
<g id="#9d9d9dff">
<path fill="#9d9d9d" opacity="1.00" d=" M 67.41 69.13 C 72.37 65.49 78.08 63.09 83.27 59.80 C 83.54 61.49 83.78 63.20 83.90 64.92 C 84.17 68.90 84.32 72.89 84.54 76.88 C 83.17 76.70 81.79 76.53 80.42 76.35 C 76.22 73.69 71.65 71.71 67.41 69.13 Z" />
</g>
<g id="#686868ff">
<path fill="#686868" opacity="1.00" d=" M 83.90 64.92 L 84.93 64.98 C 85.03 75.04 87.26 85.30 84.41 95.19 C 84.24 93.06 84.08 90.92 83.92 88.79 C 78.93 90.72 74.45 93.67 69.93 96.47 C 69.58 95.83 68.88 94.55 68.53 93.91 C 71.58 91.99 74.42 89.74 77.44 87.75 C 79.15 86.89 80.93 86.19 82.70 85.47 C 80.77 84.42 78.84 83.37 76.90 82.33 C 79.38 82.83 81.86 83.27 84.37 83.62 C 78.99 77.54 70.29 76.65 64.01 71.81 C 69.67 72.71 74.56 76.43 80.42 76.35 C 81.79 76.53 83.17 76.70 84.54 76.88 C 84.32 72.89 84.17 68.90 83.90 64.92 Z" />
<path fill="#686868" opacity="1.00" d=" M 120.54 108.07 C 125.14 108.78 129.42 110.67 133.86 111.98 C 134.35 112.14 135.32 112.46 135.80 112.62 C 137.11 113.76 138.29 115.04 139.36 116.40 C 134.39 114.23 129.15 112.80 124.09 110.90 C 122.59 110.42 121.59 109.15 120.54 108.07 Z" />
</g>
<g id="#b4b4b4ff">
<path fill="#b4b4b4" opacity="1.00" d=" M 30.34 68.68 C 33.20 74.17 34.72 80.20 36.76 86.01 C 34.44 88.01 31.92 89.78 29.22 91.24 C 28.93 89.74 28.67 88.23 28.43 86.72 C 28.53 84.25 28.65 81.77 28.81 79.29 C 29.36 75.76 29.89 72.23 30.34 68.68 Z" />
</g>
<g id="#848484ff">
<path fill="#848484" opacity="1.00" d=" M 56.97 75.24 C 60.00 72.52 63.73 70.77 67.41 69.13 C 71.65 71.71 76.22 73.69 80.42 76.35 C 74.56 76.43 69.67 72.71 64.01 71.81 C 70.29 76.65 78.99 77.54 84.37 83.62 C 81.86 83.27 79.38 82.83 76.90 82.33 C 78.84 83.37 80.77 84.42 82.70 85.47 C 80.93 86.19 79.15 86.89 77.44 87.75 C 72.19 83.33 65.54 81.30 59.14 79.15 C 58.34 79.70 57.54 80.24 56.74 80.78 C 56.73 78.94 56.46 77.04 56.97 75.24 Z" />
</g>
<g id="#353535ff">
<path fill="#353535" opacity="1.00" d=" M 105.23 71.16 C 108.01 69.52 111.07 71.72 113.88 72.23 C 113.45 72.89 113.02 73.55 112.60 74.21 C 109.92 75.34 107.38 76.75 104.71 77.89 C 103.47 78.65 101.13 78.91 100.96 76.90 C 99.63 73.84 103.12 72.38 105.23 71.16 Z" />
<path fill="#353535" opacity="1.00" d=" M 92.43 124.74 C 93.12 124.72 94.49 124.69 95.17 124.67 C 95.82 128.57 96.71 132.68 95.08 136.48 C 94.08 132.59 93.25 128.67 92.43 124.74 Z" />
</g>
<g id="#464646ff">
<path fill="#464646" opacity="1.00" d=" M 113.88 72.23 C 114.26 72.36 115.01 72.60 115.39 72.72 C 115.69 73.74 115.96 74.76 116.21 75.79 C 116.90 81.60 117.78 87.38 119.05 93.10 C 119.30 95.90 120.57 99.30 118.09 101.48 C 115.87 95.80 115.35 89.69 114.31 83.74 C 113.84 80.54 113.23 77.37 112.60 74.21 C 113.02 73.55 113.45 72.89 113.88 72.23 Z" />
<path fill="#464646" opacity="1.00" d=" M 152.33 122.27 C 154.15 121.11 156.20 122.08 158.07 122.56 C 157.82 123.20 157.32 124.48 157.06 125.11 C 152.18 127.00 147.61 129.56 143.01 132.02 C 128.40 139.36 113.90 146.91 99.28 154.23 C 96.63 151.72 99.87 149.28 102.13 148.20 C 104.45 146.91 106.82 145.70 109.14 144.40 C 123.81 137.57 137.78 129.35 152.33 122.27 Z" />
</g>
<g id="#999999ff">
<path fill="#999999" opacity="1.00" d=" M 106.22 79.40 C 108.07 83.16 109.37 87.76 113.75 89.31 C 113.96 87.45 114.18 85.60 114.31 83.74 C 115.35 89.69 115.87 95.80 118.09 101.48 C 114.79 99.78 111.45 98.11 107.91 96.94 C 106.55 93.93 104.81 91.03 103.99 87.81 C 103.85 84.87 105.36 82.15 106.22 79.40 Z" />
</g>
<g id="#707070ff">
<path fill="#707070" opacity="1.00" d=" M 91.19 85.07 C 92.85 84.90 94.51 84.74 96.17 84.59 C 96.52 87.13 96.81 89.69 97.04 92.25 C 95.13 92.45 93.20 92.40 91.32 92.04 C 91.28 89.72 91.24 87.39 91.19 85.07 Z" />
<path fill="#707070" opacity="1.00" d=" M 89.21 125.47 C 92.06 128.16 92.37 132.19 93.36 135.75 C 94.68 140.83 96.14 145.88 97.19 151.02 C 93.47 150.73 89.73 150.45 86.08 149.64 C 69.30 145.95 52.44 142.68 35.68 138.90 C 33.08 138.31 30.39 138.14 27.73 138.40 C 30.00 137.14 32.23 135.78 34.55 134.59 C 34.38 135.25 34.06 136.57 33.90 137.23 C 43.48 139.56 53.24 140.98 62.80 143.45 C 72.57 145.59 82.32 147.85 92.14 149.75 C 92.70 149.84 93.83 150.03 94.39 150.13 C 92.88 141.86 89.67 133.92 89.21 125.47 Z" />
</g>
<g id="#aeaeaeff">
<path fill="#aeaeae" opacity="1.00" d=" M 29.26 95.16 C 30.70 92.11 34.08 90.75 36.78 89.03 C 37.18 97.62 36.16 106.21 36.70 114.81 C 36.74 117.25 36.98 119.80 36.13 122.14 C 34.96 124.92 31.89 125.98 29.40 127.24 C 28.64 116.56 28.70 105.84 29.26 95.16 Z" />
</g>
<g id="#cacacaff">
<path fill="#cacaca" opacity="1.00" d=" M 103.41 95.62 C 104.92 96.04 106.42 96.46 107.91 96.94 C 111.45 98.11 114.79 99.78 118.09 101.48 C 124.78 104.81 131.86 107.27 138.69 110.29 C 144.84 112.99 151.02 115.64 157.31 118.01 C 157.70 118.10 158.46 118.29 158.84 118.38 C 160.03 118.82 161.30 118.68 162.53 118.50 C 162.49 120.12 162.21 121.72 161.68 123.25 C 153.30 119.16 144.81 115.12 135.80 112.62 C 135.32 112.46 134.35 112.14 133.86 111.98 C 123.84 105.54 111.93 102.96 101.74 96.83 C 102.16 96.53 102.99 95.92 103.41 95.62 Z" />
</g>
<g id="#bdbdbdff">
<path fill="#bdbdbd" opacity="1.00" d=" M 101.27 97.16 L 101.74 96.83 C 111.93 102.96 123.84 105.54 133.86 111.98 C 129.42 110.67 125.14 108.78 120.54 108.07 C 121.59 109.15 122.59 110.42 124.09 110.90 C 129.15 112.80 134.39 114.23 139.36 116.40 C 141.44 117.33 143.53 118.25 145.65 119.10 C 143.61 120.98 141.65 122.94 139.71 124.92 C 133.37 125.65 128.02 129.36 121.99 131.13 C 118.35 131.64 115.43 133.94 112.49 135.97 C 114.31 133.07 117.58 131.01 118.80 127.85 C 117.98 122.70 115.86 117.76 113.16 113.31 C 115.33 112.14 117.34 110.69 119.24 109.13 C 117.43 108.85 115.50 107.84 113.71 108.71 C 107.47 111.45 102.10 115.97 95.47 117.86 C 99.18 112.50 106.09 111.59 110.88 107.64 C 112.29 105.27 108.82 105.33 107.32 105.51 C 102.79 107.21 98.99 110.37 94.64 112.45 C 94.29 109.30 93.51 106.22 92.72 103.16 C 92.82 102.86 93.03 102.24 93.13 101.94 C 95.87 100.40 98.63 98.87 101.27 97.16 Z" />
</g>
<g id="#9b9b9bff">
<path fill="#9b9b9b" opacity="1.00" d=" M 44.33 109.23 C 47.54 106.78 50.88 104.50 54.11 102.08 C 54.24 104.41 54.35 106.75 54.37 109.09 C 51.11 110.37 47.48 111.43 44.33 109.23 Z" />
</g>
<g id="#c7c7c7ff">
<path fill="#c7c7c7" opacity="1.00" d=" M 70.27 115.92 C 77.18 110.19 85.46 106.50 93.13 101.94 C 93.03 102.24 92.82 102.86 92.72 103.16 C 91.89 104.68 90.37 106.08 90.77 107.98 C 91.23 112.43 91.93 116.90 91.40 121.38 C 89.76 116.80 90.39 111.76 88.83 107.19 C 88.30 106.92 87.25 106.39 86.73 106.12 C 86.50 110.98 86.60 115.90 87.64 120.67 C 88.08 122.64 90.06 123.65 91.58 124.72 L 92.43 124.74 C 93.25 128.67 94.08 132.59 95.08 136.48 C 95.77 139.58 96.77 142.70 98.78 145.22 C 99.86 146.25 101.00 147.22 102.13 148.20 C 99.87 149.28 96.63 151.72 99.28 154.23 L 99.78 155.01 C 95.66 154.94 91.56 154.40 87.55 153.46 C 66.26 148.89 44.76 145.30 23.58 140.28 C 24.97 139.66 26.35 139.04 27.73 138.40 C 30.39 138.14 33.08 138.31 35.68 138.90 C 52.44 142.68 69.30 145.95 86.08 149.64 C 89.73 150.45 93.47 150.73 97.19 151.02 C 96.14 145.88 94.68 140.83 93.36 135.75 C 92.37 132.19 92.06 128.16 89.21 125.47 C 89.67 133.92 92.88 141.86 94.39 150.13 C 93.83 150.03 92.70 149.84 92.14 149.75 C 91.42 144.36 88.41 139.74 85.94 135.03 C 84.16 131.82 82.60 128.48 80.56 125.43 C 78.64 122.42 74.70 122.18 71.63 121.06 C 71.45 124.52 71.43 127.98 71.27 131.43 C 68.77 128.32 69.06 124.17 68.66 120.42 C 67.03 119.80 65.40 119.17 63.77 118.54 C 65.87 117.66 67.96 115.57 70.37 116.40 C 74.22 117.58 77.96 119.09 81.90 119.97 C 78.00 118.68 74.07 117.48 70.27 115.92 Z" />
</g>
<g id="#9c9c9cff">
<path fill="#9c9c9c" opacity="1.00" d=" M 107.32 105.51 C 108.82 105.33 112.29 105.27 110.88 107.64 C 106.09 111.59 99.18 112.50 95.47 117.86 L 94.72 118.18 C 94.71 116.27 94.73 114.36 94.64 112.45 C 98.99 110.37 102.79 107.21 107.32 105.51 Z" />
</g>
<g id="#cbcbcbff">
<path fill="#cbcbcb" opacity="1.00" d=" M 96.56 121.83 C 102.20 119.21 107.61 116.13 113.16 113.31 C 115.86 117.76 117.98 122.70 118.80 127.85 C 117.58 131.01 114.31 133.07 112.49 135.97 C 115.43 133.94 118.35 131.64 121.99 131.13 C 117.18 135.00 112.55 139.20 109.14 144.40 C 106.82 145.70 104.45 146.91 102.13 148.20 C 101.00 147.22 99.86 146.25 98.78 145.22 C 98.40 137.38 96.39 129.69 96.56 121.83 Z" />
</g>
<g id="#dfdfdfff">
<path fill="#dfdfdf" opacity="1.00" d=" M 63.77 118.54 C 65.40 119.17 67.03 119.80 68.66 120.42 C 69.06 124.17 68.77 128.32 71.27 131.43 C 71.43 127.98 71.45 124.52 71.63 121.06 C 74.70 122.18 78.64 122.42 80.56 125.43 C 82.60 128.48 84.16 131.82 85.94 135.03 C 88.41 139.74 91.42 144.36 92.14 149.75 C 82.32 147.85 72.57 145.59 62.80 143.45 C 62.65 141.80 62.51 140.16 62.37 138.52 C 64.72 137.23 67.04 135.87 69.30 134.42 C 65.27 133.46 60.94 133.79 57.16 131.87 C 54.85 130.62 52.21 131.12 49.72 131.34 C 49.14 130.04 48.56 128.75 47.97 127.47 C 51.91 125.16 55.88 122.86 60.20 121.33 C 60.05 121.08 59.90 120.82 59.76 120.57 C 61.10 119.91 62.45 119.25 63.77 118.54 Z" />
</g>
<g id="#878787ff">
<path fill="#878787" opacity="1.00" d=" M 91.58 124.72 C 93.20 123.69 94.84 122.69 96.56 121.83 C 96.39 129.69 98.40 137.38 98.78 145.22 C 96.77 142.70 95.77 139.58 95.08 136.48 C 96.71 132.68 95.82 128.57 95.17 124.67 C 94.49 124.69 93.12 124.72 92.43 124.74 L 91.58 124.72 Z" />
</g>
<g id="#d1d1d1ff">
<path fill="#d1d1d1" opacity="1.00" d=" M 34.55 134.59 C 39.05 132.28 43.52 129.88 47.97 127.47 C 48.56 128.75 49.14 130.04 49.72 131.34 C 52.21 131.12 54.85 130.62 57.16 131.87 C 60.94 133.79 65.27 133.46 69.30 134.42 C 67.04 135.87 64.72 137.23 62.37 138.52 C 62.51 140.16 62.65 141.80 62.80 143.45 C 53.24 140.98 43.48 139.56 33.90 137.23 C 34.06 136.57 34.38 135.25 34.55 134.59 Z" />
</g>
</svg>
