<?xml version="1.0" encoding="UTF-8" ?>
<!DOCTYPE svg PUBLIC "-//W3C//DTD SVG 1.1//EN" "http://www.w3.org/Graphics/SVG/1.1/DTD/svg11.dtd">
<svg width="180pt" height="180pt" viewBox="0 0 180 180" version="1.1" xmlns="http://www.w3.org/2000/svg">
<g id="#fefefeff">
</g>
<g id="#484848ff">
<path fill="#484848" opacity="1.00" d=" M 54.75 41.75 C 67.48 30.85 77.41 15.97 91.07 6.79 C 90.96 11.18 90.53 15.55 89.81 19.88 C 86.68 38.42 83.61 56.96 80.57 75.51 C 80.02 79.15 79.18 83.67 75.75 85.80 C 57.09 97.34 39.25 110.22 20.34 121.30 C 17.59 123.31 18.00 120.23 17.98 118.19 C 23.22 100.67 29.68 83.53 34.99 66.03 C 37.08 55.23 48.35 49.84 54.75 41.75 M 64.26 39.45 C 56.03 45.05 48.97 52.18 41.83 59.06 C 48.64 63.37 56.90 65.19 64.12 68.88 C 72.46 66.31 88.51 50.09 72.83 46.65 C 65.49 49.21 69.46 40.23 64.26 39.45 M 39.82 63.00 C 32.82 80.33 28.25 98.55 21.94 116.13 C 35.19 104.40 62.71 100.19 60.91 78.27 C 54.04 72.98 46.48 68.60 39.82 63.00 M 73.33 67.31 C 64.72 70.86 63.51 80.87 62.90 88.99 C 67.41 85.68 74.46 83.68 75.63 77.60 C 75.97 74.51 80.02 64.35 73.33 67.31 Z" />
</g>
<g id="#cececeff">
<path fill="#cecece" opacity="1.00" d=" M 91.07 6.79 C 92.09 8.01 94.89 9.11 94.42 10.78 C 93.78 12.28 92.17 13.95 93.32 15.61 C 109.43 32.51 127.06 47.84 144.05 63.83 C 137.01 67.28 129.61 70.20 122.16 72.62 C 115.31 65.55 107.45 58.91 100.03 52.91 C 104.00 46.52 101.73 49.07 95.75 49.94 C 92.85 40.85 94.87 25.56 90.61 19.64 L 89.81 19.88 C 90.53 15.55 90.96 11.18 91.07 6.79 Z" />
</g>
<g id="#afafafff">
<path fill="#afafaf" opacity="1.00" d=" M 93.32 15.61 C 92.17 13.95 93.78 12.28 94.42 10.78 C 113.27 28.56 131.57 46.98 150.83 64.30 C 151.07 67.28 151.06 70.29 150.75 73.27 C 152.77 67.54 147.58 61.46 146.26 69.07 C 148.31 90.60 148.54 112.81 152.14 133.87 C 158.51 135.88 152.30 118.82 153.94 113.96 C 153.58 119.14 161.64 140.02 152.45 140.61 C 150.61 138.49 149.21 134.68 145.23 137.33 C 124.78 142.21 104.38 147.41 84.09 152.94 C 86.43 143.60 87.77 133.92 90.79 124.79 C 98.96 120.43 108.19 118.26 116.45 114.09 C 109.13 107.45 100.50 119.19 92.05 119.15 C 89.80 109.99 100.31 95.03 85.13 93.69 C 90.97 100.77 85.00 110.68 86.55 118.32 C 90.09 118.97 91.71 126.13 87.02 124.04 C 83.61 121.65 84.82 126.91 84.27 129.25 C 86.47 117.40 70.48 116.42 64.37 109.58 C 57.33 102.10 49.80 111.04 42.05 112.17 C 55.30 104.55 70.15 99.57 82.42 90.04 C 81.31 88.83 79.47 86.68 77.71 87.68 C 65.83 97.33 51.22 102.72 38.92 111.77 C 36.44 113.26 39.57 112.88 40.84 113.03 C 36.95 117.43 27.15 116.04 26.11 121.70 C 43.93 131.17 61.58 140.99 79.30 150.68 C 81.48 151.63 81.09 148.01 81.74 146.77 C 81.86 150.35 82.21 154.00 83.64 157.32 C 73.72 154.48 59.99 144.80 48.37 139.58 C 39.56 131.58 17.25 128.69 17.98 118.19 C 18.00 120.23 17.59 123.31 20.34 121.30 C 39.25 110.22 57.09 97.34 75.75 85.80 C 79.18 83.67 80.02 79.15 80.57 75.51 C 83.61 56.96 86.68 38.42 89.81 19.88 L 90.61 19.64 C 86.40 30.94 97.77 45.94 85.64 53.64 C 79.88 58.34 96.29 62.06 87.03 61.05 C 86.86 65.23 92.91 79.62 82.80 79.55 C 85.30 81.04 88.51 82.54 91.42 81.48 C 92.73 70.95 93.56 60.33 95.75 49.94 C 101.73 49.07 104.00 46.52 100.03 52.91 C 107.45 58.91 115.31 65.55 122.16 72.62 C 129.61 70.20 137.01 67.28 144.05 63.83 C 127.06 47.84 109.43 32.51 93.32 15.61 M 140.38 70.47 C 134.52 71.90 128.88 76.93 123.01 74.37 C 114.21 76.18 106.52 82.48 98.75 86.99 C 104.63 96.62 114.56 83.22 121.91 81.88 C 123.95 89.84 117.99 101.35 124.87 107.16 C 125.87 97.89 125.20 86.45 126.71 78.49 C 130.58 78.68 146.49 69.42 140.38 70.47 M 125.33 109.28 C 123.92 109.50 121.11 109.95 119.71 110.17 C 128.95 116.20 136.91 124.80 147.12 129.15 C 140.75 121.82 133.00 114.64 125.33 109.28 Z" />
</g>
<g id="#515151ff">
<path fill="#515151" opacity="1.00" d=" M 90.61 19.64 C 94.87 25.56 92.85 40.85 95.75 49.94 C 93.56 60.33 92.73 70.95 91.42 81.48 C 88.51 82.54 85.30 81.04 82.80 79.55 C 92.91 79.62 86.86 65.23 87.03 61.05 C 96.29 62.06 79.88 58.34 85.64 53.64 C 97.77 45.94 86.40 30.94 90.61 19.64 Z" />
</g>
<g id="#909090ff">
<path fill="#909090" opacity="1.00" d=" M 64.26 39.45 C 69.46 40.23 65.49 49.21 72.83 46.65 C 88.51 50.09 72.46 66.31 64.12 68.88 C 56.90 65.19 48.64 63.37 41.83 59.06 C 48.97 52.18 56.03 45.05 64.26 39.45 Z" />
</g>
<g id="#aeaeaeff">
<path fill="#aeaeae" opacity="1.00" d=" M 39.82 63.00 C 46.48 68.60 54.04 72.98 60.91 78.27 C 62.71 100.19 35.19 104.40 21.94 116.13 C 28.25 98.55 32.82 80.33 39.82 63.00 Z" />
</g>
<g id="#565656ff">
<path fill="#565656" opacity="1.00" d=" M 146.26 69.07 C 147.58 61.46 152.77 67.54 150.75 73.27 C 151.64 86.84 152.90 100.40 153.94 113.96 C 152.30 118.82 158.51 135.88 152.14 133.87 C 148.54 112.81 148.31 90.60 146.26 69.07 Z" />
<path fill="#565656" opacity="1.00" d=" M 77.71 87.68 C 79.47 86.68 81.31 88.83 82.42 90.04 C 70.15 99.57 55.30 104.55 42.05 112.17 C 41.75 112.38 41.14 112.82 40.84 113.03 C 39.57 112.88 36.44 113.26 38.92 111.77 C 51.22 102.72 65.83 97.33 77.71 87.68 Z" />
</g>
<g id="#757575ff">
<path fill="#757575" opacity="1.00" d=" M 73.33 67.31 C 80.02 64.35 75.97 74.51 75.63 77.60 C 74.46 83.68 67.41 85.68 62.90 88.99 C 63.51 80.87 64.72 70.86 73.33 67.31 Z" />
</g>
<g id="#545454ff">
<path fill="#545454" opacity="1.00" d=" M 140.38 70.47 C 146.49 69.42 130.58 78.68 126.71 78.49 C 125.20 86.45 125.87 97.89 124.87 107.16 C 117.99 101.35 123.95 89.84 121.91 81.88 C 114.56 83.22 104.63 96.62 98.75 86.99 C 106.52 82.48 114.21 76.18 123.01 74.37 C 128.88 76.93 134.52 71.90 140.38 70.47 Z" />
</g>
<g id="#575757ff">
<path fill="#575757" opacity="1.00" d=" M 85.13 93.69 C 100.31 95.03 89.80 109.99 92.05 119.15 C 100.50 119.19 109.13 107.45 116.45 114.09 C 108.19 118.26 98.96 120.43 90.79 124.79 C 87.77 133.92 86.43 143.60 84.09 152.94 C 104.38 147.41 124.78 142.21 145.23 137.33 C 149.21 134.68 150.61 138.49 152.45 140.61 C 129.72 146.89 106.42 151.17 83.64 157.32 C 82.21 154.00 81.86 150.35 81.74 146.77 C 82.61 140.93 83.49 135.09 84.27 129.25 C 84.82 126.91 83.61 121.65 87.02 124.04 C 91.71 126.13 90.09 118.97 86.55 118.32 C 85.00 110.68 90.97 100.77 85.13 93.69 Z" />
</g>
<g id="#d5d5d5ff">
<path fill="#d5d5d5" opacity="1.00" d=" M 42.05 112.17 C 49.80 111.04 57.33 102.10 64.37 109.58 C 70.48 116.42 86.47 117.40 84.27 129.25 C 83.49 135.09 82.61 140.93 81.74 146.77 C 81.09 148.01 81.48 151.63 79.30 150.68 C 61.58 140.99 43.93 131.17 26.11 121.70 C 27.15 116.04 36.95 117.43 40.84 113.03 C 41.14 112.82 41.75 112.38 42.05 112.17 Z" />
</g>
<g id="#686868ff">
<path fill="#686868" opacity="1.00" d=" M 125.33 109.28 C 133.00 114.64 140.75 121.82 147.12 129.15 C 136.91 124.80 128.95 116.20 119.71 110.17 C 121.11 109.95 123.92 109.50 125.33 109.28 Z" />
</g>
</svg>
