<?xml version="1.0" encoding="UTF-8" ?>
<!DOCTYPE svg PUBLIC "-//W3C//DTD SVG 1.1//EN" "http://www.w3.org/Graphics/SVG/1.1/DTD/svg11.dtd">
<svg width="180pt" height="180pt" viewBox="0 0 180 180" version="1.1" xmlns="http://www.w3.org/2000/svg">
<g id="#ffffffff">
</g>
<g id="#d0d0d0ff">
<path fill="#d0d0d0" opacity="1.00" d=" M 87.89 7.06 C 92.24 6.94 94.62 10.93 97.44 13.56 C 106.09 22.29 114.22 31.50 122.98 40.11 C 131.85 50.01 142.35 58.36 150.77 68.67 C 149.38 69.66 148.01 70.67 146.57 71.57 C 144.40 72.47 142.17 73.20 139.92 73.87 C 136.36 74.82 132.86 75.99 129.38 77.20 C 129.52 76.16 129.68 75.12 129.86 74.09 C 136.21 72.82 143.10 72.04 148.42 68.03 C 143.88 63.76 139.23 59.58 135.05 54.96 C 123.85 42.51 111.63 31.03 100.02 18.98 C 97.82 16.66 95.31 14.63 92.61 12.92 C 94.03 19.47 100.22 22.94 104.47 27.52 C 113.81 37.18 123.39 46.60 132.91 56.09 C 136.88 60.04 141.29 63.69 144.20 68.56 C 138.57 69.83 133.01 71.44 127.72 73.76 C 123.83 72.59 121.25 69.26 118.32 66.68 C 114.98 63.70 111.75 60.61 108.51 57.52 C 106.16 55.24 103.36 53.35 101.51 50.61 C 101.63 48.88 102.33 47.27 102.91 45.65 C 101.18 46.35 99.37 46.82 97.51 46.95 C 96.54 41.53 95.21 36.17 94.41 30.72 C 93.51 25.79 93.61 20.30 90.12 16.31 C 90.11 15.89 90.08 15.06 90.06 14.65 C 90.44 12.55 90.77 10.44 91.17 8.34 C 90.56 8.11 89.33 7.64 88.72 7.40 L 87.89 7.06 Z" />
<path fill="#d0d0d0" opacity="1.00" d=" M 76.30 78.99 C 81.55 78.84 86.77 79.39 91.97 80.07 C 91.83 81.16 91.69 82.24 91.56 83.33 C 88.73 83.21 85.90 83.14 83.07 83.07 C 80.47 82.39 78.20 80.87 76.30 78.99 Z" />
<path fill="#d0d0d0" opacity="1.00" d=" M 64.36 98.95 C 68.26 96.52 72.26 94.22 75.93 91.45 C 78.43 93.26 80.87 95.15 83.26 97.10 C 78.83 99.62 74.90 103.17 69.98 104.69 C 66.82 104.61 65.68 101.24 64.36 98.95 Z" />
<path fill="#d0d0d0" opacity="1.00" d=" M 30.80 113.70 C 39.61 110.06 48.38 106.31 57.12 102.51 C 62.58 105.28 67.09 109.46 72.17 112.79 C 76.37 115.54 80.24 118.72 84.18 121.82 C 82.15 130.47 80.93 139.28 79.06 147.96 C 78.68 148.94 78.30 149.93 77.93 150.93 C 66.75 145.20 56.89 137.33 46.12 130.92 C 39.57 126.12 32.05 122.82 25.75 117.68 C 27.41 116.32 29.07 114.96 30.80 113.70 Z" />
</g>
<g id="#353535ff">
<path fill="#353535" opacity="1.00" d=" M 88.72 7.40 C 89.33 7.64 90.56 8.11 91.17 8.34 C 90.77 10.44 90.44 12.55 90.06 14.65 C 89.54 16.64 88.97 18.62 88.40 20.60 C 82.98 39.30 78.32 58.22 72.99 76.95 C 72.29 77.93 71.57 78.90 70.75 79.79 C 68.09 81.39 65.07 82.18 62.09 82.97 L 62.41 82.05 C 62.95 80.17 63.41 78.27 63.88 76.37 C 64.23 74.91 64.58 73.45 64.94 72.00 C 61.65 70.81 58.32 69.74 55.04 68.54 C 53.66 68.00 52.30 67.40 50.91 66.88 C 51.32 65.79 51.73 64.71 52.13 63.63 C 57.30 65.11 62.32 67.66 67.76 67.83 C 70.98 66.69 72.18 63.15 73.29 60.25 C 73.64 59.21 73.98 58.18 74.31 57.14 C 75.24 53.95 76.42 50.75 76.51 47.40 C 75.14 46.47 73.62 45.78 72.16 45.00 C 70.94 43.47 69.97 41.64 68.32 40.51 C 65.65 39.93 62.98 41.12 60.41 41.75 C 60.28 41.11 60.00 39.85 59.87 39.22 C 69.45 28.58 79.25 18.15 88.72 7.40 Z" />
<path fill="#353535" opacity="1.00" d=" M 90.12 16.31 C 93.61 20.30 93.51 25.79 94.41 30.72 C 95.21 36.17 96.54 41.53 97.51 46.95 C 96.29 57.68 93.36 68.14 91.59 78.79 C 90.39 78.77 89.19 78.75 88.00 78.74 C 88.07 77.55 88.15 76.37 88.23 75.19 C 89.38 68.94 90.86 62.74 91.93 56.47 C 87.77 57.22 83.67 58.26 79.68 59.66 C 81.72 56.63 84.52 54.24 87.40 52.04 C 89.63 50.31 91.84 48.54 94.03 46.76 C 93.38 36.49 89.01 26.71 90.12 16.31 Z" />
<path fill="#353535" opacity="1.00" d=" M 129.38 77.20 C 132.86 75.99 136.36 74.82 139.92 73.87 C 140.71 73.90 142.27 73.95 143.05 73.98 C 138.70 76.95 133.95 79.28 129.00 81.04 C 129.12 79.76 129.24 78.48 129.38 77.20 Z" />
</g>
<g id="#929292ff">
<path fill="#929292" opacity="1.00" d=" M 92.61 12.92 C 95.31 14.63 97.82 16.66 100.02 18.98 C 111.63 31.03 123.85 42.51 135.05 54.96 C 139.23 59.58 143.88 63.76 148.42 68.03 C 147.01 68.18 145.60 68.35 144.20 68.56 C 141.29 63.69 136.88 60.04 132.91 56.09 C 123.39 46.60 113.81 37.18 104.47 27.52 C 100.22 22.94 94.03 19.47 92.61 12.92 Z" />
<path fill="#929292" opacity="1.00" d=" M 88.40 20.60 C 88.97 18.62 89.54 16.64 90.06 14.65 C 90.08 15.06 90.11 15.89 90.12 16.31 C 89.01 26.71 93.38 36.49 94.03 46.76 C 91.84 48.54 89.63 50.31 87.40 52.04 C 86.52 48.57 84.74 45.07 85.45 41.40 C 86.27 36.66 87.01 31.90 88.22 27.24 C 88.86 25.07 88.74 22.80 88.40 20.60 Z" />
<path fill="#929292" opacity="1.00" d=" M 49.28 56.50 C 54.65 57.25 59.78 55.43 65.00 54.66 C 68.27 55.55 70.65 58.27 73.29 60.25 C 72.18 63.15 70.98 66.69 67.76 67.83 C 62.32 67.66 57.30 65.11 52.13 63.63 C 49.74 62.79 47.38 61.83 45.03 60.87 C 46.46 59.43 47.90 57.99 49.28 56.50 Z" />
<path fill="#929292" opacity="1.00" d=" M 78.68 63.13 C 80.76 63.05 82.86 62.78 84.93 63.17 C 87.37 66.63 87.50 71.14 88.23 75.19 C 88.15 76.37 88.07 77.55 88.00 78.74 C 83.79 78.66 79.61 78.11 75.44 77.54 C 76.50 72.74 77.49 67.91 78.68 63.13 Z" />
<path fill="#929292" opacity="1.00" d=" M 41.98 64.88 L 42.68 65.09 C 43.03 65.39 43.74 65.99 44.09 66.29 C 41.70 68.86 39.82 71.91 39.06 75.38 C 37.08 83.19 35.74 91.21 32.45 98.63 C 31.33 98.27 30.21 97.92 29.09 97.57 C 29.75 100.05 30.88 102.37 32.22 104.55 C 29.29 106.92 26.21 109.12 22.98 111.07 C 25.22 104.21 28.24 97.66 30.92 90.96 C 34.63 82.28 37.89 73.40 41.98 64.88 Z" />
<path fill="#929292" opacity="1.00" d=" M 55.04 68.54 C 58.32 69.74 61.65 70.81 64.94 72.00 C 64.58 73.45 64.23 74.91 63.88 76.37 C 60.15 74.80 56.50 72.54 55.04 68.54 Z" />
<path fill="#929292" opacity="1.00" d=" M 70.75 79.79 C 71.57 78.90 72.29 77.93 72.99 76.95 C 72.77 78.12 72.58 79.29 72.38 80.47 C 82.69 88.93 93.18 97.17 103.80 105.23 C 119.53 118.95 136.32 131.41 152.59 144.48 C 151.48 144.90 150.39 144.98 149.30 144.74 C 147.33 143.45 145.44 142.01 143.67 140.45 C 137.27 133.29 128.93 128.41 121.65 122.26 C 118.54 119.99 115.61 116.63 111.46 116.63 C 111.03 115.40 110.59 114.17 110.14 112.95 C 103.89 114.89 98.00 117.84 91.64 119.42 C 91.65 113.00 94.97 106.67 93.32 100.29 C 90.76 97.91 87.56 95.61 83.88 96.77 L 83.26 97.10 C 80.87 95.15 78.43 93.26 75.93 91.45 C 76.80 90.62 77.62 89.75 78.46 88.89 C 75.62 86.79 72.51 85.06 69.17 83.89 C 70.27 85.64 71.15 87.51 72.30 89.22 C 69.20 91.66 65.83 93.74 62.24 95.37 C 62.38 93.55 62.54 91.72 62.69 89.90 C 61.61 90.54 60.53 91.18 59.45 91.83 C 58.83 91.58 57.59 91.10 56.97 90.86 C 61.58 87.19 66.75 84.17 70.75 79.79 Z" />
<path fill="#929292" opacity="1.00" d=" M 80.87 83.02 C 81.42 83.03 82.52 83.05 83.07 83.07 C 85.90 83.14 88.73 83.21 91.56 83.33 C 97.97 87.85 103.66 93.27 109.79 98.15 C 114.88 102.18 119.42 106.95 125.17 110.06 C 124.68 110.99 124.16 111.91 123.64 112.83 C 123.39 112.96 122.89 113.23 122.64 113.36 C 122.14 111.94 121.93 110.28 120.71 109.25 C 118.89 109.52 117.19 110.25 115.49 110.90 C 112.79 108.77 110.38 106.32 107.80 104.06 C 111.18 105.28 114.59 106.45 117.90 107.86 C 110.32 102.04 103.82 94.79 95.65 89.79 C 95.11 91.10 94.58 92.41 94.03 93.73 C 89.61 90.20 85.07 86.81 80.87 83.02 Z" />
<path fill="#929292" opacity="1.00" d=" M 107.17 92.49 C 112.89 90.45 118.18 87.45 123.76 85.08 C 123.47 91.70 122.89 98.32 123.05 104.96 C 117.58 101.03 112.64 96.42 107.17 92.49 Z" />
<path fill="#929292" opacity="1.00" d=" M 57.12 102.51 C 58.23 102.04 59.34 101.56 60.44 101.05 C 65.58 106.58 72.39 110.10 78.17 114.87 C 81.67 117.18 84.90 121.25 89.55 120.39 L 89.99 120.85 C 89.99 122.06 90.01 123.27 90.03 124.49 C 88.03 123.71 86.05 122.87 84.18 121.82 C 80.24 118.72 76.37 115.54 72.17 112.79 C 67.09 109.46 62.58 105.28 57.12 102.51 Z" />
</g>
<g id="#b3b3b3ff">
<path fill="#b3b3b3" opacity="1.00" d=" M 88.40 20.60 C 88.74 22.80 88.86 25.07 88.22 27.24 C 87.01 31.90 86.27 36.66 85.45 41.40 C 84.74 45.07 86.52 48.57 87.40 52.04 C 84.52 54.24 81.72 56.63 79.68 59.66 C 79.32 60.81 78.99 61.97 78.68 63.13 C 77.49 67.91 76.50 72.74 75.44 77.54 C 79.61 78.11 83.79 78.66 88.00 78.74 C 89.19 78.75 90.39 78.77 91.59 78.79 C 93.36 68.14 96.29 57.68 97.51 46.95 C 99.37 46.82 101.18 46.35 102.91 45.65 C 102.33 47.27 101.63 48.88 101.51 50.61 C 103.36 53.35 106.16 55.24 108.51 57.52 C 111.75 60.61 114.98 63.70 118.32 66.68 C 121.25 69.26 123.83 72.59 127.72 73.76 C 128.25 73.84 129.33 74.00 129.86 74.09 C 129.68 75.12 129.52 76.16 129.38 77.20 C 129.24 78.48 129.12 79.76 129.00 81.04 C 133.95 79.28 138.70 76.95 143.05 73.98 C 142.27 73.95 140.71 73.90 139.92 73.87 C 142.17 73.20 144.40 72.47 146.57 71.57 C 147.33 83.70 147.78 95.84 147.70 107.99 C 147.63 117.16 148.29 126.32 147.97 135.48 C 143.31 131.27 139.75 126.07 135.71 121.31 C 132.37 117.41 129.79 112.64 125.17 110.06 C 119.42 106.95 114.88 102.18 109.79 98.15 C 103.66 93.27 97.97 87.85 91.56 83.33 C 91.69 82.24 91.83 81.16 91.97 80.07 C 86.77 79.39 81.55 78.84 76.30 78.99 C 78.20 80.87 80.47 82.39 83.07 83.07 C 82.52 83.05 81.42 83.03 80.87 83.02 C 85.07 86.81 89.61 90.20 94.03 93.73 C 98.58 97.22 103.14 100.71 107.80 104.06 C 110.38 106.32 112.79 108.77 115.49 110.90 C 117.45 112.69 119.95 113.78 122.64 113.36 C 122.89 113.23 123.39 112.96 123.64 112.83 C 127.51 117.45 131.12 122.33 135.35 126.64 C 140.31 131.78 146.74 135.08 152.18 139.65 C 152.15 132.03 151.68 124.41 151.84 116.79 C 153.15 120.38 152.70 124.25 152.69 127.99 C 152.66 133.49 152.87 138.99 152.59 144.48 C 136.32 131.41 119.53 118.95 103.80 105.23 C 93.18 97.17 82.69 88.93 72.38 80.47 C 72.58 79.29 72.77 78.12 72.99 76.95 C 78.32 58.22 82.98 39.30 88.40 20.60 M 118.64 77.62 C 113.06 80.93 107.17 83.69 101.68 87.14 C 103.40 89.03 105.24 90.81 107.17 92.49 C 112.64 96.42 117.58 101.03 123.05 104.96 L 123.05 105.85 C 124.04 106.17 125.02 106.51 126.00 106.87 C 126.91 96.32 127.74 85.74 128.13 75.15 C 124.82 75.24 121.48 75.82 118.64 77.62 Z" />
<path fill="#b3b3b3" opacity="1.00" d=" M 39.06 75.38 C 39.82 71.91 41.70 68.86 44.09 66.29 C 49.85 71.96 57.33 75.67 62.41 82.05 L 62.09 82.97 C 58.82 84.58 55.77 86.61 52.92 88.89 C 46.14 94.26 39.06 99.25 32.22 104.55 C 30.88 102.37 29.75 100.05 29.09 97.57 C 30.21 97.92 31.33 98.27 32.45 98.63 C 35.74 91.21 37.08 83.19 39.06 75.38 Z" />
<path fill="#b3b3b3" opacity="1.00" d=" M 38.41 104.40 C 44.58 99.87 50.93 95.57 56.97 90.86 C 57.59 91.10 58.83 91.58 59.45 91.83 C 58.45 94.70 58.21 98.61 54.88 99.82 C 46.03 104.06 35.55 106.05 28.96 113.93 C 29.42 113.87 30.34 113.76 30.80 113.70 C 29.07 114.96 27.41 116.32 25.75 117.68 C 32.05 122.82 39.57 126.12 46.12 130.92 C 56.89 137.33 66.75 145.20 77.93 150.93 C 78.30 149.93 78.68 148.94 79.06 147.96 C 79.11 151.01 79.37 154.05 79.57 157.09 C 73.84 154.52 68.73 150.84 63.34 147.65 C 48.23 138.01 32.91 128.70 17.74 119.16 C 24.91 114.64 31.54 109.35 38.41 104.40 Z" />
<path fill="#b3b3b3" opacity="1.00" d=" M 83.26 97.10 L 83.88 96.77 C 85.21 98.02 86.56 99.26 87.92 100.50 C 86.95 105.82 86.00 111.14 85.34 116.50 C 86.79 117.74 88.19 119.04 89.55 120.39 C 84.90 121.25 81.67 117.18 78.17 114.87 C 72.39 110.10 65.58 106.58 60.44 101.05 C 61.77 100.40 63.08 99.70 64.36 98.95 C 65.68 101.24 66.82 104.61 69.98 104.69 C 74.90 103.17 78.83 99.62 83.26 97.10 Z" />
<path fill="#b3b3b3" opacity="1.00" d=" M 111.46 116.63 C 115.61 116.63 118.54 119.99 121.65 122.26 C 128.93 128.41 137.27 133.29 143.67 140.45 C 134.86 142.83 125.79 144.02 116.83 145.69 C 105.06 147.59 93.52 150.74 81.67 152.15 C 83.45 145.02 86.08 138.15 88.03 131.08 C 89.05 128.10 89.73 124.21 93.23 123.20 C 99.23 120.81 105.42 118.91 111.46 116.63 Z" />
</g>
<g id="#4c4c4cff">
<path fill="#4c4c4c" opacity="1.00" d=" M 46.18 54.17 C 50.86 49.29 55.15 44.06 59.87 39.22 C 60.00 39.85 60.28 41.11 60.41 41.75 C 62.98 41.12 65.65 39.93 68.32 40.51 C 69.97 41.64 70.94 43.47 72.16 45.00 C 73.62 45.78 75.14 46.47 76.51 47.40 C 76.42 50.75 75.24 53.95 74.31 57.14 C 73.75 54.76 73.21 52.37 72.70 49.98 C 70.20 49.87 67.03 50.56 65.43 48.12 C 64.08 46.88 62.70 43.90 60.53 45.44 C 55.96 48.18 52.80 52.61 49.28 56.50 C 47.90 57.99 46.46 59.43 45.03 60.87 C 47.38 61.83 49.74 62.79 52.13 63.63 C 51.73 64.71 51.32 65.79 50.91 66.88 C 48.22 66.05 45.43 65.65 42.68 65.09 L 41.98 64.88 C 37.89 73.40 34.63 82.28 30.92 90.96 C 28.24 97.66 25.22 104.21 22.98 111.07 C 26.21 109.12 29.29 106.92 32.22 104.55 C 39.06 99.25 46.14 94.26 52.92 88.89 C 55.77 86.61 58.82 84.58 62.09 82.97 C 65.07 82.18 68.09 81.39 70.75 79.79 C 66.75 84.17 61.58 87.19 56.97 90.86 C 50.93 95.57 44.58 99.87 38.41 104.40 C 31.54 109.35 24.91 114.64 17.74 119.16 C 16.64 115.04 19.22 111.34 20.64 107.67 C 26.74 93.04 32.77 78.38 38.76 63.71 C 40.36 59.92 43.46 57.13 46.18 54.17 Z" />
<path fill="#4c4c4c" opacity="1.00" d=" M 146.57 71.57 C 148.01 70.67 149.38 69.66 150.77 68.67 C 151.29 84.70 151.57 100.75 151.84 116.79 C 151.68 124.41 152.15 132.03 152.18 139.65 C 146.74 135.08 140.31 131.78 135.35 126.64 C 131.12 122.33 127.51 117.45 123.64 112.83 C 124.16 111.91 124.68 110.99 125.17 110.06 C 129.79 112.64 132.37 117.41 135.71 121.31 C 139.75 126.07 143.31 131.27 147.97 135.48 C 148.29 126.32 147.63 117.16 147.70 107.99 C 147.78 95.84 147.33 83.70 146.57 71.57 Z" />
<path fill="#4c4c4c" opacity="1.00" d=" M 118.64 77.62 C 121.48 75.82 124.82 75.24 128.13 75.15 C 127.74 85.74 126.91 96.32 126.00 106.87 C 125.02 106.51 124.04 106.17 123.05 105.85 L 123.05 104.96 C 122.89 98.32 123.47 91.70 123.76 85.08 C 118.18 87.45 112.89 90.45 107.17 92.49 C 105.24 90.81 103.40 89.03 101.68 87.14 C 107.17 83.69 113.06 80.93 118.64 77.62 Z" />
<path fill="#4c4c4c" opacity="1.00" d=" M 69.17 83.89 C 72.51 85.06 75.62 86.79 78.46 88.89 C 77.62 89.75 76.80 90.62 75.93 91.45 C 72.26 94.22 68.26 96.52 64.36 98.95 C 63.08 99.70 61.77 100.40 60.44 101.05 C 59.34 101.56 58.23 102.04 57.12 102.51 C 48.38 106.31 39.61 110.06 30.80 113.70 C 30.34 113.76 29.42 113.87 28.96 113.93 C 35.55 106.05 46.03 104.06 54.88 99.82 C 58.21 98.61 58.45 94.70 59.45 91.83 C 60.53 91.18 61.61 90.54 62.69 89.90 C 62.54 91.72 62.38 93.55 62.24 95.37 C 65.83 93.74 69.20 91.66 72.30 89.22 C 71.15 87.51 70.27 85.64 69.17 83.89 Z" />
<path fill="#4c4c4c" opacity="1.00" d=" M 95.65 89.79 C 103.82 94.79 110.32 102.04 117.90 107.86 C 114.59 106.45 111.18 105.28 107.80 104.06 C 103.14 100.71 98.58 97.22 94.03 93.73 C 94.58 92.41 95.11 91.10 95.65 89.79 Z" />
<path fill="#4c4c4c" opacity="1.00" d=" M 87.92 100.50 C 89.72 100.44 91.52 100.38 93.32 100.29 C 94.97 106.67 91.65 113.00 91.64 119.42 C 98.00 117.84 103.89 114.89 110.14 112.95 C 110.59 114.17 111.03 115.40 111.46 116.63 C 105.42 118.91 99.23 120.81 93.23 123.20 C 89.73 124.21 89.05 128.10 88.03 131.08 C 86.08 138.15 83.45 145.02 81.67 152.15 C 93.52 150.74 105.06 147.59 116.83 145.69 C 125.79 144.02 134.86 142.83 143.67 140.45 C 145.44 142.01 147.33 143.45 149.30 144.74 C 139.11 147.12 128.67 148.19 118.42 150.30 C 105.46 152.49 92.43 154.33 79.57 157.09 C 79.37 154.05 79.11 151.01 79.06 147.96 C 80.93 139.28 82.15 130.47 84.18 121.82 C 86.05 122.87 88.03 123.71 90.03 124.49 C 90.01 123.27 89.99 122.06 89.99 120.85 L 89.55 120.39 C 88.19 119.04 86.79 117.74 85.34 116.50 C 86.00 111.14 86.95 105.82 87.92 100.50 Z" />
<path fill="#4c4c4c" opacity="1.00" d=" M 115.49 110.90 C 117.19 110.25 118.89 109.52 120.71 109.25 C 121.93 110.28 122.14 111.94 122.64 113.36 C 119.95 113.78 117.45 112.69 115.49 110.90 Z" />
</g>
<g id="#707070ff">
<path fill="#707070" opacity="1.00" d=" M 60.53 45.44 C 62.70 43.90 64.08 46.88 65.43 48.12 C 67.03 50.56 70.20 49.87 72.70 49.98 C 73.21 52.37 73.75 54.76 74.31 57.14 C 73.98 58.18 73.64 59.21 73.29 60.25 C 70.65 58.27 68.27 55.55 65.00 54.66 C 59.78 55.43 54.65 57.25 49.28 56.50 C 52.80 52.61 55.96 48.18 60.53 45.44 Z" />
<path fill="#707070" opacity="1.00" d=" M 79.68 59.66 C 83.67 58.26 87.77 57.22 91.93 56.47 C 90.86 62.74 89.38 68.94 88.23 75.19 C 87.50 71.14 87.37 66.63 84.93 63.17 C 82.86 62.78 80.76 63.05 78.68 63.13 C 78.99 61.97 79.32 60.81 79.68 59.66 Z" />
<path fill="#707070" opacity="1.00" d=" M 42.68 65.09 C 45.43 65.65 48.22 66.05 50.91 66.88 C 52.30 67.40 53.66 68.00 55.04 68.54 C 56.50 72.54 60.15 74.80 63.88 76.37 C 63.41 78.27 62.95 80.17 62.41 82.05 C 57.33 75.67 49.85 71.96 44.09 66.29 C 43.74 65.99 43.03 65.39 42.68 65.09 Z" />
<path fill="#707070" opacity="1.00" d=" M 144.20 68.56 C 145.60 68.35 147.01 68.18 148.42 68.03 C 143.10 72.04 136.21 72.82 129.86 74.09 C 129.33 74.00 128.25 73.84 127.72 73.76 C 133.01 71.44 138.57 69.83 144.20 68.56 Z" />
<path fill="#707070" opacity="1.00" d=" M 83.88 96.77 C 87.56 95.61 90.76 97.91 93.32 100.29 C 91.52 100.38 89.72 100.44 87.92 100.50 C 86.56 99.26 85.21 98.02 83.88 96.77 Z" />
</g>
</svg>
