<?xml version="1.0" encoding="UTF-8" ?>
<!DOCTYPE svg PUBLIC "-//W3C//DTD SVG 1.1//EN" "http://www.w3.org/Graphics/SVG/1.1/DTD/svg11.dtd">
<svg width="180pt" height="180pt" viewBox="0 0 180 180" version="1.1" xmlns="http://www.w3.org/2000/svg">
<g id="#ffffffff">
</g>
<g id="#bfbfbfff">
<path fill="#bfbfbf" opacity="1.00" d=" M 88.08 7.69 C 90.42 8.58 92.74 9.68 94.32 11.71 C 108.54 27.80 123.41 43.30 137.96 59.10 C 142.33 64.14 147.67 68.39 151.09 74.21 C 144.72 77.00 137.73 77.75 131.20 80.08 C 131.23 78.71 131.21 77.35 131.21 75.99 C 137.25 75.15 143.26 74.17 149.26 73.06 C 131.12 53.60 112.90 34.22 94.77 14.75 C 93.72 15.03 92.68 15.31 91.64 15.61 C 90.98 16.38 90.38 17.21 89.85 18.08 C 86.82 23.84 85.60 30.32 83.23 36.35 C 81.50 41.21 79.02 45.83 77.89 50.90 C 77.18 53.84 78.86 56.59 79.96 59.20 C 78.39 60.52 76.83 61.85 75.28 63.20 C 71.98 65.77 70.06 69.56 68.67 73.42 C 75.60 74.43 82.54 75.34 89.52 75.98 C 89.98 76.03 90.90 76.12 91.37 76.17 C 93.64 70.19 94.91 63.89 96.83 57.80 C 98.29 52.74 100.41 47.44 98.92 42.13 C 97.02 34.44 94.77 26.83 92.87 19.13 C 92.75 18.66 92.49 17.73 92.37 17.26 C 106.62 30.80 119.49 45.71 133.26 59.74 C 137.20 63.72 140.99 67.86 144.63 72.12 C 139.99 73.10 135.37 74.47 130.60 74.65 C 128.13 74.84 126.24 72.98 124.55 71.46 C 116.85 63.91 109.82 55.70 101.75 48.53 C 100.79 51.19 99.84 53.85 98.89 56.51 C 100.79 56.17 102.68 55.83 104.58 55.49 C 105.44 56.35 106.29 57.22 107.14 58.09 C 104.31 60.61 100.96 62.48 97.21 63.17 C 98.02 69.17 97.55 75.34 96.59 81.29 C 98.51 77.53 100.02 73.23 103.59 70.67 C 106.67 68.36 109.99 66.40 113.18 64.25 C 114.48 65.49 115.77 66.73 117.06 67.97 C 111.12 71.92 104.05 74.44 99.50 80.20 C 106.16 79.42 111.13 74.73 116.96 71.99 C 120.48 70.12 122.99 74.27 125.47 76.10 C 118.50 80.08 111.30 83.62 104.42 87.74 C 104.95 88.33 106.02 89.52 106.56 90.12 C 113.75 88.26 119.78 83.57 126.93 81.62 C 121.15 85.44 114.84 88.29 108.67 91.38 C 109.55 92.27 110.41 93.17 111.28 94.07 C 115.34 98.21 119.89 101.82 124.19 105.70 C 125.05 106.46 125.92 107.22 126.78 107.98 C 127.75 100.12 128.89 92.28 129.87 84.42 L 130.81 84.08 C 136.25 82.33 141.52 80.15 146.68 77.71 C 146.98 91.72 145.61 105.68 145.47 119.69 C 145.46 127.63 142.98 136.33 147.70 143.48 C 148.35 137.94 148.50 132.35 149.08 126.80 C 149.68 134.26 149.41 141.74 148.96 149.19 L 148.46 148.71 C 132.28 133.46 114.95 119.48 98.36 104.67 C 89.45 97.25 81.01 89.30 72.01 81.99 C 69.41 79.84 67.39 77.11 65.47 74.36 C 68.92 68.42 70.95 61.81 73.50 55.46 C 79.33 40.09 85.62 24.89 91.20 9.42 C 90.61 9.10 89.43 8.45 88.84 8.13 L 88.08 7.69 M 75.74 79.89 C 77.50 81.59 79.01 85.51 82.01 84.40 C 86.35 87.52 89.58 91.80 92.81 95.99 C 94.61 97.54 96.39 99.12 98.15 100.72 C 102.74 104.65 107.40 108.51 111.62 112.84 C 112.66 113.46 113.74 114.04 114.84 114.57 L 114.25 114.65 C 121.19 119.42 126.13 127.03 134.23 130.01 C 136.47 134.21 139.92 137.59 143.84 140.23 C 141.06 135.01 137.80 130.06 135.10 124.81 C 132.87 120.78 130.97 116.53 128.17 112.86 C 127.12 111.45 125.19 111.39 123.66 110.85 C 120.39 105.86 115.72 101.79 110.85 98.39 C 107.04 91.93 100.42 87.98 95.34 82.64 C 93.22 80.14 89.90 80.12 86.90 80.28 C 83.18 80.07 79.46 79.85 75.74 79.89 Z" />
<path fill="#bfbfbf" opacity="1.00" d=" M 44.89 66.90 C 49.16 70.07 53.18 73.57 57.02 77.25 C 54.40 79.88 51.74 82.49 48.90 84.88 C 41.23 91.25 34.13 98.32 25.87 103.95 C 30.03 94.32 35.29 85.22 39.79 75.75 C 41.27 72.68 43.07 69.78 44.89 66.90 Z" />
<path fill="#bfbfbf" opacity="1.00" d=" M 34.66 101.67 C 43.81 94.05 53.10 86.58 61.98 78.64 C 62.49 78.92 63.52 79.48 64.04 79.76 C 62.60 84.33 61.44 89.04 59.29 93.34 C 57.50 97.15 53.02 98.12 49.48 99.58 C 41.57 102.72 32.44 104.31 26.64 111.11 C 37.57 108.53 47.78 103.64 58.21 99.60 C 62.76 102.70 66.49 106.79 70.82 110.17 C 75.22 113.32 79.85 116.25 83.51 120.30 C 80.66 131.24 78.54 142.37 74.93 153.10 C 63.93 146.31 53.96 138.05 43.20 130.90 C 35.76 126.04 29.32 119.43 20.78 116.44 C 19.71 116.04 18.63 115.69 17.55 115.34 C 23.61 111.25 28.99 106.26 34.66 101.67 Z" />
<path fill="#bfbfbf" opacity="1.00" d=" M 61.37 98.04 C 65.39 95.76 69.22 93.15 73.12 90.67 C 78.40 94.88 83.56 99.35 87.52 104.88 C 86.62 108.05 85.24 111.26 85.51 114.61 C 86.50 116.66 88.14 118.25 89.52 120.02 C 83.85 119.10 80.40 114.20 76.18 110.83 C 71.17 106.65 65.69 102.98 61.37 98.04 Z" />
<path fill="#bfbfbf" opacity="1.00" d=" M 92.83 122.89 C 97.87 120.67 103.28 119.48 108.42 117.56 C 113.42 121.54 118.28 125.69 122.96 130.05 C 127.91 134.63 133.40 138.57 138.36 143.13 C 136.90 143.78 135.44 144.44 133.94 145.03 C 115.60 147.44 97.22 149.69 78.83 151.69 C 81.51 144.27 84.77 137.09 87.67 129.76 C 88.82 127.14 89.93 124.02 92.83 122.89 Z" />
</g>
<g id="#383838ff">
<path fill="#383838" opacity="1.00" d=" M 88.84 8.13 C 89.43 8.45 90.61 9.10 91.20 9.42 C 85.62 24.89 79.33 40.09 73.50 55.46 C 70.95 61.81 68.92 68.42 65.47 74.36 C 64.43 75.89 63.25 77.31 61.98 78.64 C 53.10 86.58 43.81 94.05 34.66 101.67 C 28.99 106.26 23.61 111.25 17.55 115.34 C 17.72 112.66 18.41 110.03 19.73 107.69 C 26.78 94.33 33.62 80.87 40.33 67.34 C 41.63 64.74 43.17 62.25 45.02 60.01 C 59.68 42.76 74.27 25.46 88.84 8.13 M 60.27 49.58 C 58.23 50.43 56.63 52.02 54.92 53.37 L 55.52 53.85 C 53.33 56.63 51.10 59.36 48.91 62.13 C 53.87 64.12 59.04 65.49 64.24 66.69 C 65.90 63.65 67.22 60.41 67.87 57.00 C 68.48 55.63 69.08 54.26 69.70 52.90 C 66.37 52.34 63.47 50.42 60.27 49.58 M 44.89 66.90 C 43.07 69.78 41.27 72.68 39.79 75.75 C 35.29 85.22 30.03 94.32 25.87 103.95 C 34.13 98.32 41.23 91.25 48.90 84.88 C 51.74 82.49 54.40 79.88 57.02 77.25 C 53.18 73.57 49.16 70.07 44.89 66.90 M 51.67 68.58 C 53.77 71.21 56.03 73.68 58.35 76.11 C 60.37 74.67 62.05 72.82 63.34 70.71 C 59.58 69.42 55.65 68.69 51.67 68.58 Z" />
<path fill="#383838" opacity="1.00" d=" M 89.85 18.08 C 90.38 17.21 90.98 16.38 91.64 15.61 C 92.07 16.77 92.49 17.95 92.87 19.13 C 94.77 26.83 97.02 34.44 98.92 42.13 C 100.41 47.44 98.29 52.74 96.83 57.80 C 94.91 63.89 93.64 70.19 91.37 76.17 C 90.90 76.12 89.98 76.03 89.52 75.98 C 87.98 71.89 89.15 67.53 90.01 63.43 C 85.11 63.11 80.19 62.75 75.28 63.20 C 76.83 61.85 78.39 60.52 79.96 59.20 C 84.64 55.13 89.85 51.65 94.15 47.15 C 96.24 45.33 95.68 42.39 95.19 40.00 C 93.55 32.66 90.73 25.59 89.85 18.08 Z" />
<path fill="#383838" opacity="1.00" d=" M 131.20 80.08 C 137.73 77.75 144.72 77.00 151.09 74.21 C 150.08 83.10 150.74 92.08 149.98 100.99 C 149.27 109.58 149.85 118.22 149.08 126.80 C 148.50 132.35 148.35 137.94 147.70 143.48 C 142.98 136.33 145.46 127.63 145.47 119.69 C 145.61 105.68 146.98 91.72 146.68 77.71 C 141.52 80.15 136.25 82.33 130.81 84.08 C 130.99 82.75 131.12 81.41 131.20 80.08 Z" />
<path fill="#383838" opacity="1.00" d=" M 125.47 76.10 C 127.02 76.28 128.58 76.44 130.13 76.60 C 130.09 79.21 130.03 81.82 129.87 84.42 C 128.89 92.28 127.75 100.12 126.78 107.98 C 125.92 107.22 125.05 106.46 124.19 105.70 C 124.55 99.76 124.87 93.81 125.07 87.86 C 125.82 88.49 126.55 89.12 127.29 89.76 C 127.05 87.06 127.01 84.34 126.93 81.62 C 119.78 83.57 113.75 88.26 106.56 90.12 C 106.02 89.52 104.95 88.33 104.42 87.74 C 111.30 83.62 118.50 80.08 125.47 76.10 Z" />
<path fill="#383838" opacity="1.00" d=" M 59.29 93.34 C 61.44 89.04 62.60 84.33 64.04 79.76 C 64.98 80.27 65.92 80.78 66.86 81.29 C 65.50 85.24 64.17 89.21 63.05 93.23 C 64.84 91.84 66.91 90.65 68.20 88.73 C 68.49 86.82 68.21 84.89 68.07 82.98 C 70.21 84.72 72.41 86.40 74.63 88.05 C 74.13 88.92 73.62 89.79 73.12 90.67 C 69.22 93.15 65.39 95.76 61.37 98.04 C 60.33 98.59 59.28 99.10 58.21 99.60 C 47.78 103.64 37.57 108.53 26.64 111.11 C 32.44 104.31 41.57 102.72 49.48 99.58 C 53.02 98.12 57.50 97.15 59.29 93.34 Z" />
<path fill="#383838" opacity="1.00" d=" M 75.74 79.89 C 79.46 79.85 83.18 80.07 86.90 80.28 C 85.33 81.72 83.74 83.14 82.01 84.40 C 79.01 85.51 77.50 81.59 75.74 79.89 Z" />
<path fill="#383838" opacity="1.00" d=" M 92.81 95.99 C 94.94 94.02 97.05 92.05 99.17 90.08 C 101.56 92.16 103.99 94.21 106.66 95.94 C 103.87 97.62 101.03 99.20 98.15 100.72 C 96.39 99.12 94.61 97.54 92.81 95.99 Z" />
<path fill="#383838" opacity="1.00" d=" M 87.52 104.88 C 87.95 103.54 88.41 102.20 88.86 100.87 C 90.68 102.35 92.67 103.69 94.17 105.51 C 94.00 110.12 92.35 114.52 91.43 119.01 C 95.35 117.73 99.18 116.05 103.28 115.38 C 105.29 114.92 106.85 116.60 108.42 117.56 C 103.28 119.48 97.87 120.67 92.83 122.89 C 89.93 124.02 88.82 127.14 87.67 129.76 C 84.77 137.09 81.51 144.27 78.83 151.69 C 97.22 149.69 115.60 147.44 133.94 145.03 C 137.91 144.45 142.02 145.15 144.68 148.38 C 142.67 148.89 140.67 149.39 138.64 149.80 C 122.32 151.55 105.96 153.12 89.62 154.85 C 85.20 155.31 80.73 156.20 76.28 155.62 C 73.73 154.77 71.63 153.01 69.46 151.50 C 53.35 139.66 36.75 128.47 20.78 116.44 C 29.32 119.43 35.76 126.04 43.20 130.90 C 53.96 138.05 63.93 146.31 74.93 153.10 C 78.54 142.37 80.66 131.24 83.51 120.30 C 84.69 121.53 85.83 122.78 86.97 124.05 C 87.93 122.88 89.10 121.96 90.36 121.15 C 90.15 120.87 89.73 120.30 89.52 120.02 C 88.14 118.25 86.50 116.66 85.51 114.61 C 85.24 111.26 86.62 108.05 87.52 104.88 Z" />
<path fill="#383838" opacity="1.00" d=" M 111.62 112.84 C 114.77 111.62 117.96 110.47 121.15 109.32 C 121.60 110.52 122.05 111.72 122.51 112.92 C 119.98 113.60 117.44 114.25 114.84 114.57 C 113.74 114.04 112.66 113.46 111.62 112.84 Z" />
<path fill="#383838" opacity="1.00" d=" M 123.66 110.85 C 125.19 111.39 127.12 111.45 128.17 112.86 C 130.97 116.53 132.87 120.78 135.10 124.81 C 137.80 130.06 141.06 135.01 143.84 140.23 C 139.92 137.59 136.47 134.21 134.23 130.01 C 130.98 124.13 127.29 118.48 124.46 112.37 C 124.26 111.99 123.86 111.23 123.66 110.85 Z" />
</g>
<g id="#8f8f8fff">
<path fill="#8f8f8f" opacity="1.00" d=" M 91.64 15.61 C 92.68 15.31 93.72 15.03 94.77 14.75 C 112.90 34.22 131.12 53.60 149.26 73.06 C 143.26 74.17 137.25 75.15 131.21 75.99 C 131.21 77.35 131.23 78.71 131.20 80.08 C 131.12 81.41 130.99 82.75 130.81 84.08 L 129.87 84.42 C 130.03 81.82 130.09 79.21 130.13 76.60 C 128.58 76.44 127.02 76.28 125.47 76.10 C 122.99 74.27 120.48 70.12 116.96 71.99 C 111.13 74.73 106.16 79.42 99.50 80.20 C 104.05 74.44 111.12 71.92 117.06 67.97 C 115.77 66.73 114.48 65.49 113.18 64.25 C 109.99 66.40 106.67 68.36 103.59 70.67 C 100.02 73.23 98.51 77.53 96.59 81.29 C 97.55 75.34 98.02 69.17 97.21 63.17 C 100.96 62.48 104.31 60.61 107.14 58.09 C 106.29 57.22 105.44 56.35 104.58 55.49 C 102.68 55.83 100.79 56.17 98.89 56.51 C 99.84 53.85 100.79 51.19 101.75 48.53 C 109.82 55.70 116.85 63.91 124.55 71.46 C 126.24 72.98 128.13 74.84 130.60 74.65 C 135.37 74.47 139.99 73.10 144.63 72.12 C 140.99 67.86 137.20 63.72 133.26 59.74 C 119.49 45.71 106.62 30.80 92.37 17.26 C 92.49 17.73 92.75 18.66 92.87 19.13 C 92.49 17.95 92.07 16.77 91.64 15.61 Z" />
<path fill="#8f8f8f" opacity="1.00" d=" M 83.23 36.35 C 85.60 30.32 86.82 23.84 89.85 18.08 C 90.73 25.59 93.55 32.66 95.19 40.00 C 95.68 42.39 96.24 45.33 94.15 47.15 C 89.85 51.65 84.64 55.13 79.96 59.20 C 78.86 56.59 77.18 53.84 77.89 50.90 C 79.02 45.83 81.50 41.21 83.23 36.35 Z" />
<path fill="#8f8f8f" opacity="1.00" d=" M 55.52 53.85 C 57.27 55.28 59.01 56.73 60.74 58.20 C 63.24 57.29 65.73 56.37 68.21 55.42 C 68.12 55.82 67.95 56.60 67.87 57.00 C 67.22 60.41 65.90 63.65 64.24 66.69 C 59.04 65.49 53.87 64.12 48.91 62.13 C 51.10 59.36 53.33 56.63 55.52 53.85 Z" />
<path fill="#8f8f8f" opacity="1.00" d=" M 51.67 68.58 C 55.65 68.69 59.58 69.42 63.34 70.71 C 62.05 72.82 60.37 74.67 58.35 76.11 C 56.03 73.68 53.77 71.21 51.67 68.58 Z" />
<path fill="#8f8f8f" opacity="1.00" d=" M 61.98 78.64 C 63.25 77.31 64.43 75.89 65.47 74.36 C 67.39 77.11 69.41 79.84 72.01 81.99 C 81.01 89.30 89.45 97.25 98.36 104.67 C 114.95 119.48 132.28 133.46 148.46 148.71 C 145.24 149.44 141.95 149.84 138.64 149.80 C 140.67 149.39 142.67 148.89 144.68 148.38 C 142.02 145.15 137.91 144.45 133.94 145.03 C 135.44 144.44 136.90 143.78 138.36 143.13 C 133.40 138.57 127.91 134.63 122.96 130.05 C 118.28 125.69 113.42 121.54 108.42 117.56 C 106.85 116.60 105.29 114.92 103.28 115.38 C 99.18 116.05 95.35 117.73 91.43 119.01 C 92.35 114.52 94.00 110.12 94.17 105.51 C 92.67 103.69 90.68 102.35 88.86 100.87 C 88.41 102.20 87.95 103.54 87.52 104.88 C 83.56 99.35 78.40 94.88 73.12 90.67 C 73.62 89.79 74.13 88.92 74.63 88.05 C 72.41 86.40 70.21 84.72 68.07 82.98 C 68.21 84.89 68.49 86.82 68.20 88.73 C 66.91 90.65 64.84 91.84 63.05 93.23 C 64.17 89.21 65.50 85.24 66.86 81.29 C 65.92 80.78 64.98 80.27 64.04 79.76 C 63.52 79.48 62.49 78.92 61.98 78.64 Z" />
<path fill="#8f8f8f" opacity="1.00" d=" M 86.90 80.28 C 89.90 80.12 93.22 80.14 95.34 82.64 C 100.42 87.98 107.04 91.93 110.85 98.39 C 109.46 97.56 108.03 96.79 106.66 95.94 C 103.99 94.21 101.56 92.16 99.17 90.08 C 97.05 92.05 94.94 94.02 92.81 95.99 C 89.58 91.80 86.35 87.52 82.01 84.40 C 83.74 83.14 85.33 81.72 86.90 80.28 Z" />
<path fill="#8f8f8f" opacity="1.00" d=" M 58.21 99.60 C 59.28 99.10 60.33 98.59 61.37 98.04 C 65.69 102.98 71.17 106.65 76.18 110.83 C 80.40 114.20 83.85 119.10 89.52 120.02 C 89.73 120.30 90.15 120.87 90.36 121.15 C 89.10 121.96 87.93 122.88 86.97 124.05 C 85.83 122.78 84.69 121.53 83.51 120.30 C 79.85 116.25 75.22 113.32 70.82 110.17 C 66.49 106.79 62.76 102.70 58.21 99.60 Z" />
<path fill="#8f8f8f" opacity="1.00" d=" M 114.84 114.57 C 117.44 114.25 119.98 113.60 122.51 112.92 C 123.00 112.78 123.97 112.51 124.46 112.37 C 127.29 118.48 130.98 124.13 134.23 130.01 C 126.13 127.03 121.19 119.42 114.25 114.65 L 114.84 114.57 Z" />
</g>
<g id="#686868ff">
<path fill="#686868" opacity="1.00" d=" M 60.27 49.58 C 63.47 50.42 66.37 52.34 69.70 52.90 C 69.08 54.26 68.48 55.63 67.87 57.00 C 67.95 56.60 68.12 55.82 68.21 55.42 C 65.73 56.37 63.24 57.29 60.74 58.20 C 59.01 56.73 57.27 55.28 55.52 53.85 L 54.92 53.37 C 56.63 52.02 58.23 50.43 60.27 49.58 Z" />
<path fill="#686868" opacity="1.00" d=" M 75.28 63.20 C 80.19 62.75 85.11 63.11 90.01 63.43 C 89.15 67.53 87.98 71.89 89.52 75.98 C 82.54 75.34 75.60 74.43 68.67 73.42 C 70.06 69.56 71.98 65.77 75.28 63.20 Z" />
<path fill="#686868" opacity="1.00" d=" M 111.28 94.07 C 115.88 92.01 120.49 89.97 125.07 87.86 C 124.87 93.81 124.55 99.76 124.19 105.70 C 119.89 101.82 115.34 98.21 111.28 94.07 Z" />
<path fill="#686868" opacity="1.00" d=" M 106.66 95.94 C 108.03 96.79 109.46 97.56 110.85 98.39 C 115.72 101.79 120.39 105.86 123.66 110.85 C 123.86 111.23 124.26 111.99 124.46 112.37 C 123.97 112.51 123.00 112.78 122.51 112.92 C 122.05 111.72 121.60 110.52 121.15 109.32 C 117.96 110.47 114.77 111.62 111.62 112.84 C 107.40 108.51 102.74 104.65 98.15 100.72 C 101.03 99.20 103.87 97.62 106.66 95.94 Z" />
</g>
<g id="#0b0b0bff">
<path fill="#0b0b0b" opacity="1.00" d=" M 126.93 81.62 C 127.01 84.34 127.05 87.06 127.29 89.76 C 126.55 89.12 125.82 88.49 125.07 87.86 C 120.49 89.97 115.88 92.01 111.28 94.07 C 110.41 93.17 109.55 92.27 108.67 91.38 C 114.84 88.29 121.15 85.44 126.93 81.62 Z" />
</g>
</svg>
